<svg width="455" height="348" viewBox="0 0 455 348" fill="none" xmlns="http://www.w3.org/2000/svg">
<g clip-path="url(#clip0_577_838)">
<path d="M227.5 347.885C353.145 347.885 455 337.779 455 325.313C455 312.847 353.145 302.741 227.5 302.741C101.855 302.741 0 312.847 0 325.313C0 337.779 101.855 347.885 227.5 347.885Z" fill="url(#paint0_radial_577_838)"/>
<path d="M201.862 147.812H186.609L206.698 324.569H221.951L201.862 147.812Z" fill="#1A2E35"/>
<path opacity="0.3" d="M211.543 324.569H221.953L217.148 282.319L211.543 307.856V324.569Z" fill="white"/>
<path d="M153.039 106.666H171.84L147.081 324.569H128.273L153.039 106.666Z" fill="#1A2E35"/>
<path d="M254.264 147.812H239.012L259.101 324.569H274.353L254.264 147.812Z" fill="#1A2E35"/>
<path opacity="0.3" d="M263.941 324.569H274.351L269.547 282.319L263.941 307.856V324.569Z" fill="white"/>
<path d="M202.319 0.115234C166.055 0.115234 143.435 62.96 151.821 140.483C160.206 218.005 196.355 280.844 232.619 280.844H252.317L222.01 0.115234H202.319Z" fill="#D32C3D"/>
<path opacity="0.3" d="M202.319 0.115234C166.055 0.115234 143.435 62.96 151.821 140.483C160.206 218.005 196.355 280.844 232.619 280.844H252.317L222.01 0.115234H202.319Z" fill="#3F2023"/>
<path d="M256.426 280.57C292.083 275.645 312.359 208.935 301.712 131.57C291.066 54.2047 253.529 -4.51937 217.872 0.406014C182.215 5.3314 161.939 72.0411 172.586 149.406C183.232 226.771 220.769 285.495 256.426 280.57Z" fill="#D32C3D"/>
<path d="M252.57 252.551C281.095 248.611 297.315 195.245 288.798 133.354C280.281 71.4631 250.252 24.485 221.727 28.4252C193.202 32.3654 176.983 85.7319 185.499 147.623C194.016 209.513 224.045 256.491 252.57 252.551Z" fill="#F5F5F5"/>
<path d="M248.716 224.538C270.109 221.583 282.273 181.557 275.885 135.137C269.497 88.7176 246.976 53.4825 225.583 56.4375C204.19 59.3926 192.026 99.4188 198.414 145.839C204.802 192.258 227.323 227.494 248.716 224.538Z" fill="#D32C3D"/>
<path d="M244.859 196.52C259.123 194.549 267.234 167.866 262.976 136.921C258.717 105.975 243.701 82.4864 229.437 84.4568C215.173 86.4271 207.062 113.111 211.32 144.056C215.579 175.001 230.594 198.49 244.859 196.52Z" fill="#F5F5F5"/>
<path d="M241.004 168.507C248.137 167.522 252.192 154.179 250.062 138.704C247.933 123.23 240.425 111.484 233.293 112.469C226.161 113.454 222.105 126.797 224.235 142.272C226.364 157.746 233.872 169.492 241.004 168.507Z" fill="#D32C3D"/>
<path d="M237.942 142.817C237.784 142.805 237.632 142.754 237.499 142.669C237.367 142.583 237.257 142.466 237.182 142.328C237.123 142.22 237.086 142.102 237.073 141.98C237.06 141.857 237.072 141.734 237.107 141.616C237.142 141.498 237.2 141.389 237.278 141.294C237.356 141.199 237.452 141.12 237.561 141.061L388.026 59.7169C388.246 59.5984 388.504 59.5718 388.744 59.6428C388.983 59.7139 389.185 59.8768 389.304 60.0957C389.423 60.3147 389.45 60.5717 389.379 60.8103C389.308 61.0489 389.144 61.2495 388.924 61.368L238.459 142.713C238.301 142.797 238.121 142.833 237.942 142.817Z" fill="#80BFD6"/>
<path d="M364.563 64.9006L358.242 77.5796L377.767 66.9034L384.006 54.4013L364.563 64.9006Z" fill="#80BFD6"/>
<path d="M360.121 76.5731C359.966 76.5618 359.816 76.5142 359.684 76.4344C359.552 76.3545 359.442 76.245 359.364 76.1153C359.287 75.9857 359.243 75.84 359.238 75.6909C359.233 75.5419 359.266 75.3941 359.334 75.2606L365.647 63.0096C365.734 62.8427 365.873 62.7062 366.045 62.6187L385.541 52.5116C385.718 52.4198 385.92 52.3846 386.12 52.4112C386.319 52.4377 386.505 52.5246 386.65 52.6592C386.795 52.7944 386.891 52.9695 386.926 53.1597C386.961 53.3499 386.932 53.5453 386.844 53.7182L380.619 65.7987C380.532 65.9627 380.395 66.0972 380.227 66.1846L360.644 76.4457C360.487 76.5374 360.305 76.5818 360.121 76.5731ZM367.213 64.0863L362.374 73.4824L379.043 64.6937L383.814 55.4418L367.213 64.0863Z" fill="#80BFD6"/>
<path d="M372.491 78.6237L358.285 77.0106L377.975 66.9936L391.992 68.5819L372.491 78.6237Z" fill="#80BFD6"/>
<path d="M374.394 77.618L374.353 77.615L360.092 76.0105C359.898 75.9811 359.717 75.8945 359.575 75.7626C359.433 75.6306 359.337 75.4597 359.299 75.2734C359.261 75.087 359.284 74.8942 359.364 74.7215C359.445 74.5487 359.578 74.4044 359.747 74.3083L379.524 64.1037C379.695 64.0151 379.89 63.9788 380.083 63.9993L394.154 65.5899C394.355 65.6125 394.544 65.6968 394.693 65.8305C394.842 65.9641 394.943 66.1401 394.98 66.3324C395.021 66.5237 394.997 66.7222 394.91 66.8982C394.824 67.0743 394.681 67.2185 394.503 67.3092L374.916 77.5389C374.753 77.6128 374.572 77.6402 374.394 77.618ZM363.327 74.5149L374.252 75.7574L390.933 67.0475L380.169 65.8223L363.327 74.5149Z" fill="#80BFD6"/>
<path d="M236.635 142.024C236.581 141.862 236.56 141.685 236.575 141.51C236.605 141.232 236.725 140.979 236.909 140.805C237.092 140.631 237.325 140.55 237.557 140.58L411.835 163.77C412.055 163.816 412.252 163.961 412.384 164.176C412.517 164.39 412.576 164.658 412.549 164.925C412.522 165.192 412.412 165.438 412.24 165.613C412.068 165.788 411.848 165.879 411.625 165.867L237.348 142.684C237.19 142.662 237.04 142.589 236.914 142.473C236.789 142.357 236.692 142.202 236.635 142.024Z" fill="#80BFD6"/>
<path d="M393.811 153.22L382.098 160.869L402.756 163.495L414.311 155.943L393.811 153.22Z" fill="#80BFD6"/>
<path d="M382.277 164.268C382.253 164.211 382.233 164.151 382.219 164.09C382.182 163.87 382.206 163.641 382.287 163.437C382.367 163.233 382.5 163.065 382.666 162.958L394.382 155.301C394.545 155.192 394.732 155.148 394.917 155.172L415.413 157.904C415.6 157.927 415.775 158.021 415.912 158.172C416.05 158.323 416.143 158.524 416.177 158.744C416.211 158.965 416.186 159.194 416.104 159.397C416.022 159.601 415.888 159.768 415.721 159.875L404.167 167.426C404.004 167.536 403.816 167.581 403.632 167.554L382.976 164.934C382.82 164.907 382.673 164.831 382.551 164.714C382.428 164.597 382.334 164.443 382.277 164.268ZM394.956 157.308L385.967 163.184L403.559 165.422L412.456 159.617L394.956 157.308Z" fill="#80BFD6"/>
<path d="M391.956 171.393L382.103 160.869L402.733 163.742L412.457 174.122L391.956 171.393Z" fill="#80BFD6"/>
<path d="M382.283 164.269C382.239 164.138 382.219 163.998 382.222 163.857C382.225 163.716 382.252 163.576 382.301 163.448C382.38 163.241 382.511 163.07 382.675 162.958C382.84 162.846 383.03 162.8 383.217 162.826L403.85 165.691C404.028 165.719 404.195 165.811 404.329 165.954L414.048 176.336C414.186 176.485 414.28 176.683 414.317 176.902C414.354 177.121 414.332 177.348 414.254 177.553C414.176 177.757 414.047 177.927 413.884 178.039C413.721 178.151 413.534 178.198 413.349 178.175L392.827 175.456C392.647 175.431 392.477 175.343 392.34 175.203L382.487 164.679C382.395 164.561 382.326 164.422 382.283 164.269ZM403.351 167.756L385.777 165.31L393.34 173.384L410.799 175.706L403.351 167.756Z" fill="#80BFD6"/>
<path d="M236.896 141.828C236.794 141.759 236.708 141.671 236.642 141.567C236.577 141.464 236.533 141.347 236.515 141.226C236.499 141.107 236.506 140.985 236.536 140.869C236.566 140.752 236.619 140.642 236.692 140.546C236.764 140.45 236.855 140.369 236.959 140.308C237.062 140.247 237.177 140.207 237.296 140.191L402.352 117.256C402.593 117.223 402.837 117.286 403.031 117.433C403.225 117.58 403.352 117.798 403.386 118.039C403.419 118.28 403.356 118.525 403.21 118.719C403.063 118.913 402.846 119.041 402.605 119.075L237.559 141.982C237.326 142.02 237.088 141.964 236.896 141.828Z" fill="#80BFD6"/>
<path d="M381.838 112.998L371.733 122.434L393.159 119.354L403.124 110.044L381.838 112.998Z" fill="#80BFD6"/>
<path d="M371.205 123.168C371.077 123.076 370.974 122.952 370.905 122.81C370.82 122.633 370.794 122.433 370.831 122.241C370.867 122.048 370.964 121.872 371.108 121.739L381.207 112.303C381.345 112.174 381.52 112.09 381.707 112.063L402.994 109.11C403.186 109.083 403.382 109.118 403.554 109.21C403.725 109.303 403.863 109.447 403.947 109.623C404.031 109.799 404.057 109.997 404.021 110.188C403.985 110.38 403.889 110.555 403.747 110.688L393.778 120.024C393.645 120.154 393.474 120.237 393.291 120.263L371.865 123.343C371.631 123.37 371.395 123.308 371.205 123.168ZM382.246 113.841L374.495 121.088L392.736 118.461L400.366 111.332L382.246 113.841Z" fill="#80BFD6"/>
<path d="M384.023 128.766L371.731 122.434L393.188 119.563L405.309 125.813L384.023 128.766Z" fill="#80BFD6"/>
<path d="M371.203 123.168C371.053 123.061 370.937 122.911 370.872 122.738C370.807 122.564 370.796 122.375 370.839 122.196C370.883 122.016 370.979 121.853 371.116 121.729C371.253 121.604 371.424 121.524 371.607 121.498L393.057 118.629C393.243 118.603 393.433 118.638 393.598 118.726L405.724 124.969C405.899 125.057 406.04 125.2 406.128 125.375C406.216 125.549 406.245 125.748 406.213 125.941C406.18 126.134 406.086 126.311 405.946 126.447C405.805 126.583 405.625 126.67 405.431 126.696L384.145 129.65C383.96 129.676 383.772 129.644 383.605 129.558L371.31 123.252L371.203 123.168ZM393.018 120.488L374.749 122.931L384.184 127.791L402.309 125.274L393.018 120.488Z" fill="#80BFD6"/>
</g>
<defs>
<radialGradient id="paint0_radial_577_838" cx="0" cy="0" r="1" gradientUnits="userSpaceOnUse" gradientTransform="translate(227.5 325.313) rotate(90) scale(22.572 227.5)">
<stop stop-color="#FF000F"/>
<stop offset="1" stop-color="#2176F5"/>
</radialGradient>
<clipPath id="clip0_577_838">
<rect width="455" height="347.771" fill="white" transform="translate(0 0.115234)"/>
</clipPath>
</defs>
</svg>
