<svg width="350" height="321" viewBox="0 0 350 321" fill="none" xmlns="http://www.w3.org/2000/svg">
<path d="M130.548 259.874L121.348 287.96" stroke="url(#paint0_linear_468_676)" stroke-width="2" stroke-miterlimit="10" stroke-linecap="round" stroke-linejoin="round"/>
<path d="M209.474 287.96L200.758 259.874" stroke="url(#paint1_linear_468_676)" stroke-width="2" stroke-miterlimit="10" stroke-linecap="round" stroke-linejoin="round"/>
<path d="M147.636 24.5576C149.06 24.3541 150.201 24.7669 150.927 25.4473C151.65 26.1256 152.022 27.1219 151.835 28.2461L151.821 28.3271V28.4102C151.821 30.6419 149.978 32.2528 147.495 32.2529C145.206 32.2529 143.652 30.3452 143.652 28.4102C143.652 27.5248 144.105 26.5557 144.873 25.7881C145.641 25.0206 146.61 24.5674 147.495 24.5674H147.565L147.636 24.5576Z" fill="url(#paint2_linear_468_676)" stroke="url(#paint3_linear_468_676)" stroke-width="2"/>
<path d="M172.358 24.5547C174.554 24.1887 176.52 26.0167 176.521 28.4102C176.521 30.6419 174.677 32.2528 172.194 32.2529C171.309 32.2529 170.34 31.7997 169.572 31.0322C168.805 30.2646 168.352 29.2955 168.352 28.4102C168.352 27.5248 168.805 26.5557 169.572 25.7881C170.34 25.0206 171.309 24.5674 172.194 24.5674H172.276L172.358 24.5547Z" fill="url(#paint4_linear_468_676)" stroke="url(#paint5_linear_468_676)" stroke-width="2"/>
<path d="M196.989 24.0869C198.891 24.1373 200.735 25.6764 200.735 27.9277C200.735 29.1452 200.335 30.1066 199.673 30.8164C199.017 31.5193 198.049 32.0307 196.812 32.252C195.626 32.2344 194.71 31.8353 194.09 31.2148C193.455 30.5802 193.051 29.6366 193.051 28.4111C193.051 27.528 193.502 26.5505 194.294 25.7061C195.055 24.894 196.043 24.3022 196.989 24.0869Z" fill="url(#paint6_linear_468_676)" stroke="url(#paint7_linear_468_676)" stroke-width="2"/>
<path d="M298.577 287.024C299.802 287.024 300.746 287.429 301.381 288.063C302.015 288.698 302.419 289.642 302.419 290.867C302.419 293.156 300.512 294.709 298.577 294.709C296.288 294.709 294.735 292.802 294.734 290.867C294.734 289.982 295.187 289.013 295.955 288.245C296.723 287.478 297.692 287.024 298.577 287.024Z" fill="url(#paint8_linear_468_676)" stroke="url(#paint9_linear_468_676)" stroke-width="2"/>
<path d="M31.7539 27.4414H89.8626" stroke="url(#paint10_linear_468_676)" stroke-width="2" stroke-miterlimit="10" stroke-linecap="round" stroke-linejoin="round"/>
<path d="M152.809 140.443H201.717" stroke="url(#paint11_linear_468_676)" stroke-width="2" stroke-miterlimit="10" stroke-linecap="round" stroke-linejoin="round"/>
<path d="M112.629 139.957H133.935" stroke="url(#paint12_linear_468_676)" stroke-width="2" stroke-miterlimit="10" stroke-linecap="round" stroke-linejoin="round"/>
<path d="M279.285 256.003H329.162" stroke="url(#paint13_linear_468_676)" stroke-width="1.6" stroke-miterlimit="10" stroke-linecap="round" stroke-linejoin="round"/>
<path d="M273.957 267.141H321.412" stroke="url(#paint14_linear_468_676)" stroke-width="1.6" stroke-miterlimit="10" stroke-linecap="round" stroke-linejoin="round"/>
<path d="M318.437 236.631H277.76C275.339 236.631 273.402 234.694 273.402 232.272V212.419C273.402 209.998 275.339 208.061 277.76 208.061H318.437C320.858 208.061 322.795 209.998 322.795 212.419V232.272C322.795 234.694 320.858 236.631 318.437 236.631Z" stroke="url(#paint15_linear_468_676)" stroke-width="1.6" stroke-miterlimit="10" stroke-linecap="round" stroke-linejoin="round"/>
<path d="M86.4855 156.249H39.5143C37.0931 156.249 34.6719 154.312 34.6719 151.407V81.192C34.6719 78.7708 36.6088 76.3496 39.5143 76.3496H86.4855C88.9066 76.3496 91.3278 78.2866 91.3278 81.192V151.407C91.3278 154.312 88.9066 156.249 86.4855 156.249Z" stroke="url(#paint16_linear_468_676)" stroke-width="2" stroke-miterlimit="10" stroke-linecap="round" stroke-linejoin="round"/>
<path d="M193.002 105.404H121.819C119.398 105.404 117.461 103.467 117.461 101.046V81.6765C117.461 79.2553 119.398 77.3184 121.819 77.3184H193.002C195.423 77.3184 197.36 79.2553 197.36 81.6765V101.046C197.36 102.983 195.423 105.404 193.002 105.404Z" stroke="url(#paint17_linear_468_676)" stroke-width="2" stroke-miterlimit="10" stroke-linecap="round" stroke-linejoin="round"/>
<path d="M107.301 51.168H9" stroke="url(#paint18_linear_468_676)" stroke-width="2" stroke-miterlimit="10" stroke-linecap="round" stroke-linejoin="round"/>
<path d="M125.703 51.168H223.519" stroke="url(#paint19_linear_468_676)" stroke-width="2" stroke-miterlimit="10" stroke-linecap="round" stroke-linejoin="round"/>
<path d="M223.512 94.7501C223.512 94.7501 271.451 94.7501 276.294 94.7501C281.136 94.7501 284.526 94.2659 284.526 103.951C284.526 113.635 284.526 192.566 284.526 192.566" stroke="url(#paint20_linear_468_676)" stroke-width="2" stroke-miterlimit="10" stroke-linecap="round" stroke-linejoin="round"/>
<path d="M258.878 234.696H46.2969" stroke="url(#paint21_linear_468_676)" stroke-width="2" stroke-miterlimit="10" stroke-linecap="round" stroke-linejoin="round"/>
<path d="M44.8438 181.914C44.8438 181.914 44.8438 239.054 44.8438 249.223C44.8438 259.392 51.1389 259.877 56.9497 259.877C62.7606 259.877 154.766 259.877 154.766 259.877" stroke="url(#paint22_linear_468_676)" stroke-width="2" stroke-miterlimit="10" stroke-linecap="round" stroke-linejoin="round"/>
<path d="M173.648 259.874H258.875" stroke="url(#paint23_linear_468_676)" stroke-width="2" stroke-miterlimit="10" stroke-linecap="round" stroke-linejoin="round"/>
<path d="M104.884 310.237H225.46C225.46 310.237 234.176 311.205 234.176 303.458C234.176 295.71 234.66 287.962 214.807 287.962C194.953 287.962 119.412 287.962 106.337 287.962C99.0735 287.962 96.6523 293.289 96.6523 301.036C96.6523 308.784 98.1051 310.237 104.884 310.237Z" stroke="url(#paint24_linear_468_676)" stroke-width="2" stroke-miterlimit="10" stroke-linecap="round" stroke-linejoin="round"/>
<path d="M333.027 315.156H271.045C266.686 315.156 262.812 311.282 262.812 306.924V204.75C262.812 200.391 266.686 196.518 271.045 196.518H333.027C337.385 196.518 341.259 200.391 341.259 204.75V306.924C341.259 311.282 337.87 315.156 333.027 315.156Z" stroke="url(#paint25_linear_468_676)" stroke-width="2" stroke-miterlimit="10" stroke-linecap="round" stroke-linejoin="round"/>
<path d="M213.349 181.913H18.6848C13.3582 181.913 9 177.555 9 172.228V14.8508C9 9.52417 13.3582 5.16602 18.6848 5.16602H213.349C218.675 5.16602 223.034 9.52417 223.034 14.8508V171.744C223.518 177.555 219.16 181.913 213.349 181.913Z" stroke="url(#paint26_linear_468_676)" stroke-width="2" stroke-miterlimit="10" stroke-linecap="round" stroke-linejoin="round"/>
<defs>
<linearGradient id="paint0_linear_468_676" x1="125.948" y1="259.874" x2="125.948" y2="287.96" gradientUnits="userSpaceOnUse">
<stop stop-color="#FF000F"/>
<stop offset="1" stop-color="#2176F5"/>
</linearGradient>
<linearGradient id="paint1_linear_468_676" x1="205.116" y1="259.874" x2="205.116" y2="287.96" gradientUnits="userSpaceOnUse">
<stop stop-color="#FF000F"/>
<stop offset="1" stop-color="#2176F5"/>
</linearGradient>
<linearGradient id="paint2_linear_468_676" x1="151.523" y1="23.3199" x2="145.048" y2="32.6246" gradientUnits="userSpaceOnUse">
<stop stop-color="#FF000F"/>
<stop offset="1" stop-color="#2176F5"/>
</linearGradient>
<linearGradient id="paint3_linear_468_676" x1="147.768" y1="23.5059" x2="147.768" y2="33.2526" gradientUnits="userSpaceOnUse">
<stop stop-color="#FF000F"/>
<stop offset="1" stop-color="#2176F5"/>
</linearGradient>
<linearGradient id="paint4_linear_468_676" x1="176.08" y1="23.3195" x2="169.6" y2="32.6314" gradientUnits="userSpaceOnUse">
<stop stop-color="#FF000F"/>
<stop offset="1" stop-color="#2176F5"/>
</linearGradient>
<linearGradient id="paint5_linear_468_676" x1="172.436" y1="23.5059" x2="172.436" y2="33.2526" gradientUnits="userSpaceOnUse">
<stop stop-color="#FF000F"/>
<stop offset="1" stop-color="#2176F5"/>
</linearGradient>
<linearGradient id="paint6_linear_468_676" x1="200.625" y1="23.328" x2="194.141" y2="32.6404" gradientUnits="userSpaceOnUse">
<stop stop-color="#FF000F"/>
<stop offset="1" stop-color="#2176F5"/>
</linearGradient>
<linearGradient id="paint7_linear_468_676" x1="196.893" y1="23.085" x2="196.893" y2="33.254" gradientUnits="userSpaceOnUse">
<stop stop-color="#FF000F"/>
<stop offset="1" stop-color="#2176F5"/>
</linearGradient>
<linearGradient id="paint8_linear_468_676" x1="301.927" y1="286.007" x2="295.475" y2="295.381" gradientUnits="userSpaceOnUse">
<stop stop-color="#FF000F"/>
<stop offset="1" stop-color="#2176F5"/>
</linearGradient>
<linearGradient id="paint9_linear_468_676" x1="298.577" y1="286.024" x2="298.577" y2="295.709" gradientUnits="userSpaceOnUse">
<stop stop-color="#FF000F"/>
<stop offset="1" stop-color="#2176F5"/>
</linearGradient>
<linearGradient id="paint10_linear_468_676" x1="60.8082" y1="27.4414" x2="60.8082" y2="28.4414" gradientUnits="userSpaceOnUse">
<stop stop-color="#FF000F"/>
<stop offset="1" stop-color="#2176F5"/>
</linearGradient>
<linearGradient id="paint11_linear_468_676" x1="177.263" y1="140.443" x2="177.263" y2="141.443" gradientUnits="userSpaceOnUse">
<stop stop-color="#FF000F"/>
<stop offset="1" stop-color="#2176F5"/>
</linearGradient>
<linearGradient id="paint12_linear_468_676" x1="123.282" y1="139.957" x2="123.282" y2="140.957" gradientUnits="userSpaceOnUse">
<stop stop-color="#FF000F"/>
<stop offset="1" stop-color="#2176F5"/>
</linearGradient>
<linearGradient id="paint13_linear_468_676" x1="304.223" y1="256.003" x2="304.223" y2="257.003" gradientUnits="userSpaceOnUse">
<stop stop-color="#FF000F"/>
<stop offset="1" stop-color="#2176F5"/>
</linearGradient>
<linearGradient id="paint14_linear_468_676" x1="297.685" y1="267.141" x2="297.685" y2="268.141" gradientUnits="userSpaceOnUse">
<stop stop-color="#FF000F"/>
<stop offset="1" stop-color="#2176F5"/>
</linearGradient>
<linearGradient id="paint15_linear_468_676" x1="298.099" y1="208.061" x2="298.099" y2="236.631" gradientUnits="userSpaceOnUse">
<stop stop-color="#FF000F"/>
<stop offset="1" stop-color="#2176F5"/>
</linearGradient>
<linearGradient id="paint16_linear_468_676" x1="62.9999" y1="76.3496" x2="62.9999" y2="156.249" gradientUnits="userSpaceOnUse">
<stop stop-color="#FF000F"/>
<stop offset="1" stop-color="#2176F5"/>
</linearGradient>
<linearGradient id="paint17_linear_468_676" x1="157.411" y1="77.3184" x2="157.411" y2="105.404" gradientUnits="userSpaceOnUse">
<stop stop-color="#FF000F"/>
<stop offset="1" stop-color="#2176F5"/>
</linearGradient>
<linearGradient id="paint18_linear_468_676" x1="58.1503" y1="51.168" x2="58.1503" y2="52.168" gradientUnits="userSpaceOnUse">
<stop stop-color="#FF000F"/>
<stop offset="1" stop-color="#2176F5"/>
</linearGradient>
<linearGradient id="paint19_linear_468_676" x1="174.611" y1="51.168" x2="174.611" y2="52.168" gradientUnits="userSpaceOnUse">
<stop stop-color="#FF000F"/>
<stop offset="1" stop-color="#2176F5"/>
</linearGradient>
<linearGradient id="paint20_linear_468_676" x1="254.019" y1="94.7461" x2="254.019" y2="192.566" gradientUnits="userSpaceOnUse">
<stop stop-color="#FF000F"/>
<stop offset="1" stop-color="#2176F5"/>
</linearGradient>
<linearGradient id="paint21_linear_468_676" x1="152.587" y1="234.696" x2="152.587" y2="235.696" gradientUnits="userSpaceOnUse">
<stop stop-color="#FF000F"/>
<stop offset="1" stop-color="#2176F5"/>
</linearGradient>
<linearGradient id="paint22_linear_468_676" x1="99.8049" y1="181.914" x2="99.8049" y2="259.877" gradientUnits="userSpaceOnUse">
<stop stop-color="#FF000F"/>
<stop offset="1" stop-color="#2176F5"/>
</linearGradient>
<linearGradient id="paint23_linear_468_676" x1="216.261" y1="259.874" x2="216.261" y2="260.874" gradientUnits="userSpaceOnUse">
<stop stop-color="#FF000F"/>
<stop offset="1" stop-color="#2176F5"/>
</linearGradient>
<linearGradient id="paint24_linear_468_676" x1="165.415" y1="287.962" x2="165.415" y2="310.276" gradientUnits="userSpaceOnUse">
<stop stop-color="#FF000F"/>
<stop offset="1" stop-color="#2176F5"/>
</linearGradient>
<linearGradient id="paint25_linear_468_676" x1="302.036" y1="196.518" x2="302.036" y2="315.156" gradientUnits="userSpaceOnUse">
<stop stop-color="#FF000F"/>
<stop offset="1" stop-color="#2176F5"/>
</linearGradient>
<linearGradient id="paint26_linear_468_676" x1="116.035" y1="5.16602" x2="116.035" y2="181.913" gradientUnits="userSpaceOnUse">
<stop stop-color="#FF000F"/>
<stop offset="1" stop-color="#2176F5"/>
</linearGradient>
</defs>
</svg>
