<svg width="20" height="20" viewBox="0 0 20 20" fill="none" xmlns="http://www.w3.org/2000/svg">
<path d="M9.97911 4.30646e-06C11.2956 -0.00121647 12.5994 0.257119 13.816 0.760235C15.0325 1.26335 16.138 2.00137 17.0691 2.93209C18.0002 3.86281 18.7386 4.96796 19.2422 6.18432C19.7458 7.40069 20.0047 8.7044 20.004 10.0209C20.004 15.5593 15.5129 19.998 9.91543 20C4.50038 20.0013 0 15.4804 0 10.0395C0 4.48911 4.46058 4.30646e-06 9.97911 4.30646e-06ZM8.93841 11.9842L6.71243 9.70318C6.55325 9.54002 6.3861 9.37154 6.17053 9.29659C6.04419 9.25262 5.9083 9.24368 5.77729 9.27071C5.64627 9.29775 5.52503 9.35975 5.42641 9.45014C5.32779 9.54052 5.25549 9.65592 5.21717 9.78409C5.17885 9.91226 5.17595 10.0484 5.20877 10.1781C5.2751 10.4361 5.4701 10.6371 5.65914 10.8248L8.25987 13.4149C8.49401 13.6484 8.78188 13.8998 9.10822 13.848C9.35695 13.8082 9.54001 13.602 9.70119 13.409L13.1257 9.30588L14.3933 7.78762C14.5637 7.58399 14.8695 7.33526 14.9206 7.06928C14.9484 6.93678 14.9401 6.79923 14.8965 6.67103C14.853 6.54283 14.7758 6.42869 14.673 6.34055C14.5702 6.25242 14.4456 6.19352 14.3123 6.17003C14.179 6.14654 14.0417 6.15931 13.915 6.20702C13.6703 6.29855 13.4912 6.50815 13.324 6.70912L8.93841 11.9842Z" fill="#EA1B26"/>
</svg>
