<svg width="87" height="24" viewBox="0 0 87 24" fill="none" xmlns="http://www.w3.org/2000/svg">
<g clip-path="url(#clip0_1126_461)">
<path d="M21.0293 0V18.5174L23.4022 18.5265V9.71256H29.1352V7.37973H23.4022V2.33283H30.865V0H21.0293Z" fill="white"/>
<path d="M35.1483 3.75771C36.0087 3.75771 36.697 3.05877 36.697 2.20551C36.697 1.35226 35.9997 0.65332 35.1483 0.65332C34.2879 0.65332 33.5996 1.35226 33.5996 2.20551C33.5996 3.05877 34.297 3.75771 35.1483 3.75771Z" fill="white"/>
<path d="M33.9453 6.09082V18.5174H36.3182V6.09082H33.9453Z" fill="white"/>
<path fill-rule="evenodd" clip-rule="evenodd" d="M45.1292 5.72754C41.9684 5.72754 39.7676 8.4053 39.7676 11.5823C39.7676 14.7593 41.9684 17.4371 45.1292 17.4371C46.5783 17.4371 47.7648 16.8743 48.6342 15.9666V17.6095C48.6342 19.67 47.0221 21.3856 44.9119 21.3856C44.1511 21.3856 43.3994 21.0952 42.8016 20.6776L41.6061 22.7472C42.5571 23.3645 43.6892 23.7185 44.9028 23.7185C48.2719 23.7185 50.9981 20.9862 50.9981 17.6095V6.09063H48.6342V7.19804C47.7648 6.29032 46.5783 5.72754 45.1292 5.72754ZM42.1495 11.5823C42.1495 9.61256 43.653 8.06037 45.3919 8.06037C47.1308 8.06037 48.6342 9.61256 48.6342 11.5823C48.6342 13.552 47.1308 15.1042 45.3919 15.1042C43.653 15.1042 42.1495 13.552 42.1495 11.5823Z" fill="white"/>
<path d="M59.5761 8.06037C58.1723 8.06037 57.0311 9.25855 57.0311 10.6655V18.5173H54.6582V6.09063H57.0311V7.22527C57.7285 6.32663 58.7519 5.72754 60.0923 5.72754C61.7588 5.72754 63.0358 6.55356 63.7784 7.82436C64.6026 6.59895 65.943 5.72754 67.5642 5.72754C70.2722 5.72754 71.9568 7.91513 71.9658 10.6201C71.9658 10.6292 71.9658 10.6383 71.9658 10.6474V10.6564V18.5173H69.5929V10.6564C69.5929 9.24948 68.4518 8.05129 67.048 8.05129C65.6441 8.05129 64.503 9.24948 64.503 10.6564V18.5173H62.1301V10.6564C62.121 9.24948 60.9799 8.06037 59.5761 8.06037Z" fill="white"/>
<path fill-rule="evenodd" clip-rule="evenodd" d="M84.6268 7.49758C83.5672 6.39925 82.1181 5.72754 80.4425 5.72754C76.9104 5.72754 74.3926 8.73208 74.3926 12.3085C74.3926 15.8849 76.9013 18.8894 80.4425 18.8894C82.1181 18.8894 83.5672 18.2086 84.6268 17.1194V18.5173H86.9997V6.09063H84.6268V7.49758ZM76.7745 12.3085C76.7745 9.93934 78.5859 8.06037 80.7052 8.06037C82.8154 8.06037 84.6359 9.93026 84.6359 12.3085C84.6359 14.6776 82.8245 16.5566 80.7052 16.5566C78.5859 16.5475 76.7745 14.6776 76.7745 12.3085Z" fill="white"/>
<path d="M7.97852 12.0001C7.97852 9.79435 9.76271 7.99707 11.9726 7.99707C14.1734 7.99707 15.9666 9.78527 15.9666 12.0001C15.9666 14.2058 14.1825 16.0031 11.9726 16.0031C9.77177 16.0031 7.97852 14.2058 7.97852 12.0001Z" fill="#1ABCFE"/>
<path d="M0 19.9972C0 17.7914 1.7842 15.9941 3.99407 15.9941H7.98813V19.9972C7.98813 22.2029 6.20394 24.0002 3.99407 24.0002C1.7842 24.0002 0 22.212 0 19.9972Z" fill="#0ACF83"/>
<path d="M7.97852 0.000288093V7.99726H11.9726C14.1734 7.99726 15.9666 6.20906 15.9666 3.99424C15.9666 1.78849 14.1825 -0.00878906 11.9726 -0.00878906H7.97852V0.000288093Z" fill="#FF7262"/>
<path d="M0 4.00303C0 6.20877 1.7842 8.00605 3.99407 8.00605H7.98813V0H3.99407C1.7842 0 0 1.7882 0 4.00303Z" fill="#F24E1E"/>
<path d="M0 12.0001C0 14.2058 1.7842 16.0031 3.99407 16.0031H7.98813V7.99707H3.99407C1.7842 7.99707 0 9.79435 0 12.0001Z" fill="#A259FF"/>
</g>
<defs>
<clipPath id="clip0_1126_461">
<rect width="87" height="24" fill="white"/>
</clipPath>
</defs>
</svg>
