<svg width="132" height="32" viewBox="0 0 132 32" fill="none" xmlns="http://www.w3.org/2000/svg">
<g clip-path="url(#clip0_1128_477)">
<path d="M20.6528 14.7239L20.6869 12.5839C20.6869 11.0213 20.2776 9.4592 19.2374 9.4592C18.4528 9.4592 18.0435 10.1214 18.0435 11.2763C18.0435 13.1614 19.3397 14.3163 20.6528 14.7239ZM15.9458 26.527C11.1196 26.527 10.6589 22.2134 10.6589 17.7639C10.6589 13.4843 10.3351 12.5332 8.83411 12.5332H6.65142V9.71422H8.83461C13.0131 9.71422 13.5416 13.1618 13.5416 17.7812C13.5416 22.1799 13.8654 23.6574 15.8949 23.6574C18.0435 23.6574 19.5276 20.2097 20.2267 17.4075C17.1056 16.6602 15.1617 14.4354 15.1617 11.2256C15.1617 8.6784 16.8159 6.57231 19.2888 6.57231C22.0173 6.57231 23.5355 9.17071 23.5355 12.5844C23.5355 13.4503 23.5014 14.2656 23.4505 14.8943H26.6739V17.7305H22.9902C22.1374 22.0441 19.7491 26.527 15.9458 26.527ZM15.8608 31.6726C27.014 31.6726 31.721 24.642 31.721 15.9636C31.721 3.99114 26.2636 0 19.0836 0C9.82337 0 0 7.57415 0 15.9636C0 24.642 7.11218 31.6726 15.8608 31.6726ZM44.7505 17.2884C44.921 17.7979 45.1257 18.4773 45.2107 19.0548H45.279C45.3981 18.4773 45.586 17.8151 45.7392 17.3056L48.5533 8.13489H51.9304L47.0014 22.3493H43.4201L38.4575 8.15163H41.8341L44.7505 17.2884ZM61.1397 18.817L62.6575 20.5662C61.907 21.5513 60.2869 22.5019 57.8991 22.5019C54.1813 22.5019 51.9472 20.1753 51.9472 16.8468C51.9472 13.5522 54.1813 11.1916 57.592 11.1916C60.8327 11.1916 62.6743 13.3824 62.6743 16.3884C62.6743 17.0846 62.572 17.5601 62.572 17.5601H55.1191C55.392 19.0375 56.4327 20.0566 58.2575 20.0566C59.8435 20.0738 60.6622 19.3265 61.1397 18.817ZM55.1365 15.9129H59.7579C59.7411 14.6053 58.9392 13.6202 57.6093 13.6202C56.3304 13.6369 55.3752 14.4522 55.1365 15.9129ZM74.5953 15.0809C74.5953 15.5732 74.5271 15.8961 74.5271 15.8961L71.6963 16.066C71.7131 16.0153 71.7472 15.8114 71.7472 15.5737C71.7472 14.6398 71.1332 13.8245 69.9224 13.8245C68.4729 13.8245 67.4836 15.0134 67.4836 16.7966C67.4836 18.6649 68.4388 19.9045 70.3491 19.9045C72.0883 19.9045 73.0435 19.0213 73.3673 18.6137L74.9364 20.6178C74.2374 21.501 72.6173 22.5029 70.1271 22.5029C66.4262 22.5029 64.2262 20.1762 64.2262 16.8985C64.2262 13.5188 66.5626 11.2094 69.9738 11.2094C72.8897 11.2094 74.5953 12.9241 74.5953 15.0809ZM84.9813 21.7039C84.9813 21.7039 83.8047 22.5019 81.6729 22.5019C78.7733 22.5019 77.2388 20.9393 77.2388 17.8146V13.7728H75.5505V11.3442H77.3752V8.15163H80.4622V11.3442H84.3505V13.7728H80.4622V17.662C80.4622 19.1394 81.0248 19.7849 82.2696 19.7849C83.3953 19.7849 84.0435 19.2074 84.0435 19.2074L84.9813 21.7039ZM94.4977 18.817L96.0154 20.5662C95.2649 21.5513 93.6449 22.5019 91.2575 22.5019C87.5224 22.5019 85.3051 20.1753 85.3051 16.8468C85.3051 13.5522 87.5392 11.1916 90.9505 11.1916C94.1907 11.1916 96.0322 13.3824 96.0322 16.3884C96.0322 17.0846 95.9304 17.5601 95.9304 17.5601H88.4776C88.7505 19.0375 89.7906 20.0566 91.6154 20.0566C93.2014 20.0738 94.0369 19.3265 94.4977 18.817ZM88.4944 15.9129H93.1164C93.0991 14.6053 92.2977 13.6202 90.9673 13.6202C89.6883 13.6369 88.7332 14.4522 88.4944 15.9129ZM106.777 18.817L108.294 20.5662C107.544 21.5513 105.924 22.5019 103.536 22.5019C99.8187 22.5019 97.5846 20.1753 97.5846 16.8468C97.5846 13.5522 99.8187 11.1916 103.229 11.1916C106.47 11.1916 108.312 13.3824 108.312 16.3884C108.312 17.0846 108.209 17.5601 108.209 17.5601H100.757C101.029 19.0375 102.07 20.0566 103.894 20.0566C105.48 20.0738 106.316 19.3265 106.777 18.817ZM100.774 15.9129H105.395C105.378 14.6053 104.577 13.6202 103.246 13.6202C101.967 13.6369 101.012 14.4522 100.774 15.9129ZM109.642 20.0566L115.014 14.3675C115.287 14.0618 115.406 13.9431 115.594 13.79L115.577 13.7221C115.321 13.7728 114.894 13.79 114.28 13.79H109.812V11.3447H119.209V13.6546L114.093 19.1911L113.394 19.9385L113.445 20.0064C113.65 19.9552 114.007 19.9385 114.656 19.9385H119.363V22.367H109.642V20.0566ZM122.774 27.2571C121.512 27.2571 120.71 26.8155 120.71 26.8155L121.171 24.3702C121.171 24.3702 121.785 24.6927 122.501 24.6927C123.507 24.6927 124.053 24.2004 124.428 23.3851L124.633 22.8416L120.062 11.3442H123.507L125.775 17.8826C125.963 18.4601 126.031 18.7486 126.133 19.326H126.185C126.304 18.7146 126.372 18.4089 126.543 17.8826L128.76 11.3442H132L127.293 23.8267C126.56 25.7457 125.195 27.2571 122.774 27.2571Z" fill="#FF7900"/>
</g>
<defs>
<clipPath id="clip0_1128_477">
<rect width="132" height="32" fill="white"/>
</clipPath>
</defs>
</svg>
