<svg width="73" height="31" viewBox="0 0 73 31" fill="none" xmlns="http://www.w3.org/2000/svg">
<g clip-path="url(#clip0_1129_482)">
<path d="M48.6107 24.1004C47.0361 25.8928 44.8726 27.0633 42.5107 27.4004C41.8835 27.4331 41.2691 27.2155 40.8022 26.7955C40.3354 26.3756 40.0543 25.7874 40.0207 25.1604V25.1004C39.9584 24.5653 39.9923 24.0235 40.1207 23.5004C40.5286 21.6001 41.0631 19.7293 41.7207 17.9004C41.7207 17.7004 41.6207 17.6004 41.5207 17.6004C40.5207 17.6004 37.1207 21.1004 36.6207 23.4004L36.2207 25.3004C36.094 25.8592 35.7935 26.3634 35.3623 26.7408C34.931 27.1181 34.3913 27.349 33.8207 27.4004C33.6229 27.4089 33.4295 27.3409 33.2805 27.2106C33.1315 27.0802 33.0385 26.8975 33.0207 26.7004V26.1004L33.2207 25.1004C31.8789 26.26 30.2596 27.0524 28.5207 27.4004C28.0051 27.4576 27.4874 27.3123 27.077 26.9952C26.6665 26.678 26.3953 26.2137 26.3207 25.7004C25.9804 26.2137 25.5204 26.6367 24.9804 26.9329C24.4404 27.229 23.8365 27.3894 23.2207 27.4004C22.4459 27.3658 21.6966 27.1127 21.0596 26.6703C20.4226 26.2279 19.9237 25.6143 19.6207 24.9004C18.5598 26.0851 17.3497 27.1271 16.0207 28.0004C13.9304 29.4594 11.4674 30.292 8.92066 30.4004C6.75563 30.3519 4.68692 29.4959 3.12066 28.0004C1.42904 26.3056 0.370086 24.0818 0.120661 21.7004C-0.779339 14.7004 3.52066 5.40037 10.2207 1.40037C11.6669 0.513468 13.3244 0.0300557 15.0207 0.000367122C16.4475 -0.0400208 17.8389 0.448054 18.9279 1.37088C20.0168 2.29372 20.7265 3.58626 20.9207 5.00037C21.1156 6.22449 20.8843 7.47842 20.2654 8.5524C19.6465 9.62638 18.6775 10.4553 17.5207 10.9004C16.1207 11.6004 15.4207 11.6004 15.2207 11.2004C15.1582 11.0641 15.144 10.9107 15.1803 10.7653C15.2167 10.6199 15.3014 10.4912 15.4207 10.4004C18.0207 8.30037 18.0207 6.50037 17.7207 4.00037C17.5207 2.40037 16.5207 1.40037 15.3207 1.40037C10.1207 1.40037 2.92066 12.7004 3.92066 20.9004C4.32066 24.1004 6.32066 27.8004 10.3207 27.8004C11.7108 27.7616 13.0758 27.4204 14.3207 26.8004C16.1408 26.0196 17.7511 24.8205 19.0207 23.3004C18.7207 19.5004 22.0207 14.7004 26.8207 14.7004C28.9207 14.7004 30.6207 15.5004 30.8207 17.2004C30.8777 17.4677 30.8812 17.7437 30.831 18.0123C30.7808 18.281 30.6779 18.5371 30.5283 18.7658C30.3786 18.9946 30.1851 19.1914 29.9589 19.3449C29.7328 19.4984 29.4785 19.6056 29.2107 19.6604C29.0148 19.6856 28.8165 19.6856 28.6207 19.6604C28.0207 19.6604 27.1207 19.4604 27.0207 18.9604C26.9207 18.4604 28.3207 18.6604 28.1207 17.3604C28.0207 16.5604 27.1207 16.2604 26.3207 16.2604C23.3207 16.2604 21.6207 20.4604 21.9207 23.0604C22.0207 24.2604 22.7207 25.4604 23.7207 25.4604C24.7207 25.4604 25.9207 24.1604 26.3207 22.3604C26.4459 21.8009 26.746 21.2957 27.1775 20.9182C27.609 20.5406 28.1495 20.3102 28.7207 20.2604C29.2207 20.2604 29.5207 20.4604 29.5207 20.9604V21.5604C29.4207 22.0604 29.0207 23.9604 29.0207 24.2604C29.018 24.3628 29.0356 24.4648 29.0723 24.5604C29.1091 24.6561 29.1643 24.7435 29.2349 24.8178C29.3055 24.8921 29.39 24.9518 29.4836 24.9934C29.5773 25.035 29.6782 25.0578 29.7807 25.0604C31.1735 24.5864 32.4392 23.7996 33.4807 22.7604C33.9807 20.2604 34.5807 17.1604 34.5807 16.9604C34.6192 16.3597 34.8948 15.7989 35.3467 15.4014C35.7986 15.0038 36.39 14.802 36.9907 14.8404H37.1807C37.379 14.8293 37.5739 14.8964 37.7234 15.0272C37.8729 15.1581 37.9653 15.3423 37.9807 15.5404V16.1404L37.4807 18.8404C39.2807 16.4404 42.0807 14.6404 43.7807 14.6404C44.1092 14.6159 44.435 14.7153 44.694 14.9188C44.9531 15.1223 45.1267 15.4154 45.1807 15.7404C45.2018 16.387 45.1 17.0317 44.8807 17.6404C44.1591 19.6614 43.5909 21.7339 43.1807 23.8404C43.1468 23.9467 43.1344 24.0587 43.1443 24.1699C43.1542 24.2811 43.1861 24.3892 43.2383 24.4879C43.2904 24.5865 43.3617 24.6739 43.4479 24.7447C43.5342 24.8155 43.6337 24.8684 43.7407 24.9004C43.8527 24.9247 43.9686 24.9247 44.0807 24.9004C44.9977 24.7049 45.8672 24.3305 46.6394 23.7986C47.4116 23.2666 48.0713 22.5876 48.5807 21.8004V20.8004C48.5108 19.3493 48.6797 17.8967 49.0807 16.5004C49.2832 15.9477 49.6321 15.4604 50.09 15.0905C50.548 14.7207 51.0977 14.4821 51.6807 14.4004C51.7774 14.3908 51.875 14.4006 51.9679 14.4292C52.0608 14.4578 52.147 14.5047 52.2216 14.5671C52.2961 14.6295 52.3574 14.7062 52.4019 14.7926C52.4464 14.879 52.4732 14.9735 52.4807 15.0704C52.4909 15.1131 52.4909 15.1576 52.4807 15.2004C52.5023 15.4057 52.4677 15.6131 52.3807 15.8004C51.7785 17.5056 51.4413 19.293 51.3807 21.1004C51.4084 22.2106 51.5424 23.3156 51.7807 24.4004C51.7749 24.4715 51.7965 24.5423 51.8411 24.598C51.8857 24.6538 51.9499 24.6904 52.0207 24.7004H52.0807C52.3807 24.7004 54.3807 22.8004 55.7807 20.4004C55.1217 19.9478 54.5912 19.3323 54.2407 18.6138C53.8902 17.8953 53.7317 17.0983 53.7807 16.3004C53.7807 13.3004 55.5807 11.7004 57.3807 11.7004C58.7807 11.7004 59.9807 12.7004 59.9807 14.7004C59.9003 16.141 59.4897 17.5438 58.7807 18.8004H59.1807C59.6381 18.8122 60.0922 18.7192 60.5082 18.5286C60.9241 18.3379 61.291 18.0546 61.5807 17.7004C61.7568 17.507 61.9587 17.3387 62.1807 17.2004C62.8886 16.311 63.785 15.5896 64.8051 15.0881C65.8253 14.5866 66.944 14.3176 68.0807 14.3004C70.1807 14.3004 71.8807 15.1004 72.0807 16.8004C72.1325 17.0854 72.1276 17.3779 72.0661 17.661C72.0047 17.9441 71.8879 18.2123 71.7225 18.4501C71.5571 18.688 71.3464 18.8909 71.1024 19.0471C70.8584 19.2033 70.5859 19.3097 70.3007 19.3604C70.1611 19.3751 70.0203 19.3751 69.8807 19.3604C69.2807 19.3604 68.2807 19.1604 68.2807 18.6604C68.2807 18.1604 69.5807 18.3604 69.4807 17.0604C69.3807 16.2604 68.4807 15.8604 67.6807 15.8604C64.8807 15.8604 62.9807 19.5604 63.2807 22.6604C63.3807 23.8604 63.9807 25.0604 65.0807 25.0604C65.9807 25.0604 67.2807 23.7604 67.7807 21.9604C67.9245 21.4103 68.2302 20.9161 68.6581 20.5417C69.086 20.1673 69.6164 19.9299 70.1807 19.8604C70.2733 19.8477 70.3675 19.8535 70.4578 19.8773C70.5482 19.9011 70.633 19.9426 70.7073 19.9992C70.7817 20.0559 70.8441 20.1267 70.891 20.2075C70.9379 20.2884 70.9684 20.3777 70.9807 20.4704V20.5604C70.8789 21.5041 70.7119 22.4397 70.4807 23.3604C70.3291 24.0497 70.2619 24.7548 70.2807 25.4604C70.4108 26.3983 70.8303 27.2722 71.4807 27.9604C71.6372 28.0859 71.7436 28.2632 71.7807 28.4604C71.7847 28.5369 71.7733 28.6134 71.7471 28.6854C71.7209 28.7574 71.6804 28.8234 71.6282 28.8794C71.5759 28.9354 71.5129 28.9803 71.4428 29.0114C71.3728 29.0425 71.2973 29.0591 71.2207 29.0604C71.0799 29.0728 70.939 29.0376 70.8207 28.9604C69.9908 28.6937 69.2472 28.2101 68.667 27.5596C68.0868 26.909 67.691 26.1152 67.5207 25.2604C67.1766 25.7627 66.7133 26.1718 66.1723 26.451C65.6313 26.7303 65.0294 26.8709 64.4207 26.8604C63.3923 26.7831 62.4222 26.3525 61.675 25.6417C60.9277 24.9309 60.4493 23.9836 60.3207 22.9604C60.23 22.0163 60.332 21.0637 60.6207 20.1604C59.9121 20.6481 59.0801 20.9254 58.2207 20.9604H57.5207C56.0961 23.1279 54.2617 24.9963 52.1207 26.4604C51.6261 26.7323 51.0821 26.9024 50.5207 26.9604C50.3498 26.969 50.1793 26.9373 50.0229 26.8678C49.8666 26.7983 49.7288 26.693 49.6207 26.5604C48.9762 25.9034 48.6138 25.0207 48.6107 24.1004ZM55.4107 15.1004C55.4611 16.2852 55.9205 17.416 56.7107 18.3004C57.0209 17.5371 57.1903 16.724 57.2107 15.9004C57.2107 14.4004 56.6107 13.7004 56.2107 13.7004C55.6107 13.7004 55.4307 14.5004 55.4307 15.1004H55.4107Z" fill="#20C4CB"/>
</g>
<defs>
<clipPath id="clip0_1129_482">
<rect width="72.15" height="30.4" fill="white"/>
</clipPath>
</defs>
</svg>
