<svg width="156" height="43" viewBox="0 0 156 43" fill="none" xmlns="http://www.w3.org/2000/svg">
<path d="M142.288 29.7112V33.6584C141.445 33.833 140.63 33.8456 139.74 33.9324V19.7121C141.708 19.0204 143.746 18.5154 145.897 19.0948C147.928 19.6416 149.29 21.431 149.399 23.5186C149.611 27.5606 146.558 29.5493 143.346 29.709C143.011 29.7256 142.675 29.7112 142.288 29.7112ZM142.304 27.4219C143.65 27.7845 145.313 27.2602 146.078 26.2567C146.886 25.1962 146.972 23.4635 146.324 22.3096C145.675 21.156 143.919 20.7197 142.304 21.3336L142.304 27.4219Z" fill="#31A8FF"/>
<path d="M54.9531 24.9696V29.57H52.4414V15.4824C53.6225 15.4768 56.7055 15.4126 58.1031 15.6064C61.7078 16.1065 63.5388 19.821 61.5637 22.7629C60.7428 23.9853 59.5009 24.5254 58.1051 24.8157C57.0976 25.0253 56.1415 24.9415 54.9531 24.9696ZM55.0207 17.6751V22.6282C56.2834 22.6496 57.4389 22.704 58.1927 22.4218C59.1806 22.052 59.7204 21.2908 59.7398 20.2405C59.7602 19.1283 59.2634 18.321 58.2864 17.9354C57.2333 17.5197 56.1391 17.6328 55.0209 17.6751H55.0207Z" fill="#31A8FF"/>
<path d="M125.094 29.5645H122.554C122.553 29.2141 122.55 29.0433 122.549 28.7894C122.536 26.8795 122.542 24.9693 122.517 23.0596C122.506 22.232 122.231 21.5101 121.36 21.2223C119.449 20.5907 118.55 21.8041 118.549 22.3419C118.545 24.7907 118.547 29.2704 118.547 29.5398H116.016V14.2412H118.523V19.7646C119.208 19.38 119.796 19.0857 120.488 18.9579C123.131 18.469 124.899 19.6513 125.063 22.2902C125.211 24.6845 125.094 27.0952 125.094 29.5643V29.5645Z" fill="#31A8FF"/>
<path d="M64.5293 14.2375H67.0254V19.8132C68.027 19.1792 69.0006 18.8305 70.0973 18.8481C71.7909 18.8754 72.9555 19.7262 73.3949 21.3448C73.5086 21.7639 73.593 22.2051 73.597 22.6368C73.6172 24.8054 73.6065 26.9744 73.6055 29.1433C73.6055 29.2812 73.6079 29.3507 73.6092 29.563C72.8289 29.563 71.8372 29.5595 71.0464 29.5595C71.0421 29.2986 71.0343 29.0463 71.0326 28.7931C71.0205 26.8832 71.0276 24.973 71.0016 23.0633C70.9902 22.2377 70.7192 21.512 69.8489 21.222C67.8576 20.5588 67.0343 21.8834 67.0337 22.3364C67.0311 24.5052 67.0321 26.6742 67.0321 28.843C67.0321 29.0591 67.0321 29.2751 67.0321 29.5367H64.5497C64.5517 27.1977 64.5289 16.4073 64.5297 14.2373L64.5293 14.2375Z" fill="#31A8FF"/>
<path d="M104.868 24.2494C104.868 26.9409 103.501 28.9626 101.169 29.5218C97.0289 30.5141 94.0814 27.6674 94.5511 23.5591C94.8399 21.0347 96.4107 19.36 98.5182 18.9779C102.194 18.3115 104.87 20.5324 104.868 24.2494ZM101.729 22.1669C100.842 20.6621 98.5561 20.5798 97.6682 22.0745C96.8356 23.4765 96.854 24.9641 97.6397 26.3913C98.0909 27.2109 98.8728 27.556 99.8073 27.5255C100.731 27.4953 101.389 27.0399 101.819 26.2384C102.317 25.309 102.497 23.4723 101.729 22.1669Z" fill="#31A8FF"/>
<path d="M137.627 24.2488C137.626 26.9382 136.244 28.9755 133.911 29.5259C129.757 30.5062 126.853 27.6439 127.304 23.5884C127.585 21.0624 129.15 19.3672 131.257 18.9792C134.935 18.3018 137.629 20.5299 137.627 24.2488ZM134.511 22.2099C133.643 20.6628 131.322 20.5596 130.42 22.0798C129.576 23.504 129.576 25.0237 130.436 26.4415C131.38 27.9982 133.677 27.8814 134.55 26.285C135.198 25.0996 135.151 23.3489 134.511 22.2097L134.511 22.2099Z" fill="#31A8FF"/>
<path d="M86.11 24.2491C86.1091 26.9409 84.7299 28.9752 82.3962 29.5262C78.2534 30.5045 75.3379 27.661 75.788 23.5885C76.0673 21.0614 77.6331 19.3693 79.7409 18.9799C83.4183 18.3003 86.111 20.528 86.11 24.2491ZM83.0125 22.2383C82.1403 20.6563 79.7964 20.5541 78.8899 22.1044C78.0911 23.4703 78.1052 24.9194 78.8352 26.3185C79.2795 27.17 80.0595 27.5492 81.0218 27.5253C81.9707 27.5017 82.6405 27.0385 83.071 26.2063C83.5583 25.2641 83.7128 23.5088 83.0125 22.2383Z" fill="#31A8FF"/>
<path d="M106.655 29.0857C106.655 28.2924 106.652 27.3965 106.652 26.6852C106.938 26.8481 107.083 26.9283 107.265 27.0137C108.189 27.4472 109.157 27.6422 110.177 27.6028C110.462 27.5917 110.736 27.5346 110.992 27.4186C111.656 27.1179 111.745 26.4559 111.181 25.9903C110.695 25.5887 110.097 25.3987 109.52 25.1728C108.961 24.9537 108.409 24.7216 107.914 24.3753C106.1 23.1064 106.149 20.6265 108.064 19.5103C109.8 18.4984 111.623 18.7413 113.461 19.2786C113.461 20.0511 113.457 20.9209 113.457 21.6186C113.254 21.5192 113.044 21.4078 112.852 21.3388C111.956 21.0161 111.039 20.8582 110.087 20.9724C109.619 21.0286 109.21 21.2232 109.093 21.7056C108.97 22.2089 109.349 22.476 109.734 22.6658C110.253 22.922 110.79 23.1437 111.329 23.3579C111.832 23.5581 112.317 23.7864 112.765 24.0917C114.662 25.3826 114.519 28.1299 112.45 29.1356C110.531 30.0678 108.587 29.8616 106.655 29.0853L106.655 29.0857Z" fill="#31A8FF"/>
<path d="M88.5796 21.1436C88.1345 21.1436 87.6069 21.1306 87.1079 21.1306C87.0954 20.4028 87.1053 19.7655 87.1053 19.0019C87.6144 19.0019 88.0536 18.9958 88.5501 18.9958C88.6184 18.2751 88.8015 16.9236 88.8926 16.1756C89.6232 16.0714 90.388 15.9624 91.2125 15.8447V18.9694H93.3703V21.1049H91.145C91.145 21.9004 91.1402 22.6099 91.1462 23.3194C91.1549 24.333 91.1343 25.3488 91.1953 26.3595C91.2551 27.35 91.6963 27.6715 92.6951 27.5813C92.8895 27.5637 93.0363 27.5264 93.2809 27.4418C93.275 28.0589 93.2581 28.7202 93.2575 29.4076C92.2716 29.7664 91.2486 29.8496 90.2197 29.5577C89.1967 29.2675 88.597 28.3253 88.5891 27.0422C88.5782 25.2914 88.5883 23.5403 88.5841 21.7896C88.5836 21.5958 88.5754 21.4485 88.5796 21.1436Z" fill="#31A8FF"/>
<path d="M36.566 0H7.86864C3.52291 0 0 3.49658 0 7.80984V35.1902C0 39.5034 3.52291 43 7.86864 43H36.566C40.9117 43 44.4346 39.5034 44.4346 35.1902V7.80984C44.4346 3.49658 40.9117 0 36.566 0Z" fill="#001E36"/>
<path d="M10.0059 30.1542V11.2492C10.0059 11.1115 10.0654 11.0421 10.1848 11.0421C10.5024 11.0421 10.7924 11.0375 11.2298 11.0273C11.6668 11.0177 12.1387 11.0076 12.6458 10.9976C13.1526 10.9878 13.6892 10.978 14.2554 10.968C14.8216 10.9583 15.383 10.9533 15.9395 10.9531C17.4496 10.9531 18.7214 11.1405 19.7549 11.5153C20.6873 11.8284 21.5376 12.3439 22.244 13.0241C22.8427 13.6138 23.3054 14.3255 23.6002 15.11C23.8791 15.8734 24.0204 16.6795 24.0176 17.4917C24.0176 19.0698 23.6499 20.3716 22.9146 21.397C22.1745 22.4266 21.1341 23.206 19.9338 23.6307C18.6818 24.0943 17.2907 24.2517 15.7606 24.2517C15.3232 24.2517 15.0153 24.2466 14.8366 24.2368C14.6577 24.227 14.3895 24.2222 14.0319 24.222V30.1248C14.0504 30.2534 13.9602 30.3727 13.8305 30.3911C13.8083 30.3943 13.7857 30.3943 13.7635 30.3911H10.2147C10.0755 30.3911 10.0061 30.3126 10.0061 30.1544L10.0059 30.1542ZM14.0317 14.5923V20.7584C14.2897 20.7783 14.5282 20.7881 14.7469 20.7881H15.7305C16.4543 20.7857 17.1734 20.6718 17.8618 20.4504C18.4522 20.2762 18.9801 19.9373 19.3819 19.4741C19.7695 19.0205 19.9631 18.3894 19.9633 17.5806C19.9791 17.0084 19.829 16.4436 19.531 15.9534C19.2178 15.4794 18.765 15.1128 18.2343 14.9031C17.5415 14.6358 16.8014 14.5101 16.0583 14.5334C15.5813 14.5334 15.1591 14.5384 14.7915 14.5482C14.4236 14.5584 14.1702 14.5732 14.0315 14.5925L14.0317 14.5923Z" fill="#31A8FF"/>
<path d="M35.5425 19.6368C34.9823 19.3512 34.3856 19.1422 33.7689 19.0155C33.0894 18.8608 32.3945 18.7814 31.6972 18.7788C31.32 18.7686 30.9434 18.8135 30.5793 18.9119C30.3477 18.9632 30.1417 19.0941 29.9979 19.2817C29.9008 19.4318 29.8491 19.6064 29.8489 19.7846C29.8544 19.9575 29.9172 20.1241 30.0278 20.258C30.2019 20.4602 30.4147 20.6259 30.6538 20.7462C31.0789 20.9733 31.5167 21.1759 31.9654 21.3527C32.9658 21.685 33.9218 22.1372 34.8121 22.6988C35.4187 23.0788 35.9205 23.6023 36.2727 24.2224C36.5689 24.8097 36.7172 25.4594 36.7048 26.1158C36.7226 26.9829 36.473 27.8345 35.9896 28.5566C35.4718 29.2898 34.7527 29.8596 33.9179 30.1985C33.0134 30.593 31.8957 30.7902 30.5646 30.7902C29.7189 30.7986 28.8748 30.7192 28.0458 30.5535C27.3928 30.4346 26.7569 30.2358 26.1531 29.9618C26.02 29.8937 25.9386 29.7552 25.9445 29.6069V26.4117C25.9372 26.3479 25.9659 26.2854 26.019 26.2489C26.0715 26.2195 26.1367 26.2255 26.183 26.2638C26.8962 26.681 27.6704 26.9855 28.4782 27.1661C29.19 27.3433 29.9204 27.4375 30.6542 27.4471C31.3497 27.4471 31.8614 27.3583 32.1893 27.1807C32.492 27.0432 32.6847 26.7418 32.6813 26.4115C32.6813 26.1553 32.5322 25.9088 32.2342 25.6719C31.9361 25.4352 31.3299 25.1492 30.4157 24.8139C29.4798 24.4906 28.5923 24.0426 27.7776 23.4826C27.1951 23.0804 26.7153 22.5484 26.3766 21.9293C26.0834 21.3463 25.9352 20.7021 25.9445 20.0507C25.9429 19.2679 26.1595 18.5 26.5705 17.8318C27.039 17.096 27.712 16.5104 28.5081 16.1454C29.3822 15.7119 30.4751 15.4948 31.7869 15.4946C32.5551 15.4884 33.3226 15.5429 34.0821 15.6574C34.6322 15.7265 35.1699 15.871 35.68 16.0863C35.762 16.1097 35.8282 16.1699 35.8589 16.249C35.8791 16.3214 35.889 16.3959 35.8888 16.4709V19.4591C35.8931 19.5298 35.8589 19.5974 35.7994 19.6366C35.7186 19.6765 35.6237 19.6765 35.5429 19.6366L35.5425 19.6368Z" fill="#31A8FF"/>
</svg>
