<svg width="115" height="58" viewBox="0 0 115 58" fill="none" xmlns="http://www.w3.org/2000/svg">
<path d="M6.95426 29.0002C6.95429 25.667 9.63307 22.965 12.9375 22.965V15.9502C5.79232 15.9502 0 21.7929 0 29.0002C0 36.2075 5.79232 42.0502 12.9375 42.0502V35.0354C9.63307 35.0354 6.95428 32.3334 6.95426 29.0002Z" fill="#C7C8CB"/>
<mask id="mask0_1129_545" style="mask-type:luminance" maskUnits="userSpaceOnUse" x="12" y="2" width="27" height="54">
<path d="M12.9375 42.0504C20.1352 42.0504 25.9701 36.2934 25.9701 29.0004C25.9701 21.7073 20.1352 15.9504 12.9375 15.9504V2.90039H13.0538C27.2799 2.90039 38.8125 14.5857 38.8125 29.0004C38.8125 43.4149 27.2799 55.1004 13.0538 55.1004H12.9375V42.0504Z" fill="white"/>
</mask>
<g mask="url(#mask0_1129_545)">
<g filter="url(#filter0_f_1129_545)">
<path d="M33.0625 28.9998C33.0625 17.7884 24.0522 8.69981 12.9375 8.69981C1.82277 8.69981 -7.1875 17.7884 -7.1875 28.9998C-7.1875 40.2112 1.82277 49.2998 12.9375 49.2998C24.0522 49.2998 33.0625 40.2112 33.0625 28.9998Z" fill="url(#paint0_linear_1129_545)"/>
</g>
</g>
<path d="M46.0683 24.4199C47.2251 24.4199 48.1124 24.6999 48.8414 25.2266L48.3343 26.9055C47.6846 26.494 47.0983 26.2142 46.1951 26.2142C44.8164 26.2142 43.723 27.2183 43.723 29.0291C43.723 30.7576 44.7847 31.7945 46.1476 31.7945C46.9392 31.8196 47.7225 31.6204 48.4136 31.2185L48.7147 32.848C48.0808 33.2924 47.1776 33.5889 45.9733 33.5889C43.5646 33.5889 41.5996 31.9755 41.5996 29.1114C41.5996 26.1154 43.6438 24.4199 46.0683 24.4199Z" fill="white"/>
<path d="M59.9685 24.4365C62.282 24.4365 64.1044 25.8851 64.1044 29.0125C64.1073 29.2385 64.0914 29.4644 64.0568 29.6876H57.7658C57.9718 31.1691 58.875 31.9097 60.4914 31.9097C61.4922 31.9348 62.4815 31.6849 63.3596 31.1854L63.7082 32.6999C62.7892 33.2597 61.6164 33.6053 60.1744 33.6053C57.2587 33.6053 55.6582 31.8933 55.6582 29.0785C55.6582 26.2636 57.4806 24.4365 59.9685 24.4365ZM59.9368 26.099C58.7007 26.099 57.9401 26.8728 57.7658 28.3707H62.0126C61.87 26.8563 61.1727 26.099 59.9368 26.099Z" fill="white"/>
<path d="M86.2652 24.4199C88.658 24.4199 90.9082 26.0168 90.9082 28.9961C90.9082 31.9591 88.7372 33.5889 86.2334 33.5889C83.7932 33.5889 81.6855 32.0085 81.6855 29.0456C81.6855 26.0826 83.8247 24.4199 86.2652 24.4199ZM86.2968 26.1812C84.9816 26.1812 83.8089 27.0867 83.8089 28.9798C83.8089 30.8727 84.8865 31.8111 86.2652 31.8111C87.6912 31.8111 88.7847 30.8562 88.7847 29.0126C88.7847 27.1525 87.6438 26.1812 86.2968 26.1812Z" fill="white"/>
<path d="M76.1074 22.502H78.1239V24.6657H81.0564V26.2821H78.1239V31.5986H81.0564V33.32H78.1432C77.0189 33.32 76.1074 32.3732 76.1074 31.2052V22.502Z" fill="white"/>
<path d="M55.2465 24.6445H54.8679C54.0151 24.6445 53.1972 24.9965 52.5942 25.6229L52.1685 26.0651V24.6453L52.1744 24.6445H50.1106L50.1074 33.3675L52.1654 33.3684L52.1678 26.5962H55.2465V24.6445Z" fill="white"/>
<path d="M108.403 24.667L106.105 31.0705L103.902 24.667H101.557L105.043 33.4243L104.595 34.4685H102.948V36.1783H104.904C105.568 36.1783 106.166 35.7644 106.423 35.1285L110.637 24.667H108.403Z" fill="white"/>
<path d="M69.2333 24.4365C70.5169 24.4365 71.8234 25.2597 72.2283 26.5261V24.667H74.2408V33.3748H72.2283V31.2854C71.8249 32.6504 70.608 33.5796 69.2333 33.5724C67.0624 33.5724 65.1133 32.0086 65.1133 29.0292C65.1133 26.0497 66.999 24.4365 69.2333 24.4365ZM72.2283 28.9304C71.8163 27.2514 70.7704 26.2143 69.5345 26.2143C68.235 26.2143 67.2367 27.1526 67.2367 28.9962C67.2367 30.774 68.235 31.7946 69.5345 31.7946C70.8814 31.7946 71.848 30.6422 72.2283 29.0126V28.9304Z" fill="white"/>
<path d="M94.1932 24.667V26.5755C94.7822 25.256 95.8888 24.4365 97.1883 24.4365C99.4222 24.4365 101.308 26.0826 101.308 29.062C101.308 32.0415 99.3589 33.6053 97.1883 33.6053C95.9204 33.6053 94.6957 32.6515 94.2725 31.4664V36.1781H92.2441V24.667H94.1932ZM96.8874 26.2143C95.6194 26.2143 94.5736 27.3502 94.1932 29.0292C94.5577 30.6917 95.5719 31.8111 96.8711 31.8111C98.1869 31.8111 99.1845 30.7905 99.1845 29.0292C99.1845 27.1854 98.1869 26.2143 96.8874 26.2143Z" fill="white"/>
<defs>
<filter id="filter0_f_1129_545" x="-11.6875" y="4.2002" width="49.25" height="49.5996" filterUnits="userSpaceOnUse" color-interpolation-filters="sRGB">
<feFlood flood-opacity="0" result="BackgroundImageFix"/>
<feBlend mode="normal" in="SourceGraphic" in2="BackgroundImageFix" result="shape"/>
<feGaussianBlur stdDeviation="2.25" result="effect1_foregroundBlur_1129_545"/>
</filter>
<linearGradient id="paint0_linear_1129_545" x1="12.9375" y1="49.2998" x2="12.9375" y2="8.69981" gradientUnits="userSpaceOnUse">
<stop stop-color="#B1DD00"/>
<stop offset="1" stop-color="#00DBDB"/>
</linearGradient>
</defs>
</svg>
