<svg width="98" height="42" viewBox="0 0 98 42" fill="none" xmlns="http://www.w3.org/2000/svg">
<path d="M30.347 11.0201V21.721C30.347 21.8868 30.2073 22.0271 30.0422 22.0271H24.3896C24.2244 22.0271 24.0847 21.8868 24.0847 21.721V11.3135C24.0847 10.612 24.0466 9.79573 23.7544 9.14526C23.6147 8.86466 23.4369 8.63508 23.2209 8.46928C22.8653 8.18868 22.408 8.06114 21.8237 8.06114C20.7312 8.06114 19.8929 8.44377 19.6261 9.04322C19.3213 9.70645 19.3213 10.5992 19.3213 11.3135V21.721C19.3213 21.8868 19.1815 22.0271 19.0164 22.0271H13.5289C13.3638 22.0271 13.224 21.8868 13.224 21.721L13.2113 11.3135C13.2113 10.612 13.1732 9.79573 12.8811 9.14526C12.7413 8.86466 12.5635 8.63508 12.3476 8.46928C11.9919 8.18868 11.5346 8.06114 10.9503 8.06114C9.85787 8.06114 9.01951 8.44377 8.75275 9.04322C8.44789 9.70645 8.44789 10.5992 8.44789 11.3135V21.721C8.44789 21.8868 8.30817 22.0271 8.14303 22.0271H2.49041C2.32527 22.0271 2.18555 21.8868 2.18555 21.721V3.30377C2.18555 3.13797 2.32527 2.99767 2.49041 2.99767H7.78736C7.95249 2.99767 8.09222 3.13797 8.09222 3.30377V3.81395C8.09222 3.94149 8.23195 4.00526 8.33357 3.94149C12.6016 0.99524 16.7553 4.26035 16.7935 4.29861C16.9459 4.4134 17.0856 4.54094 17.2253 4.68124C17.3397 4.79603 17.454 4.91082 17.5556 5.02561C17.6826 5.16591 17.8986 5.15315 18.0129 5.01285C18.3305 4.63022 18.7242 4.26035 19.1688 3.94149C19.7531 3.53335 20.3756 3.22725 20.9853 3.04869C24.5547 1.82427 27.6668 4.2731 27.6922 4.29861C27.8447 4.4134 27.9844 4.54094 28.1241 4.68124C30.0295 6.63265 30.347 8.21419 30.347 11.0201Z" fill="#07A39F"/>
<path d="M53.0335 3.30361V21.7081C53.0335 21.8739 52.8938 22.0142 52.7287 22.0142H47.4317C47.2666 22.0142 47.1268 21.8739 47.1268 21.7081V21.4275C47.1268 21.3127 46.9998 21.2362 46.8982 21.3C45.3866 22.1673 43.6718 22.6137 41.9061 22.6137C36.3551 22.6137 31.8457 18.1497 31.8457 12.6525C31.8457 7.15542 36.3551 2.69141 41.9061 2.69141C43.6718 2.69141 45.3739 3.13781 46.8982 4.0051C46.9998 4.06887 47.1268 3.99235 47.1268 3.87756V3.30361C47.1268 3.13781 47.2666 2.99751 47.4317 2.99751H52.7287C52.8938 2.99751 53.0335 3.12505 53.0335 3.30361ZM47.1268 12.6525C47.1268 10.1399 45.3612 8.08649 42.8207 8.08649C40.2802 8.08649 38.2097 10.1399 38.2097 12.6525C38.2097 15.1651 40.2802 17.2186 42.8207 17.2186C45.3612 17.2186 47.1268 15.1779 47.1268 12.6525Z" fill="#07A39F"/>
<path d="M65.9649 3.32868L65.7871 7.77994C65.7744 7.9585 65.6346 8.08605 65.4568 8.07329C64.936 8.02228 63.9071 7.9585 63.2974 8.0988C62.6114 8.26461 62.2177 8.78754 62.116 9.04262C61.8112 9.70585 61.8112 10.2798 61.8112 11.0195V21.7204C61.8112 21.8862 61.6714 22.0265 61.5063 22.0265H55.8537C55.6886 22.0265 55.5488 21.8862 55.5488 21.7204V3.30317C55.5488 3.13737 55.6886 2.99707 55.8537 2.99707H61.1506C61.3158 2.99707 61.4555 3.13737 61.4555 3.30317V3.83886C61.4555 3.95364 61.5825 4.03017 61.6842 3.9664C62.9417 3.18839 64.4279 3.02258 65.6727 3.00982C65.8379 3.00982 65.9776 3.15012 65.9649 3.32868Z" fill="#07A39F"/>
<path d="M87.2152 3.30355V28.0087C87.2152 28.1745 87.0754 28.3148 86.9103 28.3148H81.6133C81.4482 28.3148 81.3085 28.1745 81.3085 28.0087V21.4402C81.3085 21.3254 81.1815 21.2489 81.0798 21.3127C79.5682 22.18 77.8534 22.6264 76.0877 22.6264C70.5367 22.6264 66.0273 18.1623 66.0273 12.6652C66.0273 7.18087 70.5367 2.7041 76.0877 2.7041C77.8534 2.7041 79.5555 3.1505 81.0798 4.0178C81.1815 4.08157 81.3085 4.00504 81.3085 3.89025V3.31631C81.3085 3.1505 81.4482 3.01021 81.6133 3.01021H86.9103C87.0754 2.99745 87.2152 3.13775 87.2152 3.30355ZM81.3212 12.6652C81.3212 10.1526 79.5555 8.09918 77.015 8.09918C74.4745 8.09918 72.404 10.1526 72.404 12.6652C72.404 15.1778 74.4745 17.2313 77.015 17.2313C79.5555 17.2313 81.3212 15.1778 81.3212 12.6652Z" fill="#07A39F"/>
<path d="M95.1161 21.0957H88.8283C88.6378 21.0957 88.4727 21.2488 88.4727 21.4528V27.8938C88.4727 28.2126 88.8537 28.3657 89.0824 28.1361L95.3701 21.6952C95.5988 21.4656 95.4336 21.0957 95.1161 21.0957Z" fill="#F05757"/>
<path d="M4.26876 33.6078H3.40499V37.1663H2.71905V33.6078H2.18555V33.0339H2.71905V32.7405C2.71905 32.2814 2.83338 31.937 3.07472 31.7329C3.31607 31.5161 3.69715 31.4141 4.21795 31.4141V31.988C3.91309 31.988 3.70985 32.0518 3.58282 32.1666C3.4558 32.2814 3.40499 32.4727 3.40499 32.7533V33.0466H4.26876V33.6078Z" fill="white"/>
<path d="M6.04647 36.9618C5.7289 36.7833 5.48756 36.5409 5.30972 36.2093C5.13189 35.8905 5.04297 35.5078 5.04297 35.0869C5.04297 34.6661 5.13189 34.2962 5.32242 33.9646C5.50026 33.6457 5.75431 33.3906 6.07187 33.2248C6.38944 33.0463 6.74511 32.9697 7.12618 32.9697C7.51996 32.9697 7.86293 33.059 8.18049 33.2248C8.49806 33.4034 8.7394 33.6457 8.92994 33.9646C9.10778 34.2834 9.2094 34.6533 9.2094 35.0869C9.2094 35.5206 9.12048 35.8905 8.92994 36.2093C8.7394 36.5282 8.48535 36.7833 8.16779 36.9618C7.85023 37.1404 7.49456 37.2297 7.10078 37.2297C6.707 37.2297 6.35133 37.1404 6.04647 36.9618ZM7.77401 36.4517C7.98996 36.3369 8.16779 36.1583 8.29482 35.9287C8.42184 35.6992 8.49806 35.4186 8.49806 35.0869C8.49806 34.7553 8.43454 34.4747 8.30752 34.2452C8.18049 34.0156 8.00266 33.837 7.79942 33.735C7.58347 33.6202 7.36753 33.5692 7.11348 33.5692C6.85943 33.5692 6.63078 33.6202 6.42754 33.735C6.2243 33.8498 6.05917 34.0156 5.93215 34.2452C5.80512 34.4747 5.74161 34.7553 5.74161 35.0869C5.74161 35.4186 5.80512 35.7119 5.91944 35.9415C6.04647 36.1711 6.2116 36.3496 6.41484 36.4517C6.61808 36.5664 6.84673 36.6175 7.08808 36.6175C7.32942 36.6302 7.55807 36.5664 7.77401 36.4517Z" fill="white"/>
<path d="M11.5339 33.161C11.7498 33.0335 12.0293 32.9697 12.3468 32.9697V33.6712H12.169C11.4069 33.6712 11.0258 34.0921 11.0258 34.9211V37.1659H10.3398V33.0335H11.0258V33.7095C11.1401 33.4671 11.3052 33.2886 11.5339 33.161Z" fill="white"/>
<path d="M19.1556 33.1611C19.4097 33.2886 19.6002 33.4927 19.7527 33.7606C19.8924 34.0284 19.9686 34.3473 19.9686 34.7299V37.166H19.2954V34.8319C19.2954 34.4238 19.1938 34.1049 18.9905 33.8881C18.7873 33.6713 18.5205 33.5565 18.1649 33.5565C17.8092 33.5565 17.5297 33.6713 17.3138 33.9009C17.0978 34.1304 16.9962 34.462 16.9962 34.8957V37.166H16.323V34.8319C16.323 34.4238 16.2214 34.1049 16.0181 33.8881C15.8149 33.6713 15.5481 33.5565 15.1925 33.5565C14.8368 33.5565 14.5573 33.6713 14.3414 33.9009C14.1254 34.1304 14.0238 34.462 14.0238 34.8957V37.166H13.3379V33.0336H14.0238V33.633C14.1636 33.4162 14.3414 33.2504 14.57 33.1356C14.7987 33.0208 15.0527 32.957 15.3195 32.957C15.6625 32.957 15.9673 33.0336 16.2341 33.1866C16.5008 33.3397 16.6914 33.5692 16.8311 33.8753C16.9454 33.582 17.1359 33.3524 17.4027 33.1994C17.6695 33.0336 17.9616 32.957 18.2919 32.957C18.6221 32.957 18.9143 33.0336 19.1556 33.1611Z" fill="white"/>
<path d="M25.0501 35.3547H21.7729C21.7983 35.7629 21.938 36.0817 22.192 36.3113C22.4461 36.5409 22.751 36.6557 23.1066 36.6557C23.3988 36.6557 23.6528 36.5919 23.8434 36.4516C24.0466 36.3113 24.1736 36.1327 24.2626 35.9032H24.9993C24.885 36.2985 24.669 36.6174 24.3388 36.8725C24.0085 37.1148 23.602 37.2424 23.1066 37.2424C22.7128 37.2424 22.3699 37.1531 22.065 36.9745C21.7602 36.796 21.5188 36.5536 21.341 36.222C21.1631 35.9032 21.0742 35.5205 21.0742 35.0996C21.0742 34.6787 21.1631 34.2961 21.3283 33.9773C21.4934 33.6584 21.7348 33.4033 22.0396 33.2375C22.3445 33.0589 22.7001 32.9824 23.0939 32.9824C23.4877 32.9824 23.8307 33.0717 24.1228 33.2375C24.4277 33.4033 24.6563 33.6456 24.8215 33.939C24.9866 34.2323 25.0628 34.5767 25.0628 34.9466C25.0755 35.0741 25.0628 35.2144 25.0501 35.3547ZM24.199 34.1303C24.0847 33.939 23.9323 33.7987 23.729 33.6967C23.5258 33.5946 23.3099 33.5436 23.0685 33.5436C22.7255 33.5436 22.4334 33.6584 22.192 33.8752C21.9507 34.092 21.811 34.3981 21.7729 34.7935H24.3642C24.3769 34.5384 24.3134 34.3089 24.199 34.1303Z" fill="white"/>
<path d="M27.4128 33.161C27.6287 33.0335 27.9082 32.9697 28.2257 32.9697V33.6712H28.0479C27.2858 33.6712 26.9047 34.0921 26.9047 34.9211V37.1659H26.2188V33.0335H26.9047V33.7095C27.019 33.4671 27.1841 33.2886 27.4128 33.161Z" fill="white"/>
<path d="M29.9281 31.5928V37.1664H29.2422V31.5928H29.9281Z" fill="white"/>
<path d="M34.8695 33.0342L32.3925 39.1052H31.6938L32.5068 37.1156L30.8555 33.0342H31.6176L32.9006 36.3758L34.1708 33.0342H34.8695Z" fill="white"/>
<path d="M38.7172 36.6047H40.5464V37.1659H38.0312V31.9238H38.7172V36.6047Z" fill="white"/>
<path d="M45.1574 33.0342V37.1538H44.4714V36.5416C44.3444 36.7584 44.1666 36.9115 43.9252 37.039C43.6966 37.1538 43.4425 37.2176 43.1631 37.2176C42.8455 37.2176 42.5533 37.1538 42.2993 37.0135C42.0452 36.886 41.842 36.6819 41.7023 36.4141C41.5498 36.1462 41.4863 35.8274 41.4863 35.4447V33.0342H42.1596V35.3555C42.1596 35.7636 42.2612 36.0697 42.4644 36.2865C42.6677 36.5034 42.9471 36.6181 43.3028 36.6181C43.6712 36.6181 43.9506 36.5034 44.1666 36.2738C44.3825 36.0442 44.4841 35.7253 44.4841 35.2917V33.0342H45.1574Z" fill="white"/>
<path d="M46.5431 33.9773C46.7082 33.6585 46.9496 33.4161 47.2545 33.2376C47.5593 33.059 47.9023 32.9697 48.2961 32.9697C48.8042 32.9697 49.2106 33.0973 49.5409 33.3396C49.8712 33.5819 50.0871 33.9263 50.1887 34.3599H49.452C49.3758 34.1049 49.2488 33.9135 49.0455 33.7605C48.8423 33.6202 48.5882 33.5437 48.2961 33.5437C47.9023 33.5437 47.5974 33.684 47.3561 33.9518C47.1147 34.2197 47.0004 34.6023 47.0004 35.0869C47.0004 35.5844 47.1147 35.967 47.3561 36.2348C47.5974 36.5027 47.915 36.643 48.2961 36.643C48.6009 36.643 48.8423 36.5664 49.0455 36.4262C49.2488 36.2859 49.3885 36.0818 49.452 35.8267H50.1887C50.0744 36.2476 49.8585 36.5792 49.5282 36.8343C49.1979 37.0894 48.7915 37.2169 48.2961 37.2169C47.9023 37.2169 47.5593 37.1276 47.2545 36.9491C46.9496 36.7705 46.7209 36.5282 46.5431 36.2093C46.378 35.8905 46.2891 35.5078 46.2891 35.0869C46.2891 34.6661 46.378 34.2962 46.5431 33.9773Z" fill="white"/>
<path d="M51.3565 32.2303C51.2676 32.141 51.2168 32.0262 51.2168 31.8987C51.2168 31.7711 51.2676 31.6563 51.3565 31.5671C51.4454 31.4778 51.5598 31.4268 51.6868 31.4268C51.8138 31.4268 51.9154 31.4778 52.0044 31.5671C52.0933 31.6563 52.1314 31.7711 52.1314 31.8987C52.1314 32.0262 52.0933 32.141 52.0044 32.2303C51.9154 32.3196 51.8138 32.3706 51.6868 32.3706C51.5598 32.3706 51.4454 32.3196 51.3565 32.2303ZM52.0171 33.0338V37.1535H51.3311V33.0338H52.0171Z" fill="white"/>
<path d="M53.4144 33.9778C53.5796 33.659 53.8209 33.4166 54.1131 33.2381C54.4052 33.0595 54.7482 32.9702 55.1166 32.9702C55.4341 32.9702 55.739 33.0468 56.0057 33.1871C56.2852 33.3401 56.4884 33.5314 56.6409 33.7738V31.5928H57.3268V37.1664H56.6409V36.3884C56.5011 36.6307 56.3106 36.8348 56.0438 37.0006C55.7771 37.1537 55.4722 37.2429 55.1166 37.2429C54.7482 37.2429 54.4179 37.1537 54.1258 36.9751C53.8336 36.7965 53.5923 36.5415 53.4271 36.2098C53.262 35.8782 53.1731 35.5084 53.1731 35.1002C53.1604 34.6666 53.2493 34.2967 53.4144 33.9778ZM56.4503 34.2839C56.3233 34.0544 56.1582 33.8758 55.9422 33.7483C55.7263 33.6207 55.4976 33.5697 55.2436 33.5697C54.9895 33.5697 54.7609 33.6335 54.5449 33.7483C54.329 33.863 54.1639 34.0416 54.0368 34.2712C53.9098 34.5008 53.8463 34.7686 53.8463 35.0875C53.8463 35.4063 53.9098 35.6742 54.0368 35.9165C54.1639 36.1461 54.329 36.3246 54.5449 36.4522C54.7609 36.5797 54.9895 36.6307 55.2436 36.6307C55.4976 36.6307 55.7263 36.567 55.9422 36.4522C56.1582 36.3246 56.3233 36.1461 56.4503 35.9165C56.5773 35.6869 56.6409 35.4063 56.6409 35.1002C56.6409 34.7941 56.5773 34.5135 56.4503 34.2839Z" fill="white"/>
<path d="M60.0066 33.2121C60.2733 33.059 60.5909 32.9697 60.9339 32.9697C61.3023 32.9697 61.6325 33.059 61.9247 33.2376C62.2168 33.4161 62.4582 33.6585 62.6233 33.9773C62.7884 34.2962 62.8774 34.6661 62.8774 35.0869C62.8774 35.5078 62.7884 35.8777 62.6233 36.1966C62.4582 36.5282 62.2168 36.7705 61.9247 36.9618C61.6325 37.1404 61.3023 37.2297 60.9339 37.2297C60.5782 37.2297 60.2733 37.1531 60.0066 36.9873C59.7398 36.8343 59.5366 36.6302 59.3969 36.4006V39.1173H58.7109V33.0335H59.3969V33.7988C59.5366 33.5564 59.7398 33.3651 60.0066 33.2121ZM62.0009 34.2707C61.8739 34.0411 61.7087 33.8625 61.4928 33.7477C61.2768 33.633 61.0482 33.5692 60.7942 33.5692C60.5401 33.5692 60.3115 33.633 60.0955 33.7477C59.8796 33.8753 59.7144 34.0538 59.5874 34.2834C59.4604 34.513 59.3969 34.7808 59.3969 35.0869C59.3969 35.393 59.4604 35.6736 59.5874 35.9032C59.7144 36.1328 59.8796 36.3114 60.0955 36.4389C60.3115 36.5664 60.5401 36.6175 60.7942 36.6175C61.0482 36.6175 61.2768 36.5537 61.4928 36.4389C61.7087 36.3114 61.8739 36.1328 62.0009 35.9032C62.1279 35.6736 62.1914 35.393 62.1914 35.0742C62.1914 34.7681 62.1279 34.5002 62.0009 34.2707Z" fill="white"/>
<path d="M65.2272 33.161C65.4559 33.0335 65.7226 32.9697 66.0402 32.9697V33.6712H65.8624C65.1002 33.6712 64.7191 34.0921 64.7191 34.9211V37.1659H64.0332V33.0335H64.7191V33.7095C64.8335 33.4671 64.9986 33.2886 65.2272 33.161Z" fill="white"/>
<path d="M70.7923 35.3547H67.515C67.5405 35.7629 67.6802 36.0817 67.9342 36.3113C68.1883 36.5409 68.4931 36.6557 68.8488 36.6557C69.141 36.6557 69.395 36.5919 69.5856 36.4516C69.7888 36.3113 69.9158 36.1327 70.0047 35.9032H70.7415C70.6272 36.2985 70.4112 36.6174 70.081 36.8725C69.7507 37.1276 69.3442 37.2424 68.8488 37.2424C68.455 37.2424 68.1121 37.1531 67.8072 36.9745C67.5023 36.796 67.261 36.5536 67.0832 36.222C66.9053 35.8904 66.8164 35.5205 66.8164 35.0996C66.8164 34.6787 66.9053 34.2961 67.0705 33.9773C67.2356 33.6584 67.4769 33.4033 67.7818 33.2375C68.0867 33.0589 68.4423 32.9824 68.8361 32.9824C69.2299 32.9824 69.5729 33.0717 69.865 33.2375C70.1699 33.4033 70.3985 33.6456 70.5637 33.939C70.7288 34.2323 70.805 34.5767 70.805 34.9466C70.8177 35.0741 70.805 35.2144 70.7923 35.3547ZM69.9412 34.1303C69.8269 33.939 69.6745 33.7987 69.4712 33.6967C69.268 33.5946 69.0521 33.5436 68.8107 33.5436C68.4677 33.5436 68.1756 33.6584 67.9342 33.8752C67.6929 34.092 67.5532 34.3981 67.515 34.7935H70.1064C70.1064 34.5384 70.0555 34.3089 69.9412 34.1303Z" fill="white"/>
<path d="M72.5571 37.0638C72.3031 36.9618 72.1125 36.8087 71.9601 36.6174C71.8204 36.4261 71.7315 36.1965 71.7188 35.9542H72.4174C72.4428 36.1582 72.5317 36.3241 72.7096 36.4644C72.8874 36.5919 73.1033 36.6557 73.3828 36.6557C73.6368 36.6557 73.8528 36.5919 73.9925 36.4771C74.1449 36.3623 74.2211 36.222 74.2211 36.0435C74.2211 35.8649 74.1449 35.7246 73.9798 35.6353C73.8147 35.546 73.5733 35.4568 73.2431 35.3802C72.9382 35.3037 72.6841 35.2144 72.4936 35.1379C72.3031 35.0614 72.1379 34.9338 71.9982 34.768C71.8585 34.6022 71.795 34.3854 71.795 34.1303C71.795 33.9135 71.8585 33.7222 71.9855 33.5564C72.1125 33.3778 72.2904 33.2375 72.519 33.1355C72.7477 33.0334 73.0144 32.9824 73.3066 32.9824C73.7639 32.9824 74.1322 33.0972 74.4117 33.3268C74.6911 33.5564 74.8436 33.8752 74.8563 34.2706H74.183C74.1703 34.0538 74.0814 33.888 73.929 33.7477C73.7766 33.6201 73.5606 33.5564 73.2939 33.5564C73.0525 33.5564 72.8493 33.6074 72.7096 33.7094C72.5698 33.8115 72.4936 33.9517 72.4936 34.1176C72.4936 34.2579 72.5317 34.3599 72.6206 34.4492C72.7096 34.5384 72.8239 34.6022 72.9509 34.666C73.0779 34.717 73.2685 34.7808 73.4971 34.8446C73.7893 34.9211 74.0306 34.9976 74.2211 35.0869C74.4117 35.1634 74.5641 35.2782 74.6911 35.4313C74.8182 35.5843 74.8944 35.7884 74.8944 36.0435C74.8944 36.273 74.8309 36.4771 74.7038 36.6557C74.5768 36.8342 74.399 36.9745 74.1703 37.0766C73.9417 37.1786 73.6876 37.2296 73.3828 37.2296C73.0906 37.2296 72.8112 37.1786 72.5571 37.0638Z" fill="white"/>
<path d="M76.7114 37.0638C76.4574 36.9618 76.2668 36.8087 76.1144 36.6174C75.9747 36.4261 75.8857 36.1965 75.873 35.9542H76.5717C76.5971 36.1582 76.686 36.3241 76.8638 36.4644C77.0417 36.5919 77.2576 36.6557 77.5371 36.6557C77.7911 36.6557 78.0071 36.5919 78.1468 36.4771C78.2992 36.3623 78.3754 36.222 78.3754 36.0435C78.3754 35.8649 78.2992 35.7246 78.1341 35.6353C77.969 35.546 77.7276 35.4568 77.3974 35.3802C77.0925 35.3037 76.8384 35.2144 76.6479 35.1379C76.4574 35.0614 76.2922 34.9338 76.1525 34.768C76.0128 34.6022 75.9493 34.3854 75.9493 34.1303C75.9493 33.9135 76.0128 33.7222 76.1398 33.5564C76.2668 33.3778 76.4447 33.2375 76.6733 33.1355C76.902 33.0334 77.1687 32.9824 77.4609 32.9824C77.9182 32.9824 78.2865 33.0972 78.566 33.3268C78.8454 33.5564 78.9979 33.8752 79.0106 34.2706H78.3246C78.3119 34.0538 78.223 33.888 78.0706 33.7477C77.9182 33.6201 77.7022 33.5564 77.4355 33.5564C77.1941 33.5564 76.9909 33.6074 76.8511 33.7094C76.7114 33.8115 76.6352 33.9517 76.6352 34.1176C76.6352 34.2579 76.6733 34.3599 76.7622 34.4492C76.8511 34.5384 76.9655 34.6022 77.0925 34.666C77.2195 34.717 77.4101 34.7808 77.6387 34.8446C77.9309 34.9211 78.1722 34.9976 78.3627 35.0869C78.5533 35.1634 78.7057 35.2782 78.8327 35.4313C78.9598 35.5843 79.036 35.7884 79.036 36.0435C79.036 36.273 78.9725 36.4771 78.8454 36.6557C78.7184 36.8342 78.5406 36.9745 78.3119 37.0766C78.0833 37.1786 77.8292 37.2296 77.5244 37.2296C77.2449 37.2296 76.9655 37.1786 76.7114 37.0638Z" fill="white"/>
</svg>
