<svg width="102" height="27" viewBox="0 0 102 27" fill="none" xmlns="http://www.w3.org/2000/svg">
<g clip-path="url(#clip0_1130_624)">
<path fill-rule="evenodd" clip-rule="evenodd" d="M82.6671 8.64804C82.8384 8.607 83.0035 8.73579 83.0035 8.91048V21.0602C83.0035 21.2095 82.8814 21.3302 82.7311 21.3302H79.8713C79.7209 21.3302 79.5989 21.2095 79.5989 21.0602V9.59466C79.5989 9.46992 79.685 9.36165 79.8073 9.33222L82.6671 8.64804ZM101.597 1.62752C101.769 1.58729 101.933 1.71608 101.933 1.8905V21.0602C101.933 21.2093 101.811 21.3302 101.66 21.3302H99.8108C99.7313 21.3302 99.6558 21.2959 99.6041 21.2363L98.9569 20.4889C97.898 21.1904 96.6263 21.6002 95.2599 21.6002C91.3338 21.6002 88.1891 18.222 88.6278 14.2441C88.9569 11.263 91.3357 8.83733 94.333 8.43287C95.8648 8.22632 97.3135 8.54168 98.5282 9.22127V2.56388C98.5282 2.43887 98.6146 2.33006 98.7374 2.30144L101.597 1.62752ZM98.501 15.4081C98.7726 13.2918 96.9692 11.5036 94.8345 11.7722C93.3789 11.9553 92.2037 13.1201 92.0185 14.5627C91.7469 16.6789 93.5503 18.4672 95.6853 18.1985C97.1406 18.0154 98.3158 16.8507 98.501 15.4081ZM86.2718 8.37026C87.3623 8.37026 88.2464 9.24668 88.2464 10.3278C88.2464 11.4088 87.3623 12.2853 86.2718 12.2853C85.1813 12.2853 84.2972 11.4088 84.2972 10.3278C84.2972 9.24668 85.1813 8.37026 86.2718 8.37026ZM50.1837 8.64026C50.334 8.64026 50.456 8.76122 50.456 8.91026V21.0603C50.456 21.2096 50.334 21.3303 50.1837 21.3303H47.3239C47.1735 21.3303 47.0515 21.2096 47.0515 21.0603V8.91026C47.0515 8.76122 47.1735 8.64026 47.3239 8.64026H50.1837ZM48.7538 1.62026C49.8443 1.62026 50.7284 2.49668 50.7284 3.57776C50.7284 4.65884 49.8443 5.53526 48.7538 5.53526C47.6632 5.53526 46.7791 4.65884 46.7791 3.57776C46.7791 2.49668 47.6632 1.62026 48.7538 1.62026ZM63.4614 8.64026C63.6117 8.64026 63.7337 8.76122 63.7337 8.91026V11.4923C63.7337 11.5673 63.7019 11.6394 63.646 11.6904L56.6523 18.0903H62.7039C62.829 18.0903 62.9379 18.1748 62.9681 18.2949L63.649 20.9949C63.6921 21.1653 63.5622 21.3303 63.3848 21.3303H62.1758H52.2945C52.1441 21.3303 52.0221 21.2096 52.0221 21.0603V18.4785C52.0221 18.4032 52.054 18.3314 52.1098 18.2801L58.8312 11.8803H53.0519C52.9269 11.8803 52.818 11.796 52.7877 11.6759L52.1068 8.97587C52.0638 8.8055 52.1937 8.64026 52.371 8.64026H54.0049H63.4614ZM77.6284 8.64809C77.7999 8.60705 77.9647 8.73584 77.9647 8.91053V21.0603C77.9647 21.2096 77.8427 21.3303 77.6924 21.3303H75.8441C75.764 21.3303 75.6878 21.2954 75.636 21.2347L74.9965 20.4841C73.9359 21.1885 72.6615 21.6003 71.2918 21.6003C67.6122 21.6003 64.6189 18.6327 64.6189 14.9853C64.6189 11.3378 67.6122 8.37026 71.2918 8.37026C72.561 8.37026 73.7488 8.72369 74.7598 9.33605C74.7631 9.33524 74.7655 9.33308 74.7685 9.33227L77.6284 8.64809ZM71.2918 18.2253C73.0941 18.2253 74.5602 16.7718 74.5602 14.9853C74.5602 13.1987 73.0941 11.7453 71.2918 11.7453C69.4896 11.7453 68.0235 13.1987 68.0235 14.9853C68.0235 16.7718 69.4896 18.2253 71.2918 18.2253ZM45.145 8.64026C45.2953 8.64026 45.4173 8.76122 45.4173 8.91026V14.7153C45.4173 18.5117 42.271 21.6003 38.404 21.6003C34.537 21.6003 31.3906 18.5117 31.3906 14.7153V8.91026C31.3906 8.76122 31.5126 8.64026 31.663 8.64026H34.5228C34.6731 8.64026 34.7952 8.76122 34.7952 8.91026V14.7153C34.7952 16.6506 36.4141 18.2253 38.404 18.2253C40.3939 18.2253 42.0128 16.6506 42.0128 14.7153V8.91026C42.0128 8.76122 42.1348 8.64026 42.2852 8.64026H45.145Z" fill="white"/>
<path fill-rule="evenodd" clip-rule="evenodd" d="M16.4101 27H10.9629C4.94611 27 0.0683594 22.1646 0.0683594 16.2V10.8C0.0683594 4.83543 4.94611 0 10.9629 0H16.4101C22.4269 0 27.3047 4.83543 27.3047 10.8V16.2C27.3047 22.1646 22.4269 27 16.4101 27Z" fill="#FFC125"/>
<path fill-rule="evenodd" clip-rule="evenodd" d="M18.4164 9.21668C18.5305 9.19157 18.6433 9.17969 18.7531 9.17969C19.7758 9.17969 20.5545 10.2143 20.0825 11.2851C19.9515 11.583 19.7069 11.8254 19.4062 11.9556C18.21 12.4737 17.0587 11.4714 17.3199 10.304C17.4397 9.76802 17.8761 9.33548 18.4164 9.21668ZM7.42275 9.39542H9.60166C9.752 9.39542 9.87402 9.51665 9.87402 9.66542V13.6401C9.87402 15.647 11.5599 17.2797 13.6326 17.2797C15.6187 17.2797 17.2502 15.7801 17.3825 13.8888C17.3926 13.747 17.5176 13.6401 17.6609 13.6401H19.8352C19.9885 13.6401 20.1154 13.7656 20.1089 13.9174C19.9599 17.2848 17.1118 19.9797 13.6326 19.9797C10.0584 19.9797 7.15039 17.1355 7.15039 13.6401V9.66542C7.15039 9.51665 7.27214 9.39542 7.42275 9.39542Z" fill="white"/>
</g>
<defs>
<clipPath id="clip0_1130_624">
<rect width="102" height="27" fill="white"/>
</clipPath>
</defs>
</svg>
