<svg width="100" height="22" viewBox="0 0 100 22" fill="none" xmlns="http://www.w3.org/2000/svg">
<g clip-path="url(#clip0_1130_635)">
<path d="M8.65234 4.02951L14.6499 7.51482C15.6192 8.07794 16.216 9.11277 16.2176 10.2323L16.2347 22L23.4202 17.9705V6.28228C23.4202 5.15873 22.8206 4.12038 21.847 3.55699L15.6978 0L8.65234 4.02951Z" fill="white"/>
<path d="M14.7678 17.9705L8.76999 14.4852C7.80069 13.9221 7.20389 12.8872 7.20226 11.7677L7.18547 0L0 4.02951V15.7177C0 16.8413 0.599511 17.8796 1.57314 18.443L7.7224 22.0003L14.7678 17.9705ZM58.8085 13.0352C58.8085 17.0079 55.9298 19.9022 52.1182 19.9022C48.3066 19.9022 45.4279 17.0082 45.4279 13.0352C45.4279 9.03623 48.3066 6.16814 52.1182 6.16814C55.9298 6.16841 58.8085 9.03623 58.8085 13.0352ZM55.3596 13.0352C55.3596 10.5885 53.8035 9.3516 52.1182 9.3516C50.4329 9.3516 48.8768 10.5885 48.8768 13.0352C48.8768 15.4556 50.4329 16.7187 52.1182 16.7187C53.8035 16.7187 55.3596 15.4819 55.3596 13.0352ZM73.6746 13.0352C73.6746 17.0079 70.796 19.9022 66.9843 19.9022C63.1727 19.9022 60.2941 17.0082 60.2941 13.0352C60.2941 9.03623 63.1727 6.16814 66.9843 6.16814C70.796 6.16814 73.6746 9.03623 73.6746 13.0352ZM70.2257 13.0352C70.2257 10.5885 68.6696 9.3516 66.9843 9.3516C65.299 9.3516 63.743 10.5885 63.743 13.0352C63.743 15.4556 65.299 16.7187 66.9843 16.7187C68.6696 16.7187 70.2257 15.4819 70.2257 13.0352ZM32.4446 19.5333V2.09752H36.0882V16.0534H44.4316V19.5333H32.4446ZM82.9141 12.0206L88.2214 19.5333H83.9175L80.4849 14.5777L79.0328 16.1064V19.5336H75.5211V2.09752H79.0328V11.3875L83.5212 6.56357H88.1154L82.9141 12.0206ZM92.2375 12.0731L95.4325 11.5987C96.1718 11.4935 96.4092 11.1243 96.4092 10.6764C96.4092 9.75353 95.6964 8.98917 94.2178 8.98917C92.6864 8.98917 91.8417 9.46628 91.7358 10.5998L88.5621 10.6409C88.7734 8.61105 90.7061 6.16814 94.191 6.16814C98.3098 6.16814 99.8415 8.48771 99.8415 11.0975V17.4771C99.8415 18.1625 99.9206 19.0848 99.9997 19.533H96.7789C96.6993 19.1903 96.647 18.4784 96.647 17.9778C95.9868 19.0059 94.7461 19.9019 92.8183 19.9019C90.0459 19.9019 88.3563 18.0305 88.3563 16.0009C88.3563 13.6811 90.0724 12.3896 92.2375 12.0731ZM96.4092 14.2875V13.7076L93.4785 14.1555C92.581 14.2872 91.8677 14.7884 91.8677 15.7902C91.8677 16.5546 92.422 17.2927 93.5576 17.2927C95.0365 17.2927 96.4092 16.5808 96.4092 14.2875Z" fill="white"/>
</g>
<defs>
<clipPath id="clip0_1130_635">
<rect width="100" height="22" fill="white"/>
</clipPath>
</defs>
</svg>
