<svg width="87" height="87" viewBox="0 0 87 87" fill="none" xmlns="http://www.w3.org/2000/svg">
<path d="M69.2314 36.5146L63.8398 47.4203L71.0694 43.9893L78.4215 47.7879L72.6624 36.5146" stroke="url(#paint0_linear_877_1837)" stroke-width="2" stroke-miterlimit="10" stroke-linecap="round" stroke-linejoin="round"/>
<path d="M43.621 62.8603C45.1776 62.8603 46.4394 61.5985 46.4394 60.0419C46.4394 58.4854 45.1776 57.2236 43.621 57.2236C42.0645 57.2236 40.8027 58.4854 40.8027 60.0419C40.8027 61.5985 42.0645 62.8603 43.621 62.8603Z" stroke="url(#paint1_linear_877_1837)" stroke-width="2" stroke-miterlimit="10" stroke-linecap="round" stroke-linejoin="round"/>
<path d="M33.697 22.6684H9.92518C9.55757 22.6684 9.3125 22.4234 9.3125 22.0557V15.4388C9.3125 15.0712 9.55757 14.8262 9.92518 14.8262H33.697C34.0646 14.8262 34.3097 15.0712 34.3097 15.4388V22.0557C34.3097 22.3008 34.0646 22.6684 33.697 22.6684Z" stroke="url(#paint2_linear_877_1837)" stroke-width="2" stroke-miterlimit="10" stroke-linecap="round" stroke-linejoin="round"/>
<path d="M54.1594 66.7812H34.7988V76.7066H54.1594V66.7812Z" stroke="url(#paint3_linear_877_1837)" stroke-width="2" stroke-miterlimit="10" stroke-linecap="round" stroke-linejoin="round"/>
<path d="M79.7699 66.781H7.22902C4.53325 66.781 2.20508 64.5754 2.20508 61.7571V52.9346H84.5487V61.8796C84.6713 64.5754 82.4656 66.781 79.7699 66.781Z" stroke="url(#paint4_linear_877_1837)" stroke-width="2" stroke-miterlimit="10" stroke-linecap="round" stroke-linejoin="round"/>
<path d="M79.4028 2.4502H7.59714C4.65629 2.4502 2.32812 4.77836 2.32812 7.71921V53.0572H84.6718V7.71921C84.6718 4.77836 82.3436 2.4502 79.4028 2.4502Z" stroke="url(#paint5_linear_877_1837)" stroke-width="2" stroke-miterlimit="10" stroke-linecap="round" stroke-linejoin="round"/>
<path d="M58.8169 84.5488H30.2662C29.0408 84.5488 28.0605 83.5685 28.0605 82.3432V79.0347C28.0605 77.8094 29.0408 76.8291 30.2662 76.8291H58.8169C60.0422 76.8291 61.0225 77.8094 61.0225 79.0347V82.3432C61.0225 83.5685 60.0422 84.5488 58.8169 84.5488Z" stroke="url(#paint6_linear_877_1837)" stroke-width="2" stroke-miterlimit="10" stroke-linecap="round" stroke-linejoin="round"/>
<path d="M69.2325 36.515C69.2325 36.515 49.872 36.515 49.3818 36.515C47.2987 36.515 47.4213 36.6376 47.4213 34.3094C47.4213 31.9812 47.4213 14.0911 47.4213 13.601C47.4213 12.9883 47.5438 12.9883 49.2593 12.9883C50.9748 12.9883 75.3593 12.9883 75.8495 12.9883C76.5847 12.9883 76.5847 13.1108 76.5847 14.4587C76.5847 15.8066 76.5847 35.7798 76.5847 36.1474C76.5847 36.515 76.5847 36.515 75.6044 36.515C74.6241 36.515 72.6635 36.515 72.6635 36.515C72.6635 36.515 71.4382 33.8193 71.3156 33.6967C71.1931 33.5742 70.948 33.5742 70.948 33.6967C70.8255 33.6967 69.2325 36.515 69.2325 36.515Z" stroke="url(#paint7_linear_877_1837)" stroke-width="2" stroke-miterlimit="10" stroke-linecap="round" stroke-linejoin="round"/>
<path d="M54 26H59" stroke="url(#paint8_linear_877_1837)" stroke-width="2" stroke-miterlimit="10" stroke-linecap="round" stroke-linejoin="round"/>
<path d="M51.5859 30.8787L56.6099 19.6055L61.7564 30.6336" stroke="url(#paint9_linear_877_1837)" stroke-width="2" stroke-miterlimit="10" stroke-linecap="round" stroke-linejoin="round"/>
<path d="M66.291 19.2379V30.1435C66.291 30.1435 72.1727 30.2661 72.1727 24.6294C72.1727 18.9928 66.291 19.2379 66.291 19.2379Z" stroke="url(#paint10_linear_877_1837)" stroke-width="2" stroke-miterlimit="10" stroke-linecap="round" stroke-linejoin="round"/>
<path d="M42.2735 30.8779H9.06641" stroke="url(#paint11_linear_877_1837)" stroke-width="2" stroke-miterlimit="10" stroke-linecap="round" stroke-linejoin="round"/>
<path d="M42.2735 38.4756H9.06641" stroke="url(#paint12_linear_877_1837)" stroke-width="2" stroke-miterlimit="10" stroke-linecap="round" stroke-linejoin="round"/>
<path d="M42.2735 46.1953H9.06641" stroke="url(#paint13_linear_877_1837)" stroke-width="2" stroke-miterlimit="10" stroke-linecap="round" stroke-linejoin="round"/>
<defs>
<linearGradient id="paint0_linear_877_1837" x1="71.1307" y1="36.5146" x2="71.1307" y2="47.7879" gradientUnits="userSpaceOnUse">
<stop stop-color="#FF000F"/>
<stop offset="1" stop-color="#2176F5"/>
</linearGradient>
<linearGradient id="paint1_linear_877_1837" x1="43.621" y1="57.2236" x2="43.621" y2="62.8603" gradientUnits="userSpaceOnUse">
<stop stop-color="#FF000F"/>
<stop offset="1" stop-color="#2176F5"/>
</linearGradient>
<linearGradient id="paint2_linear_877_1837" x1="21.8111" y1="14.8262" x2="21.8111" y2="22.6684" gradientUnits="userSpaceOnUse">
<stop stop-color="#FF000F"/>
<stop offset="1" stop-color="#2176F5"/>
</linearGradient>
<linearGradient id="paint3_linear_877_1837" x1="44.4791" y1="66.7812" x2="44.4791" y2="76.7066" gradientUnits="userSpaceOnUse">
<stop stop-color="#FF000F"/>
<stop offset="1" stop-color="#2176F5"/>
</linearGradient>
<linearGradient id="paint4_linear_877_1837" x1="43.3793" y1="52.9346" x2="43.3793" y2="66.781" gradientUnits="userSpaceOnUse">
<stop stop-color="#FF000F"/>
<stop offset="1" stop-color="#2176F5"/>
</linearGradient>
<linearGradient id="paint5_linear_877_1837" x1="43.5" y1="2.4502" x2="43.5" y2="53.0572" gradientUnits="userSpaceOnUse">
<stop stop-color="#FF000F"/>
<stop offset="1" stop-color="#2176F5"/>
</linearGradient>
<linearGradient id="paint6_linear_877_1837" x1="44.5415" y1="76.8291" x2="44.5415" y2="84.5488" gradientUnits="userSpaceOnUse">
<stop stop-color="#FF000F"/>
<stop offset="1" stop-color="#2176F5"/>
</linearGradient>
<linearGradient id="paint7_linear_877_1837" x1="62.0023" y1="12.9883" x2="62.0023" y2="36.5162" gradientUnits="userSpaceOnUse">
<stop stop-color="#FF000F"/>
<stop offset="1" stop-color="#2176F5"/>
</linearGradient>
<linearGradient id="paint8_linear_877_1837" x1="56.5" y1="26" x2="56.5" y2="27" gradientUnits="userSpaceOnUse">
<stop stop-color="#FF000F"/>
<stop offset="1" stop-color="#2176F5"/>
</linearGradient>
<linearGradient id="paint9_linear_877_1837" x1="56.6712" y1="19.6055" x2="56.6712" y2="30.8787" gradientUnits="userSpaceOnUse">
<stop stop-color="#FF000F"/>
<stop offset="1" stop-color="#2176F5"/>
</linearGradient>
<linearGradient id="paint10_linear_877_1837" x1="69.2319" y1="19.2363" x2="69.2319" y2="30.1437" gradientUnits="userSpaceOnUse">
<stop stop-color="#FF000F"/>
<stop offset="1" stop-color="#2176F5"/>
</linearGradient>
<linearGradient id="paint11_linear_877_1837" x1="25.6699" y1="30.8779" x2="25.6699" y2="31.8779" gradientUnits="userSpaceOnUse">
<stop stop-color="#FF000F"/>
<stop offset="1" stop-color="#2176F5"/>
</linearGradient>
<linearGradient id="paint12_linear_877_1837" x1="25.6699" y1="38.4756" x2="25.6699" y2="39.4756" gradientUnits="userSpaceOnUse">
<stop stop-color="#FF000F"/>
<stop offset="1" stop-color="#2176F5"/>
</linearGradient>
<linearGradient id="paint13_linear_877_1837" x1="25.6699" y1="46.1953" x2="25.6699" y2="47.1953" gradientUnits="userSpaceOnUse">
<stop stop-color="#FF000F"/>
<stop offset="1" stop-color="#2176F5"/>
</linearGradient>
</defs>
</svg>
