<svg width="1081" height="432" viewBox="0 0 1081 432" fill="none" xmlns="http://www.w3.org/2000/svg">
<g opacity="0.3">
<mask id="path-1-outside-1_877_1790" maskUnits="userSpaceOnUse" x="0" y="0" width="1081" height="432" fill="black">
<rect fill="white" width="1081" height="432"/>
<path d="M2.14375 422V1.99997H98.7438V422H2.14375ZM361.469 422L357.269 366.2V1.99997H450.869V422H361.469ZM272.069 429.2C244.069 429.2 219.869 423 199.469 410.6C179.469 397.8 163.869 379.6 152.669 356C141.869 332.4 136.469 304.4 136.469 272C136.469 239.2 141.869 211.2 152.669 188C163.869 164.4 179.469 146.4 199.469 134C219.869 121.2 244.069 114.8 272.069 114.8C296.869 114.8 317.669 121.2 334.469 134C351.669 146.4 364.469 164.4 372.869 188C381.269 211.2 385.469 239.2 385.469 272C385.469 304.4 381.269 332.4 372.869 356C364.469 379.6 351.669 397.8 334.469 410.6C317.669 423 296.869 429.2 272.069 429.2ZM296.669 342.8C308.269 342.8 318.669 339.8 327.869 333.8C337.069 327.8 344.269 319.6 349.469 309.2C354.669 298.4 357.269 286 357.269 272C357.269 258 354.669 245.8 349.469 235.4C344.269 224.6 337.069 216.2 327.869 210.2C318.669 204.2 308.069 201.2 296.069 201.2C284.069 201.2 273.469 204.2 264.269 210.2C255.069 216.2 247.669 224.6 242.069 235.4C236.869 245.8 234.069 258 233.669 272C234.069 286 236.869 298.4 242.069 309.2C247.669 319.6 255.069 327.8 264.269 333.8C273.869 339.8 284.669 342.8 296.669 342.8ZM637.834 429.2C606.634 429.2 579.034 422.6 555.034 409.4C531.034 396.2 512.234 377.8 498.634 354.2C485.034 330.6 478.234 303.2 478.234 272C478.234 240.8 485.034 213.4 498.634 189.8C512.234 166.2 531.034 147.8 555.034 134.6C579.434 121.4 607.434 114.8 639.034 114.8C667.434 114.8 693.034 121.6 715.834 135.2C738.634 148.8 756.634 169.2 769.834 196.4C783.434 223.2 790.234 256.4 790.234 296H564.634L574.834 284.6C574.834 298.2 577.634 310.2 583.234 320.6C588.834 331 596.634 339 606.634 344.6C616.634 349.8 627.834 352.4 640.234 352.4C655.034 352.4 667.434 349.2 677.434 342.8C687.434 336 694.434 327.6 698.434 317.6L781.834 345.8C773.834 365 762.434 380.8 747.634 393.2C733.234 405.6 716.634 414.8 697.834 420.8C679.034 426.4 659.034 429.2 637.834 429.2ZM577.234 246.2L567.634 233.6H702.034L693.034 246.2C693.034 231 690.034 219.2 684.034 210.8C678.034 202 670.634 195.6 661.834 191.6C653.434 187.6 644.834 185.6 636.034 185.6C627.234 185.6 618.234 187.6 609.034 191.6C600.234 195.6 592.634 202 586.234 210.8C580.234 219.2 577.234 231 577.234 246.2ZM989.777 422L986.777 357.2V272.6C986.777 256.6 985.377 242.6 982.577 230.6C980.177 218.6 975.177 209.4 967.577 203C960.377 196.2 949.777 192.8 935.777 192.8C924.577 192.8 914.777 195.4 906.377 200.6C897.977 205.8 890.777 212.8 884.777 221.6L802.577 194.6C809.777 179.8 819.177 166.4 830.777 154.4C842.777 142.4 857.377 132.8 874.577 125.6C891.777 118.4 911.777 114.8 934.577 114.8C965.777 114.8 992.177 120.6 1013.78 132.2C1035.38 143.8 1051.58 160 1062.38 180.8C1073.18 201.6 1078.58 226.2 1078.58 254.6L1077.38 422H989.777ZM907.577 429.2C872.377 429.2 844.977 421.4 825.377 405.8C805.777 389.8 795.977 367 795.977 337.4C795.977 305.8 806.177 282.2 826.577 266.6C846.977 251 875.577 243.2 912.377 243.2H994.577V303.8H947.177C927.577 303.8 913.377 306.6 904.577 312.2C895.777 317.4 891.377 325 891.377 335C891.377 342.2 894.577 348 900.977 352.4C907.777 356.4 916.977 358.4 928.577 358.4C940.177 358.4 950.177 356 958.577 351.2C967.377 346 974.177 339.2 978.977 330.8C984.177 322.4 986.777 313.4 986.777 303.8H1010.78C1010.78 343.4 1002.18 374.2 984.977 396.2C968.177 418.2 942.377 429.2 907.577 429.2Z"/>
</mask>
<path d="M2.14375 422H0.143753V424H2.14375V422ZM2.14375 1.99997V-3.05176e-05H0.143753V1.99997H2.14375ZM98.7438 1.99997H100.744V-3.05176e-05H98.7438V1.99997ZM98.7438 422V424H100.744V422H98.7438ZM4.14375 422V1.99997H0.143753V422H4.14375ZM2.14375 3.99997H98.7438V-3.05176e-05H2.14375V3.99997ZM96.7438 1.99997V422H100.744V1.99997H96.7438ZM98.7438 420H2.14375V424H98.7438V420ZM361.469 422L359.474 422.15L359.614 424H361.469V422ZM357.269 366.2H355.269V366.275L355.274 366.35L357.269 366.2ZM357.269 1.99997V-3.05176e-05H355.269V1.99997H357.269ZM450.869 1.99997H452.869V-3.05176e-05H450.869V1.99997ZM450.869 422V424H452.869V422H450.869ZM199.469 410.6L198.391 412.285L198.41 412.297L198.43 412.309L199.469 410.6ZM152.669 356L150.85 356.832L150.856 356.845L150.862 356.857L152.669 356ZM152.669 188L150.862 187.143L150.859 187.149L150.856 187.156L152.669 188ZM199.469 134L200.523 135.7L200.532 135.694L199.469 134ZM334.469 134L333.257 135.591L333.278 135.607L333.299 135.622L334.469 134ZM372.869 188L370.985 188.671L370.988 188.681L372.869 188ZM372.869 356L374.753 356.671L372.869 356ZM334.469 410.6L335.656 412.209L335.663 412.204L334.469 410.6ZM349.469 309.2L351.258 310.094L351.264 310.081L351.271 310.068L349.469 309.2ZM349.469 235.4L347.667 236.268L347.673 236.281L347.68 236.294L349.469 235.4ZM327.869 210.2L326.776 211.875L327.869 210.2ZM264.269 210.2L265.361 211.875L264.269 210.2ZM242.069 235.4L240.293 234.479L240.286 234.492L240.28 234.506L242.069 235.4ZM233.669 272L231.67 271.943L231.668 272L231.67 272.057L233.669 272ZM242.069 309.2L240.267 310.068L240.286 310.108L240.308 310.148L242.069 309.2ZM264.269 333.8L263.176 335.475L263.192 335.486L263.209 335.496L264.269 333.8ZM363.463 421.85L359.263 366.05L355.274 366.35L359.474 422.15L363.463 421.85ZM359.269 366.2V1.99997H355.269V366.2H359.269ZM357.269 3.99997H450.869V-3.05176e-05H357.269V3.99997ZM448.869 1.99997V422H452.869V1.99997H448.869ZM450.869 420H361.469V424H450.869V420ZM272.069 427.2C244.371 427.2 220.544 421.07 200.508 408.891L198.43 412.309C219.194 424.93 243.767 431.2 272.069 431.2V427.2ZM200.547 408.915C180.894 396.337 165.532 378.439 154.476 355.143L150.862 356.857C162.206 380.761 178.044 399.263 198.391 412.285L200.547 408.915ZM154.487 355.168C143.833 331.885 138.469 304.182 138.469 272H134.469C134.469 304.618 139.905 332.915 150.85 356.832L154.487 355.168ZM138.469 272C138.469 239.412 143.835 211.716 154.482 188.844L150.856 187.156C139.903 210.684 134.469 238.988 134.469 272H138.469ZM154.476 188.857C165.53 165.565 180.885 147.875 200.523 135.7L198.415 132.3C178.053 144.925 162.208 163.235 150.862 187.143L154.476 188.857ZM200.532 135.694C220.564 123.125 244.383 116.8 272.069 116.8V112.8C243.755 112.8 219.173 119.275 198.406 132.306L200.532 135.694ZM272.069 116.8C296.51 116.8 316.863 123.101 333.257 135.591L335.681 132.409C318.474 119.299 297.228 112.8 272.069 112.8V116.8ZM333.299 135.622C350.114 147.744 362.695 165.382 370.985 188.671L374.753 187.329C366.242 163.418 353.224 145.056 335.638 132.378L333.299 135.622ZM370.988 188.681C379.288 211.604 383.469 239.36 383.469 272H387.469C387.469 239.04 383.25 210.796 374.749 187.319L370.988 188.681ZM383.469 272C383.469 304.235 379.289 331.997 370.985 355.329L374.753 356.671C383.248 332.803 387.469 304.565 387.469 272H383.469ZM370.985 355.329C362.694 378.621 350.107 396.469 333.275 408.996L335.663 412.204C353.231 399.131 366.243 380.579 374.753 356.671L370.985 355.329ZM333.281 408.991C316.886 421.092 296.524 427.2 272.069 427.2V431.2C297.214 431.2 318.452 424.908 335.656 412.209L333.281 408.991ZM296.669 344.8C308.634 344.8 319.418 341.699 328.961 335.475L326.776 332.125C317.92 337.901 307.904 340.8 296.669 340.8V344.8ZM328.961 335.475C338.476 329.27 345.909 320.793 351.258 310.094L347.68 308.306C342.629 318.407 335.661 326.33 326.776 332.125L328.961 335.475ZM351.271 310.068C356.621 298.955 359.269 286.25 359.269 272H355.269C355.269 285.75 352.716 297.845 347.667 308.332L351.271 310.068ZM359.269 272C359.269 257.752 356.622 245.234 351.258 234.506L347.68 236.294C352.716 246.366 355.269 258.248 355.269 272H359.269ZM351.271 234.532C345.927 223.435 338.495 214.742 328.961 208.525L326.776 211.875C335.643 217.658 342.61 225.765 347.667 236.268L351.271 234.532ZM328.961 208.525C319.406 202.293 308.419 199.2 296.069 199.2V203.2C307.718 203.2 317.931 206.107 326.776 211.875L328.961 208.525ZM296.069 199.2C283.718 199.2 272.731 202.293 263.176 208.525L265.361 211.875C274.206 206.107 284.419 203.2 296.069 203.2V199.2ZM263.176 208.525C253.657 214.733 246.035 223.407 240.293 234.479L243.844 236.321C249.303 225.793 256.48 217.667 265.361 211.875L263.176 208.525ZM240.28 234.506C234.926 245.214 232.076 257.71 231.67 271.943L235.668 272.057C236.061 258.29 238.812 246.386 243.858 236.294L240.28 234.506ZM231.67 272.057C232.076 286.291 234.926 298.975 240.267 310.068L243.871 308.332C238.812 297.825 236.061 285.709 235.668 271.943L231.67 272.057ZM240.308 310.148C246.054 320.82 253.675 329.279 263.176 335.475L265.361 332.125C256.462 326.321 249.283 318.38 243.83 308.252L240.308 310.148ZM263.209 335.496C273.146 341.707 284.317 344.8 296.669 344.8V340.8C285.02 340.8 274.592 337.893 265.329 332.104L263.209 335.496ZM555.034 409.4L555.998 407.648L555.034 409.4ZM498.634 354.2L500.367 353.201L498.634 354.2ZM498.634 189.8L496.901 188.801L498.634 189.8ZM555.034 134.6L554.083 132.841L554.071 132.848L555.034 134.6ZM715.834 135.2L714.81 136.918L715.834 135.2ZM769.834 196.4L768.035 197.273L768.043 197.289L768.051 197.305L769.834 196.4ZM790.234 296V298H792.234V296H790.234ZM564.634 296L563.144 294.666L560.161 298H564.634V296ZM574.834 284.6H576.834V279.365L573.344 283.266L574.834 284.6ZM583.234 320.6L581.473 321.548L583.234 320.6ZM606.634 344.6L605.657 346.345L605.684 346.36L605.712 346.374L606.634 344.6ZM677.434 342.8L678.513 344.485L678.536 344.47L678.559 344.454L677.434 342.8ZM698.434 317.6L699.075 315.705L697.281 315.099L696.577 316.857L698.434 317.6ZM781.834 345.8L783.681 346.569L784.505 344.592L782.475 343.905L781.834 345.8ZM747.634 393.2L746.35 391.667L746.34 391.676L746.329 391.684L747.634 393.2ZM697.834 420.8L698.405 422.717L698.424 422.711L698.443 422.705L697.834 420.8ZM577.234 246.2L575.643 247.412L579.234 252.125V246.2H577.234ZM567.634 233.6V231.6H563.596L566.044 234.812L567.634 233.6ZM702.034 233.6L703.662 234.762L705.921 231.6H702.034V233.6ZM693.034 246.2H691.034V252.441L694.662 247.362L693.034 246.2ZM684.034 210.8L682.382 211.927L682.394 211.945L682.407 211.962L684.034 210.8ZM661.834 191.6L660.975 193.406L660.991 193.413L661.007 193.421L661.834 191.6ZM609.034 191.6L608.237 189.766L608.222 189.772L608.207 189.779L609.034 191.6ZM586.234 210.8L584.617 209.624L584.612 209.631L584.607 209.638L586.234 210.8ZM637.834 427.2C606.924 427.2 579.664 420.664 555.998 407.648L554.071 411.152C578.405 424.536 606.345 431.2 637.834 431.2V427.2ZM555.998 407.648C532.317 394.623 513.784 376.483 500.367 353.201L496.901 355.199C510.685 379.117 529.752 397.777 554.071 411.152L555.998 407.648ZM500.367 353.201C486.966 329.947 480.234 302.901 480.234 272H476.234C476.234 303.499 483.102 331.253 496.901 355.199L500.367 353.201ZM480.234 272C480.234 241.099 486.966 214.053 500.367 190.799L496.901 188.801C483.102 212.747 476.234 240.501 476.234 272H480.234ZM500.367 190.799C513.784 167.517 532.317 149.377 555.998 136.352L554.071 132.848C529.752 146.223 510.685 164.883 496.901 188.801L500.367 190.799ZM555.986 136.359C580.055 123.338 607.72 116.8 639.034 116.8V112.8C607.149 112.8 578.814 119.462 554.083 132.841L555.986 136.359ZM639.034 116.8C667.1 116.8 692.341 123.515 714.81 136.918L716.859 133.482C693.727 119.685 667.769 112.8 639.034 112.8V116.8ZM714.81 136.918C737.23 150.291 754.981 170.374 768.035 197.273L771.634 195.527C758.288 168.026 740.039 147.309 716.859 133.482L714.81 136.918ZM768.051 197.305C781.471 223.75 788.234 256.618 788.234 296H792.234C792.234 256.181 785.398 222.65 771.618 195.495L768.051 197.305ZM790.234 294H564.634V298H790.234V294ZM566.125 297.334L576.325 285.934L573.344 283.266L563.144 294.666L566.125 297.334ZM572.834 284.6C572.834 298.48 575.694 310.815 581.473 321.548L584.995 319.652C579.575 309.585 576.834 297.92 576.834 284.6H572.834ZM581.473 321.548C587.248 332.272 595.315 340.553 605.657 346.345L607.612 342.855C597.954 337.447 590.421 329.728 584.995 319.652L581.473 321.548ZM605.712 346.374C616.024 351.737 627.546 354.4 640.234 354.4V350.4C628.123 350.4 617.244 347.863 607.557 342.826L605.712 346.374ZM640.234 354.4C655.322 354.4 668.12 351.136 678.513 344.485L676.356 341.115C666.749 347.264 654.746 350.4 640.234 350.4V354.4ZM678.559 344.454C688.846 337.458 696.126 328.757 700.291 318.343L696.577 316.857C692.743 326.443 686.022 334.542 676.31 341.146L678.559 344.454ZM697.794 319.495L781.194 347.695L782.475 343.905L699.075 315.705L697.794 319.495ZM779.988 345.031C772.102 363.958 760.885 379.489 746.35 391.667L748.919 394.733C763.983 382.111 775.567 366.042 783.681 346.569L779.988 345.031ZM746.329 391.684C732.141 403.902 715.78 412.973 697.226 418.895L698.443 422.705C717.489 416.627 734.328 407.298 748.939 394.716L746.329 391.684ZM697.263 418.883C678.663 424.424 658.857 427.2 637.834 427.2V431.2C659.212 431.2 679.406 428.376 698.405 422.717L697.263 418.883ZM578.825 244.988L569.225 232.388L566.044 234.812L575.643 247.412L578.825 244.988ZM567.634 235.6H702.034V231.6H567.634V235.6ZM700.407 232.438L691.407 245.038L694.662 247.362L703.662 234.762L700.407 232.438ZM695.034 246.2C695.034 230.771 691.994 218.503 685.662 209.638L682.407 211.962C688.075 219.897 691.034 231.229 691.034 246.2H695.034ZM685.687 209.673C679.502 200.603 671.829 193.946 662.662 189.779L661.007 193.421C669.44 197.254 676.567 203.397 682.382 211.927L685.687 209.673ZM662.694 189.794C654.041 185.674 645.149 183.6 636.034 183.6V187.6C644.52 187.6 652.827 189.526 660.975 193.406L662.694 189.794ZM636.034 183.6C626.924 183.6 617.653 185.672 608.237 189.766L609.832 193.434C618.815 189.528 627.545 187.6 636.034 187.6V183.6ZM608.207 189.779C599.054 193.939 591.194 200.58 584.617 209.624L587.852 211.976C594.075 203.42 601.414 197.261 609.862 193.421L608.207 189.779ZM584.607 209.638C578.275 218.503 575.234 230.771 575.234 246.2H579.234C579.234 231.229 582.194 219.897 587.862 211.962L584.607 209.638ZM989.777 422L987.779 422.092L987.867 424H989.777V422ZM986.777 357.2H984.777V357.246L984.779 357.292L986.777 357.2ZM982.577 230.6L980.615 230.992L980.622 231.023L980.629 231.054L982.577 230.6ZM967.577 203L966.203 204.454L966.245 204.493L966.288 204.53L967.577 203ZM884.777 221.6L884.152 223.5L885.582 223.97L886.429 222.727L884.777 221.6ZM802.577 194.6L800.778 193.725L799.776 195.785L801.952 196.5L802.577 194.6ZM830.777 154.4L829.362 152.986L829.35 152.998L829.339 153.01L830.777 154.4ZM874.577 125.6L873.804 123.755L874.577 125.6ZM1013.78 132.2L1012.83 133.962L1013.78 132.2ZM1062.38 180.8L1060.6 181.722L1062.38 180.8ZM1078.58 254.6L1080.58 254.614V254.607V254.6H1078.58ZM1077.38 422V424H1079.36L1079.38 422.014L1077.38 422ZM825.377 405.8L824.112 407.349L824.121 407.357L824.131 407.365L825.377 405.8ZM826.577 266.6L827.791 268.189L826.577 266.6ZM994.577 243.2H996.577V241.2H994.577V243.2ZM994.577 303.8V305.8H996.577V303.8H994.577ZM904.577 312.2L905.594 313.922L905.622 313.905L905.65 313.887L904.577 312.2ZM900.977 352.4L899.844 354.048L899.902 354.088L899.963 354.124L900.977 352.4ZM958.577 351.2L959.569 352.936L959.581 352.929L959.594 352.922L958.577 351.2ZM978.977 330.8L977.276 329.747L977.258 329.777L977.24 329.808L978.977 330.8ZM986.777 303.8V301.8H984.777V303.8H986.777ZM1010.78 303.8H1012.78V301.8H1010.78V303.8ZM984.977 396.2L983.401 394.968L983.394 394.977L983.387 394.986L984.977 396.2ZM991.774 421.908L988.774 357.107L984.779 357.292L987.779 422.092L991.774 421.908ZM988.777 357.2V272.6H984.777V357.2H988.777ZM988.777 272.6C988.777 256.49 987.368 242.331 984.524 230.146L980.629 231.054C983.386 242.869 984.777 256.71 984.777 272.6H988.777ZM984.538 230.208C982.07 217.869 976.886 208.225 968.865 201.47L966.288 204.53C973.467 210.575 978.283 219.331 980.615 230.992L984.538 230.208ZM968.95 201.546C961.249 194.273 950.075 190.8 935.777 190.8V194.8C949.478 194.8 959.504 198.127 966.203 204.454L968.95 201.546ZM935.777 190.8C924.256 190.8 914.081 193.479 905.324 198.899L907.429 202.301C915.472 197.321 924.898 194.8 935.777 194.8V190.8ZM905.324 198.899C896.668 204.258 889.269 211.46 883.124 220.473L886.429 222.727C892.284 214.139 899.285 207.342 907.429 202.301L905.324 198.899ZM885.401 219.7L803.201 192.7L801.952 196.5L884.152 223.5L885.401 219.7ZM804.375 195.475C811.481 180.867 820.759 167.641 832.215 155.79L829.339 153.01C817.594 165.159 808.072 178.733 800.778 193.725L804.375 195.475ZM832.191 155.814C843.989 144.016 858.365 134.554 875.349 127.445L873.804 123.755C856.388 131.046 841.564 140.784 829.362 152.986L832.191 155.814ZM875.349 127.445C892.256 120.367 911.984 116.8 934.577 116.8V112.8C911.569 112.8 891.297 116.433 873.804 123.755L875.349 127.445ZM934.577 116.8C965.534 116.8 991.59 122.555 1012.83 133.962L1014.72 130.438C992.763 118.645 966.019 112.8 934.577 112.8V116.8ZM1012.83 133.962C1034.09 145.381 1050 161.296 1060.6 181.722L1064.15 179.878C1053.16 158.704 1036.66 142.219 1014.72 130.438L1012.83 133.962ZM1060.6 181.722C1071.23 202.183 1076.58 226.454 1076.58 254.6H1080.58C1080.58 225.946 1075.13 201.017 1064.15 179.878L1060.6 181.722ZM1076.58 254.586L1075.38 421.986L1079.38 422.014L1080.58 254.614L1076.58 254.586ZM1077.38 420H989.777V424H1077.38V420ZM907.577 427.2C872.649 427.2 845.749 419.459 826.622 404.235L824.131 407.365C844.204 423.341 872.104 431.2 907.577 431.2V427.2ZM826.641 404.251C807.588 388.697 797.977 366.513 797.977 337.4H793.977C793.977 367.487 803.965 390.903 824.112 407.349L826.641 404.251ZM797.977 337.4C797.977 306.263 808.001 283.323 827.791 268.189L825.362 265.011C804.353 281.077 793.977 305.337 793.977 337.4H797.977ZM827.791 268.189C847.72 252.949 875.831 245.2 912.377 245.2V241.2C875.322 241.2 846.233 249.051 825.362 265.011L827.791 268.189ZM912.377 245.2H994.577V241.2H912.377V245.2ZM992.577 243.2V303.8H996.577V243.2H992.577ZM994.577 301.8H947.177V305.8H994.577V301.8ZM947.177 301.8C927.48 301.8 912.8 304.597 903.503 310.513L905.65 313.887C913.953 308.603 927.673 305.8 947.177 305.8V301.8ZM903.559 310.478C894.167 316.028 889.377 324.274 889.377 335H893.377C893.377 325.726 897.386 318.772 905.594 313.922L903.559 310.478ZM889.377 335C889.377 342.917 892.951 349.31 899.844 354.048L902.11 350.752C896.202 346.69 893.377 341.483 893.377 335H889.377ZM899.963 354.124C907.182 358.37 916.777 360.4 928.577 360.4V356.4C917.176 356.4 908.372 354.43 901.991 350.676L899.963 354.124ZM928.577 360.4C940.455 360.4 950.812 357.941 959.569 352.936L957.584 349.464C949.541 354.059 939.898 356.4 928.577 356.4V360.4ZM959.594 352.922C968.675 347.556 975.731 340.511 980.713 331.792L977.24 329.808C972.622 337.889 966.078 344.444 957.559 349.478L959.594 352.922ZM980.677 331.853C986.067 323.146 988.777 313.783 988.777 303.8H984.777C984.777 313.017 982.286 321.654 977.276 329.747L980.677 331.853ZM986.777 305.8H1010.78V301.8H986.777V305.8ZM1008.78 303.8C1008.78 343.136 1000.23 373.441 983.401 394.968L986.552 397.432C1004.12 374.959 1012.78 343.664 1012.78 303.8H1008.78ZM983.387 394.986C967.061 416.365 941.93 427.2 907.577 427.2V431.2C942.823 431.2 969.292 420.035 986.566 397.414L983.387 394.986Z" fill="#2374F2" mask="url(#path-1-outside-1_877_1790)"/>
</g>
</svg>
