<svg width="87" height="80" viewBox="0 0 87 80" fill="none" xmlns="http://www.w3.org/2000/svg">
<path d="M32.7168 65.6191L30.3887 72.7262" stroke="url(#paint0_linear_877_1864)" stroke-width="2" stroke-miterlimit="10" stroke-linecap="round" stroke-linejoin="round"/>
<path d="M52.69 72.7262L50.4844 65.6191" stroke="url(#paint1_linear_877_1864)" stroke-width="2" stroke-miterlimit="10" stroke-linecap="round" stroke-linejoin="round"/>
<path d="M37.1484 6.8125C37.3061 6.79006 37.3614 6.84014 37.3643 6.84277C37.3668 6.84513 37.3679 6.8472 37.3682 6.84766L37.3691 6.84863C37.3694 6.84943 37.3698 6.85163 37.3701 6.85547C37.3705 6.86006 37.3704 6.86922 37.3682 6.88281L37.3545 6.96484V7.04785C37.3545 7.08999 37.3458 7.11486 37.3389 7.12988C37.3315 7.14583 37.3198 7.1644 37.2979 7.18359C37.2523 7.22347 37.1559 7.27339 37.0068 7.27344C36.9336 7.27344 36.8868 7.24773 36.8496 7.20801C36.8031 7.15817 36.7813 7.09371 36.7812 7.04785C36.7812 7.0609 36.7786 7.05132 36.793 7.02051C36.8074 6.98955 36.8331 6.95012 36.8711 6.91211C36.9091 6.87408 36.9485 6.84845 36.9795 6.83398C37.0102 6.81963 37.0198 6.82223 37.0068 6.82227H37.0781L37.1484 6.8125Z" fill="url(#paint2_linear_877_1864)" stroke="url(#paint3_linear_877_1864)" stroke-width="2"/>
<path d="M43.4209 6.80859C43.4459 6.80443 43.4612 6.80718 43.4717 6.81055C43.484 6.81456 43.5021 6.82365 43.5225 6.84277C43.5663 6.8839 43.6045 6.95729 43.6045 7.04785C43.6045 7.08999 43.5958 7.11486 43.5889 7.12988C43.5815 7.14583 43.5698 7.1644 43.5479 7.18359C43.5023 7.22347 43.4059 7.27339 43.2568 7.27344C43.2698 7.27347 43.2602 7.27606 43.2295 7.26172C43.1985 7.24726 43.1592 7.22071 43.1211 7.18262C43.0833 7.14481 43.0574 7.10604 43.043 7.0752C43.0285 7.04425 43.0312 7.03456 43.0312 7.04785C43.0312 7.0609 43.0286 7.05132 43.043 7.02051C43.0574 6.98955 43.0831 6.95012 43.1211 6.91211C43.1591 6.87408 43.1985 6.84845 43.2295 6.83398C43.2602 6.81963 43.2698 6.82223 43.2568 6.82227H43.3398L43.4209 6.80859Z" fill="url(#paint4_linear_877_1864)" stroke="url(#paint5_linear_877_1864)" stroke-width="2"/>
<path d="M49.5938 6.72168C49.6183 6.73274 49.6433 6.74823 49.665 6.76855C49.7047 6.80574 49.7305 6.85255 49.7305 6.92578C49.7304 7.05776 49.6916 7.11479 49.6621 7.14648C49.6304 7.18047 49.5592 7.23146 49.4229 7.2666C49.3483 7.25494 49.3245 7.23079 49.3232 7.22949C49.3216 7.22783 49.2793 7.18821 49.2793 7.04785C49.2793 7.06891 49.278 6.99525 49.3916 6.87402C49.4578 6.8034 49.5309 6.75382 49.5938 6.72168Z" fill="url(#paint6_linear_877_1864)" stroke="url(#paint7_linear_877_1864)" stroke-width="2"/>
<path d="M75.2373 73.2363C75.3733 73.2364 75.4141 73.2764 75.418 73.2803C75.4196 73.2819 75.4629 73.3216 75.4629 73.4619C75.4628 73.5352 75.4373 73.582 75.3975 73.6191C75.3476 73.6656 75.2832 73.6874 75.2373 73.6875C75.1641 73.6875 75.1173 73.6618 75.0801 73.6221C75.0336 73.5723 75.0118 73.5078 75.0117 73.4619C75.0117 73.4749 75.0091 73.4653 75.0234 73.4346C75.0379 73.4036 75.0635 73.3642 75.1016 73.3262C75.1396 73.2881 75.179 73.2625 75.21 73.248C75.2407 73.2337 75.2503 73.2363 75.2373 73.2363Z" fill="url(#paint8_linear_877_1864)" stroke="url(#paint9_linear_877_1864)" stroke-width="2"/>
<path d="M7.7207 6.80273H22.4249" stroke="url(#paint10_linear_877_1864)" stroke-width="2" stroke-miterlimit="10" stroke-linecap="round" stroke-linejoin="round"/>
<path d="M38.3535 35.3975H50.7296" stroke="url(#paint11_linear_877_1864)" stroke-width="2" stroke-miterlimit="10" stroke-linecap="round" stroke-linejoin="round"/>
<path d="M28.1836 35.2744H33.5751" stroke="url(#paint12_linear_877_1864)" stroke-width="2" stroke-miterlimit="10" stroke-linecap="round" stroke-linejoin="round"/>
<path d="M70.3555 64.6396H82.9766" stroke="url(#paint13_linear_877_1864)" stroke-width="1.6" stroke-miterlimit="10" stroke-linecap="round" stroke-linejoin="round"/>
<path d="M69.0078 67.458H81.0163" stroke="url(#paint14_linear_877_1864)" stroke-width="1.6" stroke-miterlimit="10" stroke-linecap="round" stroke-linejoin="round"/>
<path d="M80.261 59.7374H69.968C69.3554 59.7374 68.8652 59.2472 68.8652 58.6346V53.6106C68.8652 52.998 69.3554 52.5078 69.968 52.5078H80.261C80.8737 52.5078 81.3638 52.998 81.3638 53.6106V58.6346C81.3638 59.2472 80.8737 59.7374 80.261 59.7374Z" stroke="url(#paint15_linear_877_1864)" stroke-width="1.6" stroke-miterlimit="10" stroke-linecap="round" stroke-linejoin="round"/>
<path d="M21.5663 39.397H9.68043C9.06775 39.397 8.45508 38.9069 8.45508 38.1717V20.4041C8.45508 19.7914 8.94522 19.1787 9.68043 19.1787H21.5663C22.179 19.1787 22.7917 19.6689 22.7917 20.4041V38.1717C22.7917 38.9069 22.179 39.397 21.5663 39.397Z" stroke="url(#paint16_linear_877_1864)" stroke-width="2" stroke-miterlimit="10" stroke-linecap="round" stroke-linejoin="round"/>
<path d="M48.5237 26.5309H30.511C29.8983 26.5309 29.4082 26.0407 29.4082 25.4281V20.5266C29.4082 19.914 29.8983 19.4238 30.511 19.4238H48.5237C49.1364 19.4238 49.6265 19.914 49.6265 20.5266V25.4281C49.6265 25.9182 49.1364 26.5309 48.5237 26.5309Z" stroke="url(#paint17_linear_877_1864)" stroke-width="2" stroke-miterlimit="10" stroke-linecap="round" stroke-linejoin="round"/>
<path d="M26.8356 12.8066H1.96094" stroke="url(#paint18_linear_877_1864)" stroke-width="2" stroke-miterlimit="10" stroke-linecap="round" stroke-linejoin="round"/>
<path d="M31.4922 12.8066H56.2443" stroke="url(#paint19_linear_877_1864)" stroke-width="2" stroke-miterlimit="10" stroke-linecap="round" stroke-linejoin="round"/>
<path d="M56.2441 23.835C56.2441 23.835 68.3751 23.835 69.6005 23.835C70.8258 23.835 71.6836 23.7125 71.6836 26.1632C71.6836 28.6139 71.6836 48.5871 71.6836 48.5871" stroke="url(#paint20_linear_877_1864)" stroke-width="2" stroke-miterlimit="10" stroke-linecap="round" stroke-linejoin="round"/>
<path d="M65.1894 59.248H11.3965" stroke="url(#paint21_linear_877_1864)" stroke-width="2" stroke-miterlimit="10" stroke-linecap="round" stroke-linejoin="round"/>
<path d="M11.0293 45.8916C11.0293 45.8916 11.0293 60.3508 11.0293 62.924C11.0293 65.4972 12.6223 65.6198 14.0927 65.6198C15.5631 65.6198 38.8448 65.6198 38.8448 65.6198" stroke="url(#paint22_linear_877_1864)" stroke-width="2" stroke-miterlimit="10" stroke-linecap="round" stroke-linejoin="round"/>
<path d="M43.623 65.6191H65.1892" stroke="url(#paint23_linear_877_1864)" stroke-width="2" stroke-miterlimit="10" stroke-linecap="round" stroke-linejoin="round"/>
<path d="M26.2237 78.3632H56.735C56.735 78.3632 58.9406 78.6083 58.9406 76.6477C58.9406 74.6871 59.0632 72.7266 54.0392 72.7266C49.0153 72.7266 29.8998 72.7266 26.5913 72.7266C24.7533 72.7266 24.1406 74.0745 24.1406 76.035C24.1406 77.9956 24.5082 78.3632 26.2237 78.3632Z" stroke="url(#paint24_linear_877_1864)" stroke-width="2" stroke-miterlimit="10" stroke-linecap="round" stroke-linejoin="round"/>
<path d="M83.9571 79.608H68.2726C67.1697 79.608 66.1895 78.6278 66.1895 77.5249V51.67C66.1895 50.5672 67.1697 49.5869 68.2726 49.5869H83.9571C85.0599 49.5869 86.0402 50.5672 86.0402 51.67V77.5249C86.0402 78.6278 85.1824 79.608 83.9571 79.608Z" stroke="url(#paint25_linear_877_1864)" stroke-width="2" stroke-miterlimit="10" stroke-linecap="round" stroke-linejoin="round"/>
<path d="M53.6708 45.8914H4.41164C3.06375 45.8914 1.96094 44.7885 1.96094 43.4407V3.61672C1.96094 2.26883 3.06375 1.16602 4.41164 1.16602H53.6708C55.0187 1.16602 56.1215 2.26883 56.1215 3.61672V43.3181C56.244 44.7885 55.1412 45.8914 53.6708 45.8914Z" stroke="url(#paint26_linear_877_1864)" stroke-width="2" stroke-miterlimit="10" stroke-linecap="round" stroke-linejoin="round"/>
<defs>
<linearGradient id="paint0_linear_877_1864" x1="31.5528" y1="65.6191" x2="31.5528" y2="72.7262" gradientUnits="userSpaceOnUse">
<stop stop-color="#FF000F"/>
<stop offset="1" stop-color="#2176F5"/>
</linearGradient>
<linearGradient id="paint1_linear_877_1864" x1="51.5872" y1="65.6191" x2="51.5872" y2="72.7262" gradientUnits="userSpaceOnUse">
<stop stop-color="#FF000F"/>
<stop offset="1" stop-color="#2176F5"/>
</linearGradient>
<linearGradient id="paint2_linear_877_1864" x1="38.0258" y1="5.75959" x2="36.3876" y2="8.11411" gradientUnits="userSpaceOnUse">
<stop stop-color="#FF000F"/>
<stop offset="1" stop-color="#2176F5"/>
</linearGradient>
<linearGradient id="paint3_linear_877_1864" x1="37.0757" y1="5.80664" x2="37.0757" y2="8.27304" gradientUnits="userSpaceOnUse">
<stop stop-color="#FF000F"/>
<stop offset="1" stop-color="#2176F5"/>
</linearGradient>
<linearGradient id="paint4_linear_877_1864" x1="44.2401" y1="5.75947" x2="42.6003" y2="8.11583" gradientUnits="userSpaceOnUse">
<stop stop-color="#FF000F"/>
<stop offset="1" stop-color="#2176F5"/>
</linearGradient>
<linearGradient id="paint5_linear_877_1864" x1="43.3179" y1="5.80664" x2="43.3179" y2="8.27304" gradientUnits="userSpaceOnUse">
<stop stop-color="#FF000F"/>
<stop offset="1" stop-color="#2176F5"/>
</linearGradient>
<linearGradient id="paint6_linear_877_1864" x1="50.449" y1="5.76171" x2="48.8083" y2="8.11818" gradientUnits="userSpaceOnUse">
<stop stop-color="#FF000F"/>
<stop offset="1" stop-color="#2176F5"/>
</linearGradient>
<linearGradient id="paint7_linear_877_1864" x1="49.5046" y1="5.7002" x2="49.5046" y2="8.27343" gradientUnits="userSpaceOnUse">
<stop stop-color="#FF000F"/>
<stop offset="1" stop-color="#2176F5"/>
</linearGradient>
<linearGradient id="paint8_linear_877_1864" x1="76.0849" y1="72.2319" x2="74.4521" y2="74.6041" gradientUnits="userSpaceOnUse">
<stop stop-color="#FF000F"/>
<stop offset="1" stop-color="#2176F5"/>
</linearGradient>
<linearGradient id="paint9_linear_877_1864" x1="75.2371" y1="72.2363" x2="75.2371" y2="74.687" gradientUnits="userSpaceOnUse">
<stop stop-color="#FF000F"/>
<stop offset="1" stop-color="#2176F5"/>
</linearGradient>
<linearGradient id="paint10_linear_877_1864" x1="15.0728" y1="6.80273" x2="15.0728" y2="7.80273" gradientUnits="userSpaceOnUse">
<stop stop-color="#FF000F"/>
<stop offset="1" stop-color="#2176F5"/>
</linearGradient>
<linearGradient id="paint11_linear_877_1864" x1="44.5415" y1="35.3975" x2="44.5415" y2="36.3975" gradientUnits="userSpaceOnUse">
<stop stop-color="#FF000F"/>
<stop offset="1" stop-color="#2176F5"/>
</linearGradient>
<linearGradient id="paint12_linear_877_1864" x1="30.8794" y1="35.2744" x2="30.8794" y2="36.2744" gradientUnits="userSpaceOnUse">
<stop stop-color="#FF000F"/>
<stop offset="1" stop-color="#2176F5"/>
</linearGradient>
<linearGradient id="paint13_linear_877_1864" x1="76.666" y1="64.6396" x2="76.666" y2="65.6396" gradientUnits="userSpaceOnUse">
<stop stop-color="#FF000F"/>
<stop offset="1" stop-color="#2176F5"/>
</linearGradient>
<linearGradient id="paint14_linear_877_1864" x1="75.012" y1="67.458" x2="75.012" y2="68.458" gradientUnits="userSpaceOnUse">
<stop stop-color="#FF000F"/>
<stop offset="1" stop-color="#2176F5"/>
</linearGradient>
<linearGradient id="paint15_linear_877_1864" x1="75.1145" y1="52.5078" x2="75.1145" y2="59.7374" gradientUnits="userSpaceOnUse">
<stop stop-color="#FF000F"/>
<stop offset="1" stop-color="#2176F5"/>
</linearGradient>
<linearGradient id="paint16_linear_877_1864" x1="15.6234" y1="19.1787" x2="15.6234" y2="39.397" gradientUnits="userSpaceOnUse">
<stop stop-color="#FF000F"/>
<stop offset="1" stop-color="#2176F5"/>
</linearGradient>
<linearGradient id="paint17_linear_877_1864" x1="39.5174" y1="19.4238" x2="39.5174" y2="26.5309" gradientUnits="userSpaceOnUse">
<stop stop-color="#FF000F"/>
<stop offset="1" stop-color="#2176F5"/>
</linearGradient>
<linearGradient id="paint18_linear_877_1864" x1="14.3983" y1="12.8066" x2="14.3983" y2="13.8066" gradientUnits="userSpaceOnUse">
<stop stop-color="#FF000F"/>
<stop offset="1" stop-color="#2176F5"/>
</linearGradient>
<linearGradient id="paint19_linear_877_1864" x1="43.8682" y1="12.8066" x2="43.8682" y2="13.8066" gradientUnits="userSpaceOnUse">
<stop stop-color="#FF000F"/>
<stop offset="1" stop-color="#2176F5"/>
</linearGradient>
<linearGradient id="paint20_linear_877_1864" x1="63.9639" y1="23.834" x2="63.9639" y2="48.5871" gradientUnits="userSpaceOnUse">
<stop stop-color="#FF000F"/>
<stop offset="1" stop-color="#2176F5"/>
</linearGradient>
<linearGradient id="paint21_linear_877_1864" x1="38.293" y1="59.248" x2="38.293" y2="60.248" gradientUnits="userSpaceOnUse">
<stop stop-color="#FF000F"/>
<stop offset="1" stop-color="#2176F5"/>
</linearGradient>
<linearGradient id="paint22_linear_877_1864" x1="24.937" y1="45.8916" x2="24.937" y2="65.6198" gradientUnits="userSpaceOnUse">
<stop stop-color="#FF000F"/>
<stop offset="1" stop-color="#2176F5"/>
</linearGradient>
<linearGradient id="paint23_linear_877_1864" x1="54.4061" y1="65.6191" x2="54.4061" y2="66.6191" gradientUnits="userSpaceOnUse">
<stop stop-color="#FF000F"/>
<stop offset="1" stop-color="#2176F5"/>
</linearGradient>
<linearGradient id="paint24_linear_877_1864" x1="41.5408" y1="72.7266" x2="41.5408" y2="78.373" gradientUnits="userSpaceOnUse">
<stop stop-color="#FF000F"/>
<stop offset="1" stop-color="#2176F5"/>
</linearGradient>
<linearGradient id="paint25_linear_877_1864" x1="76.1148" y1="49.5869" x2="76.1148" y2="79.608" gradientUnits="userSpaceOnUse">
<stop stop-color="#FF000F"/>
<stop offset="1" stop-color="#2176F5"/>
</linearGradient>
<linearGradient id="paint26_linear_877_1864" x1="29.0459" y1="1.16602" x2="29.0459" y2="45.8914" gradientUnits="userSpaceOnUse">
<stop stop-color="#FF000F"/>
<stop offset="1" stop-color="#2176F5"/>
</linearGradient>
</defs>
</svg>
