<svg width="87" height="87" viewBox="0 0 87 87" fill="none" xmlns="http://www.w3.org/2000/svg">
<path d="M2.69531 17.8906H84.3038" stroke="url(#paint0_linear_877_1898)" stroke-width="2" stroke-miterlimit="10" stroke-linecap="round" stroke-linejoin="round"/>
<path d="M78.6671 84.4268H8.33193C5.26855 84.4268 2.69531 81.8535 2.69531 78.7901V8.20986C2.69531 5.14648 5.26855 2.57324 8.33193 2.57324H78.7897C81.8531 2.57324 84.4263 5.14648 84.4263 8.20986V78.6676C84.3038 81.8535 81.8531 84.4268 78.6671 84.4268Z" stroke="url(#paint1_linear_877_1898)" stroke-width="2" stroke-miterlimit="10" stroke-linecap="round" stroke-linejoin="round"/>
<path d="M8.82227 63.2283L27.8152 49.1367" stroke="url(#paint2_linear_877_1898)" stroke-width="2" stroke-miterlimit="10" stroke-linecap="round" stroke-linejoin="round"/>
<path d="M27.8152 63.2283L8.82227 49.1367" stroke="url(#paint3_linear_877_1898)" stroke-width="2" stroke-miterlimit="10" stroke-linecap="round" stroke-linejoin="round"/>
<path d="M33.8184 63.2283L52.8113 49.1367" stroke="url(#paint4_linear_877_1898)" stroke-width="2" stroke-miterlimit="10" stroke-linecap="round" stroke-linejoin="round"/>
<path d="M52.8113 63.2283L33.8184 49.1367" stroke="url(#paint5_linear_877_1898)" stroke-width="2" stroke-miterlimit="10" stroke-linecap="round" stroke-linejoin="round"/>
<path d="M8.69922 41.9069L78.4218 24.752" stroke="url(#paint6_linear_877_1898)" stroke-width="2" stroke-miterlimit="10" stroke-linecap="round" stroke-linejoin="round"/>
<path d="M78.2992 41.9069L8.69922 24.752" stroke="url(#paint7_linear_877_1898)" stroke-width="2" stroke-miterlimit="10" stroke-linecap="round" stroke-linejoin="round"/>
<path d="M59.4297 63.2283L78.4226 49.1367" stroke="url(#paint8_linear_877_1898)" stroke-width="2" stroke-miterlimit="10" stroke-linecap="round" stroke-linejoin="round"/>
<path d="M78 63L60 50" stroke="url(#paint9_linear_877_1898)" stroke-width="2" stroke-miterlimit="10" stroke-linecap="round" stroke-linejoin="round"/>
<path d="M8.08594 70.7031H28.4268" stroke="url(#paint10_linear_877_1898)" stroke-width="2" stroke-miterlimit="10" stroke-linecap="round" stroke-linejoin="round"/>
<path d="M32.9609 70.7031H54.1595" stroke="url(#paint11_linear_877_1898)" stroke-width="2" stroke-miterlimit="10" stroke-linecap="round" stroke-linejoin="round"/>
<path d="M58.2031 70.7031H79.4017" stroke="url(#paint12_linear_877_1898)" stroke-width="2" stroke-miterlimit="10" stroke-linecap="round" stroke-linejoin="round"/>
<path d="M11.8848 78.1777H24.5059" stroke="url(#paint13_linear_877_1898)" stroke-width="2" stroke-miterlimit="10" stroke-linecap="round" stroke-linejoin="round"/>
<path d="M37.25 78.1777H49.8711" stroke="url(#paint14_linear_877_1898)" stroke-width="2" stroke-miterlimit="10" stroke-linecap="round" stroke-linejoin="round"/>
<path d="M62.8594 78.1777H75.4805" stroke="url(#paint15_linear_877_1898)" stroke-width="2" stroke-miterlimit="10" stroke-linecap="round" stroke-linejoin="round"/>
<path d="M12.1303 13.2342C13.7545 13.2342 15.0711 11.9176 15.0711 10.2934C15.0711 8.6692 13.7545 7.35254 12.1303 7.35254C10.5061 7.35254 9.18945 8.6692 9.18945 10.2934C9.18945 11.9176 10.5061 13.2342 12.1303 13.2342Z" stroke="url(#paint16_linear_877_1898)" stroke-width="2" stroke-miterlimit="10" stroke-linecap="round" stroke-linejoin="round"/>
<path d="M23.5268 13.2342C25.151 13.2342 26.4676 11.9176 26.4676 10.2934C26.4676 8.6692 25.151 7.35254 23.5268 7.35254C21.9026 7.35254 20.5859 8.6692 20.5859 10.2934C20.5859 11.9176 21.9026 13.2342 23.5268 13.2342Z" stroke="url(#paint17_linear_877_1898)" stroke-width="2" stroke-miterlimit="10" stroke-linecap="round" stroke-linejoin="round"/>
<path d="M78.4218 24.752H8.69922V41.9069H78.4218V24.752Z" stroke="url(#paint18_linear_877_1898)" stroke-width="2" stroke-miterlimit="10" stroke-linecap="round" stroke-linejoin="round"/>
<path d="M27.8152 49.1367H8.82227V63.2283H27.8152V49.1367Z" stroke="url(#paint19_linear_877_1898)" stroke-width="2" stroke-miterlimit="10" stroke-linecap="round" stroke-linejoin="round"/>
<path d="M52.8113 49.1367H33.8184V63.2283H52.8113V49.1367Z" stroke="url(#paint20_linear_877_1898)" stroke-width="2" stroke-miterlimit="10" stroke-linecap="round" stroke-linejoin="round"/>
<path d="M78.4226 49.1367H59.4297V63.2283H78.4226V49.1367Z" stroke="url(#paint21_linear_877_1898)" stroke-width="2" stroke-miterlimit="10" stroke-linecap="round" stroke-linejoin="round"/>
<defs>
<linearGradient id="paint0_linear_877_1898" x1="43.4995" y1="17.8906" x2="43.4995" y2="18.8906" gradientUnits="userSpaceOnUse">
<stop stop-color="#FF000F"/>
<stop offset="1" stop-color="#2176F5"/>
</linearGradient>
<linearGradient id="paint1_linear_877_1898" x1="43.5608" y1="2.57324" x2="43.5608" y2="84.4268" gradientUnits="userSpaceOnUse">
<stop stop-color="#FF000F"/>
<stop offset="1" stop-color="#2176F5"/>
</linearGradient>
<linearGradient id="paint2_linear_877_1898" x1="18.3187" y1="49.1367" x2="18.3187" y2="63.2283" gradientUnits="userSpaceOnUse">
<stop stop-color="#FF000F"/>
<stop offset="1" stop-color="#2176F5"/>
</linearGradient>
<linearGradient id="paint3_linear_877_1898" x1="18.3187" y1="49.1367" x2="18.3187" y2="63.2283" gradientUnits="userSpaceOnUse">
<stop stop-color="#FF000F"/>
<stop offset="1" stop-color="#2176F5"/>
</linearGradient>
<linearGradient id="paint4_linear_877_1898" x1="43.3148" y1="49.1367" x2="43.3148" y2="63.2283" gradientUnits="userSpaceOnUse">
<stop stop-color="#FF000F"/>
<stop offset="1" stop-color="#2176F5"/>
</linearGradient>
<linearGradient id="paint5_linear_877_1898" x1="43.3148" y1="49.1367" x2="43.3148" y2="63.2283" gradientUnits="userSpaceOnUse">
<stop stop-color="#FF000F"/>
<stop offset="1" stop-color="#2176F5"/>
</linearGradient>
<linearGradient id="paint6_linear_877_1898" x1="43.5605" y1="24.752" x2="43.5605" y2="41.9069" gradientUnits="userSpaceOnUse">
<stop stop-color="#FF000F"/>
<stop offset="1" stop-color="#2176F5"/>
</linearGradient>
<linearGradient id="paint7_linear_877_1898" x1="43.4992" y1="24.752" x2="43.4992" y2="41.9069" gradientUnits="userSpaceOnUse">
<stop stop-color="#FF000F"/>
<stop offset="1" stop-color="#2176F5"/>
</linearGradient>
<linearGradient id="paint8_linear_877_1898" x1="68.9262" y1="49.1367" x2="68.9262" y2="63.2283" gradientUnits="userSpaceOnUse">
<stop stop-color="#FF000F"/>
<stop offset="1" stop-color="#2176F5"/>
</linearGradient>
<linearGradient id="paint9_linear_877_1898" x1="69" y1="50" x2="69" y2="63" gradientUnits="userSpaceOnUse">
<stop stop-color="#FF000F"/>
<stop offset="1" stop-color="#2176F5"/>
</linearGradient>
<linearGradient id="paint10_linear_877_1898" x1="18.2564" y1="70.7031" x2="18.2564" y2="71.7031" gradientUnits="userSpaceOnUse">
<stop stop-color="#FF000F"/>
<stop offset="1" stop-color="#2176F5"/>
</linearGradient>
<linearGradient id="paint11_linear_877_1898" x1="43.5602" y1="70.7031" x2="43.5602" y2="71.7031" gradientUnits="userSpaceOnUse">
<stop stop-color="#FF000F"/>
<stop offset="1" stop-color="#2176F5"/>
</linearGradient>
<linearGradient id="paint12_linear_877_1898" x1="68.8024" y1="70.7031" x2="68.8024" y2="71.7031" gradientUnits="userSpaceOnUse">
<stop stop-color="#FF000F"/>
<stop offset="1" stop-color="#2176F5"/>
</linearGradient>
<linearGradient id="paint13_linear_877_1898" x1="18.1953" y1="78.1777" x2="18.1953" y2="79.1777" gradientUnits="userSpaceOnUse">
<stop stop-color="#FF000F"/>
<stop offset="1" stop-color="#2176F5"/>
</linearGradient>
<linearGradient id="paint14_linear_877_1898" x1="43.5606" y1="78.1777" x2="43.5606" y2="79.1777" gradientUnits="userSpaceOnUse">
<stop stop-color="#FF000F"/>
<stop offset="1" stop-color="#2176F5"/>
</linearGradient>
<linearGradient id="paint15_linear_877_1898" x1="69.1699" y1="78.1777" x2="69.1699" y2="79.1777" gradientUnits="userSpaceOnUse">
<stop stop-color="#FF000F"/>
<stop offset="1" stop-color="#2176F5"/>
</linearGradient>
<linearGradient id="paint16_linear_877_1898" x1="12.1303" y1="7.35254" x2="12.1303" y2="13.2342" gradientUnits="userSpaceOnUse">
<stop stop-color="#FF000F"/>
<stop offset="1" stop-color="#2176F5"/>
</linearGradient>
<linearGradient id="paint17_linear_877_1898" x1="23.5268" y1="7.35254" x2="23.5268" y2="13.2342" gradientUnits="userSpaceOnUse">
<stop stop-color="#FF000F"/>
<stop offset="1" stop-color="#2176F5"/>
</linearGradient>
<linearGradient id="paint18_linear_877_1898" x1="43.5605" y1="24.752" x2="43.5605" y2="41.9069" gradientUnits="userSpaceOnUse">
<stop stop-color="#FF000F"/>
<stop offset="1" stop-color="#2176F5"/>
</linearGradient>
<linearGradient id="paint19_linear_877_1898" x1="18.3187" y1="49.1367" x2="18.3187" y2="63.2283" gradientUnits="userSpaceOnUse">
<stop stop-color="#FF000F"/>
<stop offset="1" stop-color="#2176F5"/>
</linearGradient>
<linearGradient id="paint20_linear_877_1898" x1="43.3148" y1="49.1367" x2="43.3148" y2="63.2283" gradientUnits="userSpaceOnUse">
<stop stop-color="#FF000F"/>
<stop offset="1" stop-color="#2176F5"/>
</linearGradient>
<linearGradient id="paint21_linear_877_1898" x1="68.9262" y1="49.1367" x2="68.9262" y2="63.2283" gradientUnits="userSpaceOnUse">
<stop stop-color="#FF000F"/>
<stop offset="1" stop-color="#2176F5"/>
</linearGradient>
</defs>
</svg>
