<svg width="27" height="19" viewBox="0 0 27 19" fill="none" xmlns="http://www.w3.org/2000/svg">
<path d="M23.1719 7.375C24.1484 7.70052 24.9297 8.28646 25.5156 9.13281C26.1016 9.91406 26.3945 10.793 26.3945 11.7695C26.4596 12.7461 26.1992 13.7227 25.6133 14.6992C25.0924 15.6107 24.2461 16.3919 23.0742 17.043C21.1862 18.0195 19.526 18.2799 18.0938 17.8242C16.6615 17.3034 15.6523 16.5221 15.0664 15.4805C14.7409 14.9596 14.4805 14.2435 14.2852 13.332C14.1549 12.4206 14.0898 11.4766 14.0898 10.5C14.1549 9.45833 14.2852 8.44922 14.4805 7.47266C14.6758 6.49609 14.9688 5.68229 15.3594 5.03125C15.6849 4.57552 16.0755 4.08724 16.5312 3.56641C16.9219 3.11068 17.3776 2.65495 17.8984 2.19922C18.4844 1.74349 19.1354 1.32031 19.8516 0.929688L23.2695 1.125C22.8138 1.64583 22.3906 2.13411 22 2.58984C21.6745 2.98047 21.3815 3.33854 21.1211 3.66406C20.8607 3.98958 20.6003 4.28255 20.3398 4.54297C19.8841 4.9987 19.526 5.45443 19.2656 5.91016C19.0052 6.30078 18.7773 6.72396 18.582 7.17969C18.4518 7.63542 18.4518 8.09115 18.582 8.54688C19.4284 7.63542 20.4049 7.17969 21.5117 7.17969C22.0326 7.17969 22.5859 7.24479 23.1719 7.375ZM9.69531 7.86328C10.6068 8.38411 11.2578 9.10026 11.6484 10.0117C12.1042 10.8581 12.2669 11.7695 12.1367 12.7461C12.0065 13.7227 11.5833 14.6341 10.8672 15.4805C10.2161 16.3268 9.23958 16.9779 7.9375 17.4336C5.91927 18.0846 4.25911 18.0521 2.95703 17.3359C1.65495 16.5547 0.776042 15.6107 0.320312 14.5039C0.125 13.918 0.0273438 13.1693 0.0273438 12.2578C0.0273438 11.3464 0.125 10.4023 0.320312 9.42578C0.515625 8.44922 0.776042 7.50521 1.10156 6.59375C1.42708 5.68229 1.85026 4.93359 2.37109 4.34766C2.76172 3.89193 3.21745 3.46875 3.73828 3.07812C4.19401 2.7526 4.71484 2.39453 5.30078 2.00391C5.95182 1.61328 6.66797 1.25521 7.44922 0.929688L10.8672 1.80859C10.3464 2.26432 9.85807 2.65495 9.40234 2.98047C9.01172 3.30599 8.65365 3.59896 8.32812 3.85938C8.0026 4.11979 7.67708 4.38021 7.35156 4.64062C6.89583 5.03125 6.50521 5.42188 6.17969 5.8125C5.85417 6.13802 5.5612 6.52865 5.30078 6.98438C5.04036 7.375 4.94271 7.79818 5.00781 8.25391C5.52865 7.86328 6.04948 7.63542 6.57031 7.57031C7.15625 7.4401 7.67708 7.40755 8.13281 7.47266C8.65365 7.53776 9.17448 7.66797 9.69531 7.86328Z" fill="#005DAA"/>
</svg>
