<svg width="106" height="127" viewBox="0 0 106 127" fill="none" xmlns="http://www.w3.org/2000/svg">
<g filter="url(#filter0_d_1391_213)">
<mask id="path-2-outside-1_1391_213" maskUnits="userSpaceOnUse" x="25" y="10.5" width="49" height="111" fill="black">
<rect fill="white" x="25" y="10.5" width="49" height="111"/>
<path d="M48.8164 119.5V27.4L51.2164 14.5H71.7664V119.5H48.8164ZM27.2164 50.5V28.6C29.9164 28.8 32.6664 28.2 35.4664 26.8C38.3664 25.4 41.1664 23.55 43.8664 21.25C46.6664 18.85 49.1164 16.5 51.2164 14.2L66.5164 29.05C62.8164 33.25 58.8664 37.1 54.6664 40.6C50.4664 44 46.1164 46.65 41.6164 48.55C37.1164 50.35 32.3164 51 27.2164 50.5Z"/>
</mask>
<path d="M48.8164 119.5V27.4L51.2164 14.5H71.7664V119.5H48.8164ZM27.2164 50.5V28.6C29.9164 28.8 32.6664 28.2 35.4664 26.8C38.3664 25.4 41.1664 23.55 43.8664 21.25C46.6664 18.85 49.1164 16.5 51.2164 14.2L66.5164 29.05C62.8164 33.25 58.8664 37.1 54.6664 40.6C50.4664 44 46.1164 46.65 41.6164 48.55C37.1164 50.35 32.3164 51 27.2164 50.5Z" fill="url(#paint0_linear_1391_213)" fill-opacity="0.2" shape-rendering="crispEdges"/>
<path d="M48.8164 119.5V27.4L51.2164 14.5H71.7664V119.5H48.8164ZM27.2164 50.5V28.6C29.9164 28.8 32.6664 28.2 35.4664 26.8C38.3664 25.4 41.1664 23.55 43.8664 21.25C46.6664 18.85 49.1164 16.5 51.2164 14.2L66.5164 29.05C62.8164 33.25 58.8664 37.1 54.6664 40.6C50.4664 44 46.1164 46.65 41.6164 48.55C37.1164 50.35 32.3164 51 27.2164 50.5Z" fill="black" fill-opacity="0.8" shape-rendering="crispEdges"/>
<path d="M48.8164 119.5H46.8164V121.5H48.8164V119.5ZM48.8164 27.4L46.8501 27.0342L46.8164 27.2155V27.4H48.8164ZM51.2164 14.5V12.5H49.5542L49.2501 14.1342L51.2164 14.5ZM71.7664 14.5H73.7664V12.5H71.7664V14.5ZM71.7664 119.5V121.5H73.7664V119.5H71.7664ZM27.2164 50.5H25.2164V52.3135L27.0213 52.4905L27.2164 50.5ZM27.2164 28.6L27.3641 26.6055L25.2164 26.4464V28.6H27.2164ZM35.4664 26.8L34.5969 24.9989L34.5844 25.0049L34.572 25.0111L35.4664 26.8ZM43.8664 21.25L45.1633 22.7725L45.168 22.7685L43.8664 21.25ZM51.2164 14.2L52.6094 12.7648L51.1297 11.3287L49.7394 12.8515L51.2164 14.2ZM66.5164 29.05L68.0171 30.3721L69.2768 28.9421L67.9094 27.6148L66.5164 29.05ZM54.6664 40.6L55.9248 42.1545L55.9359 42.1455L55.9468 42.1364L54.6664 40.6ZM41.6164 48.55L42.3592 50.407L42.3768 50.3999L42.3944 50.3925L41.6164 48.55ZM50.8164 119.5V27.4H46.8164V119.5H50.8164ZM50.7827 27.7658L53.1827 14.8658L49.2501 14.1342L46.8501 27.0342L50.7827 27.7658ZM51.2164 16.5H71.7664V12.5H51.2164V16.5ZM69.7664 14.5V119.5H73.7664V14.5H69.7664ZM71.7664 117.5H48.8164V121.5H71.7664V117.5ZM29.2164 50.5V28.6H25.2164V50.5H29.2164ZM27.0687 30.5945C30.1813 30.8251 33.2895 30.1245 36.3608 28.5888L34.572 25.0111C32.0433 26.2755 29.6515 26.7749 27.3641 26.6055L27.0687 30.5945ZM36.3359 28.6011C39.4044 27.1198 42.3463 25.1721 45.1633 22.7725L42.5695 19.7275C39.9865 21.9279 37.3285 23.6802 34.5969 24.9989L36.3359 28.6011ZM45.168 22.7685C48.019 20.3248 50.5295 17.9185 52.6934 15.5485L49.7394 12.8515C47.7033 15.0815 45.3139 17.3752 42.5648 19.7315L45.168 22.7685ZM49.8235 15.6352L65.1235 30.4852L67.9094 27.6148L52.6094 12.7648L49.8235 15.6352ZM65.0157 27.7279C61.3819 31.8528 57.5053 35.6308 53.386 39.0636L55.9468 42.1364C60.2275 38.5692 64.2509 34.6472 68.0171 30.3721L65.0157 27.7279ZM53.408 39.0455C49.3385 42.3398 45.1483 44.8878 40.8385 46.7075L42.3944 50.3925C47.0845 48.4122 51.5943 45.6602 55.9248 42.1545L53.408 39.0455ZM40.8736 46.693C36.6881 48.3672 32.2115 48.9801 27.4115 48.5095L27.0213 52.4905C32.4213 53.0199 37.5447 52.3328 42.3592 50.407L40.8736 46.693Z" fill="url(#paint1_linear_1391_213)" mask="url(#path-2-outside-1_1391_213)"/>
</g>
<defs>
<filter id="filter0_d_1391_213" x="14.2168" y="0.329102" width="64.5488" height="126.171" filterUnits="userSpaceOnUse" color-interpolation-filters="sRGB">
<feFlood flood-opacity="0" result="BackgroundImageFix"/>
<feColorMatrix in="SourceAlpha" type="matrix" values="0 0 0 0 0 0 0 0 0 0 0 0 0 0 0 0 0 0 127 0" result="hardAlpha"/>
<feOffset dx="-3" dy="-3"/>
<feGaussianBlur stdDeviation="4"/>
<feComposite in2="hardAlpha" operator="out"/>
<feColorMatrix type="matrix" values="0 0 0 0 0 0 0 0 0 0 0 0 0 0 0 0 0 0 0.15 0"/>
<feBlend mode="normal" in2="BackgroundImageFix" result="effect1_dropShadow_1391_213"/>
<feBlend mode="normal" in="SourceGraphic" in2="effect1_dropShadow_1391_213" result="shape"/>
</filter>
<linearGradient id="paint0_linear_1391_213" x1="53" y1="-23.5" x2="53" y2="156.5" gradientUnits="userSpaceOnUse">
<stop stop-color="#3D3DEF"/>
<stop offset="1" stop-color="#3ECD94"/>
</linearGradient>
<linearGradient id="paint1_linear_1391_213" x1="53" y1="-23.5" x2="53" y2="156.5" gradientUnits="userSpaceOnUse">
<stop stop-color="#3E3CF0"/>
<stop offset="1" stop-color="#3ECC94"/>
</linearGradient>
</defs>
</svg>
