<svg width="108" height="128" viewBox="0 0 108 128" fill="none" xmlns="http://www.w3.org/2000/svg">
<g filter="url(#filter0_d_1391_190)">
<mask id="path-2-outside-1_1391_190" maskUnits="userSpaceOnUse" x="11.5" y="11.5" width="85" height="111" fill="black">
<rect fill="white" x="11.5" y="11.5" width="85" height="111"/>
<path d="M18.1082 120.5V103.1C18.1082 100.4 19.1082 97.3 21.1082 93.8C23.1082 90.2 25.8582 86.55 29.3582 82.85C32.9582 79.15 37.0082 75.75 41.5082 72.65L54.7082 63.65C56.7082 62.35 58.7082 60.85 60.7082 59.15C62.7082 57.35 64.3582 55.45 65.6582 53.45C66.9582 51.35 67.6082 49.25 67.6082 47.15C67.6082 44.95 67.0582 43 65.9582 41.3C64.9582 39.5 63.4082 38.15 61.3082 37.25C59.3082 36.25 56.6582 35.75 53.3582 35.75C50.8582 35.75 48.6082 36.3 46.6082 37.4C44.7082 38.4 43.1082 39.8 41.8082 41.6C40.6082 43.3 39.7082 45.2 39.1082 47.3L14.2082 43.1C15.2082 37.9 17.3582 33.05 20.6582 28.55C24.0582 24.05 28.5082 20.45 34.0082 17.75C39.6082 14.95 46.0082 13.55 53.2082 13.55C61.4082 13.55 68.4082 15 74.2082 17.9C80.0082 20.7 84.4582 24.6 87.5582 29.6C90.7582 34.6 92.3582 40.4 92.3582 47C92.3582 54 90.4082 60.05 86.5082 65.15C82.7082 70.25 77.6582 74.95 71.3582 79.25L59.8082 87.2C57.4082 88.8 55.2082 90.6 53.2082 92.6C51.2082 94.6 49.4582 96.85 47.9582 99.35H93.5582V120.5H18.1082Z"/>
</mask>
<path d="M18.1082 120.5V103.1C18.1082 100.4 19.1082 97.3 21.1082 93.8C23.1082 90.2 25.8582 86.55 29.3582 82.85C32.9582 79.15 37.0082 75.75 41.5082 72.65L54.7082 63.65C56.7082 62.35 58.7082 60.85 60.7082 59.15C62.7082 57.35 64.3582 55.45 65.6582 53.45C66.9582 51.35 67.6082 49.25 67.6082 47.15C67.6082 44.95 67.0582 43 65.9582 41.3C64.9582 39.5 63.4082 38.15 61.3082 37.25C59.3082 36.25 56.6582 35.75 53.3582 35.75C50.8582 35.75 48.6082 36.3 46.6082 37.4C44.7082 38.4 43.1082 39.8 41.8082 41.6C40.6082 43.3 39.7082 45.2 39.1082 47.3L14.2082 43.1C15.2082 37.9 17.3582 33.05 20.6582 28.55C24.0582 24.05 28.5082 20.45 34.0082 17.75C39.6082 14.95 46.0082 13.55 53.2082 13.55C61.4082 13.55 68.4082 15 74.2082 17.9C80.0082 20.7 84.4582 24.6 87.5582 29.6C90.7582 34.6 92.3582 40.4 92.3582 47C92.3582 54 90.4082 60.05 86.5082 65.15C82.7082 70.25 77.6582 74.95 71.3582 79.25L59.8082 87.2C57.4082 88.8 55.2082 90.6 53.2082 92.6C51.2082 94.6 49.4582 96.85 47.9582 99.35H93.5582V120.5H18.1082Z" fill="url(#paint0_linear_1391_190)" fill-opacity="0.2" shape-rendering="crispEdges"/>
<path d="M18.1082 120.5V103.1C18.1082 100.4 19.1082 97.3 21.1082 93.8C23.1082 90.2 25.8582 86.55 29.3582 82.85C32.9582 79.15 37.0082 75.75 41.5082 72.65L54.7082 63.65C56.7082 62.35 58.7082 60.85 60.7082 59.15C62.7082 57.35 64.3582 55.45 65.6582 53.45C66.9582 51.35 67.6082 49.25 67.6082 47.15C67.6082 44.95 67.0582 43 65.9582 41.3C64.9582 39.5 63.4082 38.15 61.3082 37.25C59.3082 36.25 56.6582 35.75 53.3582 35.75C50.8582 35.75 48.6082 36.3 46.6082 37.4C44.7082 38.4 43.1082 39.8 41.8082 41.6C40.6082 43.3 39.7082 45.2 39.1082 47.3L14.2082 43.1C15.2082 37.9 17.3582 33.05 20.6582 28.55C24.0582 24.05 28.5082 20.45 34.0082 17.75C39.6082 14.95 46.0082 13.55 53.2082 13.55C61.4082 13.55 68.4082 15 74.2082 17.9C80.0082 20.7 84.4582 24.6 87.5582 29.6C90.7582 34.6 92.3582 40.4 92.3582 47C92.3582 54 90.4082 60.05 86.5082 65.15C82.7082 70.25 77.6582 74.95 71.3582 79.25L59.8082 87.2C57.4082 88.8 55.2082 90.6 53.2082 92.6C51.2082 94.6 49.4582 96.85 47.9582 99.35H93.5582V120.5H18.1082Z" fill="black" fill-opacity="0.8" shape-rendering="crispEdges"/>
<path d="M18.1082 120.5H16.1082V122.5H18.1082V120.5ZM21.1082 93.8L22.8447 94.7923L22.8507 94.7818L22.8565 94.7713L21.1082 93.8ZM29.3582 82.85L27.9248 81.4553L27.9149 81.4654L27.9053 81.4756L29.3582 82.85ZM41.5082 72.65L40.3815 70.9975L40.3736 71.003L41.5082 72.65ZM54.7082 63.65L53.6182 61.9731L53.5997 61.9851L53.5815 61.9975L54.7082 63.65ZM60.7082 59.15L62.0035 60.6739L62.0251 60.6555L62.0461 60.6366L60.7082 59.15ZM65.6582 53.45L67.3351 54.54L67.3471 54.5215L67.3587 54.5027L65.6582 53.45ZM65.9582 41.3L64.2099 42.2713L64.2425 42.3301L64.2791 42.3865L65.9582 41.3ZM61.3082 37.25L60.4138 39.0389L60.4663 39.0651L60.5204 39.0883L61.3082 37.25ZM46.6082 37.4L47.5397 39.1698L47.5559 39.1613L47.572 39.1524L46.6082 37.4ZM41.8082 41.6L40.1868 40.429L40.1805 40.4378L40.1743 40.4466L41.8082 41.6ZM39.1082 47.3L38.7756 49.2721L40.5397 49.5697L41.0313 47.8494L39.1082 47.3ZM14.2082 43.1L12.2442 42.7223L11.8578 44.7318L13.8756 45.0721L14.2082 43.1ZM20.6582 28.55L19.0625 27.3443L19.0538 27.3557L19.0454 27.3673L20.6582 28.55ZM34.0082 17.75L34.8896 19.5453L34.8961 19.5421L34.9026 19.5388L34.0082 17.75ZM74.2082 17.9L73.3138 19.6889L73.3262 19.6951L73.3387 19.7011L74.2082 17.9ZM87.5582 29.6L85.8584 30.6539L85.866 30.666L85.8737 30.6781L87.5582 29.6ZM86.5082 65.15L84.9195 63.9351L84.9119 63.945L84.9044 63.955L86.5082 65.15ZM71.3582 79.25L70.2307 77.5981L70.2242 77.6025L71.3582 79.25ZM59.8082 87.2L60.9176 88.8641L60.9299 88.8559L60.9422 88.8475L59.8082 87.2ZM53.2082 92.6L51.794 91.1858L53.2082 92.6ZM47.9582 99.35L46.2432 98.321L44.4258 101.35H47.9582V99.35ZM93.5582 99.35H95.5582V97.35H93.5582V99.35ZM93.5582 120.5V122.5H95.5582V120.5H93.5582ZM20.1082 120.5V103.1H16.1082V120.5H20.1082ZM20.1082 103.1C20.1082 100.878 20.9385 98.1281 22.8447 94.7923L19.3717 92.8077C17.2779 96.4719 16.1082 99.9215 16.1082 103.1H20.1082ZM22.8565 94.7713C24.7588 91.3471 27.4002 87.8303 30.8111 84.2244L27.9053 81.4756C24.3163 85.2697 21.4576 89.0529 19.3599 92.8287L22.8565 94.7713ZM30.7917 84.2447C34.2954 80.6437 38.2442 77.3272 42.6428 74.297L40.3736 71.003C35.7722 74.1728 31.621 77.6563 27.9248 81.4553L30.7917 84.2447ZM42.6349 74.3025L55.8349 65.3025L53.5815 61.9975L40.3815 70.9975L42.6349 74.3025ZM55.7982 65.3269C57.8765 63.976 59.9448 62.4238 62.0035 60.6739L59.4129 57.6261C57.4716 59.2762 55.5399 60.724 53.6182 61.9731L55.7982 65.3269ZM62.0461 60.6366C64.1597 58.7344 65.9287 56.7037 67.3351 54.54L63.9813 52.36C62.7878 54.1963 61.2568 55.9656 59.3703 57.6634L62.0461 60.6366ZM67.3587 54.5027C68.8196 52.1429 69.6082 49.6831 69.6082 47.15H65.6082C65.6082 48.8168 65.0969 50.5571 63.9577 52.3973L67.3587 54.5027ZM69.6082 47.15C69.6082 44.5992 68.9649 42.2652 67.6373 40.2135L64.2791 42.3865C65.1515 43.7348 65.6082 45.3008 65.6082 47.15H69.6082ZM67.7065 40.3287C66.4676 38.0987 64.5563 36.4661 62.096 35.4117L60.5204 39.0883C62.2602 39.8339 63.4488 40.9013 64.2099 42.2713L67.7065 40.3287ZM62.2026 35.4611C59.8245 34.2721 56.8326 33.75 53.3582 33.75V37.75C56.4838 37.75 58.7919 38.2279 60.4138 39.0389L62.2026 35.4611ZM53.3582 33.75C50.5541 33.75 47.9672 34.37 45.6444 35.6476L47.572 39.1524C49.2492 38.23 51.1623 37.75 53.3582 37.75V33.75ZM45.6767 35.6302C43.4942 36.7789 41.6612 38.3877 40.1868 40.429L43.4296 42.771C44.5553 41.2123 45.9222 40.0211 47.5397 39.1698L45.6767 35.6302ZM40.1743 40.4466C38.8383 42.3392 37.8438 44.4452 37.1852 46.7505L41.0313 47.8494C41.5726 45.9548 42.3781 44.2608 43.4421 42.7534L40.1743 40.4466ZM39.4409 45.3279L14.5409 41.1279L13.8756 45.0721L38.7756 49.2721L39.4409 45.3279ZM16.1722 43.4777C17.1132 38.5844 19.1366 34.0069 22.271 29.7327L19.0454 27.3673C15.5798 32.0931 13.3032 37.2156 12.2442 42.7223L16.1722 43.4777ZM22.2539 29.7557C25.4493 25.5265 29.6458 22.1195 34.8896 19.5453L33.1269 15.9547C27.3706 18.7805 22.6671 22.5735 19.0625 27.3443L22.2539 29.7557ZM34.9026 19.5388C40.186 16.8972 46.272 15.55 53.2082 15.55V11.55C45.7444 11.55 39.0304 13.0028 33.1138 15.9611L34.9026 19.5388ZM53.2082 15.55C61.1777 15.55 67.8551 16.9595 73.3138 19.6889L75.1026 16.1111C68.9613 13.0405 61.6388 11.55 53.2082 11.55V15.55ZM73.3387 19.7011C78.8302 22.3522 82.9774 26.0071 85.8584 30.6539L89.258 28.5461C85.939 23.1929 81.1862 19.0478 75.0777 16.0989L73.3387 19.7011ZM85.8737 30.6781C88.8451 35.321 90.3582 40.7379 90.3582 47H94.3582C94.3582 40.062 92.6713 33.879 89.2428 28.5219L85.8737 30.6781ZM90.3582 47C90.3582 53.6029 88.5283 59.2159 84.9195 63.9351L88.0969 66.3649C92.2881 60.8841 94.3582 54.3971 94.3582 47H90.3582ZM84.9044 63.955C81.2602 68.846 76.3831 73.3988 70.2307 77.5981L72.4857 80.9019C78.9333 76.5012 84.1562 71.654 88.112 66.345L84.9044 63.955ZM70.2242 77.6025L58.6742 85.5525L60.9422 88.8475L72.4922 80.8975L70.2242 77.6025ZM58.6988 85.5359C56.1914 87.2075 53.889 89.0908 51.794 91.1858L54.6224 94.0142C56.5275 92.1092 58.625 90.3925 60.9176 88.8641L58.6988 85.5359ZM51.794 91.1858C49.6748 93.3049 47.8248 95.6851 46.2432 98.321L49.6732 100.379C51.0917 98.0149 52.7416 95.8951 54.6224 94.0142L51.794 91.1858ZM47.9582 101.35H93.5582V97.35H47.9582V101.35ZM91.5582 99.35V120.5H95.5582V99.35H91.5582ZM93.5582 118.5H18.1082V122.5H93.5582V118.5Z" fill="url(#paint1_linear_1391_190)" mask="url(#path-2-outside-1_1391_190)"/>
</g>
<defs>
<filter id="filter0_d_1391_190" x="0.857422" y="0.549805" width="99.7012" height="126.95" filterUnits="userSpaceOnUse" color-interpolation-filters="sRGB">
<feFlood flood-opacity="0" result="BackgroundImageFix"/>
<feColorMatrix in="SourceAlpha" type="matrix" values="0 0 0 0 0 0 0 0 0 0 0 0 0 0 0 0 0 0 127 0" result="hardAlpha"/>
<feOffset dx="-3" dy="-3"/>
<feGaussianBlur stdDeviation="4"/>
<feComposite in2="hardAlpha" operator="out"/>
<feColorMatrix type="matrix" values="0 0 0 0 0 0 0 0 0 0 0 0 0 0 0 0 0 0 0.15 0"/>
<feBlend mode="normal" in2="BackgroundImageFix" result="effect1_dropShadow_1391_190"/>
<feBlend mode="normal" in="SourceGraphic" in2="effect1_dropShadow_1391_190" result="shape"/>
</filter>
<linearGradient id="paint0_linear_1391_190" x1="55" y1="-22.5" x2="55" y2="157.5" gradientUnits="userSpaceOnUse">
<stop stop-color="#DD292D"/>
<stop offset="1" stop-color="#2D31C6"/>
</linearGradient>
<linearGradient id="paint1_linear_1391_190" x1="55" y1="-22.5" x2="55" y2="157.5" gradientUnits="userSpaceOnUse">
<stop stop-color="#DC292D"/>
<stop offset="1" stop-color="#2D31C6"/>
</linearGradient>
</defs>
</svg>
