<svg width="106" height="130" viewBox="0 0 106 130" fill="none" xmlns="http://www.w3.org/2000/svg">
<g filter="url(#filter0_d_1391_389)">
<mask id="path-2-outside-1_1391_389" maskUnits="userSpaceOnUse" x="12.5" y="11.5" width="80" height="113" fill="black">
<rect fill="white" x="12.5" y="11.5" width="80" height="113"/>
<path d="M53.859 122.3C47.259 122.3 41.209 121.3 35.709 119.3C30.309 117.3 25.809 114.4 22.209 110.6C18.709 106.7 16.409 101.95 15.309 96.35L38.109 90.8C38.709 92 39.459 93.45 40.359 95.15C41.359 96.85 42.809 98.35 44.709 99.65C46.609 100.85 49.159 101.45 52.359 101.45C56.559 101.45 59.859 100.35 62.259 98.15C64.659 95.85 65.859 92.85 65.859 89.15C65.859 86.95 65.309 84.9 64.209 83C63.209 81 61.309 79.45 58.509 78.35C55.809 77.15 51.959 76.55 46.959 76.55H39.159V60.95H46.059C51.959 60.95 57.509 61.7 62.709 63.2C68.009 64.6 72.709 66.7 76.809 69.5C80.909 72.3 84.109 75.6 86.409 79.4C88.809 83.2 90.009 87.5 90.009 92.3C90.009 98.7 88.309 104.15 84.909 108.65C81.509 113.15 77.059 116.55 71.559 118.85C66.059 121.15 60.159 122.3 53.859 122.3ZM39.159 71.6V57.05H46.959C53.259 57.05 57.709 56 60.309 53.9C62.909 51.8 64.209 48.95 64.209 45.35C64.209 43.25 63.709 41.4 62.709 39.8C61.709 38.2 60.309 36.95 58.509 36.05C56.709 35.05 54.659 34.55 52.359 34.55C50.659 34.55 48.909 34.85 47.109 35.45C45.309 36.05 43.659 37.1 42.159 38.6C40.659 40.1 39.509 42.25 38.709 45.05L16.209 39.65C17.309 33.95 19.709 29.2 23.409 25.4C27.209 21.5 31.709 18.6 36.909 16.7C42.109 14.7 47.459 13.7 52.959 13.7C59.559 13.7 65.509 14.95 70.809 17.45C76.209 19.85 80.459 23.25 83.559 27.65C86.759 31.95 88.359 37 88.359 42.8C88.359 47.8 87.109 52.1 84.609 55.7C82.209 59.3 78.959 62.3 74.859 64.7C70.859 67 66.359 68.75 61.359 69.95C56.359 71.05 51.259 71.6 46.059 71.6H39.159Z"/>
</mask>
<path d="M53.859 122.3C47.259 122.3 41.209 121.3 35.709 119.3C30.309 117.3 25.809 114.4 22.209 110.6C18.709 106.7 16.409 101.95 15.309 96.35L38.109 90.8C38.709 92 39.459 93.45 40.359 95.15C41.359 96.85 42.809 98.35 44.709 99.65C46.609 100.85 49.159 101.45 52.359 101.45C56.559 101.45 59.859 100.35 62.259 98.15C64.659 95.85 65.859 92.85 65.859 89.15C65.859 86.95 65.309 84.9 64.209 83C63.209 81 61.309 79.45 58.509 78.35C55.809 77.15 51.959 76.55 46.959 76.55H39.159V60.95H46.059C51.959 60.95 57.509 61.7 62.709 63.2C68.009 64.6 72.709 66.7 76.809 69.5C80.909 72.3 84.109 75.6 86.409 79.4C88.809 83.2 90.009 87.5 90.009 92.3C90.009 98.7 88.309 104.15 84.909 108.65C81.509 113.15 77.059 116.55 71.559 118.85C66.059 121.15 60.159 122.3 53.859 122.3ZM39.159 71.6V57.05H46.959C53.259 57.05 57.709 56 60.309 53.9C62.909 51.8 64.209 48.95 64.209 45.35C64.209 43.25 63.709 41.4 62.709 39.8C61.709 38.2 60.309 36.95 58.509 36.05C56.709 35.05 54.659 34.55 52.359 34.55C50.659 34.55 48.909 34.85 47.109 35.45C45.309 36.05 43.659 37.1 42.159 38.6C40.659 40.1 39.509 42.25 38.709 45.05L16.209 39.65C17.309 33.95 19.709 29.2 23.409 25.4C27.209 21.5 31.709 18.6 36.909 16.7C42.109 14.7 47.459 13.7 52.959 13.7C59.559 13.7 65.509 14.95 70.809 17.45C76.209 19.85 80.459 23.25 83.559 27.65C86.759 31.95 88.359 37 88.359 42.8C88.359 47.8 87.109 52.1 84.609 55.7C82.209 59.3 78.959 62.3 74.859 64.7C70.859 67 66.359 68.75 61.359 69.95C56.359 71.05 51.259 71.6 46.059 71.6H39.159Z" fill="url(#paint0_linear_1391_389)" fill-opacity="0.2" shape-rendering="crispEdges"/>
<path d="M53.859 122.3C47.259 122.3 41.209 121.3 35.709 119.3C30.309 117.3 25.809 114.4 22.209 110.6C18.709 106.7 16.409 101.95 15.309 96.35L38.109 90.8C38.709 92 39.459 93.45 40.359 95.15C41.359 96.85 42.809 98.35 44.709 99.65C46.609 100.85 49.159 101.45 52.359 101.45C56.559 101.45 59.859 100.35 62.259 98.15C64.659 95.85 65.859 92.85 65.859 89.15C65.859 86.95 65.309 84.9 64.209 83C63.209 81 61.309 79.45 58.509 78.35C55.809 77.15 51.959 76.55 46.959 76.55H39.159V60.95H46.059C51.959 60.95 57.509 61.7 62.709 63.2C68.009 64.6 72.709 66.7 76.809 69.5C80.909 72.3 84.109 75.6 86.409 79.4C88.809 83.2 90.009 87.5 90.009 92.3C90.009 98.7 88.309 104.15 84.909 108.65C81.509 113.15 77.059 116.55 71.559 118.85C66.059 121.15 60.159 122.3 53.859 122.3ZM39.159 71.6V57.05H46.959C53.259 57.05 57.709 56 60.309 53.9C62.909 51.8 64.209 48.95 64.209 45.35C64.209 43.25 63.709 41.4 62.709 39.8C61.709 38.2 60.309 36.95 58.509 36.05C56.709 35.05 54.659 34.55 52.359 34.55C50.659 34.55 48.909 34.85 47.109 35.45C45.309 36.05 43.659 37.1 42.159 38.6C40.659 40.1 39.509 42.25 38.709 45.05L16.209 39.65C17.309 33.95 19.709 29.2 23.409 25.4C27.209 21.5 31.709 18.6 36.909 16.7C42.109 14.7 47.459 13.7 52.959 13.7C59.559 13.7 65.509 14.95 70.809 17.45C76.209 19.85 80.459 23.25 83.559 27.65C86.759 31.95 88.359 37 88.359 42.8C88.359 47.8 87.109 52.1 84.609 55.7C82.209 59.3 78.959 62.3 74.859 64.7C70.859 67 66.359 68.75 61.359 69.95C56.359 71.05 51.259 71.6 46.059 71.6H39.159Z" fill="black" fill-opacity="0.8" shape-rendering="crispEdges"/>
<path d="M35.709 119.3L35.0143 121.176L35.0255 121.18L35.709 119.3ZM22.209 110.6L20.7205 111.936L20.7385 111.956L20.7571 111.975L22.209 110.6ZM15.309 96.35L14.836 94.4067L12.9779 94.859L13.3465 96.7355L15.309 96.35ZM38.109 90.8L39.8978 89.9056L39.1849 88.4797L37.636 88.8567L38.109 90.8ZM40.359 95.15L38.5914 96.0858L38.6124 96.1254L38.6351 96.164L40.359 95.15ZM44.709 99.65L43.5796 101.301L43.6099 101.321L43.641 101.341L44.709 99.65ZM62.259 98.15L63.6104 99.6243L63.6268 99.6093L63.6428 99.594L62.259 98.15ZM64.209 83L62.4201 83.8944L62.4475 83.9491L62.4781 84.0021L64.209 83ZM58.509 78.35L57.6967 80.1776L57.7368 80.1954L57.7777 80.2115L58.509 78.35ZM39.159 76.55H37.159V78.55H39.159V76.55ZM39.159 60.95V58.95H37.159V60.95H39.159ZM62.709 63.2L62.1547 65.1216L62.1764 65.1279L62.1982 65.1337L62.709 63.2ZM76.809 69.5L75.6811 71.1516L76.809 69.5ZM86.409 79.4L84.698 80.4356L84.7078 80.4519L84.718 80.468L86.409 79.4ZM84.909 108.65L86.5047 109.856L84.909 108.65ZM39.159 71.6H37.159V73.6H39.159V71.6ZM39.159 57.05V55.05H37.159V57.05H39.159ZM60.309 53.9L59.0523 52.3441L60.309 53.9ZM62.709 39.8L64.405 38.74L64.405 38.74L62.709 39.8ZM58.509 36.05L57.5377 37.7983L57.5757 37.8194L57.6146 37.8389L58.509 36.05ZM47.109 35.45L47.7414 37.3474L47.109 35.45ZM42.159 38.6L43.5732 40.0142L43.5732 40.0142L42.159 38.6ZM38.709 45.05L38.2422 46.9948L40.1056 47.442L40.632 45.5994L38.709 45.05ZM16.209 39.65L14.2452 39.271L13.8829 41.1485L15.7422 41.5948L16.209 39.65ZM23.409 25.4L21.9765 24.0043L21.976 24.0048L23.409 25.4ZM36.909 16.7L37.5954 18.5785L37.6112 18.5727L37.6269 18.5667L36.909 16.7ZM70.809 17.45L69.9557 19.2589L69.9761 19.2685L69.9967 19.2776L70.809 17.45ZM83.559 27.65L81.924 28.8019L81.939 28.8232L81.9545 28.844L83.559 27.65ZM84.609 55.7L82.9662 54.5592L82.9554 54.5748L82.9449 54.5906L84.609 55.7ZM74.859 64.7L75.8559 66.4338L75.8627 66.4299L75.8693 66.426L74.859 64.7ZM61.359 69.95L61.7887 71.9033L61.8073 71.8992L61.8257 71.8948L61.359 69.95ZM53.859 120.3C47.4626 120.3 41.6473 119.331 36.3925 117.42L35.0255 121.18C40.7707 123.269 47.0554 124.3 53.859 124.3V120.3ZM36.4036 117.424C31.2618 115.52 27.0297 112.78 23.6609 109.225L20.7571 111.975C24.5883 116.02 29.3561 119.08 35.0144 121.175L36.4036 117.424ZM23.6975 109.264C20.4595 105.656 18.3084 101.243 17.2715 95.9645L13.3465 96.7355C14.5096 102.657 16.9585 107.744 20.7205 111.936L23.6975 109.264ZM15.782 98.2933L38.582 92.7433L37.636 88.8567L14.836 94.4067L15.782 98.2933ZM36.3201 91.6944C36.9293 92.9128 37.687 94.3774 38.5914 96.0858L42.1266 94.2142C41.231 92.5226 40.4887 91.0872 39.8978 89.9056L36.3201 91.6944ZM38.6351 96.164C39.807 98.1563 41.4774 99.8623 43.5796 101.301L45.8384 97.9994C44.1406 96.8377 42.9109 95.5437 42.0829 94.136L38.6351 96.164ZM43.641 101.341C45.9689 102.811 48.9335 103.45 52.359 103.45V99.45C49.3845 99.45 47.2491 98.8888 45.777 97.959L43.641 101.341ZM52.359 103.45C56.9097 103.45 60.7444 102.252 63.6104 99.6243L60.9075 96.6757C58.9736 98.4485 56.2083 99.45 52.359 99.45V103.45ZM63.6428 99.594C66.4829 96.8722 67.859 93.3272 67.859 89.15H63.859C63.859 92.3728 62.835 94.8278 60.8752 96.706L63.6428 99.594ZM67.859 89.15C67.859 86.5989 67.2165 84.2031 65.9398 81.9979L62.4781 84.0021C63.4014 85.5969 63.859 87.3011 63.859 89.15H67.859ZM65.9978 82.1056C64.7101 79.5301 62.3391 77.7059 59.2403 76.4885L57.7777 80.2115C60.2788 81.1941 61.7079 82.4699 62.4201 83.8944L65.9978 82.1056ZM59.3213 76.5224C56.2473 75.1562 52.0712 74.55 46.959 74.55V78.55C51.8468 78.55 55.3707 79.1438 57.6967 80.1776L59.3213 76.5224ZM46.959 74.55H39.159V78.55H46.959V74.55ZM41.159 76.55V60.95H37.159V76.55H41.159ZM39.159 62.95H46.059V58.95H39.159V62.95ZM46.059 62.95C51.7882 62.95 57.1503 63.6781 62.1547 65.1216L63.2633 61.2784C57.8677 59.7219 52.1297 58.95 46.059 58.95V62.95ZM62.1982 65.1337C67.3008 66.4815 71.7878 68.4928 75.6811 71.1516L77.9369 67.8484C73.6302 64.9072 68.7172 62.7185 63.2198 61.2663L62.1982 65.1337ZM75.6811 71.1516C79.5728 73.8094 82.5626 76.9076 84.698 80.4356L88.12 78.3644C85.6553 74.2924 82.2451 70.7906 77.9369 67.8484L75.6811 71.1516ZM84.718 80.468C86.9023 83.9264 88.009 87.8512 88.009 92.3H92.009C92.009 87.1488 90.7157 82.4736 88.1 78.332L84.718 80.468ZM88.009 92.3C88.009 98.3262 86.4162 103.338 83.3133 107.444L86.5047 109.856C90.2018 104.962 92.009 99.0738 92.009 92.3H88.009ZM83.3133 107.444C80.1388 111.646 75.9803 114.833 70.7874 117.005L72.3306 120.695C78.1377 118.267 82.8791 114.654 86.5047 109.856L83.3133 107.444ZM70.7874 117.005C65.5455 119.197 59.9093 120.3 53.859 120.3V124.3C60.4086 124.3 66.5725 123.103 72.3306 120.695L70.7874 117.005ZM41.159 71.6V57.05H37.159V71.6H41.159ZM39.159 59.05H46.959V55.05H39.159V59.05ZM46.959 59.05C53.3649 59.05 58.409 58.0055 61.5657 55.4559L59.0523 52.3441C57.009 53.9945 53.1531 55.05 46.959 55.05V59.05ZM61.5657 55.4559C64.6758 52.9438 66.209 49.5009 66.209 45.35H62.209C62.209 48.3991 61.1422 50.6561 59.0523 52.3441L61.5657 55.4559ZM66.209 45.35C66.209 42.9188 65.6256 40.693 64.405 38.74L61.013 40.86C61.7924 42.107 62.209 43.5812 62.209 45.35H66.209ZM64.405 38.74C63.1968 36.807 61.5097 35.3143 59.4034 34.2611L57.6146 37.8389C59.1082 38.5857 60.2211 39.593 61.013 40.86L64.405 38.74ZM59.4803 34.3017C57.3496 33.118 54.9583 32.55 52.359 32.55V36.55C54.3596 36.55 56.0683 36.982 57.5377 37.7983L59.4803 34.3017ZM52.359 32.55C50.4206 32.55 48.457 32.8925 46.4765 33.5526L47.7414 37.3474C49.361 36.8075 50.8973 36.55 52.359 36.55V32.55ZM46.4765 33.5526C44.3487 34.2619 42.4381 35.4924 40.7448 37.1858L43.5732 40.0142C44.8798 38.7076 46.2692 37.8381 47.7414 37.3474L46.4765 33.5526ZM40.7448 37.1858C38.9314 38.9991 37.6461 41.4899 36.7859 44.5006L40.632 45.5994C41.3719 43.0101 42.3865 41.2009 43.5732 40.0142L40.7448 37.1858ZM39.1757 43.1052L16.6757 37.7052L15.7422 41.5948L38.2422 46.9948L39.1757 43.1052ZM18.1728 40.029C19.2061 34.6745 21.4399 30.2892 24.8419 26.7952L21.976 24.0048C17.9781 28.1108 15.4119 33.2255 14.2452 39.271L18.1728 40.029ZM24.8414 26.7957C28.4285 23.1143 32.6722 20.3774 37.5954 18.5785L36.2226 14.8215C30.7457 16.8226 25.9895 19.8857 21.9765 24.0043L24.8414 26.7957ZM37.6269 18.5667C42.6009 16.6536 47.7077 15.7 52.959 15.7V11.7C47.2103 11.7 41.6171 12.7464 36.191 14.8333L37.6269 18.5667ZM52.959 15.7C59.3014 15.7 64.9545 16.8998 69.9557 19.2589L71.6622 15.6411C66.0635 13.0002 59.8166 11.7 52.959 11.7V15.7ZM69.9967 19.2776C75.0998 21.5457 79.0522 24.7258 81.924 28.8019L85.194 26.4981C81.8658 21.7742 77.3182 18.1543 71.6213 15.6224L69.9967 19.2776ZM81.9545 28.844C84.8762 32.7701 86.359 37.3928 86.359 42.8H90.359C90.359 36.6072 88.6418 31.1299 85.1635 26.456L81.9545 28.844ZM86.359 42.8C86.359 47.4516 85.2019 51.3399 82.9662 54.5592L86.2517 56.8408C89.0161 52.8601 90.359 48.1484 90.359 42.8H86.359ZM82.9449 54.5906C80.7292 57.9142 77.7128 60.712 73.8486 62.974L75.8693 66.426C80.2052 63.888 83.6888 60.6858 86.2731 56.8094L82.9449 54.5906ZM73.862 62.9662C70.0455 65.1607 65.7273 66.8448 60.8922 68.0052L61.8257 71.8948C66.9907 70.6552 71.6725 68.8393 75.8559 66.4338L73.862 62.9662ZM60.9293 67.9967C56.0726 69.0652 51.1168 69.6 46.059 69.6V73.6C51.4012 73.6 56.6454 73.0348 61.7887 71.9033L60.9293 67.9967ZM46.059 69.6H39.159V73.6H46.059V69.6Z" fill="url(#paint1_linear_1391_389)" mask="url(#path-2-outside-1_1391_389)"/>
</g>
<defs>
<filter id="filter0_d_1391_389" x="1.97852" y="0.700195" width="95.0312" height="128.601" filterUnits="userSpaceOnUse" color-interpolation-filters="sRGB">
<feFlood flood-opacity="0" result="BackgroundImageFix"/>
<feColorMatrix in="SourceAlpha" type="matrix" values="0 0 0 0 0 0 0 0 0 0 0 0 0 0 0 0 0 0 127 0" result="hardAlpha"/>
<feOffset dx="-3" dy="-3"/>
<feGaussianBlur stdDeviation="4"/>
<feComposite in2="hardAlpha" operator="out"/>
<feColorMatrix type="matrix" values="0 0 0 0 0 0 0 0 0 0 0 0 0 0 0 0 0 0 0.15 0"/>
<feBlend mode="normal" in2="BackgroundImageFix" result="effect1_dropShadow_1391_389"/>
<feBlend mode="normal" in="SourceGraphic" in2="effect1_dropShadow_1391_389" result="shape"/>
</filter>
<linearGradient id="paint0_linear_1391_389" x1="53" y1="-22.5" x2="53" y2="157.5" gradientUnits="userSpaceOnUse">
<stop stop-color="#FFA301"/>
<stop offset="1" stop-color="#F8125C" stop-opacity="0.12"/>
</linearGradient>
<linearGradient id="paint1_linear_1391_389" x1="53" y1="-22.5" x2="53" y2="157.5" gradientUnits="userSpaceOnUse">
<stop stop-color="#FFA301"/>
<stop offset="1" stop-color="#F8115C"/>
</linearGradient>
</defs>
</svg>
