<svg width="192" height="240" viewBox="0 0 192 240" fill="none" xmlns="http://www.w3.org/2000/svg">
<g opacity="0.07">
<g clip-path="url(#clip0_1391_201)">
<path d="M55.2851 228.108C58.3241 228.108 61.6579 227.11 65.2639 225.121L146.931 164.802C147.846 164.129 148.405 163.078 148.466 161.943C148.519 160.809 148.065 159.713 147.219 158.949L50.4846 71.8666C48.9349 70.4675 46.5461 70.5885 45.1475 72.1464C43.749 73.6967 43.8775 76.0864 45.4272 77.4855L138.714 161.475L61.1967 218.768C59.1481 219.865 55.6857 221.256 53.2213 220.114C50.7115 218.965 49.4717 215.297 48.8669 212.423L15.7932 56.5071C14.5081 51.3571 15.128 47.2128 17.4185 45.3071C19.1648 43.8551 21.7654 43.7492 24.5776 45.0197L218.983 120.025C224.947 122.422 226.822 124.887 226.792 125.704C226.769 126.241 225.484 127.723 221.651 128.895L173.458 143.945L120.548 110.549C118.779 109.445 116.451 109.966 115.339 111.729C114.228 113.491 114.75 115.827 116.519 116.939L170.903 151.265C171.84 151.855 172.997 152.006 174.048 151.681L223.881 136.118C232.726 133.41 234.238 128.631 234.344 126.022C234.495 122.445 232.431 117.272 221.742 112.991L27.4956 38.0622C22.2265 35.6573 16.5719 36.1716 12.5728 39.5066C7.93867 43.3711 6.42674 50.1924 8.4225 58.2163L41.4659 213.989C42.8569 220.628 45.7447 225.007 50.0613 226.989C51.6866 227.737 53.4254 228.108 55.2851 228.108Z" fill="black" stroke="black" stroke-width="0.5"/>
<path d="M55.2851 228.108C58.3241 228.108 61.6579 227.11 65.2639 225.121L116.065 187.618C117.743 186.378 118.106 184.003 116.859 182.332C115.619 180.653 113.245 180.29 111.575 181.538L61.1967 218.768C59.1481 219.865 55.6857 221.256 53.2213 220.114C50.7115 218.965 49.4717 215.297 48.8669 212.423L15.7932 56.5071C14.5081 51.3571 15.128 47.2128 17.4185 45.3071C19.1648 43.8551 21.7654 43.7492 24.5776 45.0197L218.983 120.025C224.947 122.422 226.822 124.887 226.792 125.704C226.769 126.241 225.484 127.723 221.651 128.895L171.803 144.459C170.608 144.83 169.678 145.775 169.308 146.97L152.17 203.394C151.709 204.657 151.354 205.912 151.044 207.001C150.802 207.863 150.499 208.937 150.295 209.255C150.326 209.217 149.721 209.398 148.111 209.406C144.731 209.406 143.446 208.143 140.876 205.64L128.327 193.434C126.83 191.967 124.441 192.012 122.982 193.509C121.531 195.007 121.561 197.404 123.058 198.856L135.395 210.843C138.434 213.815 141.655 216.961 148.111 216.961C155.519 216.961 157.016 213.679 158.324 209.05C158.588 208.113 158.891 207.031 159.344 205.783L175.961 151.084L223.881 136.118C232.726 133.41 234.238 128.631 234.344 126.022C234.495 122.445 232.431 117.272 221.742 112.991L27.4956 38.0622C22.2265 35.6573 16.5719 36.1716 12.5728 39.5066C7.93867 43.3711 6.42674 50.1924 8.4225 58.2163L41.4659 213.989C42.8569 220.628 45.7447 225.007 50.0613 226.989C51.6866 227.737 53.4254 228.108 55.2851 228.108Z" fill="black"/>
<path d="M102.057 105.875C102.057 107.955 103.758 109.656 105.837 109.656C107.916 109.656 109.617 107.955 109.617 105.875C109.617 103.795 107.916 102.094 105.837 102.094C103.758 102.094 102.057 103.795 102.057 105.875Z" fill="black"/>
</g>
</g>
<defs>
<clipPath id="clip0_1391_201">
<rect width="192" height="240" rx="8" transform="matrix(-1 0 0 1 192 0)" fill="white"/>
</clipPath>
</defs>
</svg>
