<svg width="168" height="206" viewBox="0 0 168 206" fill="none" xmlns="http://www.w3.org/2000/svg">
<g opacity="0.1">
<g clip-path="url(#clip0_1391_187)">
<path d="M214.086 83.1804C214.086 75.9425 209.652 73.0626 204.329 71.4696C204.329 71.4696 168.357 75.0479 155.56 76.5452C145.465 77.7221 140.17 69.9675 148.115 57.2427C153.419 48.7419 155.56 45.5798 155.56 38.275C155.56 22.4215 142.463 9.57227 126.302 9.57227C110.136 9.57227 97.0386 22.4215 97.0386 38.275C97.0386 45.4698 99.522 50.3923 104.356 57.2618C113.499 70.2689 108.014 77.2963 97.0386 76.5452C85.026 75.7272 48.27 71.4696 48.27 71.4696C41.8665 70.4124 39.2784 75.7942 38.5172 82.879C38.5172 82.879 36.5334 91.0736 33.4315 132.549C33.1842 133.501 33.4078 134.568 33.4886 134.998C35.168 143.667 44.0977 138.29 53.3224 131.707C59.2597 127.469 65.4825 124.378 72.828 124.378C88.9938 124.378 102.091 137.228 102.091 153.081C102.091 168.934 88.9938 181.784 72.828 181.784C65.059 181.784 59.6784 179.354 52.8039 173.914C45.9246 168.475 36.5334 162.495 33.7883 169.226C33.3031 170.422 33.1794 172.814 33.4268 174.354C36.2765 204.205 37.404 205.626 38.5125 210.486C39.621 215.347 42.8798 220.054 48.2653 220.054H200.67C209.362 220.054 214.086 214.821 214.086 206.899C214.086 202.713 214.086 90.4134 214.086 83.1804Z" stroke="black" stroke-width="10" stroke-miterlimit="10" stroke-linecap="round" stroke-linejoin="round"/>
</g>
</g>
<defs>
<clipPath id="clip0_1391_187">
<rect width="168" height="206" rx="8" fill="white"/>
</clipPath>
</defs>
</svg>
