<svg width="151" height="208" viewBox="0 0 151 208" fill="none" xmlns="http://www.w3.org/2000/svg">
<g opacity="0.07">
<g clip-path="url(#clip0_1391_386)">
<path d="M130.785 79.2188C120.681 79.2188 110.804 82.197 102.402 87.7769C94.0009 93.3569 87.4528 101.288 83.5861 110.567C79.7194 119.846 78.7077 130.056 80.6789 139.907C82.6502 149.758 87.5158 158.806 94.6606 165.908C101.805 173.01 110.908 177.846 120.818 179.806C130.729 181.765 141.001 180.759 150.336 176.916C159.671 173.072 167.65 166.563 173.263 158.213C178.877 149.862 181.873 140.044 181.873 130C181.873 116.532 176.491 103.616 166.91 94.0922C157.329 84.5689 144.335 79.2188 130.785 79.2188ZM130.785 168.594C123.106 168.594 115.599 166.33 109.214 162.09C102.829 157.849 97.8526 151.821 94.9139 144.769C91.9752 137.717 91.2063 129.957 92.7044 122.471C94.2026 114.984 97.9005 108.108 103.331 102.71C108.761 97.3127 115.679 93.637 123.21 92.1478C130.742 90.6587 138.549 91.423 145.644 94.344C152.738 97.2651 158.802 102.212 163.069 108.558C167.335 114.905 169.612 122.367 169.612 130C169.612 140.236 165.521 150.052 158.24 157.29C150.959 164.528 141.083 168.594 130.785 168.594Z" fill="black"/>
<path d="M247.266 97.5H229.017C228.592 97.4969 228.179 97.3621 227.834 97.1146C227.49 96.867 227.232 96.5189 227.096 96.1188C225.908 92.7659 224.544 89.4775 223.009 86.2672C222.817 85.8884 222.75 85.4594 222.816 85.0405C222.882 84.6216 223.078 84.2337 223.377 83.9313L236.272 71.0938C237.6 69.7734 238.654 68.2059 239.373 66.4807C240.092 64.7555 240.462 62.9064 240.462 61.0391C240.462 59.1717 240.092 57.3226 239.373 55.5975C238.654 53.8723 237.6 52.3047 236.272 50.9844L210.258 25.1469C208.929 23.8264 207.352 22.7789 205.617 22.0643C203.881 21.3496 202.021 20.9818 200.142 20.9818C198.263 20.9818 196.403 21.3496 194.668 22.0643C192.932 22.7789 191.355 23.8264 190.027 25.1469L177.132 37.9641C176.828 38.2612 176.438 38.4562 176.016 38.5218C175.595 38.5873 175.163 38.5202 174.782 38.3297C171.553 36.8032 168.244 35.4472 164.871 34.2672C164.468 34.132 164.118 33.8755 163.869 33.5333C163.62 33.1911 163.485 32.7802 163.481 32.3578V14.2188C163.481 10.4477 161.974 6.83111 159.292 4.16458C156.609 1.49804 152.971 0 149.177 0H112.393C108.6 0 104.961 1.49804 102.279 4.16458C99.5959 6.83111 98.0888 10.4477 98.0888 14.2188V32.3578C98.0857 32.7802 97.9501 33.1911 97.7011 33.5333C97.452 33.8755 97.1018 34.132 96.6992 34.2672C93.3262 35.4477 90.0179 36.8037 86.7882 38.3297C86.4071 38.5202 85.9756 38.5873 85.5541 38.5218C85.1327 38.4562 84.7425 38.2612 84.4381 37.9641L71.5231 25.1469C70.1948 23.8264 68.6178 22.7789 66.8822 22.0643C65.1466 21.3496 63.2863 20.9818 61.4077 20.9818C59.5291 20.9818 57.6688 21.3496 55.9332 22.0643C54.1976 22.7789 52.6206 23.8264 51.2923 25.1469L25.2987 51.0047C23.9703 52.325 22.9165 53.8926 22.1975 55.6178C21.4786 57.3429 21.1085 59.192 21.1085 61.0594C21.1085 62.9267 21.4786 64.7758 22.1975 66.501C22.9165 68.2262 23.9703 69.7937 25.2987 71.1141L38.1933 83.9313C38.4923 84.2337 38.6885 84.6216 38.7544 85.0405C38.8204 85.4594 38.7528 85.8884 38.5612 86.2672C37.0255 89.4773 35.6613 92.7657 34.4741 96.1188C34.3382 96.5189 34.0801 96.867 33.7358 97.1146C33.3915 97.3621 32.9782 97.4969 32.5532 97.5H14.3046C10.5108 97.5 6.87236 98.998 4.18973 101.665C1.50709 104.331 0 107.948 0 111.719L0 148.281C0 152.052 1.50709 155.669 4.18973 158.335C6.87236 161.002 10.5108 162.5 14.3046 162.5H32.5532C32.9782 162.503 33.3915 162.638 33.7358 162.885C34.0801 163.133 34.3382 163.481 34.4741 163.881C35.6618 167.234 37.026 170.522 38.5612 173.733C38.7528 174.112 38.8204 174.541 38.7544 174.959C38.6885 175.378 38.4923 175.766 38.1933 176.069L25.2987 188.906C23.9703 190.227 22.9165 191.794 22.1975 193.519C21.4786 195.245 21.1085 197.094 21.1085 198.961C21.1085 200.828 21.4786 202.677 22.1975 204.403C22.9165 206.128 23.9703 207.695 25.2987 209.016L51.3127 234.873C52.6411 236.194 54.218 237.241 55.9537 237.956C57.6893 238.671 59.5495 239.039 61.4281 239.039C63.3068 239.039 65.167 238.671 66.9026 237.956C68.6382 237.241 70.2152 236.194 71.5435 234.873L84.4381 222.056C84.7425 221.759 85.1327 221.564 85.5541 221.499C85.9756 221.433 86.4071 221.5 86.7882 221.691C90.0177 223.217 93.326 224.573 96.6992 225.753C97.1018 225.888 97.452 226.145 97.7011 226.487C97.9501 226.829 98.0857 227.24 98.0888 227.663V245.781C98.0888 249.552 99.5959 253.169 102.279 255.835C104.961 258.502 108.6 260 112.393 260H149.177C152.971 260 156.609 258.502 159.292 255.835C161.974 253.169 163.481 249.552 163.481 245.781V227.642C163.485 227.22 163.62 226.809 163.869 226.467C164.118 226.124 164.468 225.868 164.871 225.733C168.244 224.552 171.552 223.196 174.782 221.67C175.163 221.48 175.595 221.413 176.016 221.478C176.438 221.544 176.828 221.739 177.132 222.036L190.047 234.853C191.375 236.174 192.952 237.221 194.688 237.936C196.424 238.65 198.284 239.018 200.163 239.018C202.041 239.018 203.901 238.65 205.637 237.936C207.373 237.221 208.95 236.174 210.278 234.853L236.292 208.995C237.62 207.675 238.674 206.107 239.393 204.382C240.112 202.657 240.482 200.808 240.482 198.941C240.482 197.073 240.112 195.224 239.393 193.499C238.674 191.774 237.62 190.206 236.292 188.886L223.397 176.069C223.098 175.766 222.902 175.378 222.836 174.959C222.77 174.541 222.838 174.112 223.03 173.733C224.565 170.523 225.929 167.234 227.117 163.881C227.253 163.481 227.511 163.133 227.855 162.885C228.199 162.638 228.613 162.503 229.037 162.5H247.266C251.059 162.5 254.698 161.002 257.381 158.335C260.063 155.669 261.57 152.052 261.57 148.281V111.719C261.57 107.948 260.063 104.331 257.381 101.665C254.698 98.998 251.059 97.5 247.266 97.5ZM249.309 148.281C249.309 148.82 249.094 149.337 248.711 149.718C248.327 150.098 247.808 150.312 247.266 150.312H229.017C226.053 150.316 223.163 151.234 220.747 152.941C218.331 154.647 216.508 157.058 215.53 159.839C214.484 162.784 213.284 165.672 211.933 168.492C210.638 171.15 210.208 174.143 210.703 177.055C211.197 179.967 212.591 182.654 214.692 184.742L227.587 197.559C227.967 197.94 228.181 198.455 228.181 198.991C228.181 199.528 227.967 200.043 227.587 200.423L201.593 226.241C201.21 226.619 200.692 226.831 200.152 226.831C199.612 226.831 199.095 226.619 198.712 226.241L185.817 213.423C183.716 211.335 181.013 209.949 178.083 209.458C175.154 208.967 172.143 209.394 169.469 210.681C166.625 212.024 163.713 213.218 160.743 214.256C157.949 215.232 155.528 217.046 153.815 219.447C152.102 221.848 151.181 224.719 151.179 227.663V245.781C151.179 246.32 150.964 246.837 150.581 247.218C150.198 247.598 149.678 247.812 149.136 247.812H112.393C111.851 247.812 111.332 247.598 110.948 247.218C110.565 246.837 110.35 246.32 110.35 245.781V227.642C110.347 224.696 109.423 221.824 107.706 219.422C105.989 217.02 103.564 215.208 100.766 214.236C97.8031 213.197 94.8973 212.003 92.0605 210.661C89.3864 209.374 86.3756 208.946 83.446 209.438C80.5164 209.929 77.8134 211.315 75.7123 213.403L62.8177 226.22C62.4349 226.599 61.9169 226.811 61.3771 226.811C60.8372 226.811 60.3192 226.599 59.9364 226.22L33.9633 200.383C33.5827 200.002 33.369 199.487 33.369 198.951C33.369 198.414 33.5827 197.899 33.9633 197.519L46.8579 184.702C48.9585 182.613 50.3528 179.926 50.8472 177.014C51.3415 174.102 50.9114 171.11 49.6166 168.452C48.2654 165.625 47.0649 162.73 46.02 159.778C45.0328 157.012 43.2085 154.617 40.7973 152.922C38.3861 151.227 35.5063 150.316 32.5532 150.312H14.3046C13.7626 150.312 13.2429 150.098 12.8596 149.718C12.4764 149.337 12.2611 148.82 12.2611 148.281V111.719C12.2611 111.18 12.4764 110.663 12.8596 110.282C13.2429 109.902 13.7626 109.688 14.3046 109.688H32.5532C35.5172 109.684 38.407 108.766 40.8231 107.059C43.2392 105.353 45.0623 102.942 46.0405 100.161C47.086 97.216 48.2866 94.3276 49.637 91.5078C50.9319 88.8498 51.362 85.8571 50.8676 82.945C50.3732 80.033 48.9789 77.3462 46.8783 75.2578L33.9837 62.4406C33.6031 62.06 33.3895 61.5452 33.3895 61.0086C33.3895 60.472 33.6031 59.9571 33.9837 59.5766L59.9772 33.7594C60.3601 33.3811 60.8781 33.1687 61.4179 33.1687C61.9578 33.1687 62.4757 33.3811 62.8586 33.7594L75.7532 46.5766C77.8542 48.6646 80.5572 50.0505 83.4868 50.5419C86.4165 51.0333 89.4273 50.6058 92.1013 49.3188C94.9448 47.9757 97.8574 46.7823 100.827 45.7438C103.61 44.7625 106.02 42.9491 107.725 40.5524C109.43 38.1557 110.347 35.2932 110.35 32.3578V14.2188C110.35 13.68 110.565 13.1634 110.948 12.7824C111.332 12.4015 111.851 12.1875 112.393 12.1875H149.177C149.719 12.1875 150.239 12.4015 150.622 12.7824C151.005 13.1634 151.22 13.68 151.22 14.2188V32.3578C151.224 35.304 152.148 38.1764 153.865 40.578C155.581 42.9796 158.006 44.7918 160.804 45.7641C163.767 46.8034 166.673 47.9967 169.51 49.3391C172.184 50.6261 175.195 51.0536 178.124 50.5622C181.054 50.0708 183.757 48.6849 185.858 46.5969L198.753 33.7797C199.135 33.4014 199.653 33.189 200.193 33.189C200.733 33.189 201.251 33.4014 201.634 33.7797L227.648 59.6375C228.028 60.0181 228.242 60.5329 228.242 61.0695C228.242 61.6062 228.028 62.121 227.648 62.5016L214.753 75.3188C212.653 77.4072 211.258 80.0939 210.764 83.006C210.27 85.918 210.7 88.9108 211.995 91.5688C213.346 94.3951 214.546 97.2903 215.591 100.242C216.573 103.02 218.397 105.426 220.813 107.128C223.229 108.831 226.117 109.747 229.078 109.748H247.266C247.808 109.748 248.327 109.962 248.711 110.343C249.094 110.724 249.309 111.241 249.309 111.78V148.281Z" fill="black"/>
</g>
</g>
<defs>
<clipPath id="clip0_1391_386">
<rect width="151" height="208" rx="8" fill="white"/>
</clipPath>
</defs>
</svg>
