<svg width="708" height="211" viewBox="0 0 708 211" fill="none" xmlns="http://www.w3.org/2000/svg">
<g clip-path="url(#clip0_545_1212)">
<path d="M331.533 71.7902L335.95 78.8428C335.95 78.8428 341.094 75.8015 341.733 75.459C342.373 75.1165 343.169 74.9463 342.48 73.6851C341.791 72.4239 338.994 67.4589 338.994 67.4589L325.879 46.1309" stroke="url(#paint0_linear_545_1212)" stroke-width="2.54" stroke-linecap="round" stroke-linejoin="round"/>
<path d="M335.95 78.8427C335.95 78.8427 341.809 89.5682 343.316 92.1133C344.823 94.6583 345.096 98.0482 341.111 100.727C337.652 103.056 334.003 100.971 332.293 98.2656C330.583 95.5606 320.52 78.168 320.52 78.168" stroke="url(#paint1_linear_545_1212)" stroke-width="2.54" stroke-linecap="round" stroke-linejoin="round"/>
<path d="M352.328 12.3115L379.923 59.8034" stroke="url(#paint2_linear_545_1212)" stroke-width="2.54" stroke-linecap="round" stroke-linejoin="round"/>
<path d="M377.84 39.4556C377.84 39.4556 380.953 34.8475 381.858 33.5432C382.762 32.2389 382.793 31.7222 381.858 30.0446C380.922 28.3671 379.874 26.7121 379.149 25.5329C378.632 24.6941 378.148 24.9833 375.988 25.0817C373.829 25.1802 369.836 25.4386 369.836 25.4386" stroke="url(#paint3_linear_545_1212)" stroke-width="2.54" stroke-linecap="round" stroke-linejoin="round"/>
<path d="M327.431 66.6633C328.582 66.6633 329.515 65.7304 329.515 64.5797C329.515 63.4289 328.582 62.4961 327.431 62.4961C326.281 62.4961 325.348 63.4289 325.348 64.5797C325.348 65.7304 326.281 66.6633 327.431 66.6633Z" stroke="url(#paint4_linear_545_1212)" stroke-width="2.54" stroke-linecap="round" stroke-linejoin="round"/>
<path d="M406.244 13.7508C405.985 14.0605 405.612 14.8398 404.997 15.1864C401.252 17.352 397.462 19.4376 393.67 21.5233C392.465 22.1918 391.234 21.8658 390.658 20.8383C390.043 19.7535 390.397 18.5476 391.663 17.8278C395.399 15.7155 399.147 13.6285 402.905 11.5667C404.527 10.6788 406.227 11.5914 406.244 13.7508Z" stroke="url(#paint5_linear_545_1212)" stroke-width="2.54" stroke-linecap="round" stroke-linejoin="round"/>
<path d="M379.339 12.0734C379.503 11.4582 379.749 10.5066 379.997 9.56531C380.499 7.68064 380.967 5.78367 381.529 3.91337C381.898 2.67059 383.014 2.03485 384.098 2.33222C385.253 2.65009 385.893 3.78006 385.569 5.0536C384.913 7.6198 384.234 10.1792 383.532 12.7317C383.169 14.0524 382.195 14.7394 381.098 14.5384C380.001 14.3375 379.287 13.5028 379.339 12.0734Z" stroke="url(#paint6_linear_545_1212)" stroke-width="2.54" stroke-linecap="round" stroke-linejoin="round"/>
<path d="M393.666 30.9958C394.025 31.0861 394.692 31.2481 395.371 31.4265C397.456 31.9843 399.548 32.5216 401.623 33.1122C403.059 33.5224 403.728 34.5744 403.389 35.7331C403.024 36.9821 401.927 37.5255 400.469 37.14C397.975 36.4899 395.481 35.8418 392.996 35.161C391.698 34.8041 391.005 33.8239 391.179 32.7185C391.345 31.6808 392.229 30.9692 393.666 30.9958Z" stroke="url(#paint7_linear_545_1212)" stroke-width="2.54" stroke-linecap="round" stroke-linejoin="round"/>
<path d="M360.929 9.84194C362.418 12.43 383.853 49.949 384.989 52.0387C386.125 54.1285 388.295 58.4515 380.258 59.7476C372.221 61.0437 339.004 67.4585 339.004 67.4585L319.622 78.6988C319.622 78.6988 309.918 83.3356 303.257 74.0866C298.647 67.6739 302.898 59.321 306.932 56.7945C310.966 54.2679 325.881 46.1304 325.881 46.1304L353.622 10.652C353.622 10.652 357.994 4.74371 360.929 9.84194Z" stroke="url(#paint8_linear_545_1212)" stroke-width="2.54" stroke-linecap="round" stroke-linejoin="round"/>
<path d="M314.692 73.8638C313.32 73.9848 311.96 73.511 310.824 72.6969C310.272 72.3208 309.8 71.8384 309.436 71.2777C309.074 70.7107 308.928 70.0321 309.026 69.3664C309.077 69.0358 309.212 68.7238 309.417 68.46C309.623 68.1962 309.893 67.9894 310.201 67.8591C311.066 67.5289 312.059 67.9801 312.703 68.6466C313.012 68.9686 313.283 69.35 313.685 69.5489C314.162 69.7489 314.697 69.7577 315.18 69.5735C316.027 69.3069 316.753 68.7635 317.495 68.2754C318.238 67.7873 319.046 67.332 319.934 67.2828C320.822 67.2336 321.792 67.7032 322.052 68.5522C322.126 68.8533 322.13 69.1673 322.064 69.4701C321.998 69.773 321.864 70.0567 321.671 70.2995C321.283 70.783 320.811 71.1917 320.276 71.5054C318.824 72.4727 317.234 73.2146 315.559 73.7058C315.276 73.7842 314.985 73.837 314.692 73.8638Z" stroke="url(#paint9_linear_545_1212)" stroke-width="2.54" stroke-linecap="round" stroke-linejoin="round"/>
</g>
<mask id="path-11-outside-1_545_1212" maskUnits="userSpaceOnUse" x="2.5" y="128" width="445" height="67" fill="black">
<rect fill="white" x="2.5" y="128" width="445" height="67"/>
<path d="M4.90341 192V133.818H28.9375C33.2936 133.818 37.053 134.67 40.2159 136.375C43.3977 138.061 45.8504 140.419 47.5739 143.449C49.2973 146.46 50.1591 149.964 50.1591 153.96C50.1591 157.975 49.2784 161.489 47.517 164.5C45.7746 167.492 43.2841 169.812 40.0455 171.46C36.8068 173.108 32.9621 173.932 28.5114 173.932H13.6818V162.852H25.8977C28.0189 162.852 29.7898 162.483 31.2102 161.744C32.6496 161.006 33.7386 159.973 34.4773 158.648C35.2159 157.303 35.5852 155.741 35.5852 153.96C35.5852 152.161 35.2159 150.608 34.4773 149.301C33.7386 147.975 32.6496 146.953 31.2102 146.233C29.7708 145.513 28 145.153 25.8977 145.153H18.9659V192H4.90341ZM53.8909 192V148.364H67.3852V156.318H67.8398C68.6352 153.439 69.9326 151.299 71.7318 149.898C73.5311 148.477 75.6239 147.767 78.0102 147.767C78.6542 147.767 79.317 147.814 79.9989 147.909C80.6807 147.985 81.3152 148.108 81.9023 148.278V160.352C81.2394 160.125 80.3682 159.945 79.2886 159.812C78.228 159.68 77.2811 159.614 76.4477 159.614C74.8 159.614 73.3133 159.983 71.9875 160.722C70.6807 161.441 69.6485 162.455 68.8909 163.761C68.1523 165.049 67.783 166.564 67.783 168.307V192H53.8909ZM102.466 192.824C97.8831 192.824 93.9437 191.886 90.6483 190.011C87.3718 188.117 84.8434 185.485 83.0631 182.114C81.3017 178.723 80.421 174.794 80.421 170.324C80.421 165.835 81.3017 161.905 83.0631 158.534C84.8434 155.144 87.3718 152.511 90.6483 150.636C93.9437 148.742 97.8831 147.795 102.466 147.795C107.05 147.795 110.98 148.742 114.256 150.636C117.552 152.511 120.08 155.144 121.841 158.534C123.622 161.905 124.512 165.835 124.512 170.324C124.512 174.794 123.622 178.723 121.841 182.114C120.08 185.485 117.552 188.117 114.256 190.011C110.98 191.886 107.05 192.824 102.466 192.824ZM102.552 182.341C104.218 182.341 105.629 181.83 106.785 180.807C107.94 179.784 108.821 178.364 109.427 176.545C110.052 174.727 110.364 172.625 110.364 170.239C110.364 167.814 110.052 165.693 109.427 163.875C108.821 162.057 107.94 160.636 106.785 159.614C105.629 158.591 104.218 158.08 102.552 158.08C100.828 158.08 99.3699 158.591 98.1767 159.614C97.0025 160.636 96.1028 162.057 95.4778 163.875C94.8718 165.693 94.5687 167.814 94.5687 170.239C94.5687 172.625 94.8718 174.727 95.4778 176.545C96.1028 178.364 97.0025 179.784 98.1767 180.807C99.3699 181.83 100.828 182.341 102.552 182.341ZM128.428 192V148.364H141.639V156.375H142.122C143.031 153.723 144.565 151.631 146.724 150.097C148.883 148.562 151.459 147.795 154.451 147.795C157.481 147.795 160.076 148.572 162.235 150.125C164.394 151.678 165.767 153.761 166.355 156.375H166.809C167.623 153.78 169.214 151.706 171.582 150.153C173.949 148.581 176.743 147.795 179.963 147.795C184.091 147.795 187.444 149.121 190.019 151.773C192.595 154.405 193.883 158.023 193.883 162.625V192H179.991V165.807C179.991 163.629 179.432 161.972 178.315 160.835C177.197 159.68 175.748 159.102 173.968 159.102C172.055 159.102 170.55 159.727 169.451 160.977C168.372 162.208 167.832 163.866 167.832 165.949V192H154.48V165.665C154.48 163.638 153.93 162.038 152.832 160.864C151.733 159.689 150.284 159.102 148.485 159.102C147.273 159.102 146.203 159.396 145.275 159.983C144.347 160.551 143.618 161.366 143.088 162.426C142.576 163.487 142.32 164.737 142.32 166.176V192H128.428ZM219.66 192.824C215.077 192.824 211.137 191.886 207.842 190.011C204.566 188.117 202.037 185.485 200.257 182.114C198.495 178.723 197.615 174.794 197.615 170.324C197.615 165.835 198.495 161.905 200.257 158.534C202.037 155.144 204.566 152.511 207.842 150.636C211.137 148.742 215.077 147.795 219.66 147.795C224.244 147.795 228.173 148.742 231.45 150.636C234.745 152.511 237.274 155.144 239.035 158.534C240.816 161.905 241.706 165.835 241.706 170.324C241.706 174.794 240.816 178.723 239.035 182.114C237.274 185.485 234.745 188.117 231.45 190.011C228.173 191.886 224.244 192.824 219.66 192.824ZM219.745 182.341C221.412 182.341 222.823 181.83 223.978 180.807C225.134 179.784 226.014 178.364 226.62 176.545C227.245 174.727 227.558 172.625 227.558 170.239C227.558 167.814 227.245 165.693 226.62 163.875C226.014 162.057 225.134 160.636 223.978 159.614C222.823 158.591 221.412 158.08 219.745 158.08C218.022 158.08 216.564 158.591 215.37 159.614C214.196 160.636 213.297 162.057 212.672 163.875C212.066 165.693 211.762 167.814 211.762 170.239C211.762 172.625 212.066 174.727 212.672 176.545C213.297 178.364 214.196 179.784 215.37 180.807C216.564 181.83 218.022 182.341 219.745 182.341ZM270.253 148.364V158.591H242.724V148.364H270.253ZM248.491 137.909H262.384V178.278C262.384 179.131 262.516 179.822 262.781 180.352C263.065 180.864 263.473 181.233 264.003 181.46C264.533 181.669 265.168 181.773 265.906 181.773C266.437 181.773 266.995 181.725 267.582 181.631C268.188 181.517 268.643 181.422 268.946 181.347L271.048 191.375C270.385 191.564 269.448 191.801 268.236 192.085C267.043 192.369 265.613 192.549 263.946 192.625C260.688 192.777 257.895 192.398 255.565 191.489C253.255 190.561 251.484 189.121 250.253 187.17C249.041 185.22 248.454 182.767 248.491 179.812V137.909ZM274.141 192V148.364H288.033V192H274.141ZM281.101 143.278C279.15 143.278 277.474 142.634 276.073 141.347C274.671 140.04 273.97 138.468 273.97 136.631C273.97 134.812 274.671 133.259 276.073 131.972C277.474 130.665 279.15 130.011 281.101 130.011C283.071 130.011 284.747 130.665 286.13 131.972C287.531 133.259 288.232 134.812 288.232 136.631C288.232 138.468 287.531 140.04 286.13 141.347C284.747 142.634 283.071 143.278 281.101 143.278ZM314.045 192.824C309.461 192.824 305.522 191.886 302.226 190.011C298.95 188.117 296.422 185.485 294.641 182.114C292.88 178.723 291.999 174.794 291.999 170.324C291.999 165.835 292.88 161.905 294.641 158.534C296.422 155.144 298.95 152.511 302.226 150.636C305.522 148.742 309.461 147.795 314.045 147.795C318.628 147.795 322.558 148.742 325.834 150.636C329.13 152.511 331.658 155.144 333.42 158.534C335.2 161.905 336.09 165.835 336.09 170.324C336.09 174.794 335.2 178.723 333.42 182.114C331.658 185.485 329.13 188.117 325.834 190.011C322.558 191.886 318.628 192.824 314.045 192.824ZM314.13 182.341C315.797 182.341 317.207 181.83 318.363 180.807C319.518 179.784 320.399 178.364 321.005 176.545C321.63 174.727 321.942 172.625 321.942 170.239C321.942 167.814 321.63 165.693 321.005 163.875C320.399 162.057 319.518 160.636 318.363 159.614C317.207 158.591 315.797 158.08 314.13 158.08C312.406 158.08 310.948 158.591 309.755 159.614C308.581 160.636 307.681 162.057 307.056 163.875C306.45 165.693 306.147 167.814 306.147 170.239C306.147 172.625 306.45 174.727 307.056 176.545C307.681 178.364 308.581 179.784 309.755 180.807C310.948 181.83 312.406 182.341 314.13 182.341ZM353.899 167.114V192H340.007V148.364H353.217V156.375H353.7C354.666 153.705 356.313 151.612 358.643 150.097C360.972 148.562 363.747 147.795 366.967 147.795C370.035 147.795 372.696 148.487 374.95 149.869C377.222 151.233 378.984 153.146 380.234 155.608C381.503 158.051 382.128 160.911 382.109 164.188V192H368.217V166.915C368.236 164.491 367.62 162.597 366.37 161.233C365.139 159.869 363.425 159.188 361.228 159.188C359.77 159.188 358.482 159.509 357.364 160.153C356.266 160.778 355.414 161.678 354.808 162.852C354.221 164.027 353.918 165.447 353.899 167.114ZM399.811 192.739C397.027 192.739 394.555 192.275 392.396 191.347C390.256 190.4 388.561 188.979 387.311 187.085C386.08 185.172 385.464 182.777 385.464 179.898C385.464 177.473 385.89 175.428 386.743 173.761C387.595 172.095 388.769 170.741 390.265 169.699C391.762 168.657 393.485 167.871 395.436 167.341C397.387 166.792 399.47 166.422 401.686 166.233C404.167 166.006 406.165 165.769 407.68 165.523C409.195 165.258 410.294 164.888 410.976 164.415C411.676 163.922 412.027 163.231 412.027 162.341V162.199C412.027 160.741 411.525 159.614 410.521 158.818C409.517 158.023 408.163 157.625 406.459 157.625C404.621 157.625 403.144 158.023 402.027 158.818C400.909 159.614 400.199 160.712 399.896 162.114L387.084 161.659C387.462 159.008 388.438 156.64 390.01 154.557C391.601 152.455 393.779 150.807 396.544 149.614C399.328 148.402 402.671 147.795 406.572 147.795C409.356 147.795 411.923 148.127 414.271 148.79C416.62 149.434 418.665 150.381 420.407 151.631C422.15 152.862 423.495 154.377 424.441 156.176C425.407 157.975 425.89 160.03 425.89 162.341V192H412.822V185.92H412.481C411.705 187.398 410.71 188.648 409.498 189.67C408.305 190.693 406.894 191.46 405.265 191.972C403.656 192.483 401.837 192.739 399.811 192.739ZM404.101 183.648C405.597 183.648 406.941 183.345 408.135 182.739C409.347 182.133 410.313 181.299 411.032 180.239C411.752 179.159 412.112 177.909 412.112 176.489V172.341C411.714 172.549 411.231 172.739 410.663 172.909C410.114 173.08 409.508 173.241 408.845 173.392C408.182 173.544 407.5 173.676 406.799 173.79C406.099 173.903 405.426 174.008 404.782 174.102C403.476 174.311 402.358 174.633 401.43 175.068C400.521 175.504 399.82 176.072 399.328 176.773C398.854 177.455 398.618 178.269 398.618 179.216C398.618 180.655 399.129 181.754 400.152 182.511C401.193 183.269 402.51 183.648 404.101 183.648ZM445.077 133.818V192H431.185V133.818H445.077Z"/>
</mask>
<path d="M4.90341 192H2.90341V194H4.90341V192ZM4.90341 133.818V131.818H2.90341V133.818H4.90341ZM40.2159 136.375L39.2671 138.136L39.2734 138.139L39.2797 138.142L40.2159 136.375ZM47.5739 143.449L45.8354 144.438L45.8381 144.442L47.5739 143.449ZM47.517 164.5L45.7907 163.49L45.7887 163.494L47.517 164.5ZM40.0455 171.46L40.9524 173.243L40.0455 171.46ZM13.6818 173.932H11.6818V175.932H13.6818V173.932ZM13.6818 162.852V160.852H11.6818V162.852H13.6818ZM31.2102 161.744L30.2971 159.965L30.2875 159.97L31.2102 161.744ZM34.4773 158.648L36.2244 159.621L36.2302 159.611L34.4773 158.648ZM34.4773 149.301L32.7301 150.275L32.7361 150.285L34.4773 149.301ZM31.2102 146.233L30.3158 148.022H30.3158L31.2102 146.233ZM18.9659 145.153V143.153H16.9659V145.153H18.9659ZM18.9659 192V194H20.9659V192H18.9659ZM6.90341 192V133.818H2.90341V192H6.90341ZM4.90341 135.818H28.9375V131.818H4.90341V135.818ZM28.9375 135.818C33.0321 135.818 36.4516 136.618 39.2671 138.136L41.1647 134.614C37.6545 132.723 33.555 131.818 28.9375 131.818V135.818ZM39.2797 138.142C42.1371 139.656 44.3063 141.749 45.8354 144.438L49.3124 142.46C47.3945 139.088 44.6583 136.465 41.1522 134.608L39.2797 138.142ZM45.8381 144.442C47.3636 147.108 48.1591 150.259 48.1591 153.96H52.1591C52.1591 149.669 51.2311 145.813 49.3097 142.455L45.8381 144.442ZM48.1591 153.96C48.1591 157.675 47.3473 160.829 45.7907 163.49L49.2434 165.51C51.2096 162.148 52.1591 158.276 52.1591 153.96H48.1591ZM45.7887 163.494C44.2496 166.137 42.0522 168.195 39.1385 169.678L40.9524 173.243C44.516 171.43 47.2997 168.848 49.2454 165.506L45.7887 163.494ZM39.1385 169.678C36.2371 171.154 32.7167 171.932 28.5114 171.932V175.932C33.2076 175.932 37.3766 175.062 40.9524 173.243L39.1385 169.678ZM28.5114 171.932H13.6818V175.932H28.5114V171.932ZM15.6818 173.932V162.852H11.6818V173.932H15.6818ZM13.6818 164.852H25.8977V160.852H13.6818V164.852ZM25.8977 164.852C28.2399 164.852 30.3501 164.446 32.1329 163.519L30.2875 159.97C29.2294 160.52 27.798 160.852 25.8977 160.852V164.852ZM32.1233 163.524C33.8899 162.617 35.2806 161.315 36.2244 159.621L32.7301 157.674C32.1967 158.632 31.4094 159.394 30.2971 159.965L32.1233 163.524ZM36.2302 159.611C37.1552 157.927 37.5852 156.023 37.5852 153.96H33.5852C33.5852 155.458 33.2766 156.679 32.7243 157.685L36.2302 159.611ZM37.5852 153.96C37.5852 151.885 37.1575 149.979 36.2184 148.317L32.7361 150.285C33.2743 151.237 33.5852 152.437 33.5852 153.96H37.5852ZM36.2244 148.328C35.2779 146.629 33.8809 145.332 32.1047 144.444L30.3158 148.022C31.4183 148.573 32.1994 149.322 32.7301 150.275L36.2244 148.328ZM32.1047 144.444C30.3158 143.55 28.2189 143.153 25.8977 143.153V147.153C27.7811 147.153 29.2258 147.477 30.3158 148.022L32.1047 144.444ZM25.8977 143.153H18.9659V147.153H25.8977V143.153ZM16.9659 145.153V192H20.9659V145.153H16.9659ZM18.9659 190H4.90341V194H18.9659V190ZM53.8909 192H51.8909V194H53.8909V192ZM53.8909 148.364V146.364H51.8909V148.364H53.8909ZM67.3852 148.364H69.3852V146.364H67.3852V148.364ZM67.3852 156.318H65.3852V158.318H67.3852V156.318ZM67.8398 156.318V158.318H69.3621L69.7675 156.851L67.8398 156.318ZM71.7318 149.898L72.9609 151.476L72.9711 151.467L71.7318 149.898ZM79.9989 147.909L79.7237 149.89L79.7508 149.894L79.778 149.897L79.9989 147.909ZM81.9023 148.278H83.9023V146.776L82.4599 146.358L81.9023 148.278ZM81.9023 160.352L81.2536 162.244L83.9023 163.152V160.352H81.9023ZM79.2886 159.812L79.0406 161.797L79.0449 161.798L79.2886 159.812ZM71.9875 160.722L72.9523 162.474L72.9609 162.469L71.9875 160.722ZM68.8909 163.761L67.1606 162.758L67.156 162.766L68.8909 163.761ZM67.783 192V194H69.783V192H67.783ZM55.8909 192V148.364H51.8909V192H55.8909ZM53.8909 150.364H67.3852V146.364H53.8909V150.364ZM65.3852 148.364V156.318H69.3852V148.364H65.3852ZM67.3852 158.318H67.8398V154.318H67.3852V158.318ZM69.7675 156.851C70.4839 154.258 71.5925 152.541 72.9609 151.476L70.5028 148.32C68.2727 150.057 66.7866 152.62 65.912 155.786L69.7675 156.851ZM72.9711 151.467C74.4021 150.338 76.0537 149.767 78.0102 149.767V145.767C75.194 145.767 72.66 146.617 70.4925 148.328L72.9711 151.467ZM78.0102 149.767C78.5561 149.767 79.1269 149.807 79.7237 149.89L80.274 145.928C79.5072 145.822 78.7523 145.767 78.0102 145.767V149.767ZM79.778 149.897C80.3594 149.961 80.88 150.064 81.3446 150.199L82.4599 146.358C81.7503 146.152 81.0019 146.008 80.2197 145.921L79.778 149.897ZM79.9023 148.278V160.352H83.9023V148.278H79.9023ZM82.5509 158.46C81.7056 158.171 80.6832 157.969 79.5324 157.827L79.0449 161.798C80.0532 161.921 80.7732 162.079 81.2536 162.244L82.5509 158.46ZM79.5367 157.828C78.4155 157.688 77.3833 157.614 76.4477 157.614V161.614C77.1788 161.614 78.0406 161.672 79.0406 161.797L79.5367 157.828ZM76.4477 157.614C74.4893 157.614 72.6627 158.056 71.0141 158.974L72.9609 162.469C73.9639 161.91 75.1107 161.614 76.4477 161.614V157.614ZM71.0227 158.97C69.3932 159.867 68.0982 161.141 67.1606 162.758L70.6212 164.764C71.1988 163.768 71.9681 163.015 72.9523 162.473L71.0227 158.97ZM67.156 162.766C66.2156 164.406 65.783 166.276 65.783 168.307H69.783C69.783 166.852 70.0889 165.693 70.6258 164.756L67.156 162.766ZM65.783 168.307V192H69.783V168.307H65.783ZM67.783 190H53.8909V194H67.783V190ZM90.6483 190.011L89.6474 191.743L89.6592 191.75L90.6483 190.011ZM83.0631 182.114L81.2883 183.036L81.2945 183.048L83.0631 182.114ZM83.0631 158.534L81.2924 157.604L81.2904 157.608L83.0631 158.534ZM90.6483 150.636L91.6417 152.372L91.6449 152.37L90.6483 150.636ZM114.256 150.636L113.255 152.368L113.267 152.375L114.256 150.636ZM121.841 158.534L120.067 159.456L120.073 159.468L121.841 158.534ZM121.841 182.114L120.071 181.184L120.069 181.187L121.841 182.114ZM114.256 190.011L115.25 191.747L115.253 191.745L114.256 190.011ZM106.785 180.807L105.459 179.309L106.785 180.807ZM109.427 176.545L107.535 175.895L107.532 175.904L107.529 175.913L109.427 176.545ZM109.427 163.875L107.529 164.507L107.532 164.516L107.535 164.525L109.427 163.875ZM106.785 159.614L108.11 158.116L106.785 159.614ZM98.1767 159.614L96.8751 158.095L96.8691 158.1L96.8631 158.105L98.1767 159.614ZM95.4778 163.875L93.5865 163.225L93.5834 163.234L93.5805 163.243L95.4778 163.875ZM95.4778 176.545L93.5805 177.178L93.5834 177.187L93.5865 177.196L95.4778 176.545ZM98.1767 180.807L96.8631 182.315L96.8691 182.32L96.8751 182.325L98.1767 180.807ZM102.466 190.824C98.1577 190.824 94.5743 189.944 91.6373 188.273L89.6592 191.75C93.3132 193.829 97.6086 194.824 102.466 194.824V190.824ZM91.6492 188.28C88.701 186.576 86.4375 184.221 84.8316 181.18L81.2945 183.048C83.2492 186.749 86.0425 189.659 89.6474 191.743L91.6492 188.28ZM84.8378 181.192C83.2477 178.131 82.421 174.527 82.421 170.324H78.421C78.421 175.06 79.3557 179.316 81.2883 183.036L84.8378 181.192ZM82.421 170.324C82.421 166.1 83.2484 162.498 84.8357 159.46L81.2904 157.608C79.355 161.312 78.421 165.571 78.421 170.324H82.421ZM84.8338 159.464C86.4397 156.406 88.7007 154.055 91.6417 152.372L89.6549 148.9C86.0429 150.968 83.2471 153.882 81.2924 157.604L84.8338 159.464ZM91.6449 152.37C94.5803 150.683 98.1609 149.795 102.466 149.795V145.795C97.6053 145.795 93.3072 146.801 89.6517 148.902L91.6449 152.37ZM102.466 149.795C106.772 149.795 110.341 150.684 113.255 152.368L115.257 148.905C111.618 146.801 107.327 145.795 102.466 145.795V149.795ZM113.267 152.375C116.225 154.057 118.482 156.405 120.067 159.456L123.616 157.612C121.679 153.882 118.879 150.965 115.245 148.898L113.267 152.375ZM120.073 159.468C121.676 162.504 122.512 166.103 122.512 170.324H126.512C126.512 165.567 125.567 161.306 123.61 157.6L120.073 159.468ZM122.512 170.324C122.512 174.524 121.677 178.125 120.071 181.184L123.612 183.043C125.566 179.322 126.512 175.063 126.512 170.324H122.512ZM120.069 181.187C118.484 184.221 116.225 186.573 113.26 188.277L115.253 191.745C118.879 189.661 121.676 186.748 123.614 183.04L120.069 181.187ZM113.263 188.275C110.347 189.944 106.776 190.824 102.466 190.824V194.824C107.324 194.824 111.612 193.829 115.25 191.747L113.263 188.275ZM102.552 184.341C104.664 184.341 106.559 183.678 108.11 182.304L105.459 179.309C104.7 179.981 103.772 180.341 102.552 180.341V184.341ZM108.11 182.304C109.586 180.998 110.633 179.25 111.324 177.178L107.529 175.913C107.008 177.478 106.294 178.57 105.459 179.309L108.11 182.304ZM111.318 177.196C112.03 175.125 112.364 172.795 112.364 170.239H108.364C108.364 172.455 108.073 174.33 107.535 175.895L111.318 177.196ZM112.364 170.239C112.364 167.648 112.031 165.299 111.318 163.225L107.535 164.525C108.072 166.088 108.364 167.981 108.364 170.239H112.364ZM111.324 163.243C110.633 161.171 109.586 159.422 108.11 158.116L105.459 161.111C106.294 161.851 107.008 162.943 107.529 164.507L111.324 163.243ZM108.11 158.116C106.559 156.743 104.664 156.08 102.552 156.08V160.08C103.772 160.08 104.7 160.439 105.459 161.111L108.11 158.116ZM102.552 156.08C100.4 156.08 98.4668 156.731 96.8751 158.095L99.4783 161.132C100.273 160.451 101.256 160.08 102.552 160.08V156.08ZM96.8631 158.105C95.369 159.407 94.299 161.152 93.5865 163.225L97.3692 164.525C97.9067 162.961 98.636 161.866 99.4903 161.122L96.8631 158.105ZM93.5805 163.243C92.8912 165.31 92.5687 167.654 92.5687 170.239H96.5687C96.5687 167.975 96.8524 166.076 97.3752 164.507L93.5805 163.243ZM92.5687 170.239C92.5687 172.789 92.8921 175.113 93.5805 177.178L97.3752 175.913C96.8514 174.342 96.5687 172.461 96.5687 170.239H92.5687ZM93.5865 177.196C94.299 179.268 95.369 181.014 96.8631 182.315L99.4903 179.299C98.636 178.555 97.9067 177.459 97.3692 175.895L93.5865 177.196ZM96.8751 182.325C98.4668 183.69 100.4 184.341 102.552 184.341V180.341C101.256 180.341 100.273 179.969 99.4783 179.288L96.8751 182.325ZM128.428 192H126.428V194H128.428V192ZM128.428 148.364V146.364H126.428V148.364H128.428ZM141.639 148.364H143.639V146.364H141.639V148.364ZM141.639 156.375H139.639V158.375H141.639V156.375ZM142.122 156.375V158.375H143.55L144.013 157.024L142.122 156.375ZM146.724 150.097L147.882 151.727L146.724 150.097ZM162.235 150.125L161.067 151.749L162.235 150.125ZM166.355 156.375L164.403 156.813L164.754 158.375H166.355V156.375ZM166.809 156.375V158.375H168.278L168.717 156.974L166.809 156.375ZM171.582 150.153L172.679 151.826L172.688 151.82L171.582 150.153ZM190.019 151.773L188.585 153.166L188.59 153.171L190.019 151.773ZM193.883 192V194H195.883V192H193.883ZM179.991 192H177.991V194H179.991V192ZM178.315 160.835L176.877 162.226L176.883 162.232L176.889 162.238L178.315 160.835ZM169.451 160.977L167.949 159.657L167.947 159.659L169.451 160.977ZM167.832 192V194H169.832V192H167.832ZM154.48 192H152.48V194H154.48V192ZM152.832 160.864L154.292 159.497L152.832 160.864ZM145.275 159.983L146.319 161.689L146.332 161.681L146.344 161.673L145.275 159.983ZM143.087 162.426L141.299 161.532L141.292 161.545L141.286 161.558L143.087 162.426ZM142.32 192V194H144.32V192H142.32ZM130.428 192V148.364H126.428V192H130.428ZM128.428 150.364H141.639V146.364H128.428V150.364ZM139.639 148.364V156.375H143.639V148.364H139.639ZM141.639 158.375H142.122V154.375H141.639V158.375ZM144.013 157.024C144.795 154.744 146.085 153.004 147.882 151.727L145.565 148.466C143.045 150.257 141.266 152.703 140.23 155.726L144.013 157.024ZM147.882 151.727C149.66 150.464 151.818 149.795 154.451 149.795V145.795C151.1 145.795 148.106 146.661 145.565 148.466L147.882 151.727ZM154.451 149.795C157.123 149.795 159.295 150.474 161.067 151.749L163.403 148.501C160.858 146.67 157.84 145.795 154.451 145.795V149.795ZM161.067 151.749C162.826 153.014 163.923 154.674 164.403 156.813L168.306 155.937C167.612 152.849 165.963 150.343 163.403 148.501L161.067 151.749ZM166.355 158.375H166.809V154.375H166.355V158.375ZM168.717 156.974C169.387 154.839 170.68 153.137 172.679 151.826L170.485 148.481C167.748 150.276 165.86 152.721 164.901 155.776L168.717 156.974ZM172.688 151.82C174.685 150.493 177.082 149.795 179.962 149.795V145.795C176.403 145.795 173.213 146.669 170.475 148.487L172.688 151.82ZM179.962 149.795C183.62 149.795 186.431 150.95 188.585 153.166L191.454 150.379C188.456 147.293 184.562 145.795 179.962 145.795V149.795ZM188.59 153.171C190.714 155.342 191.883 158.408 191.883 162.625H195.883C195.883 157.637 194.476 153.468 191.449 150.374L188.59 153.171ZM191.883 162.625V192H195.883V162.625H191.883ZM193.883 190H179.991V194H193.883V190ZM181.991 192V165.807H177.991V192H181.991ZM181.991 165.807C181.991 163.301 181.344 161.063 179.741 159.433L176.889 162.238C177.52 162.88 177.991 163.957 177.991 165.807H181.991ZM179.752 159.445C178.216 157.856 176.226 157.102 173.968 157.102V161.102C175.271 161.102 176.179 161.504 176.877 162.226L179.752 159.445ZM173.968 157.102C171.575 157.102 169.486 157.908 167.949 159.657L170.953 162.298C171.614 161.546 172.535 161.102 173.968 161.102V157.102ZM167.947 159.659C166.468 161.345 165.832 163.516 165.832 165.949H169.832C169.832 164.215 170.275 163.071 170.955 162.296L167.947 159.659ZM165.832 165.949V192H169.832V165.949H165.832ZM167.832 190H154.48V194H167.832V190ZM156.48 192V165.665H152.48V192H156.48ZM156.48 165.665C156.48 163.269 155.821 161.132 154.292 159.497L151.371 162.23C152.039 162.944 152.48 164.008 152.48 165.665H156.48ZM154.292 159.497C152.769 157.869 150.765 157.102 148.485 157.102V161.102C149.804 161.102 150.698 161.51 151.371 162.23L154.292 159.497ZM148.485 157.102C146.935 157.102 145.486 157.483 144.206 158.293L146.344 161.673C146.92 161.309 147.611 161.102 148.485 161.102V157.102ZM144.231 158.277C142.955 159.058 141.981 160.167 141.299 161.532L144.876 163.321C145.255 162.564 145.739 162.044 146.319 161.689L144.231 158.277ZM141.286 161.558C140.618 162.943 140.32 164.502 140.32 166.176H144.32C144.32 164.972 144.534 164.031 144.889 163.295L141.286 161.558ZM140.32 166.176V192H144.32V166.176H140.32ZM142.32 190H128.428V194H142.32V190ZM207.842 190.011L206.841 191.743L206.853 191.75L207.842 190.011ZM200.257 182.114L198.482 183.036L198.488 183.048L200.257 182.114ZM200.257 158.534L198.486 157.604L198.484 157.608L200.257 158.534ZM207.842 150.636L208.835 152.372L208.839 152.37L207.842 150.636ZM231.45 150.636L230.449 152.368L230.461 152.375L231.45 150.636ZM239.035 158.534L237.26 159.456L237.267 159.468L239.035 158.534ZM239.035 182.114L237.265 181.184L237.263 181.187L239.035 182.114ZM231.45 190.011L232.443 191.747L232.447 191.745L231.45 190.011ZM223.978 180.807L222.653 179.309L223.978 180.807ZM226.62 176.545L224.729 175.895L224.726 175.904L224.723 175.913L226.62 176.545ZM226.62 163.875L224.723 164.507L224.726 164.516L224.729 164.525L226.62 163.875ZM223.978 159.614L225.304 158.116H225.304L223.978 159.614ZM215.37 159.614L214.069 158.095L214.063 158.1L214.057 158.105L215.37 159.614ZM212.672 163.875L210.78 163.225L210.777 163.234L210.774 163.243L212.672 163.875ZM212.672 176.545L210.774 177.178L210.777 177.187L210.78 177.196L212.672 176.545ZM215.37 180.807L214.057 182.315L214.063 182.32L214.069 182.325L215.37 180.807ZM219.66 190.824C215.351 190.824 211.768 189.944 208.831 188.273L206.853 191.75C210.507 193.829 214.802 194.824 219.66 194.824V190.824ZM208.843 188.28C205.895 186.576 203.631 184.221 202.025 181.18L198.488 183.048C200.443 186.749 203.236 189.659 206.841 191.743L208.843 188.28ZM202.032 181.192C200.441 178.131 199.615 174.527 199.615 170.324H195.615C195.615 175.06 196.549 179.316 198.482 183.036L202.032 181.192ZM199.615 170.324C199.615 166.1 200.442 162.498 202.029 159.46L198.484 157.608C196.549 161.312 195.615 165.571 195.615 170.324H199.615ZM202.028 159.464C203.633 156.406 205.894 154.055 208.835 152.372L206.849 148.9C203.237 150.968 200.441 153.882 198.486 157.604L202.028 159.464ZM208.839 152.37C211.774 150.683 215.355 149.795 219.66 149.795V145.795C214.799 145.795 210.501 146.801 206.845 148.902L208.839 152.37ZM219.66 149.795C223.966 149.795 227.535 150.684 230.449 152.368L232.451 148.905C228.812 146.801 224.521 145.795 219.66 145.795V149.795ZM230.461 152.375C233.419 154.057 235.675 156.405 237.26 159.456L240.81 157.612C238.872 153.882 236.072 150.965 232.439 148.898L230.461 152.375ZM237.267 159.468C238.87 162.504 239.706 166.103 239.706 170.324H243.706C243.706 165.567 242.761 161.306 240.804 157.6L237.267 159.468ZM239.706 170.324C239.706 174.524 238.871 178.125 237.265 181.184L240.806 183.043C242.76 179.322 243.706 175.063 243.706 170.324H239.706ZM237.263 181.187C235.678 184.221 233.418 186.573 230.453 188.277L232.447 191.745C236.073 189.661 238.87 186.748 240.808 183.04L237.263 181.187ZM230.457 188.275C227.541 189.944 223.969 190.824 219.66 190.824V194.824C224.518 194.824 228.806 193.829 232.443 191.747L230.457 188.275ZM219.745 184.341C221.858 184.341 223.752 183.678 225.304 182.304L222.653 179.309C221.894 179.981 220.966 180.341 219.745 180.341V184.341ZM225.304 182.304C226.779 180.998 227.827 179.25 228.518 177.178L224.723 175.913C224.202 177.478 223.488 178.57 222.653 179.309L225.304 182.304ZM228.512 177.196C229.224 175.125 229.558 172.795 229.558 170.239H225.558C225.558 172.455 225.267 174.33 224.729 175.895L228.512 177.196ZM229.558 170.239C229.558 167.648 229.225 165.299 228.512 163.225L224.729 164.525C225.266 166.088 225.558 167.981 225.558 170.239H229.558ZM228.518 163.243C227.827 161.171 226.779 159.422 225.304 158.116L222.653 161.111C223.488 161.851 224.202 162.943 224.723 164.507L228.518 163.243ZM225.304 158.116C223.752 156.743 221.858 156.08 219.745 156.08V160.08C220.966 160.08 221.894 160.439 222.653 161.111L225.304 158.116ZM219.745 156.08C217.594 156.08 215.661 156.731 214.069 158.095L216.672 161.132C217.467 160.451 218.45 160.08 219.745 160.08V156.08ZM214.057 158.105C212.563 159.407 211.493 161.152 210.78 163.225L214.563 164.525C215.1 162.961 215.83 161.866 216.684 161.122L214.057 158.105ZM210.774 163.243C210.085 165.31 209.762 167.654 209.762 170.239H213.762C213.762 167.975 214.046 166.076 214.569 164.507L210.774 163.243ZM209.762 170.239C209.762 172.789 210.086 175.113 210.774 177.178L214.569 175.913C214.045 174.342 213.762 172.461 213.762 170.239H209.762ZM210.78 177.196C211.493 179.268 212.563 181.014 214.057 182.315L216.684 179.299C215.83 178.555 215.1 177.459 214.563 175.895L210.78 177.196ZM214.069 182.325C215.661 183.69 217.594 184.341 219.745 184.341V180.341C218.45 180.341 217.467 179.969 216.672 179.288L214.069 182.325ZM270.253 148.364H272.253V146.364H270.253V148.364ZM270.253 158.591V160.591H272.253V158.591H270.253ZM242.724 158.591H240.724V160.591H242.724V158.591ZM242.724 148.364V146.364H240.724V148.364H242.724ZM248.491 137.909V135.909H246.491V137.909H248.491ZM262.384 137.909H264.384V135.909H262.384V137.909ZM262.781 180.352L260.992 181.247L261.012 181.286L261.033 181.324L262.781 180.352ZM264.003 181.46L263.215 183.299L263.243 183.311L263.272 183.322L264.003 181.46ZM267.582 181.631L267.901 183.605L267.926 183.601L267.951 183.596L267.582 181.631ZM268.946 181.347L270.903 180.936L270.477 178.902L268.461 179.406L268.946 181.347ZM271.048 191.375L271.598 193.298L273.388 192.787L273.006 190.965L271.048 191.375ZM268.236 192.085L267.779 190.138L267.773 190.14L268.236 192.085ZM263.946 192.625L263.855 190.627L263.853 190.627L263.946 192.625ZM255.565 191.489L254.82 193.345L254.829 193.348L254.838 193.352L255.565 191.489ZM250.253 187.17L248.554 188.226L248.561 188.238L250.253 187.17ZM248.491 179.812L250.491 179.838L250.491 179.825V179.812H248.491ZM268.253 148.364V158.591H272.253V148.364H268.253ZM270.253 156.591H242.724V160.591H270.253V156.591ZM244.724 158.591V148.364H240.724V158.591H244.724ZM242.724 150.364H270.253V146.364H242.724V150.364ZM248.491 139.909H262.384V135.909H248.491V139.909ZM260.384 137.909V178.278H264.384V137.909H260.384ZM260.384 178.278C260.384 179.315 260.541 180.344 260.992 181.247L264.57 179.458C264.491 179.3 264.384 178.947 264.384 178.278H260.384ZM261.033 181.324C261.529 182.217 262.271 182.894 263.215 183.299L264.791 179.622C264.674 179.572 264.602 179.511 264.53 179.381L261.033 181.324ZM263.272 183.322C264.093 183.644 264.988 183.773 265.906 183.773V179.773C265.347 179.773 264.974 179.693 264.734 179.599L263.272 183.322ZM265.906 183.773C266.555 183.773 267.221 183.715 267.901 183.605L267.264 179.656C266.77 179.736 266.318 179.773 265.906 179.773V183.773ZM267.951 183.596C268.566 183.481 269.068 183.378 269.431 183.287L268.461 179.406C268.218 179.467 267.811 179.553 267.214 179.665L267.951 183.596ZM266.989 181.757L269.091 191.785L273.006 190.965L270.903 180.936L266.989 181.757ZM270.499 189.452C269.882 189.628 268.981 189.856 267.779 190.138L268.692 194.032C269.915 193.746 270.889 193.501 271.598 193.298L270.499 189.452ZM267.773 190.14C266.736 190.386 265.438 190.555 263.855 190.627L264.037 194.623C265.788 194.543 267.349 194.352 268.699 194.031L267.773 190.14ZM263.853 190.627C260.794 190.769 258.295 190.407 256.292 189.625L254.838 193.352C257.495 194.389 260.583 194.784 264.039 194.623L263.853 190.627ZM256.311 189.633C254.358 188.848 252.933 187.669 251.944 186.103L248.561 188.238C250.035 190.573 252.152 192.273 254.82 193.345L256.311 189.633ZM251.952 186.115C250.991 184.569 250.457 182.519 250.491 179.838L246.492 179.787C246.45 183.015 247.09 185.87 248.554 188.226L251.952 186.115ZM250.491 179.812V137.909H246.491V179.812H250.491ZM274.141 192H272.141V194H274.141V192ZM274.141 148.364V146.364H272.141V148.364H274.141ZM288.033 148.364H290.033V146.364H288.033V148.364ZM288.033 192V194H290.033V192H288.033ZM276.073 141.347L274.709 142.809L274.714 142.814L274.719 142.819L276.073 141.347ZM276.073 131.972L277.426 133.444L277.431 133.439L277.437 133.434L276.073 131.972ZM286.13 131.972L284.756 133.425L284.766 133.435L284.776 133.444L286.13 131.972ZM286.13 141.347L287.493 142.81L287.493 142.809L286.13 141.347ZM276.141 192V148.364H272.141V192H276.141ZM274.141 150.364H288.033V146.364H274.141V150.364ZM286.033 148.364V192H290.033V148.364H286.033ZM288.033 190H274.141V194H288.033V190ZM281.101 141.278C279.638 141.278 278.448 140.813 277.426 139.874L274.719 142.819C276.5 144.455 278.663 145.278 281.101 145.278V141.278ZM277.437 139.884C276.421 138.937 275.97 137.887 275.97 136.631H271.97C271.97 139.049 272.921 141.143 274.709 142.809L277.437 139.884ZM275.97 136.631C275.97 135.401 276.415 134.373 277.426 133.444L274.719 130.499C272.928 132.146 271.97 134.224 271.97 136.631H275.97ZM277.437 133.434C278.461 132.48 279.647 132.011 281.101 132.011V128.011C278.654 128.011 276.488 128.85 274.709 130.509L277.437 133.434ZM281.101 132.011C282.58 132.011 283.759 132.483 284.756 133.425L287.503 130.518C285.735 128.847 283.562 128.011 281.101 128.011V132.011ZM284.776 133.444C285.787 134.373 286.232 135.401 286.232 136.631H290.232C290.232 134.224 289.275 132.146 287.483 130.499L284.776 133.444ZM286.232 136.631C286.232 137.887 285.781 138.937 284.766 139.884L287.493 142.809C289.281 141.143 290.232 139.049 290.232 136.631H286.232ZM284.766 139.883C283.771 140.81 282.589 141.278 281.101 141.278V145.278C283.553 145.278 285.723 144.459 287.493 142.81L284.766 139.883ZM302.226 190.011L301.226 191.743L301.237 191.75L302.226 190.011ZM294.641 182.114L292.866 183.036L292.873 183.048L294.641 182.114ZM294.641 158.534L292.871 157.604L292.869 157.608L294.641 158.534ZM302.226 150.636L303.22 152.372L303.223 152.37L302.226 150.636ZM325.834 150.636L324.833 152.368L324.845 152.375L325.834 150.636ZM333.42 158.534L331.645 159.456L331.651 159.468L333.42 158.534ZM333.42 182.114L331.649 181.184L331.647 181.187L333.42 182.114ZM325.834 190.011L326.828 191.747L326.831 191.745L325.834 190.011ZM318.363 180.807L317.037 179.309L318.363 180.807ZM321.005 176.545L319.113 175.895L319.11 175.904L319.107 175.913L321.005 176.545ZM321.005 163.875L319.107 164.507L319.11 164.516L319.113 164.525L321.005 163.875ZM318.363 159.614L319.688 158.116L318.363 159.614ZM309.755 159.614L308.453 158.095L308.447 158.1L308.441 158.105L309.755 159.614ZM307.056 163.875L305.165 163.225L305.162 163.234L305.159 163.243L307.056 163.875ZM307.056 176.545L305.159 177.178L305.162 177.187L305.165 177.196L307.056 176.545ZM309.755 180.807L308.441 182.315L308.447 182.32L308.453 182.325L309.755 180.807ZM314.045 190.824C309.736 190.824 306.152 189.944 303.215 188.273L301.237 191.75C304.891 193.829 309.187 194.824 314.045 194.824V190.824ZM303.227 188.28C300.279 186.576 298.016 184.221 296.41 181.18L292.873 183.048C294.827 186.749 297.621 189.659 301.226 191.743L303.227 188.28ZM296.416 181.192C294.826 178.131 293.999 174.527 293.999 170.324H289.999C289.999 175.06 290.934 179.316 292.866 183.036L296.416 181.192ZM293.999 170.324C293.999 166.1 294.827 162.498 296.414 159.46L292.869 157.608C290.933 161.312 289.999 165.571 289.999 170.324H293.999ZM296.412 159.464C298.018 156.406 300.279 154.055 303.22 152.372L301.233 148.9C297.621 150.968 294.825 153.882 292.871 157.604L296.412 159.464ZM303.223 152.37C306.158 150.683 309.739 149.795 314.045 149.795V145.795C309.183 145.795 304.885 146.801 301.23 148.902L303.223 152.37ZM314.045 149.795C318.351 149.795 321.919 150.684 324.833 152.368L326.835 148.905C323.196 146.801 318.905 145.795 314.045 145.795V149.795ZM324.845 152.375C327.803 154.057 330.06 156.405 331.645 159.456L335.194 157.612C333.257 153.882 330.457 150.965 326.823 148.898L324.845 152.375ZM331.651 159.468C333.255 162.504 334.09 166.103 334.09 170.324H338.09C338.09 165.567 337.145 161.306 335.188 157.6L331.651 159.468ZM334.09 170.324C334.09 174.524 333.255 178.125 331.649 181.184L335.19 183.043C337.145 179.322 338.09 175.063 338.09 170.324H334.09ZM331.647 181.187C330.062 184.221 327.803 186.573 324.838 188.277L326.831 191.745C330.457 189.661 333.255 186.748 335.192 183.04L331.647 181.187ZM324.841 188.275C321.926 189.944 318.354 190.824 314.045 190.824V194.824C318.902 194.824 323.19 193.829 326.828 191.747L324.841 188.275ZM314.13 184.341C316.242 184.341 318.137 183.678 319.688 182.304L317.037 179.309C316.278 179.981 315.351 180.341 314.13 180.341V184.341ZM319.688 182.304C321.164 180.998 322.212 179.25 322.902 177.178L319.107 175.913C318.586 177.478 317.872 178.57 317.037 179.309L319.688 182.304ZM322.896 177.196C323.608 175.125 323.942 172.795 323.942 170.239H319.942C319.942 172.455 319.652 174.33 319.113 175.895L322.896 177.196ZM323.942 170.239C323.942 167.648 323.609 165.299 322.896 163.225L319.113 164.525C319.651 166.088 319.942 167.981 319.942 170.239H323.942ZM322.902 163.243C322.212 161.171 321.164 159.422 319.688 158.116L317.037 161.111C317.872 161.851 318.586 162.943 319.107 164.507L322.902 163.243ZM319.688 158.116C318.137 156.743 316.242 156.08 314.13 156.08V160.08C315.351 160.08 316.278 160.439 317.037 161.111L319.688 158.116ZM314.13 156.08C311.979 156.08 310.045 156.731 308.453 158.095L311.056 161.132C311.851 160.451 312.834 160.08 314.13 160.08V156.08ZM308.441 158.105C306.947 159.407 305.877 161.152 305.165 163.225L308.947 164.525C309.485 162.961 310.214 161.866 311.068 161.122L308.441 158.105ZM305.159 163.243C304.469 165.31 304.147 167.654 304.147 170.239H308.147C308.147 167.975 308.431 166.076 308.953 164.507L305.159 163.243ZM304.147 170.239C304.147 172.789 304.47 175.113 305.159 177.178L308.953 175.913C308.43 174.342 308.147 172.461 308.147 170.239H304.147ZM305.165 177.196C305.877 179.268 306.947 181.014 308.441 182.315L311.068 179.299C310.214 178.555 309.485 177.459 308.947 175.895L305.165 177.196ZM308.453 182.325C310.045 183.69 311.979 184.341 314.13 184.341V180.341C312.834 180.341 311.851 179.969 311.056 179.288L308.453 182.325ZM353.899 167.114L351.899 167.091L351.899 167.102V167.114H353.899ZM353.899 192V194H355.899V192H353.899ZM340.007 192H338.007V194H340.007V192ZM340.007 148.364V146.364H338.007V148.364H340.007ZM353.217 148.364H355.217V146.364H353.217V148.364ZM353.217 156.375H351.217V158.375H353.217V156.375ZM353.7 156.375V158.375H355.103L355.58 157.055L353.7 156.375ZM358.643 150.097L359.733 151.773L359.743 151.767L358.643 150.097ZM374.95 149.869L373.904 151.574L373.912 151.579L373.921 151.584L374.95 149.869ZM380.234 155.608L378.45 156.513L378.455 156.522L378.459 156.53L380.234 155.608ZM382.109 164.188L380.109 164.176V164.188H382.109ZM382.109 192V194H384.109V192H382.109ZM368.217 192H366.217V194H368.217V192ZM368.217 166.915L366.217 166.899L366.217 166.907V166.915H368.217ZM366.37 161.233L364.886 162.573L364.891 162.579L364.896 162.584L366.37 161.233ZM357.364 160.153L358.354 161.892L358.363 161.886L357.364 160.153ZM354.808 162.852L353.03 161.935L353.025 161.946L353.019 161.958L354.808 162.852ZM351.899 167.114V192H355.899V167.114H351.899ZM353.899 190H340.007V194H353.899V190ZM342.007 192V148.364H338.007V192H342.007ZM340.007 150.364H353.217V146.364H340.007V150.364ZM351.217 148.364V156.375H355.217V148.364H351.217ZM353.217 158.375H353.7V154.375H353.217V158.375ZM355.58 157.055C356.402 154.784 357.777 153.046 359.733 151.773L357.552 148.42C354.85 150.178 352.929 152.625 351.819 155.695L355.58 157.055ZM359.743 151.767C361.698 150.48 364.076 149.795 366.967 149.795V145.795C363.418 145.795 360.247 146.645 357.543 148.426L359.743 151.767ZM366.967 149.795C369.726 149.795 372.012 150.414 373.904 151.574L375.996 148.165C373.379 146.56 370.344 145.795 366.967 145.795V149.795ZM373.921 151.584C375.857 152.746 377.363 154.372 378.45 156.513L382.017 154.703C380.604 151.92 378.588 149.72 375.979 148.154L373.921 151.584ZM378.459 156.53C379.552 158.635 380.126 161.163 380.109 164.176L384.109 164.199C384.129 160.659 383.453 157.468 382.009 154.686L378.459 156.53ZM380.109 164.188V192H384.109V164.188H380.109ZM382.109 190H368.217V194H382.109V190ZM370.217 192V166.915H366.217V192H370.217ZM370.217 166.93C370.238 164.162 369.532 161.722 367.844 159.882L364.896 162.584C365.709 163.471 366.233 164.819 366.217 166.899L370.217 166.93ZM367.855 159.893C366.17 158.027 363.87 157.188 361.228 157.188V161.188C362.98 161.188 364.108 161.712 364.886 162.573L367.855 159.893ZM361.228 157.188C359.466 157.188 357.825 157.58 356.366 158.421L358.363 161.886C359.139 161.439 360.074 161.188 361.228 161.188V157.188ZM356.375 158.415C354.924 159.241 353.806 160.433 353.03 161.935L356.585 163.77C357.022 162.923 357.608 162.316 358.354 161.892L356.375 158.415ZM353.019 161.958C352.265 163.466 351.92 165.201 351.899 167.091L355.898 167.136C355.915 165.693 356.176 164.587 356.597 163.747L353.019 161.958ZM392.396 191.347L391.587 193.176L391.596 193.18L391.606 193.184L392.396 191.347ZM387.311 187.085L385.629 188.168L385.635 188.177L385.642 188.187L387.311 187.085ZM386.743 173.761L384.962 172.851L386.743 173.761ZM390.265 169.699L391.408 171.34L390.265 169.699ZM395.436 167.341L395.96 169.271L395.969 169.269L395.978 169.266L395.436 167.341ZM401.686 166.233L401.856 168.226L401.868 168.225L401.686 166.233ZM407.68 165.523L408.001 167.497L408.013 167.495L408.025 167.493L407.68 165.523ZM410.976 164.415L412.116 166.058L412.125 166.051L410.976 164.415ZM410.521 158.818L411.763 157.251L410.521 158.818ZM402.027 158.818L400.867 157.189V157.189L402.027 158.818ZM399.896 162.114L399.825 164.112L401.497 164.172L401.851 162.536L399.896 162.114ZM387.084 161.659L385.104 161.376L384.789 163.579L387.013 163.658L387.084 161.659ZM390.01 154.557L388.415 153.35L388.413 153.352L390.01 154.557ZM396.544 149.614L397.336 151.45L397.342 151.447L396.544 149.614ZM414.271 148.79L413.728 150.715L413.735 150.717L413.742 150.719L414.271 148.79ZM420.407 151.631L419.242 153.256L419.247 153.26L419.253 153.264L420.407 151.631ZM424.441 156.176L422.672 157.108L422.675 157.115L422.679 157.122L424.441 156.176ZM425.89 192V194H427.89V192H425.89ZM412.822 192H410.822V194H412.822V192ZM412.822 185.92H414.822V183.92H412.822V185.92ZM412.481 185.92V183.92H411.273L410.711 184.99L412.481 185.92ZM409.498 189.67L408.209 188.142L408.203 188.147L408.197 188.152L409.498 189.67ZM405.265 191.972L404.666 190.063L404.66 190.065L405.265 191.972ZM408.135 182.739L407.24 180.95L407.229 180.955L408.135 182.739ZM411.032 180.239L412.687 181.362L412.692 181.355L412.697 181.348L411.032 180.239ZM412.112 172.341H414.112V169.036L411.184 170.569L412.112 172.341ZM410.663 172.909L410.088 170.993L410.079 170.996L410.07 170.999L410.663 172.909ZM406.799 173.79L407.12 175.764L406.799 173.79ZM404.782 174.102L404.491 172.124L404.479 172.125L404.468 172.127L404.782 174.102ZM401.43 175.068L400.58 173.258L400.573 173.261L400.566 173.265L401.43 175.068ZM399.328 176.773L397.691 175.623L397.685 175.632L399.328 176.773ZM400.152 182.511L398.961 184.118L398.968 184.124L398.975 184.129L400.152 182.511ZM399.811 190.739C397.249 190.739 395.054 190.312 393.186 189.509L391.606 193.184C394.057 194.237 396.805 194.739 399.811 194.739V190.739ZM393.205 189.518C391.404 188.721 390.012 187.547 388.98 185.984L385.642 188.187C387.11 190.411 389.108 192.079 391.587 193.176L393.205 189.518ZM388.993 186.003C388.018 184.489 387.464 182.494 387.464 179.898H383.464C383.464 183.059 384.141 185.856 385.629 188.168L388.993 186.003ZM387.464 179.898C387.464 177.7 387.851 175.986 388.523 174.672L384.962 172.851C383.929 174.87 383.464 177.247 383.464 179.898H387.464ZM388.523 174.672C389.23 173.289 390.189 172.189 391.408 171.34L389.123 168.057C387.35 169.292 385.96 170.9 384.962 172.851L388.523 174.672ZM391.408 171.34C392.697 170.443 394.207 169.748 395.96 169.271L394.911 165.411C392.763 165.995 390.826 166.871 389.123 168.057L391.408 171.34ZM395.978 169.266C397.796 168.754 399.754 168.405 401.856 168.226L401.516 164.24C399.186 164.439 396.977 164.829 394.894 165.416L395.978 169.266ZM401.868 168.225C404.371 167.995 406.421 167.754 408.001 167.497L407.359 163.549C405.909 163.784 403.963 164.016 401.503 164.241L401.868 168.225ZM408.025 167.493C409.623 167.213 411.071 166.784 412.116 166.058L409.835 162.772C409.517 162.993 408.768 163.302 407.335 163.553L408.025 167.493ZM412.125 166.051C413.384 165.167 414.027 163.852 414.027 162.341H410.027C410.027 162.519 409.993 162.596 409.98 162.623C409.968 162.646 409.937 162.7 409.826 162.778L412.125 166.051ZM414.027 162.341V162.199H410.027V162.341H414.027ZM414.027 162.199C414.027 160.226 413.316 158.481 411.763 157.251L409.279 160.386C409.734 160.746 410.027 161.256 410.027 162.199H414.027ZM411.763 157.251C410.304 156.095 408.465 155.625 406.459 155.625V159.625C407.861 159.625 408.73 159.951 409.279 160.386L411.763 157.251ZM406.459 155.625C404.345 155.625 402.421 156.083 400.867 157.189L403.187 160.448C403.867 159.963 404.898 159.625 406.459 159.625V155.625ZM400.867 157.189C399.324 158.287 398.344 159.827 397.941 161.691L401.851 162.536C402.054 161.598 402.495 160.94 403.187 160.448L400.867 157.189ZM399.967 160.115L387.154 159.66L387.013 163.658L399.825 164.112L399.967 160.115ZM389.063 161.942C389.396 159.616 390.243 157.568 391.606 155.761L388.413 153.352C386.632 155.713 385.529 158.399 385.104 161.376L389.063 161.942ZM391.604 155.764C392.959 153.974 394.843 152.526 397.336 151.45L395.751 147.777C392.715 149.088 390.243 150.935 388.415 153.35L391.604 155.764ZM397.342 151.447C399.814 150.371 402.87 149.795 406.572 149.795V145.795C402.471 145.795 398.842 146.432 395.745 147.78L397.342 151.447ZM406.572 149.795C409.198 149.795 411.579 150.108 413.728 150.715L414.814 146.865C412.266 146.146 409.515 145.795 406.572 145.795V149.795ZM413.742 150.719C415.893 151.308 417.716 152.161 419.242 153.256L421.573 150.006C419.614 148.6 417.346 147.559 414.8 146.861L413.742 150.719ZM419.253 153.264C420.751 154.322 421.879 155.602 422.672 157.108L426.211 155.245C425.11 153.152 423.549 151.401 421.561 149.997L419.253 153.264ZM422.679 157.122C423.47 158.594 423.89 160.316 423.89 162.341H427.89C427.89 159.744 427.345 157.357 426.204 155.23L422.679 157.122ZM423.89 162.341V192H427.89V162.341H423.89ZM425.89 190H412.822V194H425.89V190ZM414.822 192V185.92H410.822V192H414.822ZM412.822 183.92H412.481V187.92H412.822V183.92ZM410.711 184.99C410.048 186.251 409.213 187.294 408.209 188.142L410.788 191.199C412.208 190.001 413.361 188.545 414.252 186.851L410.711 184.99ZM408.197 188.152C407.226 188.984 406.059 189.626 404.666 190.063L405.864 193.88C407.729 193.294 409.384 192.402 410.8 191.189L408.197 188.152ZM404.66 190.065C403.28 190.504 401.672 190.739 399.811 190.739V194.739C402.003 194.739 404.031 194.462 405.871 193.878L404.66 190.065ZM404.101 185.648C405.874 185.648 407.535 185.287 409.04 184.522L407.229 180.955C406.348 181.403 405.32 181.648 404.101 181.648V185.648ZM409.029 184.527C410.529 183.777 411.764 182.722 412.687 181.362L409.377 179.116C408.861 179.876 408.164 180.488 407.24 180.95L409.029 184.527ZM412.697 181.348C413.656 179.909 414.112 178.265 414.112 176.489H410.112C410.112 177.553 409.848 178.409 409.368 179.129L412.697 181.348ZM414.112 176.489V172.341H410.112V176.489H414.112ZM411.184 170.569C410.928 170.703 410.571 170.849 410.088 170.993L411.238 174.825C411.892 174.629 412.5 174.395 413.04 174.113L411.184 170.569ZM410.07 170.999C409.577 171.152 409.021 171.3 408.399 171.442L409.291 175.342C409.994 175.181 410.65 175.007 411.256 174.819L410.07 170.999ZM408.399 171.442C407.78 171.584 407.14 171.708 406.479 171.816L407.12 175.764C407.861 175.644 408.584 175.503 409.291 175.342L408.399 171.442ZM406.479 171.816C405.787 171.928 405.125 172.03 404.491 172.124L405.073 176.081C405.728 175.985 406.41 175.879 407.12 175.764L406.479 171.816ZM404.468 172.127C403.026 172.357 401.719 172.723 400.58 173.258L402.28 176.879C402.997 176.542 403.925 176.264 405.097 176.077L404.468 172.127ZM400.566 173.265C399.403 173.822 398.413 174.596 397.691 175.623L400.964 177.923C401.227 177.548 401.639 177.186 402.294 176.872L400.566 173.265ZM397.685 175.632C396.947 176.694 396.618 177.921 396.618 179.216H400.618C400.618 178.617 400.761 178.215 400.971 177.914L397.685 175.632ZM396.618 179.216C396.618 181.194 397.357 182.93 398.961 184.118L401.342 180.904C400.901 180.577 400.618 180.117 400.618 179.216H396.618ZM398.975 184.129C400.432 185.188 402.188 185.648 404.101 185.648V181.648C402.831 181.648 401.954 181.349 401.328 180.894L398.975 184.129ZM445.077 133.818H447.077V131.818H445.077V133.818ZM445.077 192V194H447.077V192H445.077ZM431.185 192H429.185V194H431.185V192ZM431.185 133.818V131.818H429.185V133.818H431.185ZM443.077 133.818V192H447.077V133.818H443.077ZM445.077 190H431.185V194H445.077V190ZM433.185 192V133.818H429.185V192H433.185ZM431.185 135.818H445.077V131.818H431.185V135.818Z" fill="#D32C3D" mask="url(#path-11-outside-1_545_1212)"/>
<mask id="path-13-outside-2_545_1212" maskUnits="userSpaceOnUse" x="471.5" y="129" width="236" height="66" fill="black">
<rect fill="white" x="471.5" y="129" width="236" height="66"/>
<path d="M529.818 162.909C529.818 169.311 528.587 174.737 526.125 179.188C523.663 183.638 520.33 187.019 516.125 189.33C511.939 191.64 507.242 192.795 502.034 192.795C496.807 192.795 492.1 191.631 487.915 189.301C483.729 186.972 480.405 183.591 477.943 179.159C475.5 174.708 474.278 169.292 474.278 162.909C474.278 156.508 475.5 151.081 477.943 146.631C480.405 142.18 483.729 138.799 487.915 136.489C492.1 134.178 496.807 133.023 502.034 133.023C507.242 133.023 511.939 134.178 516.125 136.489C520.33 138.799 523.663 142.18 526.125 146.631C528.587 151.081 529.818 156.508 529.818 162.909ZM515.443 162.909C515.443 159.121 514.903 155.92 513.824 153.307C512.763 150.693 511.229 148.714 509.222 147.369C507.233 146.025 504.837 145.352 502.034 145.352C499.25 145.352 496.854 146.025 494.847 147.369C492.839 148.714 491.295 150.693 490.216 153.307C489.155 155.92 488.625 159.121 488.625 162.909C488.625 166.697 489.155 169.898 490.216 172.511C491.295 175.125 492.839 177.104 494.847 178.449C496.854 179.794 499.25 180.466 502.034 180.466C504.837 180.466 507.233 179.794 509.222 178.449C511.229 177.104 512.763 175.125 513.824 172.511C514.903 169.898 515.443 166.697 515.443 162.909ZM559.63 148.364V158.591H531.561V148.364H559.63ZM537.414 192V146.148C537.414 142.777 538.048 139.983 539.317 137.767C540.586 135.532 542.347 133.866 544.601 132.767C546.855 131.65 549.459 131.091 552.414 131.091C554.345 131.091 556.164 131.242 557.868 131.545C559.592 131.83 560.87 132.085 561.703 132.312L559.487 142.483C558.976 142.312 558.351 142.17 557.612 142.057C556.893 141.943 556.211 141.886 555.567 141.886C553.938 141.886 552.821 142.246 552.215 142.966C551.609 143.686 551.306 144.67 551.306 145.92V192H537.414ZM587.914 148.364V158.591H559.846V148.364H587.914ZM565.698 192V146.148C565.698 142.777 566.332 139.983 567.601 137.767C568.87 135.532 570.632 133.866 572.886 132.767C575.139 131.65 577.743 131.091 580.698 131.091C582.63 131.091 584.448 131.242 586.153 131.545C587.876 131.83 589.154 132.085 589.988 132.312L587.772 142.483C587.261 142.312 586.636 142.17 585.897 142.057C585.177 141.943 584.495 141.886 583.851 141.886C582.223 141.886 581.105 142.246 580.499 142.966C579.893 143.686 579.59 144.67 579.59 145.92V192H565.698ZM610.389 192.824C605.824 192.824 601.885 191.924 598.57 190.125C595.275 188.307 592.737 185.722 590.957 182.369C589.195 178.998 588.315 174.992 588.315 170.352C588.315 165.845 589.205 161.905 590.985 158.534C592.766 155.144 595.275 152.511 598.514 150.636C601.752 148.742 605.569 147.795 609.963 147.795C613.069 147.795 615.909 148.278 618.485 149.244C621.061 150.21 623.286 151.64 625.161 153.534C627.036 155.428 628.495 157.767 629.536 160.551C630.578 163.316 631.099 166.489 631.099 170.068V173.534H593.173V165.466H618.173C618.154 163.989 617.803 162.672 617.122 161.517C616.44 160.362 615.502 159.462 614.309 158.818C613.135 158.155 611.781 157.824 610.247 157.824C608.694 157.824 607.302 158.174 606.07 158.875C604.839 159.557 603.864 160.494 603.144 161.688C602.425 162.862 602.046 164.197 602.008 165.693V173.903C602.008 175.684 602.358 177.246 603.059 178.591C603.76 179.917 604.754 180.949 606.042 181.688C607.33 182.426 608.864 182.795 610.644 182.795C611.875 182.795 612.993 182.625 613.997 182.284C615 181.943 615.862 181.441 616.582 180.778C617.302 180.116 617.841 179.301 618.201 178.335L630.957 178.705C630.427 181.564 629.262 184.055 627.463 186.176C625.682 188.278 623.343 189.917 620.445 191.091C617.548 192.246 614.195 192.824 610.389 192.824ZM634.994 192V148.364H648.488V156.318H648.943C649.738 153.439 651.036 151.299 652.835 149.898C654.634 148.477 656.727 147.767 659.113 147.767C659.757 147.767 660.42 147.814 661.102 147.909C661.784 147.985 662.418 148.108 663.005 148.278V160.352C662.343 160.125 661.471 159.945 660.392 159.812C659.331 159.68 658.384 159.614 657.551 159.614C655.903 159.614 654.416 159.983 653.091 160.722C651.784 161.441 650.752 162.455 649.994 163.761C649.255 165.049 648.886 166.564 648.886 168.307V192H634.994ZM703.562 161.688L690.807 162.028C690.674 161.119 690.314 160.314 689.727 159.614C689.14 158.894 688.373 158.335 687.426 157.938C686.498 157.521 685.419 157.312 684.188 157.312C682.578 157.312 681.205 157.634 680.068 158.278C678.951 158.922 678.402 159.794 678.42 160.892C678.402 161.744 678.742 162.483 679.443 163.108C680.163 163.733 681.441 164.235 683.278 164.614L691.688 166.205C696.044 167.038 699.282 168.42 701.403 170.352C703.544 172.284 704.623 174.841 704.642 178.023C704.623 181.015 703.733 183.619 701.972 185.835C700.229 188.051 697.843 189.775 694.812 191.006C691.782 192.218 688.316 192.824 684.415 192.824C678.184 192.824 673.269 191.545 669.67 188.989C666.091 186.413 664.045 182.966 663.534 178.648L677.256 178.307C677.559 179.898 678.345 181.11 679.614 181.943C680.883 182.777 682.502 183.193 684.472 183.193C686.252 183.193 687.701 182.862 688.818 182.199C689.936 181.536 690.504 180.655 690.523 179.557C690.504 178.572 690.068 177.786 689.216 177.199C688.364 176.593 687.028 176.119 685.21 175.778L677.597 174.33C673.222 173.534 669.964 172.066 667.824 169.926C665.684 167.767 664.623 165.021 664.642 161.688C664.623 158.771 665.4 156.28 666.972 154.216C668.544 152.133 670.778 150.542 673.676 149.443C676.574 148.345 679.992 147.795 683.932 147.795C689.841 147.795 694.5 149.036 697.909 151.517C701.318 153.979 703.203 157.369 703.562 161.688Z"/>
</mask>
<path d="M526.125 179.188L524.375 178.219L526.125 179.188ZM516.125 189.33L515.162 187.577L515.158 187.579L516.125 189.33ZM487.915 189.301L488.887 187.554L487.915 189.301ZM477.943 179.159L476.19 180.122L476.195 180.13L477.943 179.159ZM477.943 146.631L476.193 145.663L476.19 145.668L477.943 146.631ZM487.915 136.489L488.881 138.24L487.915 136.489ZM516.125 136.489L515.158 138.24L515.162 138.241L516.125 136.489ZM526.125 146.631L524.375 147.599L526.125 146.631ZM513.824 153.307L511.971 154.059L511.975 154.07L513.824 153.307ZM509.222 147.369L508.101 149.026L508.109 149.031L509.222 147.369ZM494.847 147.369L495.96 149.031V149.031L494.847 147.369ZM490.216 153.307L488.367 152.543L488.363 152.555L490.216 153.307ZM490.216 172.511L488.363 173.263L488.367 173.275L490.216 172.511ZM494.847 178.449L495.96 176.787L494.847 178.449ZM509.222 178.449L508.109 176.787L508.101 176.792L509.222 178.449ZM513.824 172.511L511.975 171.748L511.971 171.759L513.824 172.511ZM527.818 162.909C527.818 169.058 526.636 174.132 524.375 178.219L527.875 180.156C530.538 175.341 531.818 169.563 531.818 162.909H527.818ZM524.375 178.219C522.084 182.36 519.015 185.459 515.162 187.577L517.088 191.082C521.644 188.579 525.242 184.916 527.875 180.156L524.375 178.219ZM515.158 187.579C511.295 189.711 506.935 190.795 502.034 190.795V194.795C507.549 194.795 512.584 193.569 517.092 191.08L515.158 187.579ZM502.034 190.795C497.115 190.795 492.749 189.703 488.887 187.554L486.942 191.049C491.452 193.559 496.498 194.795 502.034 194.795V190.795ZM488.887 187.554C485.047 185.416 481.984 182.313 479.691 178.188L476.195 180.13C478.827 184.868 482.411 188.527 486.942 191.049L488.887 187.554ZM479.696 178.197C477.452 174.107 476.278 169.04 476.278 162.909H472.278C472.278 169.543 473.548 175.309 476.19 180.121L479.696 178.197ZM476.278 162.909C476.278 156.758 477.452 151.682 479.696 147.593L476.19 145.668C473.548 150.481 472.278 156.257 472.278 162.909H476.278ZM479.693 147.599C481.985 143.456 485.047 140.356 488.881 138.24L486.948 134.738C482.412 137.242 478.825 140.904 476.193 145.663L479.693 147.599ZM488.881 138.24C492.744 136.107 497.113 135.023 502.034 135.023V131.023C496.501 131.023 491.457 132.249 486.948 134.738L488.881 138.24ZM502.034 135.023C506.935 135.023 511.295 136.107 515.158 138.24L517.092 134.738C512.584 132.249 507.549 131.023 502.034 131.023V135.023ZM515.162 138.241C519.015 140.359 522.084 143.458 524.375 147.599L527.875 145.663C525.242 140.902 521.644 137.24 517.088 134.736L515.162 138.241ZM524.375 147.599C526.636 151.686 527.818 156.76 527.818 162.909H531.818C531.818 156.255 530.538 150.477 527.875 145.663L524.375 147.599ZM517.443 162.909C517.443 158.943 516.88 155.466 515.672 152.543L511.975 154.07C512.927 156.375 513.443 159.299 513.443 162.909H517.443ZM515.677 152.555C514.492 149.634 512.727 147.31 510.335 145.708L508.109 149.031C509.731 150.118 511.035 151.752 511.971 154.059L515.677 152.555ZM510.342 145.713C507.97 144.109 505.168 143.352 502.034 143.352V147.352C504.506 147.352 506.496 147.941 508.101 149.026L510.342 145.713ZM502.034 143.352C498.916 143.352 496.118 144.11 493.734 145.708L495.96 149.031C497.59 147.939 499.584 147.352 502.034 147.352V143.352ZM493.734 145.708C491.345 147.308 489.572 149.628 488.367 152.543L492.064 154.07C493.019 151.759 494.334 150.12 495.96 149.031L493.734 145.708ZM488.363 152.555C487.178 155.474 486.625 158.947 486.625 162.909H490.625C490.625 159.296 491.133 156.367 492.069 154.059L488.363 152.555ZM486.625 162.909C486.625 166.872 487.178 170.344 488.363 173.263L492.069 171.759C491.133 169.451 490.625 166.522 490.625 162.909H486.625ZM488.367 173.275C489.572 176.19 491.345 178.51 493.734 180.111L495.96 176.787C494.334 175.698 493.019 174.06 492.064 171.748L488.367 173.275ZM493.734 180.111C496.118 181.708 498.916 182.466 502.034 182.466V178.466C499.584 178.466 497.59 177.879 495.96 176.787L493.734 180.111ZM502.034 182.466C505.168 182.466 507.97 181.71 510.342 180.106L508.101 176.792C506.496 177.878 504.506 178.466 502.034 178.466V182.466ZM510.335 180.111C512.727 178.508 514.492 176.184 515.677 173.263L511.971 171.759C511.035 174.066 509.731 175.7 508.109 176.787L510.335 180.111ZM515.672 173.275C516.88 170.352 517.443 166.875 517.443 162.909H513.443C513.443 166.519 512.927 169.443 511.975 171.748L515.672 173.275ZM559.63 148.364H561.63V146.364H559.63V148.364ZM559.63 158.591V160.591H561.63V158.591H559.63ZM531.561 158.591H529.561V160.591H531.561V158.591ZM531.561 148.364V146.364H529.561V148.364H531.561ZM537.414 192H535.414V194H537.414V192ZM539.317 137.767L541.053 138.761L541.056 138.755L539.317 137.767ZM544.601 132.767L545.477 134.565L545.49 134.559L544.601 132.767ZM557.868 131.545L557.518 133.515L557.53 133.517L557.543 133.519L557.868 131.545ZM561.703 132.312L563.658 132.738L564.062 130.883L562.23 130.383L561.703 132.312ZM559.488 142.483L558.855 144.38L560.968 145.085L561.442 142.909L559.488 142.483ZM557.613 142.057L557.301 144.032L557.308 144.034L557.613 142.057ZM552.215 142.966L553.745 144.254L553.745 144.254L552.215 142.966ZM551.306 192V194H553.306V192H551.306ZM557.63 148.364V158.591H561.63V148.364H557.63ZM559.63 156.591H531.561V160.591H559.63V156.591ZM533.561 158.591V148.364H529.561V158.591H533.561ZM531.561 150.364H559.63V146.364H531.561V150.364ZM539.414 192V146.148H535.414V192H539.414ZM539.414 146.148C539.414 143.017 540.004 140.592 541.053 138.761L537.581 136.773C536.092 139.373 535.414 142.536 535.414 146.148H539.414ZM541.056 138.755C542.131 136.861 543.596 135.482 545.477 134.565L543.725 130.969C541.099 132.249 539.041 134.203 537.578 136.78L541.056 138.755ZM545.49 134.559C547.423 133.6 549.714 133.091 552.414 133.091V129.091C549.204 129.091 546.287 129.699 543.713 130.975L545.49 134.559ZM552.414 133.091C554.241 133.091 555.942 133.234 557.518 133.515L558.218 129.576C556.386 129.251 554.45 129.091 552.414 129.091V133.091ZM557.543 133.519C559.252 133.801 560.447 134.043 561.177 134.242L562.23 130.383C561.293 130.127 559.931 129.858 558.193 129.572L557.543 133.519ZM559.749 131.887L557.533 142.057L561.442 142.909L563.658 132.738L559.749 131.887ZM560.12 140.586C559.47 140.369 558.728 140.205 557.917 140.08L557.308 144.034C557.975 144.136 558.483 144.256 558.855 144.38L560.12 140.586ZM557.924 140.081C557.115 139.953 556.328 139.886 555.567 139.886V143.886C556.094 143.886 556.671 143.933 557.301 144.032L557.924 140.081ZM555.567 139.886C553.76 139.886 551.874 140.266 550.685 141.678L553.745 144.254C553.768 144.227 554.116 143.886 555.567 143.886V139.886ZM550.685 141.678C549.688 142.862 549.306 144.355 549.306 145.92H553.306C553.306 144.986 553.53 144.509 553.745 144.254L550.685 141.678ZM549.306 145.92V192H553.306V145.92H549.306ZM551.306 190H537.414V194H551.306V190ZM587.914 148.364H589.914V146.364H587.914V148.364ZM587.914 158.591V160.591H589.914V158.591H587.914ZM559.846 158.591H557.846V160.591H559.846V158.591ZM559.846 148.364V146.364H557.846V148.364H559.846ZM565.698 192H563.698V194H565.698V192ZM567.601 137.767L569.337 138.761L569.341 138.755L567.601 137.767ZM572.886 132.767L573.762 134.565L573.774 134.559L572.886 132.767ZM586.153 131.545L585.802 133.515L585.815 133.517L585.827 133.519L586.153 131.545ZM589.988 132.312L591.942 132.738L592.346 130.883L590.514 130.383L589.988 132.312ZM587.772 142.483L587.139 144.38L589.252 145.085L589.726 142.909L587.772 142.483ZM585.897 142.057L585.585 144.032L585.593 144.034L585.897 142.057ZM580.499 142.966L582.029 144.254V144.254L580.499 142.966ZM579.59 192V194H581.59V192H579.59ZM585.914 148.364V158.591H589.914V148.364H585.914ZM587.914 156.591H559.846V160.591H587.914V156.591ZM561.846 158.591V148.364H557.846V158.591H561.846ZM559.846 150.364H587.914V146.364H559.846V150.364ZM567.698 192V146.148H563.698V192H567.698ZM567.698 146.148C567.698 143.017 568.288 140.592 569.337 138.761L565.866 136.773C564.377 139.373 563.698 142.536 563.698 146.148H567.698ZM569.341 138.755C570.416 136.861 571.88 135.482 573.762 134.565L572.009 130.969C569.383 132.249 567.325 134.203 565.862 136.78L569.341 138.755ZM573.774 134.559C575.707 133.6 577.998 133.091 580.698 133.091V129.091C577.489 129.091 574.571 129.699 571.997 130.975L573.774 134.559ZM580.698 133.091C582.526 133.091 584.226 133.234 585.802 133.515L586.503 129.576C584.67 129.251 582.734 129.091 580.698 129.091V133.091ZM585.827 133.519C587.537 133.801 588.732 134.043 589.462 134.242L590.514 130.383C589.577 130.127 588.215 129.858 586.478 129.572L585.827 133.519ZM588.034 131.887L585.818 142.057L589.726 142.909L591.942 132.738L588.034 131.887ZM588.404 140.586C587.754 140.369 587.012 140.205 586.201 140.08L585.593 144.034C586.259 144.136 586.767 144.256 587.139 144.38L588.404 140.586ZM586.209 140.081C585.399 139.953 584.612 139.886 583.851 139.886V143.886C584.378 143.886 584.955 143.933 585.585 144.032L586.209 140.081ZM583.851 139.886C582.045 139.886 580.158 140.266 578.969 141.678L582.029 144.254C582.052 144.227 582.401 143.886 583.851 143.886V139.886ZM578.969 141.678C577.972 142.862 577.59 144.355 577.59 145.92H581.59C581.59 144.986 581.814 144.509 582.029 144.254L578.969 141.678ZM577.59 145.92V192H581.59V145.92H577.59ZM579.59 190H565.698V194H579.59V190ZM598.57 190.125L597.604 191.876L597.616 191.883L598.57 190.125ZM590.957 182.369L589.184 183.295L589.19 183.307L590.957 182.369ZM590.985 158.534L592.754 159.468L592.756 159.464L590.985 158.534ZM598.514 150.636L599.516 152.367L599.523 152.363L598.514 150.636ZM618.485 149.244L619.187 147.372V147.372L618.485 149.244ZM629.536 160.551L627.663 161.252L627.665 161.256L629.536 160.551ZM631.099 173.534V175.534H633.099V173.534H631.099ZM593.173 173.534H591.173V175.534H593.173V173.534ZM593.173 165.466V163.466H591.173V165.466H593.173ZM618.173 165.466V167.466H620.199L620.173 165.44L618.173 165.466ZM614.309 158.818L613.326 160.56L613.342 160.569L613.359 160.578L614.309 158.818ZM606.07 158.875L607.039 160.625L607.05 160.619L607.06 160.613L606.07 158.875ZM603.144 161.688L604.85 162.733L604.853 162.727L604.857 162.72L603.144 161.688ZM602.008 165.693L600.009 165.643L600.008 165.668V165.693H602.008ZM603.059 178.591L601.285 179.515L601.291 179.526L603.059 178.591ZM606.042 181.688L605.047 183.422L606.042 181.688ZM613.997 182.284L614.64 184.178L613.997 182.284ZM616.582 180.778L617.937 182.249L616.582 180.778ZM618.201 178.335L618.259 176.336L616.827 176.295L616.327 177.637L618.201 178.335ZM630.957 178.705L632.923 179.069L633.349 176.773L631.015 176.705L630.957 178.705ZM627.462 186.176L625.937 184.882L625.936 184.884L627.462 186.176ZM620.445 191.091L621.186 192.949L621.197 192.945L620.445 191.091ZM610.389 190.824C606.088 190.824 602.491 189.977 599.525 188.367L597.616 191.883C601.279 193.871 605.561 194.824 610.389 194.824V190.824ZM599.537 188.374C596.584 186.745 594.323 184.444 592.723 181.431L589.19 183.307C591.151 187 593.966 189.869 597.604 191.876L599.537 188.374ZM592.729 181.443C591.147 178.414 590.315 174.74 590.315 170.352H586.315C586.315 175.245 587.244 179.582 589.184 183.295L592.729 181.443ZM590.315 170.352C590.315 166.111 591.151 162.503 592.754 159.468L589.217 157.6C587.259 161.307 586.315 165.578 586.315 170.352H590.315ZM592.756 159.464C594.365 156.4 596.612 154.049 599.516 152.367L597.512 148.906C593.938 150.974 591.166 153.888 589.215 157.604L592.756 159.464ZM599.523 152.363C602.407 150.677 605.862 149.795 609.962 149.795V145.795C605.275 145.795 601.098 146.808 597.504 148.91L599.523 152.363ZM609.962 149.795C612.859 149.795 615.459 150.245 617.783 151.117L619.187 147.372C616.36 146.311 613.278 145.795 609.962 145.795V149.795ZM617.783 151.117C620.097 151.985 622.075 153.259 623.74 154.941L626.583 152.127C624.498 150.021 622.025 148.436 619.187 147.372L617.783 151.117ZM623.74 154.941C625.394 156.612 626.709 158.702 627.663 161.252L631.41 159.85C630.28 156.832 628.678 154.244 626.583 152.127L623.74 154.941ZM627.665 161.256C628.606 163.754 629.099 166.68 629.099 170.068H633.099C633.099 166.297 632.55 162.879 631.408 159.846L627.665 161.256ZM629.099 170.068V173.534H633.099V170.068H629.099ZM631.099 171.534H593.173V175.534H631.099V171.534ZM595.173 173.534V165.466H591.173V173.534H595.173ZM593.173 167.466H618.173V163.466H593.173V167.466ZM620.173 165.44C620.15 163.65 619.721 161.986 618.844 160.501L615.399 162.534C615.886 163.359 616.158 164.327 616.173 165.492L620.173 165.44ZM618.844 160.501C617.975 159.028 616.769 157.873 615.259 157.058L613.359 160.578C614.236 161.051 614.904 161.695 615.399 162.534L618.844 160.501ZM615.292 157.077C613.779 156.222 612.077 155.824 610.247 155.824V159.824C611.484 159.824 612.491 160.089 613.326 160.56L615.292 157.077ZM610.247 155.824C608.381 155.824 606.642 156.248 605.081 157.137L607.06 160.613C607.961 160.1 609.006 159.824 610.247 159.824V155.824ZM605.101 157.125C603.567 157.975 602.334 159.158 601.432 160.655L604.857 162.72C605.394 161.83 606.112 161.139 607.039 160.625L605.101 157.125ZM601.439 160.642C600.52 162.142 600.055 163.826 600.009 165.643L604.007 165.744C604.037 164.568 604.329 163.581 604.85 162.733L601.439 160.642ZM600.008 165.693V173.903H604.008V165.693H600.008ZM600.008 173.903C600.008 175.95 600.412 177.839 601.285 179.515L604.833 177.667C604.305 176.653 604.008 175.418 604.008 173.903H600.008ZM601.291 179.526C602.167 181.182 603.427 182.494 605.047 183.422L607.037 179.953C606.081 179.404 605.353 178.651 604.827 177.656L601.291 179.526ZM605.047 183.422C606.693 184.366 608.584 184.795 610.644 184.795V180.795C609.144 180.795 607.967 180.486 607.037 179.953L605.047 183.422ZM610.644 184.795C612.06 184.795 613.398 184.599 614.64 184.178L613.353 180.39C612.587 180.651 611.691 180.795 610.644 180.795V184.795ZM614.64 184.178C615.885 183.755 616.995 183.117 617.937 182.249L615.227 179.307C614.729 179.766 614.115 180.132 613.353 180.39L614.64 184.178ZM617.937 182.249C618.9 181.362 619.612 180.278 620.075 179.033L616.327 177.637C616.071 178.324 615.703 178.869 615.227 179.307L617.937 182.249ZM618.143 180.334L630.899 180.704L631.015 176.705L618.259 176.336L618.143 180.334ZM628.99 178.34C628.521 180.873 627.5 183.04 625.937 184.882L628.988 187.47C631.023 185.07 632.332 182.256 632.923 179.069L628.99 178.34ZM625.936 184.884C624.392 186.707 622.333 188.168 619.694 189.237L621.197 192.945C624.353 191.665 626.973 189.85 628.989 187.469L625.936 184.884ZM619.705 189.233C617.088 190.276 613.996 190.824 610.389 190.824V194.824C614.395 194.824 618.007 194.216 621.186 192.949L619.705 189.233ZM634.994 192H632.994V194H634.994V192ZM634.994 148.364V146.364H632.994V148.364H634.994ZM648.488 148.364H650.488V146.364H648.488V148.364ZM648.488 156.318H646.488V158.318H648.488V156.318ZM648.943 156.318V158.318H650.465L650.871 156.851L648.943 156.318ZM652.835 149.898L654.064 151.476L654.074 151.467L652.835 149.898ZM661.102 147.909L660.827 149.89L660.854 149.894L660.881 149.897L661.102 147.909ZM663.005 148.278H665.005V146.776L663.563 146.358L663.005 148.278ZM663.005 160.352L662.357 162.244L665.005 163.152V160.352H663.005ZM660.392 159.812L660.144 161.797L660.148 161.798L660.392 159.812ZM653.091 160.722L654.055 162.474L654.064 162.469L653.091 160.722ZM649.994 163.761L648.264 162.758L648.259 162.766L649.994 163.761ZM648.886 192V194H650.886V192H648.886ZM636.994 192V148.364H632.994V192H636.994ZM634.994 150.364H648.488V146.364H634.994V150.364ZM646.488 148.364V156.318H650.488V148.364H646.488ZM648.488 158.318H648.943V154.318H648.488V158.318ZM650.871 156.851C651.587 154.258 652.696 152.541 654.064 151.476L651.606 148.32C649.376 150.057 647.89 152.62 647.015 155.786L650.871 156.851ZM654.074 151.467C655.505 150.338 657.157 149.767 659.113 149.767V145.767C656.297 145.767 653.763 146.617 651.596 148.328L654.074 151.467ZM659.113 149.767C659.659 149.767 660.23 149.807 660.827 149.89L661.377 145.928C660.61 145.822 659.855 145.767 659.113 145.767V149.767ZM660.881 149.897C661.463 149.961 661.983 150.064 662.448 150.199L663.563 146.358C662.853 146.152 662.105 146.008 661.323 145.921L660.881 149.897ZM661.005 148.278V160.352H665.005V148.278H661.005ZM663.654 158.46C662.809 158.171 661.786 157.969 660.636 157.827L660.148 161.798C661.156 161.921 661.876 162.079 662.357 162.244L663.654 158.46ZM660.64 157.828C659.519 157.688 658.486 157.614 657.551 157.614V161.614C658.282 161.614 659.144 161.672 660.144 161.797L660.64 157.828ZM657.551 157.614C655.592 157.614 653.766 158.056 652.117 158.974L654.064 162.469C655.067 161.91 656.214 161.614 657.551 161.614V157.614ZM652.126 158.97C650.496 159.867 649.201 161.141 648.264 162.758L651.724 164.764C652.302 163.768 653.071 163.015 654.055 162.473L652.126 158.97ZM648.259 162.766C647.319 164.406 646.886 166.276 646.886 168.307H650.886C650.886 166.852 651.192 165.693 651.729 164.756L648.259 162.766ZM646.886 168.307V192H650.886V168.307H646.886ZM648.886 190H634.994V194H648.886V190ZM703.562 161.688L703.616 163.687L705.731 163.63L705.556 161.521L703.562 161.688ZM690.807 162.028L688.828 162.317L689.084 164.075L690.86 164.028L690.807 162.028ZM689.727 159.614L688.178 160.878L688.186 160.888L688.194 160.898L689.727 159.614ZM687.426 157.938L686.607 159.762L686.629 159.772L686.652 159.781L687.426 157.938ZM680.068 158.278L679.082 156.538L679.076 156.542L679.07 156.546L680.068 158.278ZM678.42 160.892L680.42 160.936L680.421 160.897L680.42 160.858L678.42 160.892ZM679.443 163.108L678.112 164.601L678.122 164.609L678.132 164.618L679.443 163.108ZM683.278 164.614L682.875 166.572L682.891 166.576L682.907 166.579L683.278 164.614ZM691.688 166.205L692.063 164.24L692.059 164.239L691.688 166.205ZM701.403 170.352L700.057 171.831L700.063 171.837L701.403 170.352ZM704.642 178.023L706.642 178.035L706.642 178.023L706.642 178.011L704.642 178.023ZM701.972 185.835L700.406 184.591L700.399 184.599L701.972 185.835ZM694.812 191.006L695.555 192.863L695.565 192.859L694.812 191.006ZM669.67 188.989L668.502 190.612L668.512 190.619L669.67 188.989ZM663.534 178.648L663.484 176.648L661.29 176.703L661.548 178.883L663.534 178.648ZM677.256 178.307L679.22 177.933L678.903 176.265L677.206 176.307L677.256 178.307ZM679.614 181.943L680.712 180.271L679.614 181.943ZM688.818 182.199L687.798 180.479L688.818 182.199ZM690.523 179.557L692.522 179.591L692.523 179.555L692.522 179.518L690.523 179.557ZM689.216 177.199L688.057 178.829L688.069 178.837L688.081 178.846L689.216 177.199ZM685.21 175.778L684.836 177.743L684.842 177.744L685.21 175.778ZM677.597 174.33L677.97 172.365L677.962 172.363L677.954 172.362L677.597 174.33ZM667.824 169.926L666.403 171.334L666.41 171.34L667.824 169.926ZM664.642 161.688L666.642 161.699L666.642 161.687L666.642 161.675L664.642 161.688ZM666.972 154.216L668.563 155.428L668.568 155.421L666.972 154.216ZM673.676 149.443L672.967 147.573L673.676 149.443ZM697.909 151.517L696.732 153.134L696.738 153.138L697.909 151.517ZM703.509 159.688L690.753 160.029L690.86 164.028L703.616 163.687L703.509 159.688ZM692.786 161.74C692.6 160.466 692.087 159.316 691.26 158.329L688.194 160.898C688.542 161.313 688.748 161.773 688.828 162.317L692.786 161.74ZM691.277 158.349C690.462 157.35 689.417 156.604 688.201 156.094L686.652 159.781C687.329 160.066 687.819 160.438 688.178 160.878L691.277 158.349ZM688.245 156.113C687.011 155.559 685.643 155.312 684.188 155.312V159.312C685.194 159.312 685.985 159.483 686.607 159.762L688.245 156.113ZM684.188 155.312C682.312 155.312 680.582 155.689 679.082 156.538L681.054 160.018C681.827 159.58 682.844 159.312 684.188 159.312V155.312ZM679.07 156.546C677.453 157.477 676.387 158.961 676.421 160.927L680.42 160.858C680.416 160.626 680.448 160.368 681.067 160.011L679.07 156.546ZM676.421 160.848C676.388 162.349 677.024 163.63 678.112 164.601L680.774 161.615C680.461 161.336 680.415 161.139 680.42 160.936L676.421 160.848ZM678.132 164.618C679.259 165.597 680.968 166.179 682.875 166.572L683.682 162.655C681.914 162.29 681.067 161.869 680.755 161.598L678.132 164.618ZM682.907 166.579L691.316 168.17L692.059 164.239L683.65 162.648L682.907 166.579ZM691.312 168.169C695.487 168.968 698.319 170.248 700.057 171.831L702.75 168.874C700.246 166.593 696.6 165.108 692.063 164.24L691.312 168.169ZM700.063 171.837C701.741 173.351 702.626 175.35 702.642 178.035L706.642 178.011C706.62 174.332 705.347 171.217 702.744 168.868L700.063 171.837ZM702.642 178.01C702.626 180.582 701.872 182.746 700.406 184.591L703.537 187.08C705.594 184.492 706.62 181.448 706.642 178.035L702.642 178.01ZM700.399 184.599C698.904 186.501 696.82 188.031 694.06 189.153L695.565 192.859C698.865 191.518 701.554 189.602 703.544 187.071L700.399 184.599ZM694.07 189.149C691.317 190.25 688.11 190.824 684.415 190.824V194.824C688.522 194.824 692.247 194.186 695.555 192.863L694.07 189.149ZM684.415 190.824C678.434 190.824 673.975 189.594 670.829 187.358L668.512 190.619C672.562 193.497 677.934 194.824 684.415 194.824V190.824ZM670.839 187.365C667.707 185.112 665.965 182.165 665.52 178.413L661.548 178.883C662.126 183.767 664.475 187.714 668.502 190.612L670.839 187.365ZM663.584 180.647L677.305 180.306L677.206 176.307L663.484 176.648L663.584 180.647ZM675.291 178.681C675.688 180.764 676.762 182.463 678.516 183.615L680.712 180.271C679.928 179.757 679.43 179.031 679.22 177.933L675.291 178.681ZM678.516 183.615C680.195 184.718 682.226 185.193 684.472 185.193V181.193C682.777 181.193 681.57 180.835 680.712 180.271L678.516 183.615ZM684.472 185.193C686.483 185.193 688.318 184.821 689.839 183.919L687.798 180.479C687.083 180.903 686.02 181.193 684.472 181.193V185.193ZM689.839 183.919C691.425 182.978 692.489 181.52 692.522 179.591L688.523 179.522C688.518 179.791 688.446 180.094 687.798 180.479L689.839 183.919ZM692.522 179.518C692.49 177.852 691.702 176.483 690.351 175.552L688.081 178.846C688.435 179.089 688.517 179.292 688.523 179.595L692.522 179.518ZM690.375 175.569C689.17 174.712 687.495 174.172 685.579 173.813L684.842 177.744C686.561 178.067 687.557 178.474 688.057 178.829L690.375 175.569ZM685.584 173.814L677.97 172.365L677.223 176.294L684.836 177.743L685.584 173.814ZM677.954 172.362C673.801 171.607 670.985 170.258 669.238 168.512L666.41 171.34C668.943 173.874 672.642 175.461 677.239 176.297L677.954 172.362ZM669.244 168.518C667.516 166.775 666.626 164.557 666.642 161.699L662.642 161.676C662.62 165.484 663.851 168.759 666.403 171.334L669.244 168.518ZM666.642 161.675C666.626 159.142 667.292 157.097 668.563 155.428L665.38 153.004C663.508 155.464 662.621 158.399 662.642 161.7L666.642 161.675ZM668.568 155.421C669.873 153.691 671.773 152.303 674.385 151.313L672.967 147.573C669.784 148.78 667.214 150.574 665.375 153.011L668.568 155.421ZM674.385 151.313C677.004 150.32 680.172 149.795 683.932 149.795V145.795C679.813 145.795 676.144 146.369 672.967 147.573L674.385 151.313ZM683.932 149.795C689.583 149.795 693.778 150.984 696.732 153.134L699.086 149.9C695.222 147.088 690.099 145.795 683.932 145.795V149.795ZM696.738 153.138C699.658 155.247 701.256 158.097 701.569 161.854L705.556 161.521C705.149 156.642 702.979 152.711 699.08 149.896L696.738 153.138Z" fill="#2374F2" mask="url(#path-13-outside-2_545_1212)"/>
<defs>
<linearGradient id="paint0_linear_545_1212" x1="325.627" y1="62.4879" x2="343.005" y2="62.4879" gradientUnits="userSpaceOnUse">
<stop stop-color="#FF000F"/>
<stop offset="1" stop-color="#2176F5"/>
</linearGradient>
<linearGradient id="paint1_linear_545_1212" x1="320.267" y1="89.9558" x2="344.598" y2="89.9558" gradientUnits="userSpaceOnUse">
<stop stop-color="#FF000F"/>
<stop offset="1" stop-color="#2176F5"/>
</linearGradient>
<linearGradient id="paint2_linear_545_1212" x1="352.066" y1="36.0575" x2="380.184" y2="36.0575" gradientUnits="userSpaceOnUse">
<stop stop-color="#FF000F"/>
<stop offset="1" stop-color="#2176F5"/>
</linearGradient>
<linearGradient id="paint3_linear_545_1212" x1="369.582" y1="32.2041" x2="382.807" y2="32.2041" gradientUnits="userSpaceOnUse">
<stop stop-color="#FF000F"/>
<stop offset="1" stop-color="#2176F5"/>
</linearGradient>
<linearGradient id="paint4_linear_545_1212" x1="325.087" y1="64.5797" x2="329.777" y2="64.5797" gradientUnits="userSpaceOnUse">
<stop stop-color="#FF000F"/>
<stop offset="1" stop-color="#2176F5"/>
</linearGradient>
<linearGradient id="paint5_linear_545_1212" x1="390.1" y1="16.5522" x2="406.504" y2="16.5522" gradientUnits="userSpaceOnUse">
<stop stop-color="#FF000F"/>
<stop offset="1" stop-color="#2176F5"/>
</linearGradient>
<linearGradient id="paint6_linear_545_1212" x1="379.066" y1="8.41687" x2="385.903" y2="8.41687" gradientUnits="userSpaceOnUse">
<stop stop-color="#FF000F"/>
<stop offset="1" stop-color="#2176F5"/>
</linearGradient>
<linearGradient id="paint7_linear_545_1212" x1="390.892" y1="34.1274" x2="403.736" y2="34.1274" gradientUnits="userSpaceOnUse">
<stop stop-color="#FF000F"/>
<stop offset="1" stop-color="#2176F5"/>
</linearGradient>
<linearGradient id="paint8_linear_545_1212" x1="301.001" y1="43.8131" x2="386.396" y2="43.8131" gradientUnits="userSpaceOnUse">
<stop stop-color="#FF000F"/>
<stop offset="1" stop-color="#2176F5"/>
</linearGradient>
<linearGradient id="paint9_linear_545_1212" x1="308.722" y1="70.5805" x2="322.372" y2="70.5805" gradientUnits="userSpaceOnUse">
<stop stop-color="#FF000F"/>
<stop offset="1" stop-color="#2176F5"/>
</linearGradient>
<clipPath id="clip0_545_1212">
<rect width="108" height="104" fill="white" transform="translate(300)"/>
</clipPath>
</defs>
</svg>
