<svg width="702" height="97" viewBox="0 0 702 97" fill="none" xmlns="http://www.w3.org/2000/svg">
<mask id="path-1-outside-1_877_2094" maskUnits="userSpaceOnUse" x="2" y="14" width="445" height="67" fill="black">
<rect fill="white" x="2" y="14" width="445" height="67"/>
<path d="M4.40341 78V19.8182H28.4375C32.7936 19.8182 36.553 20.6705 39.7159 22.375C42.8977 24.0606 45.3504 26.4186 47.0739 29.4489C48.7973 32.4602 49.6591 35.964 49.6591 39.9602C49.6591 43.9754 48.7784 47.4886 47.017 50.5C45.2746 53.4924 42.7841 55.8125 39.5455 57.4602C36.3068 59.108 32.4621 59.9318 28.0114 59.9318H13.1818V48.8523H25.3977C27.5189 48.8523 29.2898 48.483 30.7102 47.7443C32.1496 47.0057 33.2386 45.9735 33.9773 44.6477C34.7159 43.303 35.0852 41.7405 35.0852 39.9602C35.0852 38.161 34.7159 36.608 33.9773 35.3011C33.2386 33.9754 32.1496 32.9527 30.7102 32.233C29.2708 31.5133 27.5 31.1534 25.3977 31.1534H18.4659V78H4.40341ZM53.3909 78V34.3636H66.8852V42.3182H67.3398C68.1352 39.4394 69.4326 37.2992 71.2318 35.8977C73.0311 34.4773 75.1239 33.767 77.5102 33.767C78.1542 33.767 78.817 33.8144 79.4989 33.9091C80.1807 33.9848 80.8152 34.108 81.4023 34.2784V46.3523C80.7394 46.125 79.8682 45.9451 78.7886 45.8125C77.728 45.6799 76.7811 45.6136 75.9477 45.6136C74.3 45.6136 72.8133 45.983 71.4875 46.7216C70.1807 47.4413 69.1485 48.4545 68.3909 49.7614C67.6523 51.0492 67.283 52.5644 67.283 54.3068V78H53.3909ZM101.966 78.8239C97.3831 78.8239 93.4437 77.8864 90.1483 76.0114C86.8718 74.1174 84.3434 71.4848 82.5631 68.1136C80.8017 64.7235 79.921 60.7936 79.921 56.3239C79.921 51.8352 80.8017 47.9053 82.5631 44.5341C84.3434 41.1439 86.8718 38.5114 90.1483 36.6364C93.4437 34.7424 97.3831 33.7955 101.966 33.7955C106.55 33.7955 110.48 34.7424 113.756 36.6364C117.052 38.5114 119.58 41.1439 121.341 44.5341C123.122 47.9053 124.012 51.8352 124.012 56.3239C124.012 60.7936 123.122 64.7235 121.341 68.1136C119.58 71.4848 117.052 74.1174 113.756 76.0114C110.48 77.8864 106.55 78.8239 101.966 78.8239ZM102.052 68.3409C103.718 68.3409 105.129 67.8295 106.285 66.8068C107.44 65.7841 108.321 64.3636 108.927 62.5455C109.552 60.7273 109.864 58.625 109.864 56.2386C109.864 53.8144 109.552 51.6932 108.927 49.875C108.321 48.0568 107.44 46.6364 106.285 45.6136C105.129 44.5909 103.718 44.0795 102.052 44.0795C100.328 44.0795 98.8699 44.5909 97.6767 45.6136C96.5025 46.6364 95.6028 48.0568 94.9778 49.875C94.3718 51.6932 94.0687 53.8144 94.0687 56.2386C94.0687 58.625 94.3718 60.7273 94.9778 62.5455C95.6028 64.3636 96.5025 65.7841 97.6767 66.8068C98.8699 67.8295 100.328 68.3409 102.052 68.3409ZM127.928 78V34.3636H141.139V42.375H141.622C142.531 39.7235 144.065 37.6307 146.224 36.0966C148.383 34.5625 150.959 33.7955 153.951 33.7955C156.981 33.7955 159.576 34.572 161.735 36.125C163.894 37.678 165.267 39.7614 165.855 42.375H166.309C167.123 39.7803 168.714 37.7064 171.082 36.1534C173.449 34.5814 176.243 33.7955 179.463 33.7955C183.591 33.7955 186.944 35.1212 189.519 37.7727C192.095 40.4053 193.383 44.0227 193.383 48.625V78H179.491V51.8068C179.491 49.6288 178.932 47.9716 177.815 46.8352C176.697 45.6799 175.248 45.1023 173.468 45.1023C171.555 45.1023 170.05 45.7273 168.951 46.9773C167.872 48.2083 167.332 49.8655 167.332 51.9489V78H153.98V51.6648C153.98 49.6383 153.43 48.0379 152.332 46.8636C151.233 45.6894 149.784 45.1023 147.985 45.1023C146.773 45.1023 145.703 45.3958 144.775 45.983C143.847 46.5511 143.118 47.3655 142.588 48.4261C142.076 49.4867 141.82 50.7367 141.82 52.1761V78H127.928ZM219.16 78.8239C214.577 78.8239 210.637 77.8864 207.342 76.0114C204.066 74.1174 201.537 71.4848 199.757 68.1136C197.995 64.7235 197.115 60.7936 197.115 56.3239C197.115 51.8352 197.995 47.9053 199.757 44.5341C201.537 41.1439 204.066 38.5114 207.342 36.6364C210.637 34.7424 214.577 33.7955 219.16 33.7955C223.744 33.7955 227.673 34.7424 230.95 36.6364C234.245 38.5114 236.774 41.1439 238.535 44.5341C240.316 47.9053 241.206 51.8352 241.206 56.3239C241.206 60.7936 240.316 64.7235 238.535 68.1136C236.774 71.4848 234.245 74.1174 230.95 76.0114C227.673 77.8864 223.744 78.8239 219.16 78.8239ZM219.245 68.3409C220.912 68.3409 222.323 67.8295 223.478 66.8068C224.634 65.7841 225.514 64.3636 226.12 62.5455C226.745 60.7273 227.058 58.625 227.058 56.2386C227.058 53.8144 226.745 51.6932 226.12 49.875C225.514 48.0568 224.634 46.6364 223.478 45.6136C222.323 44.5909 220.912 44.0795 219.245 44.0795C217.522 44.0795 216.064 44.5909 214.87 45.6136C213.696 46.6364 212.797 48.0568 212.172 49.875C211.566 51.6932 211.262 53.8144 211.262 56.2386C211.262 58.625 211.566 60.7273 212.172 62.5455C212.797 64.3636 213.696 65.7841 214.87 66.8068C216.064 67.8295 217.522 68.3409 219.245 68.3409ZM269.753 34.3636V44.5909H242.224V34.3636H269.753ZM247.991 23.9091H261.884V64.2784C261.884 65.1307 262.016 65.822 262.281 66.3523C262.565 66.8636 262.973 67.233 263.503 67.4602C264.033 67.6686 264.668 67.7727 265.406 67.7727C265.937 67.7727 266.495 67.7254 267.082 67.6307C267.688 67.517 268.143 67.4223 268.446 67.3466L270.548 77.375C269.885 77.5644 268.948 77.8011 267.736 78.0852C266.543 78.3693 265.113 78.5492 263.446 78.625C260.188 78.7765 257.395 78.3977 255.065 77.4886C252.755 76.5606 250.984 75.1212 249.753 73.1705C248.541 71.2197 247.954 68.767 247.991 65.8125V23.9091ZM273.641 78V34.3636H287.533V78H273.641ZM280.601 29.2784C278.65 29.2784 276.974 28.6345 275.573 27.3466C274.171 26.0398 273.47 24.4678 273.47 22.6307C273.47 20.8125 274.171 19.2595 275.573 17.9716C276.974 16.6648 278.65 16.0114 280.601 16.0114C282.571 16.0114 284.247 16.6648 285.63 17.9716C287.031 19.2595 287.732 20.8125 287.732 22.6307C287.732 24.4678 287.031 26.0398 285.63 27.3466C284.247 28.6345 282.571 29.2784 280.601 29.2784ZM313.545 78.8239C308.961 78.8239 305.022 77.8864 301.726 76.0114C298.45 74.1174 295.922 71.4848 294.141 68.1136C292.38 64.7235 291.499 60.7936 291.499 56.3239C291.499 51.8352 292.38 47.9053 294.141 44.5341C295.922 41.1439 298.45 38.5114 301.726 36.6364C305.022 34.7424 308.961 33.7955 313.545 33.7955C318.128 33.7955 322.058 34.7424 325.334 36.6364C328.63 38.5114 331.158 41.1439 332.92 44.5341C334.7 47.9053 335.59 51.8352 335.59 56.3239C335.59 60.7936 334.7 64.7235 332.92 68.1136C331.158 71.4848 328.63 74.1174 325.334 76.0114C322.058 77.8864 318.128 78.8239 313.545 78.8239ZM313.63 68.3409C315.297 68.3409 316.707 67.8295 317.863 66.8068C319.018 65.7841 319.899 64.3636 320.505 62.5455C321.13 60.7273 321.442 58.625 321.442 56.2386C321.442 53.8144 321.13 51.6932 320.505 49.875C319.899 48.0568 319.018 46.6364 317.863 45.6136C316.707 44.5909 315.297 44.0795 313.63 44.0795C311.906 44.0795 310.448 44.5909 309.255 45.6136C308.081 46.6364 307.181 48.0568 306.556 49.875C305.95 51.6932 305.647 53.8144 305.647 56.2386C305.647 58.625 305.95 60.7273 306.556 62.5455C307.181 64.3636 308.081 65.7841 309.255 66.8068C310.448 67.8295 311.906 68.3409 313.63 68.3409ZM353.399 53.1136V78H339.507V34.3636H352.717V42.375H353.2C354.166 39.7045 355.813 37.6117 358.143 36.0966C360.472 34.5625 363.247 33.7955 366.467 33.7955C369.535 33.7955 372.196 34.4867 374.45 35.8693C376.722 37.233 378.484 39.1458 379.734 41.608C381.003 44.0511 381.628 46.911 381.609 50.1875V78H367.717V52.9148C367.736 50.4905 367.12 48.5966 365.87 47.233C364.639 45.8693 362.925 45.1875 360.728 45.1875C359.27 45.1875 357.982 45.5095 356.864 46.1534C355.766 46.7784 354.914 47.678 354.308 48.8523C353.721 50.0265 353.418 51.447 353.399 53.1136ZM399.311 78.7386C396.527 78.7386 394.055 78.2746 391.896 77.3466C389.756 76.3996 388.061 74.9792 386.811 73.0852C385.58 71.1723 384.964 68.7765 384.964 65.8977C384.964 63.4735 385.39 61.428 386.243 59.7614C387.095 58.0947 388.269 56.7405 389.765 55.6989C391.262 54.6572 392.985 53.8712 394.936 53.3409C396.887 52.7917 398.97 52.4223 401.186 52.233C403.667 52.0057 405.665 51.7689 407.18 51.5227C408.695 51.2576 409.794 50.8883 410.476 50.4148C411.176 49.9223 411.527 49.2311 411.527 48.3409V48.1989C411.527 46.7405 411.025 45.6136 410.021 44.8182C409.017 44.0227 407.663 43.625 405.959 43.625C404.121 43.625 402.644 44.0227 401.527 44.8182C400.409 45.6136 399.699 46.7121 399.396 48.1136L386.584 47.6591C386.962 45.0076 387.938 42.6402 389.51 40.5568C391.101 38.4545 393.279 36.8068 396.044 35.6136C398.828 34.4015 402.171 33.7955 406.072 33.7955C408.856 33.7955 411.423 34.1269 413.771 34.7898C416.12 35.4337 418.165 36.3807 419.907 37.6307C421.65 38.8617 422.995 40.3769 423.941 42.1761C424.907 43.9754 425.39 46.0303 425.39 48.3409V78H412.322V71.9205H411.981C411.205 73.3977 410.21 74.6477 408.998 75.6705C407.805 76.6932 406.394 77.4602 404.765 77.9716C403.156 78.483 401.337 78.7386 399.311 78.7386ZM403.601 69.6477C405.097 69.6477 406.441 69.3447 407.635 68.7386C408.847 68.1326 409.813 67.2992 410.532 66.2386C411.252 65.1591 411.612 63.9091 411.612 62.4886V58.3409C411.214 58.5492 410.731 58.7386 410.163 58.9091C409.614 59.0795 409.008 59.2405 408.345 59.392C407.682 59.5436 407 59.6761 406.299 59.7898C405.599 59.9034 404.926 60.0076 404.282 60.1023C402.976 60.3106 401.858 60.6326 400.93 61.0682C400.021 61.5038 399.32 62.072 398.828 62.7727C398.354 63.4545 398.118 64.2689 398.118 65.2159C398.118 66.6553 398.629 67.7538 399.652 68.5114C400.693 69.2689 402.01 69.6477 403.601 69.6477ZM444.577 19.8182V78H430.685V19.8182H444.577Z"/>
</mask>
<path d="M4.40341 78H2.40341V80H4.40341V78ZM4.40341 19.8182V17.8182H2.40341V19.8182H4.40341ZM39.7159 22.375L38.7671 24.1356L38.7734 24.139L38.7797 24.1423L39.7159 22.375ZM47.0739 29.4489L45.3354 30.4376L45.3381 30.4423L47.0739 29.4489ZM47.017 50.5L45.2907 49.4902L45.2887 49.4936L47.017 50.5ZM39.5455 57.4602L40.4524 59.2428L39.5455 57.4602ZM13.1818 59.9318H11.1818V61.9318H13.1818V59.9318ZM13.1818 48.8523V46.8523H11.1818V48.8523H13.1818ZM30.7102 47.7443L29.7971 45.9649L29.7875 45.9699L30.7102 47.7443ZM33.9773 44.6477L35.7244 45.6211L35.7302 45.6106L33.9773 44.6477ZM33.9773 35.3011L32.2301 36.2746L32.2361 36.2852L33.9773 35.3011ZM30.7102 32.233L29.8158 34.0218H29.8158L30.7102 32.233ZM18.4659 31.1534V29.1534H16.4659V31.1534H18.4659ZM18.4659 78V80H20.4659V78H18.4659ZM6.40341 78V19.8182H2.40341V78H6.40341ZM4.40341 21.8182H28.4375V17.8182H4.40341V21.8182ZM28.4375 21.8182C32.5321 21.8182 35.9516 22.6183 38.7671 24.1356L40.6647 20.6144C37.1545 18.7226 33.055 17.8182 28.4375 17.8182V21.8182ZM38.7797 24.1423C41.6371 25.6561 43.8063 27.7491 45.3354 30.4376L48.8124 28.4601C46.8945 25.088 44.1583 22.4651 40.6522 20.6077L38.7797 24.1423ZM45.3381 30.4423C46.8636 33.1079 47.6591 36.259 47.6591 39.9602H51.6591C51.6591 35.6691 50.7311 31.8126 48.8097 28.4554L45.3381 30.4423ZM47.6591 39.9602C47.6591 43.6748 46.8473 46.829 45.2907 49.4902L48.7434 51.5098C50.7096 48.1483 51.6591 44.2759 51.6591 39.9602H47.6591ZM45.2887 49.4936C43.7496 52.1369 41.5522 54.1953 38.6385 55.6777L40.4524 59.2428C44.016 57.4297 46.7997 54.848 48.7454 51.5064L45.2887 49.4936ZM38.6385 55.6777C35.7371 57.1539 32.2167 57.9318 28.0114 57.9318V61.9318C32.7076 61.9318 36.8766 61.062 40.4524 59.2428L38.6385 55.6777ZM28.0114 57.9318H13.1818V61.9318H28.0114V57.9318ZM15.1818 59.9318V48.8523H11.1818V59.9318H15.1818ZM13.1818 50.8523H25.3977V46.8523H13.1818V50.8523ZM25.3977 50.8523C27.7399 50.8523 29.8501 50.4458 31.6329 49.5187L29.7875 45.9699C28.7294 46.5201 27.298 46.8523 25.3977 46.8523V50.8523ZM31.6233 49.5237C33.3899 48.6172 34.7806 47.3152 35.7244 45.6211L32.2301 43.6743C31.6967 44.6317 30.9094 45.3942 29.7971 45.9649L31.6233 49.5237ZM35.7302 45.6106C36.6552 43.9266 37.0852 42.0228 37.0852 39.9602H33.0852C33.0852 41.4583 32.7766 42.6794 32.2243 43.6848L35.7302 45.6106ZM37.0852 39.9602C37.0852 37.8846 36.6575 35.9785 35.7184 34.317L32.2361 36.2852C32.7743 37.2374 33.0852 38.4374 33.0852 39.9602H37.0852ZM35.7244 34.3277C34.7779 32.6289 33.3809 31.3322 31.6047 30.4441L29.8158 34.0218C30.9183 34.5731 31.6994 35.3219 32.2301 36.2745L35.7244 34.3277ZM31.6047 30.4441C29.8158 29.5497 27.7189 29.1534 25.3977 29.1534V33.1534C27.2811 33.1534 28.7258 33.4768 29.8158 34.0218L31.6047 30.4441ZM25.3977 29.1534H18.4659V33.1534H25.3977V29.1534ZM16.4659 31.1534V78H20.4659V31.1534H16.4659ZM18.4659 76H4.40341V80H18.4659V76ZM53.3909 78H51.3909V80H53.3909V78ZM53.3909 34.3636V32.3636H51.3909V34.3636H53.3909ZM66.8852 34.3636H68.8852V32.3636H66.8852V34.3636ZM66.8852 42.3182H64.8852V44.3182H66.8852V42.3182ZM67.3398 42.3182V44.3182H68.8621L69.2675 42.8508L67.3398 42.3182ZM71.2318 35.8977L72.4609 37.4756L72.4711 37.4675L71.2318 35.8977ZM79.4989 33.9091L79.2237 35.8901L79.2508 35.8938L79.278 35.8969L79.4989 33.9091ZM81.4023 34.2784H83.4023V32.7765L81.9599 32.3577L81.4023 34.2784ZM81.4023 46.3523L80.7536 48.2442L83.4023 49.1523V46.3523H81.4023ZM78.7886 45.8125L78.5406 47.7971L78.5449 47.7976L78.7886 45.8125ZM71.4875 46.7216L72.4523 48.4735L72.4609 48.4687L71.4875 46.7216ZM68.3909 49.7614L66.6606 48.7583L66.656 48.7663L68.3909 49.7614ZM67.283 78V80H69.283V78H67.283ZM55.3909 78V34.3636H51.3909V78H55.3909ZM53.3909 36.3636H66.8852V32.3636H53.3909V36.3636ZM64.8852 34.3636V42.3182H68.8852V34.3636H64.8852ZM66.8852 44.3182H67.3398V40.3182H66.8852V44.3182ZM69.2675 42.8508C69.9839 40.2584 71.0925 38.5414 72.4609 37.4755L70.0028 34.3199C67.7727 36.057 66.2866 38.6204 65.412 41.7855L69.2675 42.8508ZM72.4711 37.4675C73.9021 36.3378 75.5537 35.767 77.5102 35.767V31.767C74.694 31.767 72.16 32.6168 69.9925 34.328L72.4711 37.4675ZM77.5102 35.767C78.0561 35.767 78.6269 35.8072 79.2237 35.8901L79.774 31.9281C79.0072 31.8216 78.2523 31.767 77.5102 31.767V35.767ZM79.278 35.8969C79.8594 35.9615 80.38 36.0642 80.8446 36.1991L81.9599 32.3577C81.2503 32.1517 80.5019 32.0082 79.7197 31.9213L79.278 35.8969ZM79.4023 34.2784V46.3523H83.4023V34.2784H79.4023ZM82.0509 44.4604C81.2056 44.1706 80.1832 43.9687 79.0324 43.8274L78.5449 47.7976C79.5532 47.9214 80.2732 48.0794 80.7536 48.2442L82.0509 44.4604ZM79.0367 43.8279C77.9155 43.6878 76.8833 43.6136 75.9477 43.6136V47.6136C76.6788 47.6136 77.5406 47.6721 78.5406 47.7971L79.0367 43.8279ZM75.9477 43.6136C73.9893 43.6136 72.1627 44.056 70.5141 44.9745L72.4609 48.4687C73.4639 47.9099 74.6107 47.6136 75.9477 47.6136V43.6136ZM70.5227 44.9697C68.8932 45.8671 67.5982 47.1411 66.6606 48.7583L70.1212 50.7644C70.6988 49.768 71.4681 49.0155 72.4523 48.4735L70.5227 44.9697ZM66.656 48.7663C65.7156 50.406 65.283 52.2763 65.283 54.3068H69.283C69.283 52.8525 69.5889 51.6925 70.1258 50.7564L66.656 48.7663ZM65.283 54.3068V78H69.283V54.3068H65.283ZM67.283 76H53.3909V80H67.283V76ZM90.1483 76.0114L89.1474 77.7429L89.1592 77.7497L90.1483 76.0114ZM82.5631 68.1136L80.7883 69.0357L80.7945 69.0476L82.5631 68.1136ZM82.5631 44.5341L80.7924 43.6042L80.7904 43.6079L82.5631 44.5341ZM90.1483 36.6364L91.1417 38.3722L91.1449 38.3704L90.1483 36.6364ZM113.756 36.6364L112.755 38.3679L112.767 38.3747L113.756 36.6364ZM121.341 44.5341L119.567 45.4562L119.573 45.468L121.341 44.5341ZM121.341 68.1136L119.571 67.1838L119.569 67.1875L121.341 68.1136ZM113.756 76.0114L114.75 77.7472L114.753 77.7454L113.756 76.0114ZM106.285 66.8068L104.959 65.3093L106.285 66.8068ZM108.927 62.5455L107.035 61.8953L107.032 61.9041L107.029 61.913L108.927 62.5455ZM108.927 49.875L107.029 50.5075L107.032 50.5163L107.035 50.5252L108.927 49.875ZM106.285 45.6136L107.61 44.1161L106.285 45.6136ZM97.6767 45.6136L96.3751 44.0951L96.3691 44.1003L96.3631 44.1055L97.6767 45.6136ZM94.9778 49.875L93.0865 49.2248L93.0834 49.2337L93.0805 49.2425L94.9778 49.875ZM94.9778 62.5455L93.0805 63.1779L93.0834 63.1868L93.0865 63.1956L94.9778 62.5455ZM97.6767 66.8068L96.3631 68.315L96.3691 68.3202L96.3751 68.3253L97.6767 66.8068ZM101.966 76.8239C97.6577 76.8239 94.0743 75.944 91.1373 74.273L89.1592 77.7497C92.8132 79.8287 97.1086 80.8239 101.966 80.8239V76.8239ZM91.1492 74.2798C88.201 72.5757 85.9375 70.2207 84.3316 67.1797L80.7945 69.0476C82.7492 72.749 85.5425 75.6592 89.1474 77.7429L91.1492 74.2798ZM84.3378 67.1916C82.7477 64.131 81.921 60.5271 81.921 56.3239H77.921C77.921 61.06 78.8557 65.316 80.7883 69.0357L84.3378 67.1916ZM81.921 56.3239C81.921 52.0998 82.7484 48.4983 84.3357 45.4602L80.7904 43.6079C78.855 47.3123 77.921 51.5707 77.921 56.3239H81.921ZM84.3338 45.464C85.9397 42.4059 88.2007 40.0552 91.1417 38.3722L89.1549 34.9005C85.5429 36.9675 82.7471 39.882 80.7924 43.6042L84.3338 45.464ZM91.1449 38.3704C94.0803 36.6834 97.6609 35.7955 101.966 35.7955V31.7955C97.1053 31.7955 92.8072 32.8015 89.1517 34.9023L91.1449 38.3704ZM101.966 35.7955C106.272 35.7955 109.841 36.6835 112.755 38.3679L114.757 34.9048C111.118 32.8013 106.827 31.7955 101.966 31.7955V35.7955ZM112.767 38.3747C115.725 40.0575 117.982 42.4054 119.567 45.4562L123.116 43.612C121.179 39.8825 118.379 36.9652 114.745 34.898L112.767 38.3747ZM119.573 45.468C121.176 48.5044 122.012 52.103 122.012 56.3239H126.012C126.012 51.5674 125.067 47.3062 123.11 43.6001L119.573 45.468ZM122.012 56.3239C122.012 60.5239 121.177 64.1249 119.571 67.1838L123.112 69.0435C125.066 65.3221 126.012 61.0632 126.012 56.3239H122.012ZM119.569 67.1875C117.984 70.2212 115.725 72.5734 112.76 74.2773L114.753 77.7454C118.379 75.6614 121.176 72.7485 123.114 69.0398L119.569 67.1875ZM112.763 74.2755C109.847 75.9439 106.276 76.8239 101.966 76.8239V80.8239C106.824 80.8239 111.112 79.8288 114.75 77.7472L112.763 74.2755ZM102.052 70.3409C104.164 70.3409 106.059 69.6779 107.61 68.3043L104.959 65.3093C104.2 65.9812 103.272 66.3409 102.052 66.3409V70.3409ZM107.61 68.3043C109.086 66.9984 110.133 65.2497 110.824 63.1779L107.029 61.913C106.508 63.4776 105.794 64.5698 104.959 65.3093L107.61 68.3043ZM110.818 63.1956C111.53 61.1247 111.864 58.795 111.864 56.2386H107.864C107.864 58.455 107.573 60.3298 107.035 61.8953L110.818 63.1956ZM111.864 56.2386C111.864 53.6483 111.531 51.2987 110.818 49.2248L107.035 50.5252C107.572 52.0877 107.864 53.9805 107.864 56.2386H111.864ZM110.824 49.2425C110.133 47.1707 109.086 45.4221 107.61 44.1161L104.959 47.1112C105.794 47.8506 106.508 48.9429 107.029 50.5075L110.824 49.2425ZM107.61 44.1161C106.059 42.7426 104.164 42.0795 102.052 42.0795V46.0795C103.272 46.0795 104.2 46.4393 104.959 47.1112L107.61 44.1161ZM102.052 42.0795C99.9004 42.0795 97.9668 42.7309 96.3751 44.0951L98.9783 47.1321C99.773 46.451 100.756 46.0795 102.052 46.0795V42.0795ZM96.3631 44.1055C94.869 45.4069 93.799 47.1522 93.0865 49.2248L96.8692 50.5252C97.4067 48.9615 98.136 47.8659 98.9903 47.1218L96.3631 44.1055ZM93.0805 49.2425C92.3912 51.3105 92.0687 53.6537 92.0687 56.2386H96.0687C96.0687 53.9751 96.3524 52.0759 96.8752 50.5075L93.0805 49.2425ZM92.0687 56.2386C92.0687 58.7895 92.3921 61.1129 93.0805 63.1779L96.8752 61.913C96.3514 60.3417 96.0687 58.4605 96.0687 56.2386H92.0687ZM93.0865 63.1956C93.799 65.2683 94.869 67.0136 96.3631 68.315L98.9903 65.2987C98.136 64.5546 97.4067 63.459 96.8692 61.8953L93.0865 63.1956ZM96.3751 68.3253C97.9668 69.6896 99.9004 70.3409 102.052 70.3409V66.3409C100.756 66.3409 99.773 65.9695 98.9783 65.2883L96.3751 68.3253ZM127.928 78H125.928V80H127.928V78ZM127.928 34.3636V32.3636H125.928V34.3636H127.928ZM141.139 34.3636H143.139V32.3636H141.139V34.3636ZM141.139 42.375H139.139V44.375H141.139V42.375ZM141.622 42.375V44.375H143.05L143.513 43.0236L141.622 42.375ZM146.224 36.0966L147.382 37.727L146.224 36.0966ZM161.735 36.125L160.567 37.7486L161.735 36.125ZM165.855 42.375L163.903 42.8134L164.254 44.375H165.855V42.375ZM166.309 42.375V44.375H167.778L168.217 42.9739L166.309 42.375ZM171.082 36.1534L172.179 37.8257L172.188 37.8196L171.082 36.1534ZM189.519 37.7727L188.085 39.1663L188.09 39.1714L189.519 37.7727ZM193.383 78V80H195.383V78H193.383ZM179.491 78H177.491V80H179.491V78ZM177.815 46.8352L176.377 48.2257L176.383 48.2316L176.389 48.2375L177.815 46.8352ZM168.951 46.9773L167.449 45.657L167.447 45.6586L168.951 46.9773ZM167.332 78V80H169.332V78H167.332ZM153.98 78H151.98V80H153.98V78ZM152.332 46.8636L153.792 45.4973L152.332 46.8636ZM144.775 45.983L145.819 47.6887L145.832 47.681L145.844 47.6731L144.775 45.983ZM142.587 48.4261L140.799 47.5317L140.792 47.5446L140.786 47.5575L142.587 48.4261ZM141.82 78V80H143.82V78H141.82ZM129.928 78V34.3636H125.928V78H129.928ZM127.928 36.3636H141.139V32.3636H127.928V36.3636ZM139.139 34.3636V42.375H143.139V34.3636H139.139ZM141.139 44.375H141.622V40.375H141.139V44.375ZM143.513 43.0236C144.295 40.7436 145.585 39.004 147.382 37.727L145.065 34.4662C142.545 36.2573 140.766 38.7034 139.73 41.7264L143.513 43.0236ZM147.382 37.727C149.16 36.4639 151.318 35.7955 153.951 35.7955V31.7955C150.6 31.7955 147.606 32.6611 145.065 34.4662L147.382 37.727ZM153.951 35.7955C156.623 35.7955 158.795 36.4735 160.567 37.7486L162.903 34.5014C160.358 32.6704 157.34 31.7955 153.951 31.7955V35.7955ZM160.567 37.7486C162.326 39.0135 163.423 40.6736 163.903 42.8134L167.806 41.9366C167.112 38.8491 165.463 36.3426 162.903 34.5014L160.567 37.7486ZM165.855 44.375H166.309V40.375H165.855V44.375ZM168.217 42.9739C168.887 40.8392 170.18 39.1366 172.179 37.8257L169.985 34.4811C167.248 36.2762 165.36 38.7214 164.401 41.7761L168.217 42.9739ZM172.188 37.8196C174.185 36.4934 176.582 35.7955 179.462 35.7955V31.7955C175.903 31.7955 172.713 32.6695 169.975 34.4873L172.188 37.8196ZM179.462 35.7955C183.12 35.7955 185.931 36.9496 188.085 39.1663L190.954 36.3792C187.956 33.2928 184.062 31.7955 179.462 31.7955V35.7955ZM188.09 39.1714C190.214 41.3424 191.383 44.4082 191.383 48.625H195.383C195.383 43.6372 193.976 39.4682 190.949 36.374L188.09 39.1714ZM191.383 48.625V78H195.383V48.625H191.383ZM193.383 76H179.491V80H193.383V76ZM181.491 78V51.8068H177.491V78H181.491ZM181.491 51.8068C181.491 49.3006 180.844 47.0633 179.241 45.4329L176.389 48.2375C177.02 48.8799 177.491 49.957 177.491 51.8068H181.491ZM179.252 45.4448C177.716 43.856 175.726 43.1023 173.468 43.1023V47.1023C174.771 47.1023 175.679 47.5039 176.377 48.2257L179.252 45.4448ZM173.468 43.1023C171.075 43.1023 168.986 43.9082 167.449 45.657L170.453 48.2975C171.114 47.5464 172.035 47.1023 173.468 47.1023V43.1023ZM167.447 45.6586C165.968 47.3452 165.332 49.5164 165.332 51.9489H169.332C169.332 50.2146 169.775 49.0714 170.455 48.2959L167.447 45.6586ZM165.332 51.9489V78H169.332V51.9489H165.332ZM167.332 76H153.98V80H167.332V76ZM155.98 78V51.6648H151.98V78H155.98ZM155.98 51.6648C155.98 49.2686 155.321 47.1317 153.792 45.4973L150.871 48.2299C151.539 48.944 151.98 50.0079 151.98 51.6648H155.98ZM153.792 45.4973C152.269 43.8686 150.265 43.1023 147.985 43.1023V47.1023C149.304 47.1023 150.198 47.5102 150.871 48.2299L153.792 45.4973ZM147.985 43.1023C146.435 43.1023 144.986 43.4826 143.706 44.2928L145.844 47.6731C146.42 47.3091 147.111 47.1023 147.985 47.1023V43.1023ZM143.731 44.2773C142.455 45.0583 141.481 46.1675 140.799 47.5317L144.376 49.3206C144.755 48.5636 145.239 48.044 145.819 47.6887L143.731 44.2773ZM140.786 47.5575C140.118 48.9426 139.82 50.5016 139.82 52.1761H143.82C143.82 50.9718 144.034 50.0309 144.389 49.2947L140.786 47.5575ZM139.82 52.1761V78H143.82V52.1761H139.82ZM141.82 76H127.928V80H141.82V76ZM207.342 76.0114L206.341 77.7429L206.353 77.7497L207.342 76.0114ZM199.757 68.1136L197.982 69.0357L197.988 69.0476L199.757 68.1136ZM199.757 44.5341L197.986 43.6042L197.984 43.6079L199.757 44.5341ZM207.342 36.6364L208.335 38.3722L208.339 38.3704L207.342 36.6364ZM230.95 36.6364L229.949 38.3679L229.961 38.3747L230.95 36.6364ZM238.535 44.5341L236.76 45.4562L236.767 45.468L238.535 44.5341ZM238.535 68.1136L236.765 67.1838L236.763 67.1875L238.535 68.1136ZM230.95 76.0114L231.943 77.7472L231.947 77.7454L230.95 76.0114ZM223.478 66.8068L222.153 65.3093L223.478 66.8068ZM226.12 62.5455L224.229 61.8953L224.226 61.9041L224.223 61.913L226.12 62.5455ZM226.12 49.875L224.223 50.5075L224.226 50.5163L224.229 50.5252L226.12 49.875ZM223.478 45.6136L224.804 44.1161H224.804L223.478 45.6136ZM214.87 45.6136L213.569 44.0951L213.563 44.1003L213.557 44.1055L214.87 45.6136ZM212.172 49.875L210.28 49.2248L210.277 49.2337L210.274 49.2425L212.172 49.875ZM212.172 62.5455L210.274 63.1779L210.277 63.1868L210.28 63.1956L212.172 62.5455ZM214.87 66.8068L213.557 68.315L213.563 68.3202L213.569 68.3253L214.87 66.8068ZM219.16 76.8239C214.851 76.8239 211.268 75.944 208.331 74.273L206.353 77.7497C210.007 79.8287 214.302 80.8239 219.16 80.8239V76.8239ZM208.343 74.2798C205.395 72.5757 203.131 70.2207 201.525 67.1797L197.988 69.0476C199.943 72.749 202.736 75.6592 206.341 77.7429L208.343 74.2798ZM201.532 67.1916C199.941 64.131 199.115 60.5271 199.115 56.3239H195.115C195.115 61.06 196.049 65.316 197.982 69.0357L201.532 67.1916ZM199.115 56.3239C199.115 52.0998 199.942 48.4983 201.529 45.4602L197.984 43.6079C196.049 47.3123 195.115 51.5707 195.115 56.3239H199.115ZM201.528 45.464C203.133 42.4059 205.394 40.0552 208.335 38.3722L206.349 34.9005C202.737 36.9675 199.941 39.882 197.986 43.6042L201.528 45.464ZM208.339 38.3704C211.274 36.6834 214.855 35.7955 219.16 35.7955V31.7955C214.299 31.7955 210.001 32.8015 206.345 34.9023L208.339 38.3704ZM219.16 35.7955C223.466 35.7955 227.035 36.6835 229.949 38.3679L231.951 34.9048C228.312 32.8013 224.021 31.7955 219.16 31.7955V35.7955ZM229.961 38.3747C232.919 40.0575 235.175 42.4054 236.76 45.4562L240.31 43.612C238.372 39.8825 235.572 36.9652 231.939 34.898L229.961 38.3747ZM236.767 45.468C238.37 48.5044 239.206 52.103 239.206 56.3239H243.206C243.206 51.5674 242.261 47.3062 240.304 43.6001L236.767 45.468ZM239.206 56.3239C239.206 60.5239 238.371 64.1249 236.765 67.1838L240.306 69.0435C242.26 65.3221 243.206 61.0632 243.206 56.3239H239.206ZM236.763 67.1875C235.178 70.2212 232.918 72.5734 229.953 74.2773L231.947 77.7454C235.573 75.6614 238.37 72.7485 240.308 69.0398L236.763 67.1875ZM229.957 74.2755C227.041 75.9439 223.469 76.8239 219.16 76.8239V80.8239C224.018 80.8239 228.306 79.8288 231.943 77.7472L229.957 74.2755ZM219.245 70.3409C221.358 70.3409 223.252 69.6779 224.804 68.3043L222.153 65.3093C221.394 65.9812 220.466 66.3409 219.245 66.3409V70.3409ZM224.804 68.3043C226.279 66.9984 227.327 65.2497 228.018 63.1779L224.223 61.913C223.702 63.4776 222.988 64.5698 222.153 65.3093L224.804 68.3043ZM228.012 63.1956C228.724 61.1247 229.058 58.795 229.058 56.2386H225.058C225.058 58.455 224.767 60.3298 224.229 61.8953L228.012 63.1956ZM229.058 56.2386C229.058 53.6483 228.725 51.2987 228.012 49.2248L224.229 50.5252C224.766 52.0877 225.058 53.9805 225.058 56.2386H229.058ZM228.018 49.2425C227.327 47.1707 226.279 45.4221 224.804 44.1161L222.153 47.1112C222.988 47.8506 223.702 48.9429 224.223 50.5075L228.018 49.2425ZM224.804 44.1161C223.252 42.7426 221.358 42.0795 219.245 42.0795V46.0795C220.466 46.0795 221.394 46.4393 222.153 47.1112L224.804 44.1161ZM219.245 42.0795C217.094 42.0795 215.161 42.7309 213.569 44.0951L216.172 47.1321C216.967 46.451 217.95 46.0795 219.245 46.0795V42.0795ZM213.557 44.1055C212.063 45.4069 210.993 47.1522 210.28 49.2248L214.063 50.5252C214.6 48.9615 215.33 47.8659 216.184 47.1218L213.557 44.1055ZM210.274 49.2425C209.585 51.3105 209.262 53.6537 209.262 56.2386H213.262C213.262 53.9751 213.546 52.0759 214.069 50.5075L210.274 49.2425ZM209.262 56.2386C209.262 58.7895 209.586 61.1129 210.274 63.1779L214.069 61.913C213.545 60.3417 213.262 58.4605 213.262 56.2386H209.262ZM210.28 63.1956C210.993 65.2683 212.063 67.0136 213.557 68.315L216.184 65.2987C215.33 64.5546 214.6 63.459 214.063 61.8953L210.28 63.1956ZM213.569 68.3253C215.161 69.6896 217.094 70.3409 219.245 70.3409V66.3409C217.95 66.3409 216.967 65.9695 216.172 65.2883L213.569 68.3253ZM269.753 34.3636H271.753V32.3636H269.753V34.3636ZM269.753 44.5909V46.5909H271.753V44.5909H269.753ZM242.224 44.5909H240.224V46.5909H242.224V44.5909ZM242.224 34.3636V32.3636H240.224V34.3636H242.224ZM247.991 23.9091V21.9091H245.991V23.9091H247.991ZM261.884 23.9091H263.884V21.9091H261.884V23.9091ZM262.281 66.3523L260.492 67.2467L260.512 67.2856L260.533 67.3236L262.281 66.3523ZM263.503 67.4602L262.715 69.2985L262.743 69.3106L262.772 69.3217L263.503 67.4602ZM267.082 67.6307L267.401 69.6052L267.426 69.6011L267.451 69.5964L267.082 67.6307ZM268.446 67.3466L270.403 66.9362L269.977 64.9023L267.961 65.4063L268.446 67.3466ZM270.548 77.375L271.098 79.298L272.888 78.7866L272.506 76.9647L270.548 77.375ZM267.736 78.0852L267.279 76.138L267.273 76.1396L267.736 78.0852ZM263.446 78.625L263.355 76.6271L263.353 76.6272L263.446 78.625ZM255.065 77.4886L254.32 79.3445L254.329 79.3482L254.338 79.3518L255.065 77.4886ZM249.753 73.1705L248.054 74.226L248.061 74.2378L249.753 73.1705ZM247.991 65.8125L249.991 65.8381L249.991 65.8253V65.8125H247.991ZM267.753 34.3636V44.5909H271.753V34.3636H267.753ZM269.753 42.5909H242.224V46.5909H269.753V42.5909ZM244.224 44.5909V34.3636H240.224V44.5909H244.224ZM242.224 36.3636H269.753V32.3636H242.224V36.3636ZM247.991 25.9091H261.884V21.9091H247.991V25.9091ZM259.884 23.9091V64.2784H263.884V23.9091H259.884ZM259.884 64.2784C259.884 65.3148 260.041 66.3443 260.492 67.2467L264.07 65.4578C263.991 65.2997 263.884 64.9466 263.884 64.2784H259.884ZM260.533 67.3236C261.029 68.2165 261.771 68.894 262.715 69.2985L264.291 65.6219C264.174 65.5719 264.102 65.5107 264.03 65.381L260.533 67.3236ZM262.772 69.3217C263.593 69.6443 264.488 69.7727 265.406 69.7727V65.7727C264.847 65.7727 264.474 65.6929 264.234 65.5987L262.772 69.3217ZM265.406 69.7727C266.055 69.7727 266.721 69.7148 267.401 69.6052L266.764 65.6562C266.27 65.7359 265.818 65.7727 265.406 65.7727V69.7727ZM267.451 69.5964C268.066 69.481 268.568 69.3776 268.931 69.2869L267.961 65.4063C267.718 65.4671 267.311 65.553 266.714 65.6649L267.451 69.5964ZM266.489 67.7569L268.591 77.7853L272.506 76.9647L270.403 66.9362L266.489 67.7569ZM269.999 75.452C269.382 75.6282 268.481 75.8564 267.279 76.138L268.192 80.0325C269.415 79.7459 270.389 79.5006 271.098 79.298L269.999 75.452ZM267.273 76.1396C266.236 76.3863 264.938 76.5551 263.355 76.6271L263.537 80.6229C265.288 80.5434 266.849 80.3523 268.199 80.0308L267.273 76.1396ZM263.353 76.6272C260.294 76.7694 257.795 76.4068 255.792 75.6255L254.338 79.3518C256.995 80.3886 260.083 80.7836 263.539 80.6228L263.353 76.6272ZM255.811 75.6327C253.858 74.8483 252.433 73.6693 251.444 72.1031L248.061 74.2378C249.535 76.5731 251.652 78.2729 254.32 79.3445L255.811 75.6327ZM251.452 72.1149C250.491 70.5694 249.957 68.519 249.991 65.8381L245.992 65.7869C245.95 69.0151 246.59 71.87 248.054 74.226L251.452 72.1149ZM249.991 65.8125V23.9091H245.991V65.8125H249.991ZM273.641 78H271.641V80H273.641V78ZM273.641 34.3636V32.3636H271.641V34.3636H273.641ZM287.533 34.3636H289.533V32.3636H287.533V34.3636ZM287.533 78V80H289.533V78H287.533ZM275.573 27.3466L274.209 28.8094L274.214 28.8143L274.219 28.8192L275.573 27.3466ZM275.573 17.9716L276.926 19.4442L276.931 19.4393L276.937 19.4344L275.573 17.9716ZM285.63 17.9716L284.256 19.4251L284.266 19.4347L284.276 19.4442L285.63 17.9716ZM285.63 27.3466L286.993 28.81L286.993 28.8094L285.63 27.3466ZM275.641 78V34.3636H271.641V78H275.641ZM273.641 36.3636H287.533V32.3636H273.641V36.3636ZM285.533 34.3636V78H289.533V34.3636H285.533ZM287.533 76H273.641V80H287.533V76ZM280.601 27.2784C279.138 27.2784 277.948 26.8135 276.926 25.8739L274.219 28.8192C276 30.4555 278.163 31.2784 280.601 31.2784V27.2784ZM276.937 25.8838C275.921 24.9369 275.47 23.8867 275.47 22.6307H271.47C271.47 25.0489 272.421 27.1426 274.209 28.8094L276.937 25.8838ZM275.47 22.6307C275.47 21.4012 275.915 20.3734 276.926 19.4442L274.219 16.4989C272.428 18.1455 271.47 20.2238 271.47 22.6307H275.47ZM276.937 19.4344C277.961 18.4796 279.147 18.0114 280.601 18.0114V14.0114C278.154 14.0114 275.988 14.8499 274.209 16.5088L276.937 19.4344ZM280.601 18.0114C282.08 18.0114 283.259 18.4827 284.256 19.4251L287.003 16.5181C285.235 14.8468 283.062 14.0114 280.601 14.0114V18.0114ZM284.276 19.4442C285.287 20.3734 285.732 21.4012 285.732 22.6307H289.732C289.732 20.2238 288.775 18.1455 286.983 16.4989L284.276 19.4442ZM285.732 22.6307C285.732 23.8867 285.281 24.9369 284.266 25.8838L286.993 28.8094C288.781 27.1426 289.732 25.0489 289.732 22.6307H285.732ZM284.266 25.8831C283.271 26.8104 282.089 27.2784 280.601 27.2784V31.2784C283.053 31.2784 285.223 30.4586 286.993 28.81L284.266 25.8831ZM301.726 76.0114L300.726 77.7429L300.737 77.7497L301.726 76.0114ZM294.141 68.1136L292.366 69.0357L292.373 69.0476L294.141 68.1136ZM294.141 44.5341L292.371 43.6042L292.369 43.6079L294.141 44.5341ZM301.726 36.6364L302.72 38.3722L302.723 38.3704L301.726 36.6364ZM325.334 36.6364L324.333 38.3679L324.345 38.3747L325.334 36.6364ZM332.92 44.5341L331.145 45.4562L331.151 45.468L332.92 44.5341ZM332.92 68.1136L331.149 67.1838L331.147 67.1875L332.92 68.1136ZM325.334 76.0114L326.328 77.7472L326.331 77.7454L325.334 76.0114ZM317.863 66.8068L316.537 65.3093L317.863 66.8068ZM320.505 62.5455L318.613 61.8953L318.61 61.9041L318.607 61.913L320.505 62.5455ZM320.505 49.875L318.607 50.5075L318.61 50.5163L318.613 50.5252L320.505 49.875ZM317.863 45.6136L319.188 44.1161L317.863 45.6136ZM309.255 45.6136L307.953 44.0951L307.947 44.1003L307.941 44.1055L309.255 45.6136ZM306.556 49.875L304.665 49.2248L304.662 49.2337L304.659 49.2425L306.556 49.875ZM306.556 62.5455L304.659 63.1779L304.662 63.1868L304.665 63.1956L306.556 62.5455ZM309.255 66.8068L307.941 68.315L307.947 68.3202L307.953 68.3253L309.255 66.8068ZM313.545 76.8239C309.236 76.8239 305.652 75.944 302.715 74.273L300.737 77.7497C304.391 79.8287 308.687 80.8239 313.545 80.8239V76.8239ZM302.727 74.2798C299.779 72.5757 297.516 70.2207 295.91 67.1797L292.373 69.0476C294.327 72.749 297.121 75.6592 300.726 77.7429L302.727 74.2798ZM295.916 67.1916C294.326 64.131 293.499 60.5271 293.499 56.3239H289.499C289.499 61.06 290.434 65.316 292.366 69.0357L295.916 67.1916ZM293.499 56.3239C293.499 52.0998 294.327 48.4983 295.914 45.4602L292.369 43.6079C290.433 47.3123 289.499 51.5707 289.499 56.3239H293.499ZM295.912 45.464C297.518 42.4059 299.779 40.0552 302.72 38.3722L300.733 34.9005C297.121 36.9675 294.325 39.882 292.371 43.6042L295.912 45.464ZM302.723 38.3704C305.658 36.6834 309.239 35.7955 313.545 35.7955V31.7955C308.683 31.7955 304.385 32.8015 300.73 34.9023L302.723 38.3704ZM313.545 35.7955C317.851 35.7955 321.419 36.6835 324.333 38.3679L326.335 34.9048C322.696 32.8013 318.405 31.7955 313.545 31.7955V35.7955ZM324.345 38.3747C327.303 40.0575 329.56 42.4054 331.145 45.4562L334.694 43.612C332.757 39.8825 329.957 36.9652 326.323 34.898L324.345 38.3747ZM331.151 45.468C332.755 48.5044 333.59 52.103 333.59 56.3239H337.59C337.59 51.5674 336.645 47.3062 334.688 43.6001L331.151 45.468ZM333.59 56.3239C333.59 60.5239 332.755 64.1249 331.149 67.1838L334.69 69.0435C336.645 65.3221 337.59 61.0632 337.59 56.3239H333.59ZM331.147 67.1875C329.562 70.2212 327.303 72.5734 324.338 74.2773L326.331 77.7454C329.957 75.6614 332.755 72.7485 334.692 69.0398L331.147 67.1875ZM324.341 74.2755C321.426 75.9439 317.854 76.8239 313.545 76.8239V80.8239C318.402 80.8239 322.69 79.8288 326.328 77.7472L324.341 74.2755ZM313.63 70.3409C315.742 70.3409 317.637 69.6779 319.188 68.3043L316.537 65.3093C315.778 65.9812 314.851 66.3409 313.63 66.3409V70.3409ZM319.188 68.3043C320.664 66.9984 321.712 65.2497 322.402 63.1779L318.607 61.913C318.086 63.4776 317.372 64.5698 316.537 65.3093L319.188 68.3043ZM322.396 63.1956C323.108 61.1247 323.442 58.795 323.442 56.2386H319.442C319.442 58.455 319.152 60.3298 318.613 61.8953L322.396 63.1956ZM323.442 56.2386C323.442 53.6483 323.109 51.2987 322.396 49.2248L318.613 50.5252C319.151 52.0877 319.442 53.9805 319.442 56.2386H323.442ZM322.402 49.2425C321.712 47.1707 320.664 45.4221 319.188 44.1161L316.537 47.1112C317.372 47.8506 318.086 48.9429 318.607 50.5075L322.402 49.2425ZM319.188 44.1161C317.637 42.7426 315.742 42.0795 313.63 42.0795V46.0795C314.851 46.0795 315.778 46.4393 316.537 47.1112L319.188 44.1161ZM313.63 42.0795C311.479 42.0795 309.545 42.7309 307.953 44.0951L310.556 47.1321C311.351 46.451 312.334 46.0795 313.63 46.0795V42.0795ZM307.941 44.1055C306.447 45.4069 305.377 47.1522 304.665 49.2248L308.447 50.5252C308.985 48.9615 309.714 47.8659 310.568 47.1218L307.941 44.1055ZM304.659 49.2425C303.969 51.3105 303.647 53.6537 303.647 56.2386H307.647C307.647 53.9751 307.931 52.0759 308.453 50.5075L304.659 49.2425ZM303.647 56.2386C303.647 58.7895 303.97 61.1129 304.659 63.1779L308.453 61.913C307.93 60.3417 307.647 58.4605 307.647 56.2386H303.647ZM304.665 63.1956C305.377 65.2683 306.447 67.0136 307.941 68.315L310.568 65.2987C309.714 64.5546 308.985 63.459 308.447 61.8953L304.665 63.1956ZM307.953 68.3253C309.545 69.6896 311.479 70.3409 313.63 70.3409V66.3409C312.334 66.3409 311.351 65.9695 310.556 65.2883L307.953 68.3253ZM353.399 53.1136L351.399 53.0909L351.399 53.1023V53.1136H353.399ZM353.399 78V80H355.399V78H353.399ZM339.507 78H337.507V80H339.507V78ZM339.507 34.3636V32.3636H337.507V34.3636H339.507ZM352.717 34.3636H354.717V32.3636H352.717V34.3636ZM352.717 42.375H350.717V44.375H352.717V42.375ZM353.2 42.375V44.375H354.603L355.08 43.0553L353.2 42.375ZM358.143 36.0966L359.233 37.7732L359.243 37.7669L358.143 36.0966ZM374.45 35.8693L373.404 37.5741L373.412 37.5792L373.421 37.5843L374.45 35.8693ZM379.734 41.608L377.95 42.5133L377.955 42.5216L377.959 42.5298L379.734 41.608ZM381.609 50.1875L379.609 50.1759V50.1875H381.609ZM381.609 78V80H383.609V78H381.609ZM367.717 78H365.717V80H367.717V78ZM367.717 52.9148L365.717 52.8991L365.717 52.907V52.9148H367.717ZM365.87 47.233L364.386 48.5732L364.391 48.5788L364.396 48.5844L365.87 47.233ZM356.864 46.1534L357.854 47.8918L357.863 47.8863L356.864 46.1534ZM354.308 48.8523L352.53 47.935L352.525 47.9464L352.519 47.9578L354.308 48.8523ZM351.399 53.1136V78H355.399V53.1136H351.399ZM353.399 76H339.507V80H353.399V76ZM341.507 78V34.3636H337.507V78H341.507ZM339.507 36.3636H352.717V32.3636H339.507V36.3636ZM350.717 34.3636V42.375H354.717V34.3636H350.717ZM352.717 44.375H353.2V40.375H352.717V44.375ZM355.08 43.0553C355.902 40.7844 357.277 39.0455 359.233 37.7732L357.052 34.42C354.35 36.178 352.429 38.6247 351.319 41.6947L355.08 43.0553ZM359.243 37.7669C361.198 36.4796 363.576 35.7955 366.467 35.7955V31.7955C362.918 31.7955 359.747 32.6454 357.043 34.4262L359.243 37.7669ZM366.467 35.7955C369.226 35.7955 371.512 36.4138 373.404 37.5741L375.496 34.1645C372.879 32.5597 369.844 31.7955 366.467 31.7955V35.7955ZM373.421 37.5843C375.357 38.7461 376.863 40.3719 377.95 42.5133L381.517 40.7026C380.104 37.9197 378.088 35.7198 375.479 34.1543L373.421 37.5843ZM377.959 42.5298C379.052 44.6347 379.626 47.1627 379.609 50.1759L383.609 50.1991C383.629 46.6593 382.953 43.4676 381.509 40.6861L377.959 42.5298ZM379.609 50.1875V78H383.609V50.1875H379.609ZM381.609 76H367.717V80H381.609V76ZM369.717 78V52.9148H365.717V78H369.717ZM369.717 52.9304C369.738 50.1619 369.032 47.722 367.344 45.8815L364.396 48.5844C365.209 49.4711 365.733 50.8192 365.717 52.8991L369.717 52.9304ZM367.355 45.8927C365.67 44.0271 363.37 43.1875 360.728 43.1875V47.1875C362.48 47.1875 363.608 47.7116 364.386 48.5732L367.355 45.8927ZM360.728 43.1875C358.966 43.1875 357.325 43.5797 355.866 44.4205L357.863 47.8863C358.639 47.4393 359.574 47.1875 360.728 47.1875V43.1875ZM355.875 44.4151C354.424 45.2406 353.306 46.433 352.53 47.935L356.085 49.7696C356.522 48.923 357.108 48.3162 357.854 47.8917L355.875 44.4151ZM352.519 47.9578C351.765 49.4658 351.42 51.2006 351.399 53.0909L355.398 53.1364C355.415 51.6933 355.676 50.5872 356.097 49.7467L352.519 47.9578ZM391.896 77.3466L391.087 79.1755L391.096 79.1798L391.106 79.184L391.896 77.3466ZM386.811 73.0852L385.129 74.1676L385.135 74.1773L385.142 74.1869L386.811 73.0852ZM386.243 59.7614L384.462 58.8508L386.243 59.7614ZM389.765 55.6989L390.908 57.3402L389.765 55.6989ZM394.936 53.3409L395.46 55.2709L395.469 55.2685L395.478 55.2661L394.936 53.3409ZM401.186 52.233L401.356 54.2257L401.368 54.2246L401.186 52.233ZM407.18 51.5227L407.501 53.4968L407.513 53.4949L407.525 53.4928L407.18 51.5227ZM410.476 50.4148L411.616 52.0575L411.625 52.0512L410.476 50.4148ZM410.021 44.8182L411.263 43.2507L410.021 44.8182ZM401.527 44.8182L400.367 43.1888V43.1889L401.527 44.8182ZM399.396 48.1136L399.325 50.1124L400.997 50.1717L401.351 48.5363L399.396 48.1136ZM386.584 47.6591L384.604 47.3762L384.289 49.5789L386.513 49.6578L386.584 47.6591ZM389.51 40.5568L387.915 39.3499L387.913 39.3522L389.51 40.5568ZM396.044 35.6136L396.836 37.45L396.842 37.4474L396.044 35.6136ZM413.771 34.7898L413.228 36.7146L413.235 36.7166L413.242 36.7186L413.771 34.7898ZM419.907 37.6307L418.742 39.2558L418.747 39.26L418.753 39.2641L419.907 37.6307ZM423.941 42.1761L422.172 43.1076L422.175 43.1149L422.179 43.1221L423.941 42.1761ZM425.39 78V80H427.39V78H425.39ZM412.322 78H410.322V80H412.322V78ZM412.322 71.9205H414.322V69.9205H412.322V71.9205ZM411.981 71.9205V69.9205H410.773L410.211 70.9899L411.981 71.9205ZM408.998 75.6705L407.709 74.1419L407.703 74.1469L407.697 74.1519L408.998 75.6705ZM404.765 77.9716L404.166 76.0634L404.16 76.0654L404.765 77.9716ZM407.635 68.7386L406.74 66.9497L406.729 66.9555L407.635 68.7386ZM410.532 66.2386L412.187 67.3616L412.192 67.3549L412.197 67.348L410.532 66.2386ZM411.612 58.3409H413.612V55.0355L410.684 56.5692L411.612 58.3409ZM410.163 58.9091L409.588 56.9934L409.579 56.9962L409.57 56.999L410.163 58.9091ZM406.299 59.7898L406.62 61.764L406.299 59.7898ZM404.282 60.1023L403.991 58.1236L403.979 58.1253L403.968 58.1272L404.282 60.1023ZM400.93 61.0682L400.08 59.2577L400.073 59.2611L400.066 59.2645L400.93 61.0682ZM398.828 62.7727L397.191 61.6228L397.185 61.6319L398.828 62.7727ZM399.652 68.5114L398.461 70.1185L398.468 70.1237L398.475 70.1288L399.652 68.5114ZM399.311 76.7386C396.749 76.7386 394.554 76.312 392.686 75.5091L391.106 79.184C393.557 80.2372 396.305 80.7386 399.311 80.7386V76.7386ZM392.705 75.5176C390.904 74.7206 389.512 73.5473 388.48 71.9835L385.142 74.1869C386.61 76.4111 388.608 78.0787 391.087 79.1755L392.705 75.5176ZM388.493 72.0029C387.518 70.4885 386.964 68.494 386.964 65.8977H382.964C382.964 69.059 383.641 71.8562 385.129 74.1676L388.493 72.0029ZM386.964 65.8977C386.964 63.6997 387.351 61.986 388.023 60.6719L384.462 58.8508C383.429 60.8701 382.964 63.2472 382.964 65.8977H386.964ZM388.023 60.6719C388.73 59.2894 389.689 58.1892 390.908 57.3402L388.623 54.0575C386.85 55.2919 385.46 56.9 384.462 58.8508L388.023 60.6719ZM390.908 57.3402C392.197 56.4429 393.707 55.7476 395.46 55.2709L394.411 51.4109C392.263 51.9948 390.326 52.8715 388.623 54.0575L390.908 57.3402ZM395.478 55.2661C397.296 54.7541 399.254 54.4054 401.356 54.2257L401.016 50.2402C398.686 50.4393 396.477 50.8292 394.394 51.4158L395.478 55.2661ZM401.368 54.2246C403.871 53.9954 405.921 53.7536 407.501 53.4968L406.859 49.5486C405.409 49.7842 403.463 50.016 401.003 50.2413L401.368 54.2246ZM407.525 53.4928C409.123 53.2132 410.571 52.7837 411.616 52.0575L409.335 48.772C409.017 48.9928 408.268 49.302 406.835 49.5527L407.525 53.4928ZM411.625 52.0512C412.884 51.1671 413.527 49.852 413.527 48.3409H409.527C409.527 48.5187 409.493 48.5964 409.48 48.6228C409.468 48.6463 409.437 48.7004 409.326 48.7784L411.625 52.0512ZM413.527 48.3409V48.1989H409.527V48.3409H413.527ZM413.527 48.1989C413.527 46.2255 412.816 44.4813 411.263 43.2507L408.779 46.3857C409.234 46.746 409.527 47.2555 409.527 48.1989H413.527ZM411.263 43.2507C409.804 42.0947 407.965 41.625 405.959 41.625V45.625C407.361 45.625 408.23 45.9507 408.779 46.3857L411.263 43.2507ZM405.959 41.625C403.845 41.625 401.921 42.0826 400.367 43.1888L402.687 46.4475C403.367 45.9629 404.398 45.625 405.959 45.625V41.625ZM400.367 43.1889C398.824 44.2875 397.844 45.8265 397.441 47.691L401.351 48.5363C401.554 47.5977 401.995 46.9398 402.687 46.4475L400.367 43.1889ZM399.467 46.1149L386.654 45.6603L386.513 49.6578L399.325 50.1124L399.467 46.1149ZM388.563 47.9419C388.896 45.616 389.743 43.5676 391.106 41.7615L387.913 39.3522C386.132 41.7127 385.029 44.3992 384.604 47.3762L388.563 47.9419ZM391.104 41.7637C392.459 39.9743 394.343 38.526 396.836 37.45L395.251 33.7773C392.215 35.0877 389.743 36.9348 387.915 39.3499L391.104 41.7637ZM396.842 37.4474C399.314 36.3714 402.37 35.7955 406.072 35.7955V31.7955C401.971 31.7955 398.342 32.4316 395.245 33.7799L396.842 37.4474ZM406.072 35.7955C408.698 35.7955 411.079 36.108 413.228 36.7146L414.314 32.865C411.766 32.1458 409.015 31.7955 406.072 31.7955V35.7955ZM413.242 36.7186C415.393 37.3082 417.216 38.1614 418.742 39.2558L421.073 36.0056C419.114 34.6 416.846 33.5592 414.3 32.861L413.242 36.7186ZM418.753 39.2641C420.251 40.3223 421.379 41.6015 422.172 43.1076L425.711 41.2446C424.61 39.1523 423.049 37.4012 421.061 35.9972L418.753 39.2641ZM422.179 43.1221C422.97 44.5941 423.39 46.3165 423.39 48.3409H427.39C427.39 45.7441 426.845 43.3567 425.704 41.2302L422.179 43.1221ZM423.39 48.3409V78H427.39V48.3409H423.39ZM425.39 76H412.322V80H425.39V76ZM414.322 78V71.9205H410.322V78H414.322ZM412.322 69.9205H411.981V73.9205H412.322V69.9205ZM410.211 70.9899C409.548 72.2508 408.713 73.2942 407.709 74.1419L410.288 77.199C411.708 76.0012 412.861 74.5446 413.752 72.851L410.211 70.9899ZM407.697 74.1519C406.726 74.9839 405.559 75.626 404.166 76.0634L405.364 79.8798C407.229 79.2944 408.884 78.4025 410.3 77.189L407.697 74.1519ZM404.16 76.0654C402.78 76.5036 401.172 76.7386 399.311 76.7386V80.7386C401.503 80.7386 403.531 80.4623 405.371 79.8777L404.16 76.0654ZM403.601 71.6477C405.374 71.6477 407.035 71.2865 408.54 70.5218L406.729 66.9555C405.848 67.4029 404.82 67.6477 403.601 67.6477V71.6477ZM408.529 70.5275C410.029 69.7774 411.264 68.722 412.187 67.3616L408.877 65.1156C408.361 65.8765 407.664 66.4878 406.74 66.9498L408.529 70.5275ZM412.197 67.348C413.156 65.9089 413.612 64.2649 413.612 62.4886H409.612C409.612 63.5533 409.348 64.4093 408.868 65.1292L412.197 67.348ZM413.612 62.4886V58.3409H409.612V62.4886H413.612ZM410.684 56.5692C410.428 56.7031 410.071 56.8487 409.588 56.9934L410.738 60.8247C411.392 60.6286 412 60.3954 412.54 60.1126L410.684 56.5692ZM409.57 56.999C409.077 57.1519 408.521 57.3002 407.899 57.4423L408.791 61.3418C409.494 61.1809 410.15 61.0071 410.756 60.8192L409.57 56.999ZM407.899 57.4423C407.28 57.5839 406.64 57.7085 405.979 57.8156L406.62 61.764C407.361 61.6438 408.084 61.5032 408.791 61.3418L407.899 57.4423ZM405.979 57.8156C405.287 57.9278 404.625 58.0304 403.991 58.1236L404.573 62.081C405.228 61.9847 405.91 61.8791 406.62 61.764L405.979 57.8156ZM403.968 58.1272C402.526 58.357 401.219 58.7232 400.08 59.2577L401.78 62.8787C402.497 62.5419 403.425 62.2642 404.597 62.0773L403.968 58.1272ZM400.066 59.2645C398.903 59.822 397.913 60.5956 397.191 61.6228L400.464 63.9226C400.727 63.5483 401.139 63.1856 401.794 62.8718L400.066 59.2645ZM397.185 61.6319C396.447 62.6944 396.118 63.9206 396.118 65.2159H400.118C400.118 64.6173 400.261 64.2147 400.471 63.9135L397.185 61.6319ZM396.118 65.2159C396.118 67.1938 396.857 68.9304 398.461 70.1185L400.842 66.9043C400.401 66.5772 400.118 66.1168 400.118 65.2159H396.118ZM398.475 70.1288C399.932 71.1885 401.688 71.6477 403.601 71.6477V67.6477C402.331 67.6477 401.454 67.3494 400.828 66.8939L398.475 70.1288ZM444.577 19.8182H446.577V17.8182H444.577V19.8182ZM444.577 78V80H446.577V78H444.577ZM430.685 78H428.685V80H430.685V78ZM430.685 19.8182V17.8182H428.685V19.8182H430.685ZM442.577 19.8182V78H446.577V19.8182H442.577ZM444.577 76H430.685V80H444.577V76ZM432.685 78V19.8182H428.685V78H432.685ZM430.685 21.8182H444.577V17.8182H430.685V21.8182Z" fill="#D32C3D" mask="url(#path-1-outside-1_877_2094)"/>
<mask id="path-3-outside-2_877_2094" maskUnits="userSpaceOnUse" x="466" y="15" width="236" height="66" fill="black">
<rect fill="white" x="466" y="15" width="236" height="66"/>
<path d="M524.318 48.9091C524.318 55.3106 523.087 60.7367 520.625 65.1875C518.163 69.6383 514.83 73.0189 510.625 75.3295C506.439 77.6402 501.742 78.7955 496.534 78.7955C491.307 78.7955 486.6 77.6307 482.415 75.3011C478.229 72.9716 474.905 69.5909 472.443 65.1591C470 60.7083 468.778 55.2917 468.778 48.9091C468.778 42.5076 470 37.0814 472.443 32.6307C474.905 28.1799 478.229 24.7992 482.415 22.4886C486.6 20.178 491.307 19.0227 496.534 19.0227C501.742 19.0227 506.439 20.178 510.625 22.4886C514.83 24.7992 518.163 28.1799 520.625 32.6307C523.087 37.0814 524.318 42.5076 524.318 48.9091ZM509.943 48.9091C509.943 45.1212 509.403 41.9205 508.324 39.3068C507.263 36.6932 505.729 34.714 503.722 33.3693C501.733 32.0246 499.337 31.3523 496.534 31.3523C493.75 31.3523 491.354 32.0246 489.347 33.3693C487.339 34.714 485.795 36.6932 484.716 39.3068C483.655 41.9205 483.125 45.1212 483.125 48.9091C483.125 52.697 483.655 55.8977 484.716 58.5114C485.795 61.125 487.339 63.1042 489.347 64.4489C491.354 65.7936 493.75 66.4659 496.534 66.4659C499.337 66.4659 501.733 65.7936 503.722 64.4489C505.729 63.1042 507.263 61.125 508.324 58.5114C509.403 55.8977 509.943 52.697 509.943 48.9091ZM554.13 34.3636V44.5909H526.061V34.3636H554.13ZM531.914 78V32.1477C531.914 28.7765 532.548 25.983 533.817 23.767C535.086 21.5322 536.847 19.8655 539.101 18.767C541.355 17.6496 543.959 17.0909 546.914 17.0909C548.845 17.0909 550.664 17.2424 552.368 17.5455C554.092 17.8295 555.37 18.0852 556.203 18.3125L553.987 28.483C553.476 28.3125 552.851 28.1705 552.112 28.0568C551.393 27.9432 550.711 27.8864 550.067 27.8864C548.438 27.8864 547.321 28.2462 546.715 28.9659C546.109 29.6856 545.806 30.6705 545.806 31.9205V78H531.914ZM582.414 34.3636V44.5909H554.346V34.3636H582.414ZM560.198 78V32.1477C560.198 28.7765 560.832 25.983 562.101 23.767C563.37 21.5322 565.132 19.8655 567.386 18.767C569.639 17.6496 572.243 17.0909 575.198 17.0909C577.13 17.0909 578.948 17.2424 580.653 17.5455C582.376 17.8295 583.654 18.0852 584.488 18.3125L582.272 28.483C581.761 28.3125 581.136 28.1705 580.397 28.0568C579.677 27.9432 578.995 27.8864 578.351 27.8864C576.723 27.8864 575.605 28.2462 574.999 28.9659C574.393 29.6856 574.09 30.6705 574.09 31.9205V78H560.198ZM604.889 78.8239C600.324 78.8239 596.385 77.9242 593.07 76.125C589.775 74.3068 587.237 71.7216 585.457 68.3693C583.695 64.9981 582.815 60.9924 582.815 56.3523C582.815 51.8447 583.705 47.9053 585.485 44.5341C587.266 41.1439 589.775 38.5114 593.014 36.6364C596.252 34.7424 600.069 33.7955 604.463 33.7955C607.569 33.7955 610.409 34.2784 612.985 35.2443C615.561 36.2102 617.786 37.6402 619.661 39.5341C621.536 41.428 622.995 43.767 624.036 46.5511C625.078 49.3163 625.599 52.4886 625.599 56.0682V59.5341H587.673V51.4659H612.673C612.654 49.9886 612.303 48.6723 611.622 47.517C610.94 46.3617 610.002 45.4621 608.809 44.8182C607.635 44.1553 606.281 43.8239 604.747 43.8239C603.194 43.8239 601.802 44.1742 600.57 44.875C599.339 45.5568 598.364 46.4943 597.644 47.6875C596.925 48.8617 596.546 50.197 596.508 51.6932V59.9034C596.508 61.6837 596.858 63.2462 597.559 64.5909C598.26 65.9167 599.254 66.9489 600.542 67.6875C601.83 68.4261 603.364 68.7955 605.144 68.7955C606.375 68.7955 607.493 68.625 608.497 68.2841C609.5 67.9432 610.362 67.4413 611.082 66.7784C611.802 66.1155 612.341 65.3011 612.701 64.3352L625.457 64.7045C624.927 67.5644 623.762 70.0549 621.963 72.1761C620.182 74.2784 617.843 75.9167 614.945 77.0909C612.048 78.2462 608.695 78.8239 604.889 78.8239ZM629.494 78V34.3636H642.988V42.3182H643.443C644.238 39.4394 645.536 37.2992 647.335 35.8977C649.134 34.4773 651.227 33.767 653.613 33.767C654.257 33.767 654.92 33.8144 655.602 33.9091C656.284 33.9848 656.918 34.108 657.505 34.2784V46.3523C656.843 46.125 655.971 45.9451 654.892 45.8125C653.831 45.6799 652.884 45.6136 652.051 45.6136C650.403 45.6136 648.916 45.983 647.591 46.7216C646.284 47.4413 645.252 48.4545 644.494 49.7614C643.755 51.0492 643.386 52.5644 643.386 54.3068V78H629.494ZM698.062 47.6875L685.307 48.0284C685.174 47.1193 684.814 46.3144 684.227 45.6136C683.64 44.8939 682.873 44.3352 681.926 43.9375C680.998 43.5208 679.919 43.3125 678.688 43.3125C677.078 43.3125 675.705 43.6345 674.568 44.2784C673.451 44.9223 672.902 45.7936 672.92 46.892C672.902 47.7443 673.242 48.483 673.943 49.108C674.663 49.733 675.941 50.2348 677.778 50.6136L686.188 52.2045C690.544 53.0379 693.782 54.4205 695.903 56.3523C698.044 58.2841 699.123 60.8409 699.142 64.0227C699.123 67.0152 698.233 69.6193 696.472 71.8352C694.729 74.0511 692.343 75.7746 689.312 77.0057C686.282 78.2178 682.816 78.8239 678.915 78.8239C672.684 78.8239 667.769 77.5455 664.17 74.9886C660.591 72.4129 658.545 68.9659 658.034 64.6477L671.756 64.3068C672.059 65.8977 672.845 67.1098 674.114 67.9432C675.383 68.7765 677.002 69.1932 678.972 69.1932C680.752 69.1932 682.201 68.8617 683.318 68.1989C684.436 67.536 685.004 66.6553 685.023 65.5568C685.004 64.572 684.568 63.786 683.716 63.1989C682.864 62.5928 681.528 62.1193 679.71 61.7784L672.097 60.3295C667.722 59.5341 664.464 58.0663 662.324 55.9261C660.184 53.767 659.123 51.0208 659.142 47.6875C659.123 44.7708 659.9 42.2803 661.472 40.2159C663.044 38.1326 665.278 36.5417 668.176 35.4432C671.074 34.3447 674.492 33.7955 678.432 33.7955C684.341 33.7955 689 35.036 692.409 37.517C695.818 39.9792 697.703 43.3693 698.062 47.6875Z"/>
</mask>
<path d="M520.625 65.1875L518.875 64.2194L520.625 65.1875ZM510.625 75.3295L509.662 73.5768L509.658 73.5786L510.625 75.3295ZM482.415 75.3011L483.387 73.5536L482.415 75.3011ZM472.443 65.1591L470.69 66.1215L470.695 66.1304L472.443 65.1591ZM472.443 32.6307L470.693 31.6626L470.69 31.6683L472.443 32.6307ZM482.415 22.4886L483.381 24.2396L482.415 22.4886ZM510.625 22.4886L509.658 24.2396L509.662 24.2414L510.625 22.4886ZM520.625 32.6307L518.875 33.5988L520.625 32.6307ZM508.324 39.3068L506.471 40.0589L506.475 40.0703L508.324 39.3068ZM503.722 33.3693L502.601 35.0261L502.609 35.031L503.722 33.3693ZM489.347 33.3693L490.46 35.031V35.031L489.347 33.3693ZM484.716 39.3068L482.867 38.5433L482.863 38.5548L484.716 39.3068ZM484.716 58.5114L482.863 59.2634L482.867 59.2749L484.716 58.5114ZM489.347 64.4489L490.46 62.7872L489.347 64.4489ZM503.722 64.4489L502.609 62.7872L502.601 62.7921L503.722 64.4489ZM508.324 58.5114L506.475 57.7478L506.471 57.7593L508.324 58.5114ZM522.318 48.9091C522.318 55.058 521.136 60.1321 518.875 64.2194L522.375 66.1556C525.038 61.3414 526.318 55.5633 526.318 48.9091H522.318ZM518.875 64.2194C516.584 68.3603 513.515 71.4593 509.662 73.5768L511.588 77.0823C516.144 74.5786 519.742 70.9162 522.375 66.1556L518.875 64.2194ZM509.658 73.5786C505.795 75.7115 501.435 76.7955 496.534 76.7955V80.7955C502.049 80.7955 507.084 79.5688 511.592 77.0805L509.658 73.5786ZM496.534 76.7955C491.615 76.7955 487.249 75.7027 483.387 73.5536L481.442 77.0487C485.952 79.5586 490.998 80.7955 496.534 80.7955V76.7955ZM483.387 73.5536C479.547 71.4162 476.484 68.3135 474.191 64.1878L470.695 66.1304C473.327 70.8683 476.911 74.527 481.442 77.0487L483.387 73.5536ZM474.196 64.1967C471.952 60.1073 470.778 55.0402 470.778 48.9091H466.778C466.778 55.5432 468.048 61.3094 470.69 66.1215L474.196 64.1967ZM470.778 48.9091C470.778 42.7579 471.952 37.6817 474.196 33.5931L470.69 31.6683C468.048 36.4812 466.778 42.2572 466.778 48.9091H470.778ZM474.193 33.5988C476.485 29.4555 479.547 26.3564 483.381 24.2396L481.448 20.7377C476.912 23.2421 473.325 26.9043 470.693 31.6626L474.193 33.5988ZM483.381 24.2396C487.244 22.1073 491.613 21.0227 496.534 21.0227V17.0227C491.001 17.0227 485.957 18.2488 481.448 20.7377L483.381 24.2396ZM496.534 21.0227C501.435 21.0227 505.795 22.1067 509.658 24.2396L511.592 20.7377C507.084 18.2494 502.049 17.0227 496.534 17.0227V21.0227ZM509.662 24.2414C513.515 26.3589 516.584 29.4578 518.875 33.5988L522.375 31.6626C519.742 26.902 516.144 23.2396 511.588 20.7359L509.662 24.2414ZM518.875 33.5988C521.136 37.6861 522.318 42.7602 522.318 48.9091H526.318C526.318 42.2549 525.038 36.4768 522.375 31.6626L518.875 33.5988ZM511.943 48.9091C511.943 44.9432 511.38 41.4661 510.172 38.5433L506.475 40.0703C507.427 42.3748 507.943 45.2993 507.943 48.9091H511.943ZM510.177 38.5548C508.992 35.6343 507.227 33.3101 504.835 31.7076L502.609 35.031C504.231 36.1179 505.535 37.752 506.471 40.0588L510.177 38.5548ZM504.842 31.7125C502.47 30.1086 499.668 29.3523 496.534 29.3523V33.3523C499.006 33.3523 500.996 33.9407 502.601 35.0261L504.842 31.7125ZM496.534 29.3523C493.416 29.3523 490.618 30.1102 488.234 31.7076L490.46 35.031C492.09 33.939 494.084 33.3523 496.534 33.3523V29.3523ZM488.234 31.7076C485.845 33.3079 484.072 35.6278 482.867 38.5433L486.564 40.0703C487.519 37.7585 488.834 36.1202 490.46 35.031L488.234 31.7076ZM482.863 38.5548C481.678 41.4739 481.125 44.9467 481.125 48.9091H485.125C485.125 45.2957 485.633 42.367 486.569 40.0589L482.863 38.5548ZM481.125 48.9091C481.125 52.8715 481.678 56.3443 482.863 59.2634L486.569 57.7593C485.633 55.4512 485.125 52.5224 485.125 48.9091H481.125ZM482.867 59.2749C484.072 62.1904 485.845 64.5103 488.234 66.1105L490.46 62.7872C488.834 61.698 487.519 60.0596 486.564 57.7478L482.867 59.2749ZM488.234 66.1105C490.618 67.708 493.416 68.4659 496.534 68.4659V64.4659C494.084 64.4659 492.09 63.8792 490.46 62.7872L488.234 66.1105ZM496.534 68.4659C499.668 68.4659 502.47 67.7096 504.842 66.1056L502.601 62.7921C500.996 63.8775 499.006 64.4659 496.534 64.4659V68.4659ZM504.835 66.1105C507.227 64.5081 508.992 62.1839 510.177 59.2634L506.471 57.7593C505.535 60.0661 504.231 61.7002 502.609 62.7872L504.835 66.1105ZM510.172 59.2749C511.38 56.3521 511.943 52.875 511.943 48.9091H507.943C507.943 52.5189 507.427 55.4434 506.475 57.7478L510.172 59.2749ZM554.13 34.3636H556.13V32.3636H554.13V34.3636ZM554.13 44.5909V46.5909H556.13V44.5909H554.13ZM526.061 44.5909H524.061V46.5909H526.061V44.5909ZM526.061 34.3636V32.3636H524.061V34.3636H526.061ZM531.914 78H529.914V80H531.914V78ZM533.817 23.767L535.553 24.7609L535.556 24.7546L533.817 23.767ZM539.101 18.767L539.977 20.5649L539.99 20.5589L539.101 18.767ZM552.368 17.5455L552.018 19.5146L552.03 19.5168L552.043 19.5188L552.368 17.5455ZM556.203 18.3125L558.158 18.7383L558.562 16.8827L556.73 16.383L556.203 18.3125ZM553.988 28.483L553.355 30.3803L555.468 31.0845L555.942 28.9087L553.988 28.483ZM552.113 28.0568L551.801 30.0324L551.808 30.0336L552.113 28.0568ZM546.715 28.9659L548.245 30.2542L548.245 30.2542L546.715 28.9659ZM545.806 78V80H547.806V78H545.806ZM552.13 34.3636V44.5909H556.13V34.3636H552.13ZM554.13 42.5909H526.061V46.5909H554.13V42.5909ZM528.061 44.5909V34.3636H524.061V44.5909H528.061ZM526.061 36.3636H554.13V32.3636H526.061V36.3636ZM533.914 78V32.1477H529.914V78H533.914ZM533.914 32.1477C533.914 29.017 534.504 26.5924 535.553 24.7609L532.081 22.7732C530.592 25.3735 529.914 28.5361 529.914 32.1477H533.914ZM535.556 24.7546C536.631 22.8614 538.096 21.4819 539.977 20.5649L538.225 16.9692C535.599 18.2492 533.541 20.203 532.078 22.7795L535.556 24.7546ZM539.99 20.5589C541.923 19.6003 544.214 19.0909 546.914 19.0909V15.0909C543.704 15.0909 540.787 15.6989 538.213 16.9752L539.99 20.5589ZM546.914 19.0909C548.741 19.0909 550.442 19.2343 552.018 19.5146L552.718 15.5763C550.886 15.2506 548.95 15.0909 546.914 15.0909V19.0909ZM552.043 19.5188C553.752 19.8006 554.947 20.043 555.677 20.242L556.73 16.383C555.793 16.1275 554.431 15.8585 552.693 15.5721L552.043 19.5188ZM554.249 17.8867L552.033 28.0572L555.942 28.9087L558.158 18.7383L554.249 17.8867ZM554.62 26.5856C553.97 26.3688 553.228 26.2048 552.417 26.0801L551.808 30.0336C552.475 30.1361 552.983 30.2562 553.355 30.3803L554.62 26.5856ZM552.424 26.0813C551.615 25.9534 550.828 25.8864 550.067 25.8864V29.8864C550.594 29.8864 551.171 29.9329 551.801 30.0323L552.424 26.0813ZM550.067 25.8864C548.26 25.8864 546.374 26.2657 545.185 27.6776L548.245 30.2542C548.268 30.2267 548.616 29.8864 550.067 29.8864V25.8864ZM545.185 27.6776C544.188 28.8617 543.806 30.3553 543.806 31.9205H547.806C547.806 30.9856 548.03 30.5095 548.245 30.2542L545.185 27.6776ZM543.806 31.9205V78H547.806V31.9205H543.806ZM545.806 76H531.914V80H545.806V76ZM582.414 34.3636H584.414V32.3636H582.414V34.3636ZM582.414 44.5909V46.5909H584.414V44.5909H582.414ZM554.346 44.5909H552.346V46.5909H554.346V44.5909ZM554.346 34.3636V32.3636H552.346V34.3636H554.346ZM560.198 78H558.198V80H560.198V78ZM562.101 23.767L563.837 24.7609L563.841 24.7546L562.101 23.767ZM567.386 18.767L568.262 20.5649L568.274 20.5589L567.386 18.767ZM580.653 17.5455L580.302 19.5146L580.315 19.5168L580.327 19.5188L580.653 17.5455ZM584.488 18.3125L586.442 18.7383L586.846 16.8827L585.014 16.383L584.488 18.3125ZM582.272 28.483L581.639 30.3803L583.752 31.0845L584.226 28.9087L582.272 28.483ZM580.397 28.0568L580.085 30.0324L580.093 30.0336L580.397 28.0568ZM574.999 28.9659L576.529 30.2542V30.2542L574.999 28.9659ZM574.09 78V80H576.09V78H574.09ZM580.414 34.3636V44.5909H584.414V34.3636H580.414ZM582.414 42.5909H554.346V46.5909H582.414V42.5909ZM556.346 44.5909V34.3636H552.346V44.5909H556.346ZM554.346 36.3636H582.414V32.3636H554.346V36.3636ZM562.198 78V32.1477H558.198V78H562.198ZM562.198 32.1477C562.198 29.017 562.788 26.5924 563.837 24.7609L560.366 22.7732C558.877 25.3735 558.198 28.5361 558.198 32.1477H562.198ZM563.841 24.7546C564.916 22.8614 566.38 21.4819 568.262 20.5649L566.509 16.9692C563.883 18.2492 561.825 20.203 560.362 22.7795L563.841 24.7546ZM568.274 20.5589C570.207 19.6003 572.498 19.0909 575.198 19.0909V15.0909C571.989 15.0909 569.071 15.6989 566.497 16.9752L568.274 20.5589ZM575.198 19.0909C577.026 19.0909 578.726 19.2343 580.302 19.5146L581.003 15.5763C579.17 15.2506 577.234 15.0909 575.198 15.0909V19.0909ZM580.327 19.5188C582.037 19.8006 583.232 20.043 583.962 20.242L585.014 16.383C584.077 16.1275 582.715 15.8585 580.978 15.5721L580.327 19.5188ZM582.534 17.8867L580.318 28.0572L584.226 28.9087L586.442 18.7383L582.534 17.8867ZM582.904 26.5856C582.254 26.3688 581.512 26.2048 580.701 26.0801L580.093 30.0336C580.759 30.1361 581.267 30.2562 581.639 30.3803L582.904 26.5856ZM580.709 26.0813C579.899 25.9534 579.112 25.8864 578.351 25.8864V29.8864C578.878 29.8864 579.455 29.9329 580.085 30.0323L580.709 26.0813ZM578.351 25.8864C576.545 25.8864 574.658 26.2657 573.469 27.6776L576.529 30.2542C576.552 30.2267 576.901 29.8864 578.351 29.8864V25.8864ZM573.469 27.6776C572.472 28.8617 572.09 30.3553 572.09 31.9205H576.09C576.09 30.9856 576.314 30.5095 576.529 30.2542L573.469 27.6776ZM572.09 31.9205V78H576.09V31.9205H572.09ZM574.09 76H560.198V80H574.09V76ZM593.07 76.125L592.104 77.8762L592.116 77.8827L593.07 76.125ZM585.457 68.3693L583.684 69.2955L583.69 69.3074L585.457 68.3693ZM585.485 44.5341L587.254 45.468L587.256 45.464L585.485 44.5341ZM593.014 36.6364L594.016 38.3672L594.023 38.3628L593.014 36.6364ZM612.985 35.2443L613.687 33.3717V33.3717L612.985 35.2443ZM624.036 46.5511L622.163 47.252L622.165 47.2562L624.036 46.5511ZM625.599 59.5341V61.5341H627.599V59.5341H625.599ZM587.673 59.5341H585.673V61.5341H587.673V59.5341ZM587.673 51.4659V49.4659H585.673V51.4659H587.673ZM612.673 51.4659V53.4659H614.699L614.673 51.4403L612.673 51.4659ZM608.809 44.8182L607.826 46.5598L607.842 46.5692L607.859 46.5782L608.809 44.8182ZM600.57 44.875L601.539 46.6246L601.55 46.6189L601.56 46.6131L600.57 44.875ZM597.644 47.6875L599.35 48.7326L599.353 48.7266L599.357 48.7205L597.644 47.6875ZM596.508 51.6932L594.509 51.6426L594.508 51.6679V51.6932H596.508ZM597.559 64.5909L595.785 65.5152L595.791 65.5255L597.559 64.5909ZM600.542 67.6875L599.547 69.4224L600.542 67.6875ZM608.497 68.2841L609.14 70.1779L608.497 68.2841ZM611.082 66.7784L612.437 68.2495L611.082 66.7784ZM612.701 64.3352L612.759 62.3361L611.327 62.2946L610.827 63.637L612.701 64.3352ZM625.457 64.7045L627.423 65.0692L627.849 62.773L625.515 62.7054L625.457 64.7045ZM621.962 72.1761L620.437 70.8824L620.436 70.8836L621.962 72.1761ZM614.945 77.0909L615.686 78.9487L615.697 78.9445L614.945 77.0909ZM604.889 76.8239C600.588 76.8239 596.991 75.9773 594.025 74.3673L592.116 77.8827C595.779 79.8712 600.061 80.8239 604.889 80.8239V76.8239ZM594.037 74.3738C591.084 72.7449 588.823 70.4436 587.223 67.4313L583.69 69.3074C585.651 72.9995 588.466 75.8687 592.104 77.8762L594.037 74.3738ZM587.229 67.4432C585.647 64.4141 584.815 60.74 584.815 56.3523H580.815C580.815 61.2449 581.744 65.5821 583.684 69.2955L587.229 67.4432ZM584.815 56.3523C584.815 52.111 585.651 48.5032 587.254 45.468L583.717 43.6001C581.759 47.3074 580.815 51.5784 580.815 56.3523H584.815ZM587.256 45.464C588.865 42.3998 591.112 40.0485 594.016 38.3672L592.012 34.9055C588.438 36.9742 585.666 39.8881 583.715 43.6042L587.256 45.464ZM594.023 38.3628C596.907 36.6766 600.362 35.7955 604.462 35.7955V31.7955C599.775 31.7955 595.598 32.8082 592.004 34.9099L594.023 38.3628ZM604.462 35.7955C607.359 35.7955 609.959 36.2454 612.283 37.117L613.687 33.3717C610.86 32.3114 607.778 31.7955 604.462 31.7955V35.7955ZM612.283 37.117C614.597 37.9848 616.575 39.2592 618.24 40.9412L621.083 38.127C618.998 36.0211 616.525 34.4356 613.687 33.3717L612.283 37.117ZM618.24 40.9412C619.894 42.6122 621.209 44.7019 622.163 47.252L625.91 45.8503C624.78 42.8322 623.178 40.2438 621.083 38.127L618.24 40.9412ZM622.165 47.2562C623.106 49.7539 623.599 52.68 623.599 56.0682H627.599C627.599 52.2972 627.05 48.8786 625.908 45.8461L622.165 47.2562ZM623.599 56.0682V59.5341H627.599V56.0682H623.599ZM625.599 57.5341H587.673V61.5341H625.599V57.5341ZM589.673 59.5341V51.4659H585.673V59.5341H589.673ZM587.673 53.4659H612.673V49.4659H587.673V53.4659ZM614.673 51.4403C614.65 49.6504 614.221 47.986 613.344 46.5005L609.899 48.5336C610.386 49.3587 610.658 50.3268 610.673 51.4915L614.673 51.4403ZM613.344 46.5005C612.475 45.0282 611.269 43.873 609.759 43.0581L607.859 46.5782C608.736 47.0512 609.404 47.6953 609.899 48.5336L613.344 46.5005ZM609.792 43.0765C608.279 42.2221 606.577 41.8239 604.747 41.8239V45.8239C605.984 45.8239 606.991 46.0885 607.826 46.5598L609.792 43.0765ZM604.747 41.8239C602.881 41.8239 601.142 42.2483 599.581 43.1369L601.56 46.6131C602.461 46.1002 603.506 45.8239 604.747 45.8239V41.8239ZM599.601 43.1254C598.067 43.9751 596.834 45.1584 595.932 46.6545L599.357 48.7205C599.894 47.8303 600.612 47.1385 601.539 46.6246L599.601 43.1254ZM595.939 46.6424C595.02 48.1422 594.555 49.8262 594.509 51.6426L598.507 51.7438C598.537 50.5678 598.829 49.5813 599.35 48.7326L595.939 46.6424ZM594.508 51.6932V59.9034H598.508V51.6932H594.508ZM594.508 59.9034C594.508 61.9495 594.912 63.8393 595.785 65.5152L599.333 63.6666C598.805 62.6532 598.508 61.4179 598.508 59.9034H594.508ZM595.791 65.5255C596.667 67.1823 597.927 68.4935 599.547 69.4224L601.537 65.9526C600.581 65.4042 599.853 64.6511 599.327 63.6563L595.791 65.5255ZM599.547 69.4224C601.193 70.3664 603.084 70.7955 605.144 70.7955V66.7955C603.644 66.7955 602.467 66.4859 601.537 65.9526L599.547 69.4224ZM605.144 70.7955C606.56 70.7955 607.898 70.5994 609.14 70.1779L607.853 66.3903C607.087 66.6506 606.191 66.7955 605.144 66.7955V70.7955ZM609.14 70.1779C610.385 69.7548 611.495 69.1167 612.437 68.2495L609.727 65.3073C609.229 65.7659 608.615 66.1316 607.853 66.3903L609.14 70.1779ZM612.437 68.2495C613.4 67.362 614.112 66.278 614.575 65.0334L610.827 63.637C610.571 64.3243 610.203 64.8691 609.727 65.3073L612.437 68.2495ZM612.643 66.3344L625.399 66.7037L625.515 62.7054L612.759 62.3361L612.643 66.3344ZM623.49 64.3399C623.021 66.8732 622 69.0395 620.437 70.8824L623.488 73.4698C625.523 71.0703 626.832 68.2556 627.423 65.0692L623.49 64.3399ZM620.436 70.8836C618.892 72.7073 616.833 74.1681 614.194 75.2373L615.697 78.9445C618.853 77.6653 621.473 75.8495 623.489 73.4686L620.436 70.8836ZM614.205 75.2331C611.588 76.2763 608.496 76.8239 604.889 76.8239V80.8239C608.895 80.8239 612.507 80.2162 615.686 78.9487L614.205 75.2331ZM629.494 78H627.494V80H629.494V78ZM629.494 34.3636V32.3636H627.494V34.3636H629.494ZM642.988 34.3636H644.988V32.3636H642.988V34.3636ZM642.988 42.3182H640.988V44.3182H642.988V42.3182ZM643.443 42.3182V44.3182H644.965L645.371 42.8508L643.443 42.3182ZM647.335 35.8977L648.564 37.4756L648.574 37.4675L647.335 35.8977ZM655.602 33.9091L655.327 35.8901L655.354 35.8938L655.381 35.8969L655.602 33.9091ZM657.505 34.2784H659.505V32.7765L658.063 32.3577L657.505 34.2784ZM657.505 46.3523L656.857 48.2442L659.505 49.1523V46.3523H657.505ZM654.892 45.8125L654.644 47.7971L654.648 47.7976L654.892 45.8125ZM647.591 46.7216L648.555 48.4735L648.564 48.4687L647.591 46.7216ZM644.494 49.7614L642.764 48.7583L642.759 48.7663L644.494 49.7614ZM643.386 78V80H645.386V78H643.386ZM631.494 78V34.3636H627.494V78H631.494ZM629.494 36.3636H642.988V32.3636H629.494V36.3636ZM640.988 34.3636V42.3182H644.988V34.3636H640.988ZM642.988 44.3182H643.443V40.3182H642.988V44.3182ZM645.371 42.8508C646.087 40.2584 647.196 38.5414 648.564 37.4755L646.106 34.3199C643.876 36.057 642.39 38.6204 641.515 41.7855L645.371 42.8508ZM648.574 37.4675C650.005 36.3378 651.657 35.767 653.613 35.767V31.767C650.797 31.767 648.263 32.6168 646.096 34.328L648.574 37.4675ZM653.613 35.767C654.159 35.767 654.73 35.8072 655.327 35.8901L655.877 31.9281C655.11 31.8216 654.355 31.767 653.613 31.767V35.767ZM655.381 35.8969C655.963 35.9615 656.483 36.0642 656.948 36.1991L658.063 32.3577C657.353 32.1517 656.605 32.0082 655.823 31.9213L655.381 35.8969ZM655.505 34.2784V46.3523H659.505V34.2784H655.505ZM658.154 44.4604C657.309 44.1706 656.286 43.9687 655.136 43.8274L654.648 47.7976C655.656 47.9214 656.376 48.0794 656.857 48.2442L658.154 44.4604ZM655.14 43.8279C654.019 43.6878 652.986 43.6136 652.051 43.6136V47.6136C652.782 47.6136 653.644 47.6721 654.644 47.7971L655.14 43.8279ZM652.051 43.6136C650.092 43.6136 648.266 44.056 646.617 44.9745L648.564 48.4687C649.567 47.9099 650.714 47.6136 652.051 47.6136V43.6136ZM646.626 44.9697C644.996 45.8671 643.701 47.1411 642.764 48.7583L646.224 50.7644C646.802 49.768 647.571 49.0155 648.555 48.4735L646.626 44.9697ZM642.759 48.7663C641.819 50.406 641.386 52.2763 641.386 54.3068H645.386C645.386 52.8525 645.692 51.6925 646.229 50.7564L642.759 48.7663ZM641.386 54.3068V78H645.386V54.3068H641.386ZM643.386 76H629.494V80H643.386V76ZM698.062 47.6875L698.116 49.6868L700.231 49.6302L700.056 47.5214L698.062 47.6875ZM685.307 48.0284L683.328 48.317L683.584 50.0752L685.36 50.0277L685.307 48.0284ZM684.227 45.6136L682.678 46.8779L682.686 46.888L682.694 46.8981L684.227 45.6136ZM681.926 43.9375L681.107 45.762L681.129 45.772L681.152 45.7815L681.926 43.9375ZM674.568 44.2784L673.582 42.5384L673.576 42.5419L673.57 42.5455L674.568 44.2784ZM672.92 46.892L674.92 46.9365L674.921 46.897L674.92 46.8576L672.92 46.892ZM673.943 49.108L672.612 50.6005L672.622 50.6093L672.632 50.618L673.943 49.108ZM677.778 50.6136L677.375 52.5724L677.391 52.5757L677.407 52.5788L677.778 50.6136ZM686.188 52.2045L686.563 50.2402L686.559 50.2394L686.188 52.2045ZM695.903 56.3523L694.557 57.831L694.563 57.8369L695.903 56.3523ZM699.142 64.0227L701.142 64.0354L701.142 64.0231L701.142 64.0108L699.142 64.0227ZM696.472 71.8352L694.906 70.5907L694.899 70.599L696.472 71.8352ZM689.312 77.0057L690.055 78.8627L690.065 78.8586L689.312 77.0057ZM664.17 74.9886L663.002 76.6121L663.012 76.619L664.17 74.9886ZM658.034 64.6477L657.984 62.6483L655.79 62.7029L656.048 64.8829L658.034 64.6477ZM671.756 64.3068L673.72 63.9326L673.403 62.2653L671.706 62.3074L671.756 64.3068ZM674.114 67.9432L675.212 66.2714L674.114 67.9432ZM683.318 68.1989L682.298 66.4788L683.318 68.1989ZM685.023 65.5568L687.022 65.5913L687.023 65.5548L687.022 65.5184L685.023 65.5568ZM683.716 63.1989L682.557 64.8288L682.569 64.8374L682.581 64.8459L683.716 63.1989ZM679.71 61.7784L679.336 63.7432L679.342 63.7442L679.71 61.7784ZM672.097 60.3295L672.47 58.3648L672.462 58.3633L672.454 58.3618L672.097 60.3295ZM662.324 55.9261L660.903 57.3341L660.91 57.3403L662.324 55.9261ZM659.142 47.6875L661.142 47.6989L661.142 47.6867L661.142 47.6745L659.142 47.6875ZM661.472 40.2159L663.063 41.4276L663.068 41.4205L661.472 40.2159ZM668.176 35.4432L667.467 33.573L668.176 35.4432ZM692.409 37.517L691.232 39.1341L691.238 39.1384L692.409 37.517ZM698.009 45.6882L685.253 46.0291L685.36 50.0277L698.116 49.6868L698.009 45.6882ZM687.286 47.7398C687.1 46.4657 686.587 45.3156 685.76 44.3292L682.694 46.8981C683.042 47.3132 683.248 47.7729 683.328 48.317L687.286 47.7398ZM685.777 44.3494C684.962 43.3499 683.917 42.6044 682.701 42.0935L681.152 45.7815C681.829 46.066 682.319 46.438 682.678 46.8779L685.777 44.3494ZM682.745 42.113C681.511 41.559 680.143 41.3125 678.688 41.3125V45.3125C679.694 45.3125 680.485 45.4827 681.107 45.762L682.745 42.113ZM678.688 41.3125C676.812 41.3125 675.082 41.6887 673.582 42.5384L675.554 46.0185C676.327 45.5803 677.344 45.3125 678.688 45.3125V41.3125ZM673.57 42.5455C671.953 43.477 670.887 44.9608 670.921 46.9265L674.92 46.8576C674.916 46.6264 674.948 46.3677 675.567 46.0113L673.57 42.5455ZM670.921 46.8476C670.888 48.3492 671.524 49.6303 672.612 50.6005L675.274 47.6154C674.961 47.3356 674.915 47.1395 674.92 46.9365L670.921 46.8476ZM672.632 50.618C673.759 51.5966 675.468 52.1794 677.375 52.5724L678.182 48.6548C676.414 48.2903 675.567 47.8693 675.255 47.5979L672.632 50.618ZM677.407 52.5788L685.816 54.1697L686.559 50.2394L678.15 48.6485L677.407 52.5788ZM685.812 54.1689C689.987 54.9677 692.819 56.248 694.557 57.831L697.25 54.8736C694.746 52.5929 691.1 51.108 686.563 50.2402L685.812 54.1689ZM694.563 57.8369C696.241 59.3509 697.126 61.3498 697.142 64.0346L701.142 64.0108C701.12 60.3321 699.847 57.2173 697.244 54.8676L694.563 57.8369ZM697.142 64.0101C697.126 66.5823 696.372 68.7462 694.906 70.5907L698.037 73.0797C700.094 70.4925 701.12 67.448 701.142 64.0354L697.142 64.0101ZM694.899 70.599C693.404 72.5005 691.32 74.0313 688.56 75.1527L690.065 78.8586C693.365 77.5179 696.054 75.6018 698.044 73.0715L694.899 70.599ZM688.57 75.1487C685.817 76.2498 682.61 76.8239 678.915 76.8239V80.8239C683.022 80.8239 686.747 80.1858 690.055 78.8626L688.57 75.1487ZM678.915 76.8239C672.934 76.8239 668.475 75.594 665.329 73.3583L663.012 76.619C667.062 79.4969 672.434 80.8239 678.915 80.8239V76.8239ZM665.339 73.3652C662.207 71.1118 660.465 68.1648 660.02 64.4125L656.048 64.8829C656.626 69.767 658.975 73.714 663.002 76.612L665.339 73.3652ZM658.084 66.6471L671.805 66.3062L671.706 62.3074L657.984 62.6483L658.084 66.6471ZM669.791 64.681C670.188 66.7644 671.262 68.4629 673.016 69.6149L675.212 66.2714C674.428 65.7568 673.93 65.0311 673.72 63.9326L669.791 64.681ZM673.016 69.6149C674.695 70.7177 676.726 71.1932 678.972 71.1932V67.1932C677.277 67.1932 676.07 66.8353 675.212 66.2714L673.016 69.6149ZM678.972 71.1932C680.983 71.1932 682.818 70.8207 684.339 69.919L682.298 66.4788C681.583 66.9027 680.52 67.1932 678.972 67.1932V71.1932ZM684.339 69.919C685.925 68.9778 686.989 67.5199 687.022 65.5913L683.023 65.5223C683.018 65.7907 682.946 66.0941 682.298 66.4788L684.339 69.919ZM687.022 65.5184C686.99 63.8518 686.202 62.4827 684.851 61.5518L682.581 64.8459C682.935 65.0893 683.017 65.2922 683.023 65.5953L687.022 65.5184ZM684.875 61.569C683.67 60.712 681.995 60.172 680.079 59.8127L679.342 63.7442C681.061 64.0666 682.057 64.4736 682.557 64.8288L684.875 61.569ZM680.084 59.8137L672.47 58.3648L671.723 62.2943L679.336 63.7431L680.084 59.8137ZM672.454 58.3618C668.301 57.6067 665.485 56.2585 663.738 54.5119L660.91 57.3403C663.443 59.8741 667.142 61.4615 671.739 62.2973L672.454 58.3618ZM663.744 54.5182C662.016 52.7747 661.126 50.5573 661.142 47.6989L657.142 47.6761C657.12 51.4844 658.351 54.7594 660.903 57.3341L663.744 54.5182ZM661.142 47.6745C661.126 45.1423 661.792 43.0968 663.063 41.4276L659.88 39.0043C658.008 41.4638 657.121 44.3994 657.142 47.7005L661.142 47.6745ZM663.068 41.4205C664.373 39.6907 666.273 38.3035 668.885 37.3133L667.467 33.573C664.284 34.7799 661.714 36.5744 659.875 39.0113L663.068 41.4205ZM668.885 37.3133C671.504 36.3205 674.672 35.7955 678.432 35.7955V31.7955C674.313 31.7955 670.644 32.3689 667.467 33.573L668.885 37.3133ZM678.432 35.7955C684.083 35.7955 688.278 36.9841 691.232 39.1341L693.586 35.9C689.722 33.0879 684.599 31.7955 678.432 31.7955V35.7955ZM691.238 39.1384C694.158 41.2469 695.756 44.0969 696.069 47.8536L700.056 47.5214C699.649 42.6417 697.479 38.7114 693.58 35.8957L691.238 39.1384Z" fill="#2374F2" mask="url(#path-3-outside-2_877_2094)"/>
</svg>
