<svg width="443" height="450" viewBox="0 0 443 450" fill="none" xmlns="http://www.w3.org/2000/svg">
<rect opacity="0.05" width="443" height="450" rx="24" fill="url(#paint0_linear_1060_496)"/>
<path d="M265.354 269.099C266.36 284.963 266.23 294.082 264.564 300.469C262.831 307.115 259.414 310.876 253.296 316.382L253.256 316.419L253.218 316.458L225.971 344.839L223.734 311.278C223.735 310.979 223.736 310.843 223.746 310.747H223.745C223.765 310.721 223.802 310.674 223.869 310.6C224.01 310.443 224.209 310.244 224.528 309.925L265.354 269.099Z" stroke="url(#paint1_linear_1060_496)" stroke-width="3"/>
<path d="M144.299 181.438C150.685 179.771 159.805 179.641 175.669 180.647L134.844 221.474C134.524 221.793 134.325 221.991 134.169 222.132C134.095 222.199 134.047 222.235 134.021 222.255V222.256C133.924 222.265 133.788 222.266 133.488 222.267L99.9287 220.029L128.311 192.784L128.35 192.746L128.387 192.705C133.892 186.588 137.653 183.171 144.299 181.438Z" stroke="url(#paint2_linear_1060_496)" stroke-width="3"/>
<path d="M241.848 137.208C263.72 112.906 295.319 100.738 328.169 103.167L340.513 104.29C341.071 109.29 341.595 117.229 341.595 125.567C341.595 134.636 340.976 144.028 339.181 150.609L339.179 150.617C334.305 168.893 325.211 186.283 311.822 200.892L311.813 200.9C311.808 200.907 311.799 200.916 311.787 200.929C311.764 200.953 311.73 200.99 311.686 201.038C311.596 201.134 311.465 201.274 311.3 201.449C310.97 201.801 310.504 202.295 309.962 202.866C308.876 204.01 307.488 205.454 306.269 206.674L217.473 295.471C217.201 295.742 216.693 295.956 216.066 295.956C215.44 295.956 214.933 295.742 214.661 295.471L214.656 295.465L214.65 295.46L150.521 232.562C150.254 232.288 150.045 231.786 150.045 231.167C150.045 230.54 150.259 230.033 150.53 229.762L150.538 229.754L238.101 140.958L238.1 140.957L241.793 137.266L241.821 137.237L241.848 137.208ZM321.162 149.708L321.157 149.646C319.868 134.172 306.939 121.063 291.172 122.377C275.697 123.667 262.589 136.595 263.903 152.362L263.904 152.373C265.205 166.677 275.634 177.037 289.795 179.612L289.866 179.625L289.939 179.631C305.535 180.93 319.853 169.249 321.157 153.596L321.162 153.533V149.708Z" stroke="url(#paint3_linear_1060_496)" stroke-width="3"/>
<path d="M143.648 261.998L123.743 281.903C123.682 281.964 123.487 282.1 123.082 282.216C122.697 282.326 122.221 282.389 121.721 282.389C121.221 282.389 120.746 282.326 120.36 282.216C119.955 282.1 119.759 281.964 119.698 281.903C119.637 281.842 119.502 281.647 119.387 281.242C119.277 280.857 119.213 280.381 119.213 279.881C119.213 279.381 119.277 278.906 119.387 278.521C119.503 278.115 119.637 277.92 119.698 277.858L139.604 257.953L143.648 261.998Z" stroke="url(#paint4_linear_1060_496)" stroke-width="3"/>
<path d="M188.047 306.398L168.142 326.304C168.081 326.365 167.886 326.5 167.48 326.616C167.095 326.726 166.619 326.789 166.119 326.789C165.619 326.789 165.144 326.726 164.759 326.616C164.353 326.5 164.158 326.365 164.097 326.304C164.036 326.243 163.901 326.047 163.785 325.643C163.675 325.257 163.611 324.781 163.611 324.281C163.611 323.781 163.675 323.306 163.785 322.921C163.901 322.516 164.036 322.32 164.097 322.259L184.002 302.354L188.047 306.398Z" stroke="url(#paint5_linear_1060_496)" stroke-width="3"/>
<path d="M165.849 284.197L127.444 322.602C127.383 322.663 127.189 322.798 126.783 322.914C126.398 323.024 125.922 323.088 125.422 323.088C124.922 323.088 124.447 323.024 124.062 322.914C123.656 322.798 123.46 322.663 123.399 322.602C123.338 322.54 123.204 322.345 123.088 321.94C122.978 321.555 122.914 321.079 122.914 320.579C122.914 320.079 122.978 319.604 123.088 319.219C123.204 318.813 123.338 318.618 123.399 318.557L161.804 280.152L165.849 284.197Z" stroke="url(#paint6_linear_1060_496)" stroke-width="3"/>
<defs>
<linearGradient id="paint0_linear_1060_496" x1="221.5" y1="0" x2="221.5" y2="450" gradientUnits="userSpaceOnUse">
<stop stop-color="#FF000F"/>
<stop offset="1" stop-color="#2176F5"/>
</linearGradient>
<linearGradient id="paint1_linear_1060_496" x1="244.863" y1="265.699" x2="244.863" y2="348.329" gradientUnits="userSpaceOnUse">
<stop stop-color="#FF000F"/>
<stop offset="1" stop-color="#2176F5"/>
</linearGradient>
<linearGradient id="paint2_linear_1060_496" x1="137.754" y1="178.51" x2="137.754" y2="223.767" gradientUnits="userSpaceOnUse">
<stop stop-color="#FF000F"/>
<stop offset="1" stop-color="#2176F5"/>
</linearGradient>
<linearGradient id="paint3_linear_1060_496" x1="245.82" y1="101.363" x2="245.82" y2="297.456" gradientUnits="userSpaceOnUse">
<stop stop-color="#FF000F"/>
<stop offset="1" stop-color="#2176F5"/>
</linearGradient>
<linearGradient id="paint4_linear_1060_496" x1="131.741" y1="255.832" x2="131.741" y2="283.889" gradientUnits="userSpaceOnUse">
<stop stop-color="#FF000F"/>
<stop offset="1" stop-color="#2176F5"/>
</linearGradient>
<linearGradient id="paint5_linear_1060_496" x1="176.14" y1="300.232" x2="176.14" y2="328.289" gradientUnits="userSpaceOnUse">
<stop stop-color="#FF000F"/>
<stop offset="1" stop-color="#2176F5"/>
</linearGradient>
<linearGradient id="paint6_linear_1060_496" x1="144.692" y1="278.031" x2="144.692" y2="324.587" gradientUnits="userSpaceOnUse">
<stop stop-color="#FF000F"/>
<stop offset="1" stop-color="#2176F5"/>
</linearGradient>
</defs>
</svg>
