<svg width="443" height="450" viewBox="0 0 443 450" fill="none" xmlns="http://www.w3.org/2000/svg">
<rect opacity="0.05" width="443" height="450" rx="24" fill="url(#paint0_linear_1060_532)"/>
<g clip-path="url(#clip0_1060_532)">
<path d="M110.312 115.688C111.524 128.431 112.642 139.402 113.761 150.469C114.372 156.519 115.015 162.538 115.656 168.552C116.295 174.544 116.933 180.532 117.541 186.55C117.541 187.636 117.538 188.523 117.46 189.259C117.378 190.035 117.232 190.41 117.108 190.581C117.057 190.652 116.972 190.771 116.544 190.792C116.095 190.814 115.385 190.712 114.298 190.355L113.809 190.187C98.139 184.071 81.6522 179.392 65.7539 174.055L65.751 174.054L65.207 173.884C65.026 173.83 64.847 173.78 64.6758 173.731C64.3215 173.632 63.9997 173.542 63.6943 173.445C63.0427 173.239 62.6946 173.064 62.5342 172.925C62.527 172.919 62.5217 172.912 62.5166 172.907C62.5179 172.895 62.5185 172.878 62.5225 172.857C62.573 172.595 62.8284 172 63.7246 170.96L63.7285 170.956C78.909 153.216 93.9744 135.252 110.312 115.688Z" stroke="url(#paint1_linear_1060_532)" stroke-width="3"/>
<path d="M127.183 106.553C127.373 106.414 127.965 106.222 129.802 106.602C131.532 106.959 133.886 107.706 137.156 108.755L201.042 129.766L133.349 185.938C131.112 161.5 128.895 139.047 127.013 116.241V116.24L126.824 113.918C126.66 111.768 126.571 110.121 126.621 108.863C126.691 107.087 127.031 106.664 127.183 106.553Z" stroke="url(#paint2_linear_1060_532)" stroke-width="3"/>
<path d="M263.951 101.5L222.568 115.06C222.112 115.206 221.622 115.206 221.166 115.06L221.162 115.059L178.656 101.5H263.951Z" stroke="url(#paint3_linear_1060_532)" stroke-width="3"/>
<path d="M220.828 139.666C221.193 139.544 221.546 139.519 221.957 139.629C222.395 139.746 222.985 140.041 223.758 140.707L223.765 140.713L223.771 140.718L223.771 140.719L223.772 140.72C223.774 140.721 223.776 140.723 223.778 140.725C223.783 140.729 223.79 140.734 223.8 140.742C223.819 140.758 223.848 140.783 223.886 140.815C223.962 140.88 224.076 140.974 224.225 141.1C224.522 141.35 224.963 141.721 225.532 142.2C226.671 143.158 228.326 144.549 230.394 146.285C234.528 149.757 240.31 154.607 246.899 160.114C260.036 171.094 276.386 184.697 289.287 195.228H153.756L161.178 188.843L161.179 188.844L217.731 141.842C218.414 141.296 218.903 140.866 219.464 140.448C219.995 140.053 220.431 139.798 220.828 139.666Z" stroke="url(#paint4_linear_1060_532)" stroke-width="3"/>
<path d="M296.772 215.445C297.142 215.43 297.508 215.515 297.833 215.691C298.158 215.868 298.428 216.129 298.616 216.446C298.804 216.764 298.902 217.127 298.9 217.496C298.898 217.865 298.796 218.227 298.604 218.543L298.598 218.554L298.592 218.564L223.443 347.411L223.439 347.419C223.25 347.748 222.976 348.022 222.646 348.213C222.317 348.403 221.942 348.503 221.562 348.503C221.181 348.503 220.807 348.403 220.478 348.213C220.148 348.022 219.874 347.748 219.685 347.419L219.679 347.407L209.782 330.558H209.783C188.283 293.684 166.741 257.054 145.159 220.668C144.543 219.437 144.031 218.446 143.675 217.593C143.296 216.687 143.222 216.218 143.246 216.003C143.249 215.979 143.252 215.965 143.254 215.959C143.259 215.953 143.273 215.939 143.302 215.919C143.341 215.891 143.409 215.852 143.515 215.808C143.987 215.61 144.9 215.446 146.535 215.446H296.741L296.772 215.445Z" stroke="url(#paint5_linear_1060_532)" stroke-width="3"/>
<path d="M315.869 105.732C316.38 105.666 316.609 105.722 316.683 105.754C316.705 105.764 316.709 105.77 316.714 105.775C316.722 105.785 316.76 105.833 316.802 105.961C316.893 106.244 316.959 106.795 316.848 107.768L316.847 107.783L316.845 107.799C314.483 133.295 312.119 158.788 309.537 185.825L241.842 129.768L287.034 114.98L314.037 106.188L314.036 106.188C314.77 105.953 315.377 105.797 315.869 105.732Z" stroke="url(#paint6_linear_1060_532)" stroke-width="3"/>
<path d="M271.924 298.074L272.959 296.159C287.865 270.433 302.852 244.747 317.921 219.103C319.845 215.829 321.8 213.851 323.631 213.059L323.995 212.916L363.861 199.627L271.924 298.074Z" stroke="url(#paint7_linear_1060_532)" stroke-width="3"/>
<path d="M332.217 115.543C347.927 134.05 363.515 152.55 378.769 170.938L378.778 170.949C379.419 171.705 379.748 172.219 379.893 172.557C379.926 172.634 379.944 172.691 379.955 172.73C379.902 172.777 379.795 172.859 379.593 172.968C379.189 173.184 378.597 173.41 377.754 173.681L377.744 173.684L377.735 173.687L328.613 190.175L328.585 190.184L328.558 190.194C327.925 190.435 327.34 190.641 326.814 190.764C326.27 190.891 325.936 190.892 325.758 190.852C325.667 190.831 325.645 190.821 325.594 190.716C325.5 190.524 325.374 190.045 325.453 189.045C327.665 164.612 329.993 140.098 332.217 115.543Z" stroke="url(#paint8_linear_1060_532)" stroke-width="3"/>
<path d="M121.517 213.503C122.077 213.783 122.667 214.381 123.297 215.306C123.943 216.254 124.478 217.3 125.066 218.346L125.073 218.358L125.081 218.371C140.227 244.09 155.088 270.012 169.664 296.138L169.671 296.15L170.267 297.194L79.3008 199.673L121.517 213.503Z" stroke="url(#paint9_linear_1060_532)" stroke-width="3"/>
</g>
<defs>
<linearGradient id="paint0_linear_1060_532" x1="221.5" y1="0" x2="221.5" y2="450" gradientUnits="userSpaceOnUse">
<stop stop-color="#FF000F"/>
<stop offset="1" stop-color="#2176F5"/>
</linearGradient>
<linearGradient id="paint1_linear_1060_532" x1="90.0276" y1="111.969" x2="90.0276" y2="192.295" gradientUnits="userSpaceOnUse">
<stop stop-color="#FF000F"/>
<stop offset="1" stop-color="#2176F5"/>
</linearGradient>
<linearGradient id="paint2_linear_1060_532" x1="164.597" y1="104.879" x2="164.597" y2="188.91" gradientUnits="userSpaceOnUse">
<stop stop-color="#FF000F"/>
<stop offset="1" stop-color="#2176F5"/>
</linearGradient>
<linearGradient id="paint3_linear_1060_532" x1="221.073" y1="100" x2="221.073" y2="116.67" gradientUnits="userSpaceOnUse">
<stop stop-color="#FF000F"/>
<stop offset="1" stop-color="#2176F5"/>
</linearGradient>
<linearGradient id="paint4_linear_1060_532" x1="221.605" y1="138.059" x2="221.605" y2="196.728" gradientUnits="userSpaceOnUse">
<stop stop-color="#FF000F"/>
<stop offset="1" stop-color="#2176F5"/>
</linearGradient>
<linearGradient id="paint5_linear_1060_532" x1="221.071" y1="213.943" x2="221.071" y2="350.003" gradientUnits="userSpaceOnUse">
<stop stop-color="#FF000F"/>
<stop offset="1" stop-color="#2176F5"/>
</linearGradient>
<linearGradient id="paint6_linear_1060_532" x1="278.599" y1="104.201" x2="278.599" y2="188.788" gradientUnits="userSpaceOnUse">
<stop stop-color="#FF000F"/>
<stop offset="1" stop-color="#2176F5"/>
</linearGradient>
<linearGradient id="paint7_linear_1060_532" x1="315.589" y1="197.703" x2="315.589" y2="307.62" gradientUnits="userSpaceOnUse">
<stop stop-color="#FF000F"/>
<stop offset="1" stop-color="#2176F5"/>
</linearGradient>
<linearGradient id="paint8_linear_1060_532" x1="352.698" y1="111.846" x2="352.698" y2="192.375" gradientUnits="userSpaceOnUse">
<stop stop-color="#FF000F"/>
<stop offset="1" stop-color="#2176F5"/>
</linearGradient>
<linearGradient id="paint9_linear_1060_532" x1="127.473" y1="197.703" x2="127.473" y2="307.62" gradientUnits="userSpaceOnUse">
<stop stop-color="#FF000F"/>
<stop offset="1" stop-color="#2176F5"/>
</linearGradient>
<clipPath id="clip0_1060_532">
<rect width="321" height="250" fill="white" transform="translate(61 100)"/>
</clipPath>
</defs>
</svg>
