<svg width="443" height="450" viewBox="0 0 443 450" fill="none" xmlns="http://www.w3.org/2000/svg">
<rect opacity="0.05" width="443" height="450" rx="24" fill="url(#paint0_linear_1060_528)"/>
<path d="M256.139 105.198C267.368 99.5974 280.814 104.117 286.393 114.168C287.779 116.666 288.644 118.181 289.513 120.354C294.455 132.723 303.542 141.044 315.921 144.771C326.229 148.214 334.31 156.27 338.943 165.546L338.967 165.593L338.993 165.639C354.528 191.954 370.064 218.27 385.6 244.586L385.624 244.629L385.652 244.67C400.808 266.842 399.675 296.073 384.457 318.336L384.442 318.358L384.428 318.382C370.414 340.592 343.558 352.262 317.912 346.428L317.848 346.413L317.782 346.404L316.579 346.229C291.371 342.306 269.806 323.77 264.071 298.515L264.062 298.475L264.052 298.436L263.157 295.274C258.689 279.339 254.287 261.504 250.935 244.726C249.611 238.104 244.353 233.223 237.878 231.603C232.884 230.353 226.71 230.361 221.979 230.361C217.107 230.361 213.117 230.709 207.413 231.574C203.221 232.21 199.933 233.826 197.523 236.167C195.123 238.499 193.676 241.473 193.026 244.705C189.445 261.434 185.542 278.143 181.093 294.873C179.524 300.771 177.566 307.529 174.07 313.653C155.357 346.434 113.249 358.134 80.5156 339.411C47.7792 320.687 36.0856 278.561 54.7627 245.799C71.5332 218.221 87.0159 190.794 103.742 164.484L103.753 164.468L103.763 164.451C110.744 152.805 121.188 144.685 133.941 141.203L133.94 141.202C139.218 139.87 143.065 135.947 145.551 132.215C149.455 126.353 152.18 120.401 155.81 113.651L155.82 113.632L155.83 113.611C160.221 104.822 171.896 100.704 182.067 104.098C192.076 107.437 197.704 117.478 196.588 127.61C195.4 135.93 194.587 140.532 192.646 149.253C191.779 153.15 191.224 155.702 190.522 160.178L190.428 160.782L190.783 161.281C196.679 169.543 201.358 179.681 201.358 188.799C201.358 192.563 202.177 195.497 204.402 197.412C206.567 199.275 209.727 199.869 213.613 199.869H229.148C231.953 199.869 234.193 198.795 235.697 196.913C237.165 195.076 237.818 192.616 237.818 189.995C237.818 179.733 243.513 169.62 249.463 161.281L249.812 160.792L249.728 160.197C249.462 158.336 249.27 157.166 249.094 156.105C248.918 155.05 248.76 154.115 248.559 152.702C247.96 148.506 247.361 144.611 246.764 140.725C246.167 136.844 245.572 132.971 244.977 128.803C243.853 118.61 248.368 109.667 256.139 105.198ZM142.009 226.346C120.926 215.336 93.5975 215.899 73.9297 235.586C56.7438 252.788 51.8502 282.193 62.8936 304.302C72.6957 323.925 93.5164 337.429 115.621 337.429C118.03 337.429 123.009 337.386 128.405 336.466C153.927 332.116 169.593 311.54 173.264 287.153C178.183 260.07 163.088 237.354 142.009 226.346ZM349.433 222.904C328.683 214.88 302.369 221.071 286.678 236.748C267.293 254.938 264.662 286.132 277.438 308.156L278.059 309.198C290.369 330.12 318.54 341.13 341.862 334.986C365.141 328.854 384.768 306.81 385.999 282.176L386.001 282.138V278.512C386.001 255.177 371.301 233.133 350.484 223.327L350.451 223.312L350.417 223.298L349.433 222.904Z" stroke="url(#paint1_linear_1060_528)" stroke-width="3"/>
<defs>
<linearGradient id="paint0_linear_1060_528" x1="221.5" y1="0" x2="221.5" y2="450" gradientUnits="userSpaceOnUse">
<stop stop-color="#FF000F"/>
<stop offset="1" stop-color="#2176F5"/>
</linearGradient>
<linearGradient id="paint1_linear_1060_528" x1="221.159" y1="101.266" x2="221.159" y2="349.847" gradientUnits="userSpaceOnUse">
<stop stop-color="#FF000F"/>
<stop offset="1" stop-color="#2176F5"/>
</linearGradient>
</defs>
</svg>
