<svg width="14" height="9" viewBox="0 0 14 9" fill="none" xmlns="http://www.w3.org/2000/svg">
<g clip-path="url(#clip0_1679_528)">
<path d="M13.4205 1.78035C13.4303 1.8634 13.4303 1.94731 13.4205 2.03035L13.3205 2.27035C13.2948 2.3518 13.2578 2.42923 13.2105 2.50035C13.1613 2.57303 13.1043 2.6401 13.0405 2.70035L7.62053 8.12035C7.4941 8.23738 7.34869 8.33206 7.19053 8.40035C7.03958 8.4678 6.87586 8.50191 6.71053 8.50035C6.54187 8.50304 6.37465 8.46892 6.22053 8.40035C6.06406 8.33447 5.92153 8.23945 5.80053 8.12035L0.42053 2.70035C0.298285 2.57604 0.199979 2.43027 0.13053 2.27035C0.0709361 2.11734 0.0404138 1.95456 0.0405301 1.79035C0.0403308 1.62289 0.0708351 1.45681 0.13053 1.30035C0.192931 1.13955 0.292272 0.995679 0.42053 0.880352C0.541528 0.761254 0.684056 0.666235 0.84053 0.600352C0.997921 0.530325 1.16827 0.49414 1.34053 0.49414C1.5128 0.49414 1.68314 0.530325 1.84053 0.600352C1.997 0.666235 2.13953 0.761254 2.26053 0.880352L6.70053 5.40035L11.2405 0.880352C11.3615 0.761255 11.5041 0.666236 11.6605 0.600352C11.8179 0.530326 11.9883 0.494141 12.1605 0.494141C12.3328 0.494141 12.5031 0.530326 12.6605 0.600352C12.8028 0.670465 12.9314 0.765269 13.0405 0.880352L13.2105 1.08035C13.2609 1.14602 13.2982 1.22069 13.3205 1.30035L13.4205 1.50035C13.4302 1.58006 13.4302 1.66064 13.4205 1.74035L13.4205 1.78035Z" fill="white"/>
</g>
<defs>
<clipPath id="clip0_1679_528">
<rect width="8" height="13.42" fill="white" transform="translate(13.42 0.5) rotate(90)"/>
</clipPath>
</defs>
</svg>
