<svg width="188" height="190" viewBox="0 0 188 190" fill="none" xmlns="http://www.w3.org/2000/svg">
<path d="M145.061 0.385678C147.302 1.65144 147.493 2.12925 146.648 4.60682C144.956 9.56195 143.195 14.4775 141.449 19.4479C141.321 19.8375 141.193 20.2271 140.995 20.5771C140.393 21.8068 139.303 22.3457 138.159 21.8376C136.96 21.3447 136.451 20.3648 136.819 19.1412C137.364 17.2785 137.994 15.5101 138.623 13.7417C139.174 12.1133 139.74 10.5397 140.418 8.52175C118.2 23.4902 96.3188 38.1877 74.2098 53.1257C89.9363 56.8395 105.343 60.465 120.89 64.1697C121.082 63.5853 121.344 63.0405 121.496 62.5261C125.195 52.0558 128.824 41.5459 132.524 31.0756C132.667 30.7407 132.755 30.4212 132.898 30.0863C133.543 28.3727 134.602 27.7243 135.95 28.1167C137.314 28.5639 137.789 29.8482 137.214 31.6014C133.417 42.5709 129.55 53.5008 125.699 64.4855C125.404 65.3347 125.109 66.1839 124.814 67.033C124.144 68.8714 123.274 69.3494 121.317 68.8901C114.253 67.2538 107.243 65.6022 100.164 63.9111C99.5945 63.7742 99.0954 63.6769 98.5262 63.54C93.9557 69.1774 89.3851 74.8147 84.7994 80.3972C81.8599 84.0469 78.9052 87.6418 75.9657 91.2914C74.2951 93.3491 72.4385 93.0389 71.3546 90.6256C65.1285 76.7176 58.9023 62.8096 52.7309 48.8863C52.2925 47.946 51.772 47.5595 50.7585 47.3101C40.3097 44.9621 29.8609 42.6141 19.4516 40.196C18.5629 39.971 17.528 39.4324 16.9861 38.7568C16.1733 37.7435 16.9462 36.7025 17.64 35.8015C60.0955 24.0013 102.551 12.2011 145.061 0.385678ZM118.402 12.7526C118.387 12.6978 118.387 12.6978 118.426 12.6278C88.5704 20.926 58.7146 29.2242 28.5301 37.6137C36.9123 39.5329 44.9049 41.3244 52.8975 43.1158C53.3966 43.2131 53.9992 43.0456 54.477 42.8538C61.1145 39.7697 67.7915 36.6155 74.429 33.5314C89.0217 26.5839 103.684 19.6758 118.402 12.7526ZM56.7603 46.8222C60.8491 56.0131 64.8619 64.93 68.8198 73.8622C68.2467 67.7661 67.5397 61.8252 66.5831 55.8357C66.2237 53.6931 66.9661 52.5425 68.646 51.3674C84.4677 40.7735 100.219 30.14 116.026 19.4913C116.379 19.2752 116.771 18.989 117.124 18.7729C117.039 18.6786 117.009 18.569 116.939 18.5294C96.932 27.867 76.9009 37.3294 56.7603 46.8222ZM75.2616 84.9366C81.5028 77.2416 87.4761 69.8571 93.5985 62.3721C86.0747 60.5684 78.8308 58.923 71.3769 57.1589C72.6931 66.3532 73.9241 75.4532 75.2616 84.9366Z" fill="url(#paint0_linear_1822_502)"/>
<path d="M87.0557 120.37C86.8245 121.025 86.7789 121.923 86.292 122.294C85.7108 122.751 84.6852 123.095 84.046 122.918C82.7677 122.565 81.5228 121.908 80.3479 121.291C79.2977 120.697 79.0084 119.656 79.477 118.582C79.9455 117.508 80.895 116.89 82.0242 117.343C83.3878 117.79 84.7027 118.487 85.9476 119.144C86.3524 119.327 86.6143 119.844 87.0557 120.37Z" fill="#2C71EB"/>
<path d="M93.3356 127.889C93.7315 129.314 93.3573 130.303 92.1735 130.927C91.1387 131.451 89.8847 130.973 89.2606 129.789C88.7522 128.809 88.2438 127.829 87.7901 126.834C87.2208 125.635 87.5493 124.481 88.6084 123.833C89.6127 123.2 90.8605 123.443 91.6338 124.526C91.9351 124.974 92.2518 125.476 92.4983 125.939C92.8059 126.62 93.1133 127.302 93.3356 127.889Z" fill="#2C71EB"/>
<path d="M70.6306 102.038C71.0844 104.096 69.2127 104.793 68.0716 105.995C67.253 106.872 66.3188 107.545 65.0495 107.012C63.7255 106.495 63.1592 104.882 64.0264 103.756C65.0032 102.599 66.1748 101.506 67.4621 100.617C68.655 99.8137 70.1495 100.52 70.6306 102.038Z" fill="#2C71EB"/>
<path d="M54.0229 135.277C52.5985 135.673 51.1588 134.952 51.0734 133.796C50.9758 132.171 51.0273 130.445 51.4288 128.917C51.6052 128.278 52.8286 127.584 53.5865 127.55C54.2347 127.547 55.3762 128.469 55.4341 129.102C55.6018 130.767 55.3707 132.483 55.1244 134.145C55.0119 134.59 54.2511 135.037 54.0229 135.277Z" fill="#2C71EB"/>
<path d="M63.5535 109.907C63.5048 110.156 63.5871 110.665 63.3893 111.015C62.6225 112.29 61.871 113.62 60.879 114.722C60.1699 115.568 59.1382 115.678 58.1277 115.015C57.1171 114.351 56.773 113.326 57.3116 112.291C58.0236 111.031 58.7903 109.755 59.7428 108.723C60.9235 107.451 63.051 108.099 63.5535 109.907Z" fill="#2C71EB"/>
<path d="M55.9013 124.841C53.8592 125.35 52.4164 123.981 52.8118 122.218C53.1098 120.955 53.6027 119.756 54.1503 118.541C54.6584 117.397 55.7236 116.983 56.9076 117.421C58.0916 117.859 58.6 118.839 58.2867 120.047C57.9187 121.271 57.4958 122.51 56.9481 123.724C56.6865 124.269 56.0748 124.616 55.9013 124.841Z" fill="#2C71EB"/>
<path d="M71.0086 115.921C72.0708 115.921 73.5865 115.854 75.0535 116.036C76.2709 116.17 76.8341 117.134 76.8099 118.321C76.7706 119.454 76.0463 120.245 74.9446 120.315C73.6237 120.446 72.2724 120.468 70.8906 120.38C69.6884 120.301 68.9517 119.561 68.8511 118.35C68.7657 117.194 69.3652 116.378 71.0086 115.921Z" fill="#2C71EB"/>
<path d="M62.3934 153.722C62.2138 153.713 61.596 153.826 61.3555 153.598C59.9736 152.447 58.5521 151.367 57.4684 150.016C57.1122 149.584 57.4742 148.126 57.9306 147.645C58.4418 147.149 59.7871 146.893 60.3623 147.264C61.7077 148.071 62.9101 149.212 63.8933 150.414C64.8066 151.576 64.0916 153.25 62.3934 153.722Z" fill="#2C71EB"/>
<path d="M87.5791 150.912C87.2291 150.714 86.246 150.574 85.8594 150.032C85.4575 149.436 85.3173 148.295 85.6186 147.68C86.221 146.45 87.073 145.269 88.1107 144.332C88.6219 143.835 89.818 143.68 90.5272 143.896C91.1268 144.142 91.69 145.107 91.8332 145.834C91.949 147.101 89.3473 150.479 87.5791 150.912Z" fill="#2C71EB"/>
<path d="M73.832 154.32C74.2492 156.033 73.4429 157.379 72.0764 157.345C70.5302 157.303 68.908 156.987 67.3801 156.585C66.4213 156.321 65.9829 155.38 66.1471 154.272C66.366 153.149 67.0903 152.358 68.1829 152.467C69.7443 152.564 71.2417 152.856 72.7149 153.273C73.2293 153.425 73.6068 154.146 73.832 154.32Z" fill="#2C71EB"/>
<path d="M52.3681 141.639C51.7652 139.682 52.1485 138.513 53.4328 138.038C54.7719 137.548 55.892 138.181 56.5679 139.763C56.9516 140.719 57.32 141.62 57.6488 142.59C58.0142 143.905 57.4909 144.995 56.371 145.424C55.1414 145.884 53.997 145.376 53.4124 144.122C52.9193 143.197 52.6056 142.281 52.3681 141.639Z" fill="#2C71EB"/>
<path d="M79.557 156.446C78.2423 156.812 77.0826 156.249 76.6381 155.074C76.2483 153.884 76.7169 152.81 77.9159 152.24C78.9659 151.772 80.0158 151.303 81.081 150.889C82.3105 150.429 83.525 150.977 83.9938 152.027C84.4627 153.076 83.9698 154.276 82.856 154.939C82.5578 155.14 82.2443 155.286 81.9156 155.378C81.1548 155.825 80.4031 156.093 79.557 156.446Z" fill="#2C71EB"/>
<path d="M94.8719 134.9C94.5922 136.866 94.4859 138.607 94.0449 140.205C93.7559 141.288 92.6116 141.842 91.662 141.398C90.9223 141.073 90.0852 140.184 89.9968 139.441C89.8353 138.011 90.0025 136.489 90.4497 135.126C90.6657 134.416 91.749 133.643 92.5069 133.61C93.1551 133.606 93.9618 134.385 94.8719 134.9Z" fill="#2C71EB"/>
<path d="M44.3652 135.778C44.2892 136.566 44.3167 137.09 44.1341 137.495C43.626 138.639 43.0479 139.744 42.3451 140.825C41.6422 141.905 40.6013 142.195 39.4416 141.632C38.282 141.069 37.8679 140.004 38.376 138.859C38.8688 137.66 39.4713 136.43 40.2594 135.444C40.7006 134.908 41.7263 134.564 42.4445 134.601C43.108 134.652 43.7199 135.367 44.3652 135.778Z" fill="#2C71EB"/>
<path d="M40.3852 146.089C39.9624 147.328 39.6674 149.239 38.7424 150.795C37.9513 152.195 35.3003 151.574 35.2727 149.989C35.2237 148.114 35.7225 146.087 36.5623 144.437C37.2438 143.067 39.761 143.843 40.3852 146.089Z" fill="#2C71EB"/>
<path d="M37.4784 161.533C35.8197 161.935 34.4653 161.308 34.3494 160.042C34.1727 158.557 34.1603 157.026 34.3426 155.559C34.452 154.466 35.3863 153.794 36.5337 153.888C37.7207 153.912 38.5669 154.621 38.6676 155.832C38.7834 157.098 38.8597 158.434 38.6316 159.737C38.4156 160.446 37.7157 161.113 37.4784 161.533Z" fill="#2C71EB"/>
<path d="M39.7406 167.337C39.9081 167.94 40.1151 168.472 40.2278 169.09C40.4532 170.326 39.9238 171.181 38.7886 171.556C37.7234 171.97 36.6399 171.681 36.2258 170.616C35.6351 169.128 35.1936 167.539 35.1111 165.968C35.0532 165.335 36.1 164.218 36.8274 164.075C37.5 163.947 38.5653 164.595 39.1315 165.146C39.5729 165.673 39.5974 166.61 39.7406 167.337C39.7954 167.322 39.7954 167.322 39.7406 167.337Z" fill="#2C71EB"/>
<path d="M44.2197 177.717C44.6308 179.196 44.3509 180.1 43.3314 180.679C42.2572 181.272 41.2193 181.148 40.5313 180.159C39.7581 179.075 39.1188 177.837 38.5494 176.638C38.0653 175.533 38.4243 174.489 39.4438 173.91C40.5181 173.317 41.626 173.481 42.3444 174.58C43.1176 175.663 43.757 176.902 44.2197 177.717Z" fill="#2C71EB"/>
<path d="M49.6244 185.067C49.8893 186.233 49.1773 187.493 48.0117 187.758C46.697 188.123 44.5297 186.483 44.0729 184.84C43.738 183.635 44.5047 182.359 45.7252 182.079C47.0704 181.823 49.2376 183.463 49.6244 185.067Z" fill="#2C71EB"/>
<path d="M63.6765 122.03C61.8839 122.587 60.6299 122.11 60.234 120.685C59.8534 119.316 60.6263 118.275 62.3093 117.748C62.5284 117.687 62.8023 117.611 63.0214 117.55C64.6101 117.109 65.8093 117.601 66.2295 118.901C66.6345 120.146 65.8921 121.296 64.3491 121.902C64.1695 121.893 63.9504 121.954 63.6765 122.03Z" fill="#2C71EB"/>
<path d="M49.38 129.19C49.8124 130.959 47.4267 133.628 45.7101 133.397C44.4075 133.169 43.7651 132.344 43.7741 131.103C43.783 129.861 45.7427 127.782 47.0088 127.666C48.2749 127.55 49.0359 128.165 49.38 129.19Z" fill="#2C71EB"/>
<path d="M77.7098 96.295C78.1879 98.2275 77.3541 99.0494 76.295 99.6979C75.1416 100.432 73.9182 101.126 72.7707 99.9693C72.2745 99.458 72.0247 98.3472 72.1555 97.5437C72.3197 96.4358 74.6812 94.9532 75.8743 95.2118C76.6383 95.4125 77.2897 96.0576 77.7098 96.295Z" fill="#2C71EB"/>
<defs>
<linearGradient id="paint0_linear_1822_502" x1="60.7612" y1="5.18273" x2="88.5174" y2="89.2113" gradientUnits="userSpaceOnUse">
<stop stop-color="#FF000F"/>
<stop offset="1" stop-color="#2176F5"/>
</linearGradient>
</defs>
</svg>
