<svg width="580" height="283" viewBox="0 0 580 283" fill="none" xmlns="http://www.w3.org/2000/svg">
<g clip-path="url(#clip0_1575_802)">
<rect width="579" height="282.346" transform="translate(0.5 0.327148)" fill="white" fill-opacity="0.2"/>
<path d="M475.26 198.158L473.852 203.439L466.215 206.013L463.93 203.335L462.82 203.64L464.893 211.622L467.995 211.969L472.133 213.533V215.096L474.029 214.75L476.789 210.935V207.813L478.344 204.692L480.068 205.039L477.996 200.701L477.679 197.908L475.26 198.158Z" fill="#1A191C"/>
<path d="M518.585 212.693L518.359 227.563L520.505 227.448L523.327 224.156L525.697 224.272L527.221 225.635L527.727 229.833L532.578 232.388L533.822 231.932V230.399L529.927 227.162L528.007 222.732L529.531 221.996L528.403 219.556L526.148 219.502L525.582 216.892L519.603 212.864L518.585 212.693Z" fill="#1A191C"/>
<path d="M82.6484 137.94L85.5922 147.195L84.2209 147.961L84.3732 149.799L86.9635 151.788V155.469L90.1632 158.536L88.7919 149.495L86.9635 143.514L87.4206 139.376L88.9443 139.528L89.5538 140.91L88.9443 144.432L96.8675 159.911V165.429L103.267 172.937L110.276 176.156L113.171 174.471L117.285 177.841L119.723 175.389L118.656 172.627L122.161 171.556L123.227 172.171L124.294 171.1H125.97L129.017 165.734L127.494 164.352L121.551 165.734L120.18 169.719L116.675 170.333L112.561 168.648L110.733 162.825L112.116 155.481L109.289 153.723L107.942 146.671L106.814 146.191L104.754 148.278L102.389 147.018L101.463 142.315L92.0953 141.335L87.2561 137.703L82.6484 137.94Z" fill="#1A191C"/>
<path d="M314.416 88.1891L311.003 88.0674L308.839 89.3877L308.809 90.3673L310.21 91.6875L314.568 92.4237L314.416 88.1891Z" fill="#1A191C"/>
<path d="M287.664 139.195L285.177 138.361L274.828 140.302L272.573 142.012L273.951 149.112L269.837 149.277L267.362 153.25L261.469 154.661L261.487 157.551L280.899 172.367L284.208 172.646L295.246 164.037L294.143 162.65L292.07 162.37L290.827 160.289V151.68L289.998 150.846L290.138 148.626L287.932 146.405L287.658 144.044L288.621 143.35L288.206 140.85L287.664 139.195Z" fill="#1A191C"/>
<path d="M272.072 142.108H265.033L263.655 145.163L260.48 146.69L257.859 153.772L252.752 156.826L245.578 168.624L252.618 168.484L252.892 165.016H254.684V160.294H260.894L261.034 154.186L266.971 152.799L269.457 148.771L273.321 148.631L272.072 142.108Z" fill="#1A191C"/>
<path d="M245.625 169.11L246.954 170.844L246.679 178.34L248.611 176.953L249.989 176.673L251.921 177.367L254.127 180.421L256.199 179.034L266.274 178.894L263.787 162.095L266.457 162.083L261.484 158.28L261.49 160.751L255.194 160.757L255.163 165.472L253.353 165.466L253.122 168.946L245.625 169.11Z" fill="#1A191C"/>
<path d="M248.808 177.422L246.407 179.162L245.858 180.136L245.688 181.109L246.571 181.742L249.521 181.699L251.417 181.188L251.63 182.119L251.459 183.348L253.269 184.237L253.647 184.662L256.049 184.748L256.134 183.689L253.94 181.061L251.496 177.757L249.978 177.124L248.808 177.422Z" fill="#1A191C"/>
<path d="M246.837 182.303L246.758 182.979L250.975 182.918L251.189 182.291L251.097 181.658L249.884 182.151L246.837 182.303Z" fill="#1A191C"/>
<path d="M246.781 183.446L247.537 185.278L247.958 184.146L253.083 184.681L250.865 183.544L246.781 183.446Z" fill="#1A191C"/>
<path d="M247.875 186.067L248.728 187.752L251.123 185.696L251.148 185.063L248.326 184.655L247.875 186.067Z" fill="#1A191C"/>
<path d="M248.996 188.143L250.849 190.99L253.262 188.897L255.737 188.788L257.797 191.519L259.546 192.669L260.204 191.392L260.789 191.063L260.747 188.252L259.583 184.918L256.011 185.313L251.592 184.961L251.568 186.092L248.996 188.143Z" fill="#1A191C"/>
<path d="M251.129 191.301L254.572 194.623L257.029 191.647L255.493 189.244L253.378 189.457L251.129 191.301Z" fill="#1A191C"/>
<path d="M254.934 194.987L261.626 199.453L261.467 196.07L259.444 193.692L257.469 191.945L254.934 194.987Z" fill="#1A191C"/>
<path d="M262.184 199.587L264.793 197.744L268.035 197.178L271.345 197.89L269.656 195.34L269.163 193.783L269.656 189.177L266.7 189.317L265.36 188.039L262.544 188.112L261.203 188.325L261.343 191.44L260.636 191.726L259.789 193.284L261.971 195.833L262.184 199.587Z" fill="#1A191C"/>
<path d="M254.5 180.781L256.377 179.497L266.811 179.436L264.398 162.68L267.153 162.601L280.482 172.755L282.274 173.011L281.597 178.657L273.217 179.418L266.75 184.236L265.574 187.534L261.082 187.723L259.937 184.431L256.493 184.674L256.627 183.598L254.5 180.781Z" fill="#1A191C"/>
<path d="M273.473 179.832L275.691 179.655L279.33 184.79L275.953 187.334L273.509 186.707L270.224 186.75L269.694 188.672L266.939 188.806L266.184 187.778L267.159 184.651L273.473 179.832Z" fill="#1A191C"/>
<path d="M279.749 184.529L281.303 184.493L282.705 182.393L285.058 181.974L287.563 183.501L292.908 183.653L297.04 181.974L298.594 180.641L298.71 178.889L301.593 175.987L302.355 169.58L300.459 165.613L295.608 164.433L284.381 173.17L282.791 173.018L282.108 179.084L276.379 179.656L279.749 184.529Z" fill="#1A191C"/>
<path d="M269.664 193.686L270.347 195.286L272.126 198.073L273.114 198.036L275.808 196.509L275.619 187.814L273.534 187.206L270.615 187.285L269.664 193.686Z" fill="#1A191C"/>
<path d="M276.295 196.241L277.928 195.285L277.892 188.988L276.831 187.272L276.148 187.844L276.295 196.241Z" fill="#1A191C"/>
<path d="M278.421 195.17H279.713L279.786 191.508L281.42 189.141L281.347 185.022L279.866 184.985L277.324 186.969L278.385 188.989L278.421 195.17Z" fill="#1A191C"/>
<path d="M280.164 195.097L282.553 195.213L285.436 198.419L286.838 198.802L287.935 198.267L289.605 198.036L290.172 195.712L292.445 194.221L294.907 194.105L299.417 185.825L299.344 183.957L297.26 182.356L293.091 184.188L287.514 184.109L284.857 182.429L282.962 182.849L281.974 184.565L281.901 189.408L280.31 191.659L280.164 195.097Z" fill="#1A191C"/>
<path d="M288.294 139.096L291.664 137.739L292.773 138.457L292.816 139.333L292.298 140.009L292.377 141.207L292.895 141.487V143.641L292.298 144.639L292.377 145.278L294.638 146.075L292.816 148.904L292.103 148.861L291.981 151.137L291.189 151.259L290.512 150.662L290.671 148.35L288.452 146.196L288.172 144.322L289.245 143.483L288.294 139.096Z" fill="#1A191C"/>
<path d="M291.433 151.692L292.384 151.534L292.664 149.343H293.139L295.084 146.155L299.88 147.549L301.19 149.581L305.908 151.735L308.364 150.7L308.126 149.666L307.054 148.632L307.176 147.914L308.919 146.441H312.368L313.679 148.194L316.452 148.595L316.811 171.04L314.751 170.961L302.306 164.499L300.959 165.26L295.845 163.982L294.456 162.151L292.432 161.871L291.402 160.04L291.433 151.692Z" fill="#1A191C"/>
<path d="M316.953 148.668L318.58 148.71L321.75 149.586L323.255 149.629L325.12 148.071H325.992L327.576 148.947H329.581L329.941 148.923L331.209 152.562L331.568 153.736L331.904 155.494L331.306 155.932L330.276 155.415L329.088 151.545L328.015 151.466L327.936 152.781L328.649 155.056L334.36 162.114L334.482 165.144L332.818 167.06L317.191 166.884L316.953 148.668Z" fill="#1A191C"/>
<path d="M299.194 180.878L299.273 179.083L302.162 176.278L302.936 169.391L301.01 165.716L302.357 165.028L315.4 171.812L315.321 178.469L313.023 180.422V183.853L314.528 186.761H311.871L307.47 191.106L307.355 192.42L304.106 192.377L304.064 192.974L302.211 192.73L300.943 190.339L299.992 189.871L300.114 189.14L301.309 188.228V183.957L299.657 183.701L297.664 182.223L299.194 180.878Z" fill="#1A191C"/>
<path d="M333.501 189.602L331.707 186.594L331.519 184.406L331.088 184.488L330.972 185.162L328.621 188.59L326.745 187.697L324.873 189.262L321.002 189.04L319.289 187.673L316.831 188.929L316.738 189.766L315.988 190.216L323.497 197.931L327.587 198.162L328.184 199.069L334.036 199.173L334.083 197.864L334.583 196.958L336.534 196.708L334.102 193.186H332.311L331.854 190.684L333.292 190.052L333.501 189.602Z" fill="#1A191C"/>
<path d="M335.277 165.43L333.028 167.693L317.303 167.553L317.473 171.551L315.975 171.508L315.865 178.706L313.592 180.659L313.5 183.665L315.14 186.896L316.938 187.955L316.91 188.207L319.36 186.954L321.229 188.444L324.666 188.642L326.651 186.981L328.411 187.818L330.391 184.929L330.558 183.97L332.068 183.684L332.302 186.404L333.811 188.935L337.471 181.079V176.303L340.129 173.175L335.277 165.43Z" fill="#1A191C"/>
<path d="M290.066 198.085L292.029 199.885L291.889 202.672L302.652 202.423L303.53 201.437L300.446 198.121L299.989 196.922L301.951 193.254L300.616 190.82L299.495 190.217V188.982L300.793 188.137L300.866 184.291L299.836 184.176L299.818 186.196L295.296 194.623L292.529 194.762L290.633 196.065L290.066 198.085Z" fill="#1A191C"/>
<path d="M338.152 180.087L338 176.503L340.413 173.692L341.066 174.191L342.254 178.158L347.959 182.399L346.923 183.671L342.748 180.087H338.152Z" fill="#1A191C"/>
<path d="M347.156 184.248L346.809 186.293L349.222 186.256L349.259 183.25L348.375 182.709L347.156 184.248Z" fill="#1A191C"/>
<path d="M333.746 190.467L338.183 180.61L342.589 180.635L346.496 184.024L346.222 186.816H349.251L349.562 188.496L354.462 191.422L357.485 191.574L351.738 197.738L343.845 200.165H341.888L338.402 197.196L337.025 196.618L334.355 192.694L332.594 192.718L332.387 190.917L333.746 190.467Z" fill="#1A191C"/>
<path d="M349.746 186.378L352.233 188.07L352.97 188.033L359.144 185.916L359.845 188.173L359.351 190.078L358.017 191.136L354.683 190.923L349.911 187.997L349.746 186.378Z" fill="#1A191C"/>
<path d="M364.301 183.098L365.599 184.547L367.354 183.488L367.988 183.275L367.184 182.496L365.642 182.952L364.301 183.098Z" fill="#1A191C"/>
<path d="M359.644 185.775L362.307 184.753L363.252 185.319L363.148 187.679L360.692 194.664L347.399 208.877L345.858 207.819L345.754 201.819L347.753 199.526L351.995 198.218L358.218 191.659L359.845 190.211L360.302 188.093L359.644 185.775Z" fill="#1A191C"/>
<path d="M300.941 197.943L303.781 201.01L304.902 199.562L306.688 199.635L307.072 198.223L308.827 197.128L312.472 199.635L314.575 197.554L322.736 197.913L315.166 190.113L316.184 189.48L316.324 188.105L314.605 187.296H312.082L308.017 191.318L307.877 192.973L304.653 192.869L304.549 193.575L302.446 193.362L300.551 196.958L300.941 197.943Z" fill="#1A191C"/>
<path d="M285.754 205.914L286.455 205.562L286.979 205.987L286.455 206.797L285.821 206.547L285.754 205.914Z" fill="#1A191C"/>
<path d="M287.16 203.694L288.215 203.518L288.568 204.187L288.044 204.753L287.52 204.68L287.16 203.694Z" fill="#1A191C"/>
<path d="M289.472 199.989L289.191 201.188L290.032 201.644L290.837 201.042L290.557 199.807L289.472 199.989Z" fill="#1A191C"/>
<path d="M295.289 203.165L295.216 204.68L291.778 204.607L289.676 208.665L294.619 214.062L295.844 213.039L295.807 211.981L294.966 211.591V210.849L296.861 209.65L298.544 210.922L300.403 210.959L300.366 204.576L297.422 204.436L297.386 203.098L295.289 203.165Z" fill="#1A191C"/>
<path d="M292.005 203.201L291.969 204.047L294.736 204.187L294.699 203.232L292.005 203.201Z" fill="#1A191C"/>
<path d="M298.105 203.098L298.068 203.98L300.982 204.053L301.085 211.604L298.422 211.531L296.88 210.332L295.685 211.002L295.631 211.336L296.246 211.634L296.423 213.186L294.777 214.597L295.131 215.34L296.953 213.928H297.831L298.111 214.774L299.269 215.267L302.987 212.127L302.914 209.833L303.688 207.966L306.071 206.201L306.711 200.232L305.016 200.239L303.054 202.922L298.105 203.098Z" fill="#1A191C"/>
<path d="M295.391 215.699L296.451 217.074L297.822 215.778L297.42 214.434L297.079 214.409L295.391 215.699Z" fill="#1A191C"/>
<path d="M297.113 217.208L303.397 217.098L304.671 218.905L304.622 220.238L305.091 220.663H308.212L309.108 218.905H310.382L310.9 219.428L312.649 219.38L313.167 225.513L316.19 225.61V226.085L324.314 229.741L324.692 230.453H326.392L326.203 227.886L323.132 226.413L323.321 224.466L324.643 221.375L327.666 221.278L325.07 212.675L325.119 209.018L329.226 202.605L329.275 201.705L328.66 201.37L328.684 199.63L327.934 199.563L327.179 198.602L314.776 198.042L312.502 200.251L308.779 197.805L307.468 198.608L306.517 206.597L304.165 208.41L303.458 210.016L303.586 212.395L299.344 215.857L298.216 215.346L298.369 216.009L297.113 217.208Z" fill="#1A191C"/>
<path d="M326.639 207.588L328.352 209.164L328.278 210.849L325.621 210.904V209.042L326.639 207.588Z" fill="#1A191C"/>
<path d="M325.66 211.427L328.263 211.372L327.586 213.648L326.928 214.22H326.124L325.551 212.68L325.66 211.427Z" fill="#1A191C"/>
<path d="M326.93 207.096L328.776 208.824L329.934 208.088L333.067 207.577L333.603 207.631L333.805 206.445L335.572 202.733L334.085 199.643L329.264 199.673L329.234 200.945L329.88 201.565L329.782 202.837L326.93 207.096Z" fill="#1A191C"/>
<path d="M334.563 199.446L336.185 202.604L334.24 206.675L333.984 207.91L343.693 213.903L346.704 209.181L345.18 207.946L345.15 201.728L347.058 199.647L344.016 200.657L341.719 200.688L338.123 197.658L336.989 197.171L334.886 197.366L334.515 197.986L334.563 199.446Z" fill="#1A191C"/>
<path d="M334.408 226.766L345.055 225.464L342.66 220.84L342.532 216.411L343.306 214.293L333.177 207.941L330.001 208.465L328.898 209.28L328.801 211.136L328.087 213.709L327.344 214.592L326.277 214.689L328.319 221.753L331.653 223.316L333.951 223.383L334.408 226.766Z" fill="#1A191C"/>
<path d="M312.457 234.846L314.389 237.523L317.382 237.705L318.442 238.289L321.575 238.326L324.275 234.548L331.82 231.177L332.478 228.208L331.601 223.955L327.663 221.716L325.037 221.898L323.726 224.794L323.763 226.115L326.859 227.618L327.042 230.885L324.378 231.031L323.72 229.93L316.321 226.778L316.102 229.2L312.603 229.309L312.457 234.846Z" fill="#1A191C"/>
<path d="M296.652 217.816L298.731 225.562L298.682 228.008L295.641 231.269L295.184 236.568L306.885 236.672L310.689 238.047L313.827 237.639L311.999 235.351L312.005 228.817L315.601 228.665V226.115L312.682 225.994L312.097 219.958L310.865 219.976L310.201 219.38L309.476 219.416L308.513 221.278H304.807L303.948 220.414L304.204 219.191L303.192 217.713L296.652 217.816Z" fill="#1A191C"/>
<path d="M332.329 231.621L334.225 233.599L334.188 236.13L334.554 237.195L337.071 234.481L336.778 231.031L335.431 230.003L334.231 223.949L332.152 223.876L333.097 228.238L332.329 231.621Z" fill="#1A191C"/>
<path d="M328.676 252.235L330.316 253.592L334.18 251.243L334.801 247.757V242.001L341 236.939L342.06 236.975L345.814 233.379L345.229 225.969L335.277 227.222L335.569 229.461L337.282 230.781L337.684 234.815L334.332 238.083L333.527 236.251L333.674 233.83L331.742 231.737L327 233.939L331.413 236.178L331.559 242.707L328.639 247.033L328.676 252.235Z" fill="#1A191C"/>
<path d="M318.618 239.47L324.085 245.634L328.278 246.698L331.087 242.299L330.868 236.471L326.309 234.122L324.596 234.895L322.043 238.783L318.508 238.746L318.618 239.47Z" fill="#1A191C"/>
<path d="M301.484 257.516L303.526 257.662L304.727 258.873L307.573 258.909L308.268 250.841V245.56L310.09 245.195L310.785 239.658L315.417 239.512L317.057 238.156L314.283 238.046L310.529 238.557L306.482 237.091H295.109L295.402 240.315L299.193 245.889L298.535 248.748L298.571 250.251L301.484 257.516Z" fill="#1A191C"/>
<path d="M308.777 250.988L310.088 251.389L309.905 255.131L311.252 255.314L314.348 252.527L318.066 252.929L319.053 250.434L323.758 246.145L318.108 239.653L318.035 238.588L317.414 238.405L315.701 239.981L311.252 240.091L310.63 245.627L308.881 246.029L308.777 250.988Z" fill="#1A191C"/>
<path d="M328.497 252.673L326.967 252.928L326.309 254.723L327.479 255.788H328.899L330.1 254.066L328.497 252.673Z" fill="#1A191C"/>
<path d="M320.292 259.603L322.151 258.173L323.029 258.209L324.089 259.53L323.98 260.85L322.194 261.507V262.018L320.225 261.909L319.75 260.479L320.292 259.603Z" fill="#1A191C"/>
<path d="M324.403 246.363L319.589 250.805L318.443 253.549L314.627 253.074L311.452 255.891L309.343 255.684L309.514 251.79L308.764 251.529L308.24 259.493L304.498 259.457L303.37 258.13L301.719 258.112L303.224 262.426L305.912 264.963L303.992 267.196L305.235 269.995L308.112 271.09L310.404 269.143L316.968 269.179L317.437 268.595L320.35 268.084L330.206 258.289L330.169 255.204L329.115 256.567H327.536L325.616 254.96L326.591 252.539L328.267 252.198L328.115 247.221L324.403 246.363ZM322.093 257.619L323.014 257.583L324.507 259.201L324.464 261.075L322.715 261.957L322.605 262.578L319.936 262.608L319.101 260.601L319.863 259.128L322.093 257.619Z" fill="#1A191C"/>
<path d="M194.575 31.247L193.746 32.5673L195.239 34.058L194.575 35.5486L196.733 38.3596L199.384 37.5321L202.864 37.2036L206.844 41.5052L209.495 48.6178L207.343 53.0836L210.324 52.5847L211.982 53.5765L212.146 55.7303L208.501 55.8946L210.488 57.8781L212.975 58.377L207.508 65.6538L206.844 70.1197L208.002 73.7581L207.173 75.912L208.666 80.5421L211.482 83.6877L212.311 83.5234L214.133 83.0245L214.298 85.6712L215.456 87.3261L217.607 87.1619L219.265 81.041L224.238 74.9202L231.698 71.945L236.336 66.1527L238.488 67.1445H242.961L246.606 63.5061L251.079 61.6869L251.579 58.8759L248.763 56.3935L246.277 55.566L244.948 52.0919L248.099 50.2727L253.072 52.9194L254.73 51.1001L252.079 49.6095L257.716 41.998L256.723 38.6882L254.072 38.5239L255.065 35.5486L258.381 34.058L265.176 28.1015L263.19 25.9537L255.565 26.6169L251.585 30.5899L253.907 25.4609L251.256 24.7977L249.763 27.4443L247.611 25.6251L241.645 26.2883L243.302 23.6416L253.078 23.3131L250.592 20.0032L239.987 18.0197L235.678 18.6829L235.842 20.8368L231.369 19.3461L231.533 17.8555L228.382 18.5187L227.718 20.1736L231.034 21.3296L227.554 23.812L225.067 21.0011L221.587 20.0093L221.087 22.656H217.607L216.278 19.845L210.811 19.0176L207.831 20.5082L207.666 22.4917L203.857 21.9928L201.535 22.9845L201.7 25.3027V26.4587L197.391 27.2862L195.404 25.9659L194.075 28.1136L196.062 30.2675L200.207 29.7686L200.536 31.0949L197.385 32.5856L194.575 31.247Z" fill="#1A191C"/>
<path d="M207.832 57.0566L208.826 58.5473L208.326 60.3665H207.333L206.004 58.8759L206.333 57.7198L207.832 57.0566Z" fill="#1A191C"/>
<path d="M249.263 52.9189L252.079 53.7464L251.914 56.0645L248.934 54.5739L248.27 53.7464L249.263 52.9189Z" fill="#1A191C"/>
<path d="M462.761 261.178L462.547 276.62L460.17 278.36L459.957 279.881L463.199 282.053L471.202 280.532H475.31L476.821 278.354L485.902 276.614L492.387 278.573L491.954 281.183L492.82 283.793L497.793 282.923L498.006 284.225L494.764 286.617L495.843 287.487L498.22 286.617L497.574 293.796L502.114 297.276L504.711 296.406L506.009 297.708L513.579 296.619L520.715 285.089L523.312 284.438L528.498 274.868L529.797 266.605L526.554 262.474L527.852 261.604L525.256 253.554L522.446 251.595L522.879 240.723L520.283 238.763L519.637 232.673H518.339L514.011 247.026L511.634 247.245L506.228 241.806L509.257 233.756L503.638 232.667L497.367 234.407L495.636 239.408L492.826 240.059L492.613 236.579L481.155 243.54L481.368 246.15L479.637 248.541H475.31L466.009 252.453L462.761 261.178Z" fill="#1A191C"/>
<path d="M551.42 256.609L551.207 257.698L554.017 261.611L555.528 262.262L555.742 260.741L551.42 256.609Z" fill="#1A191C"/>
<path d="M439.178 194.001L439.008 195.388L443.146 202.33H444.353L452.977 216.732L456.427 217.079L458.151 212.047L455.39 210.313L454.872 207.539L439.178 194.001Z" fill="#1A191C"/>
<path d="M464.574 203.342L466.415 205.465L473.473 203.025L474.868 197.647L478.013 197.422L480.89 195.341L477.16 192.627L476.307 191.137L474.466 194.526L475.142 196.473L474.021 198.097L471.906 197.556L466.781 201.31L466.915 203.482L464.574 203.342Z" fill="#1A191C"/>
<path d="M474.099 195.024L472.344 197.148L473.782 197.598L474.593 196.466L474.099 195.024Z" fill="#1A191C"/>
<path d="M480.047 213.191L481.424 214.877L480.528 217.408V217.888H482.564L483.283 211.561L483.941 211.743L485.136 217.523L486.276 217.828L487.354 215.357L486.276 211.622L485.38 209.997L488.196 207.947L487.537 207.04L484.843 208.786H484.124L482.808 206.858L483.228 206.012L485.447 204.929L488.799 205.951L489.817 205.89L492.334 203.542L491.316 202.52L488.982 204.327H487.482L485.209 203.244L483.594 203.304L481.796 206.194L480.656 211.196L480.047 213.191Z" fill="#1A191C"/>
<path d="M495.077 201.869L493.938 204.637L495.735 206.986H496.333L497.113 205.422L497.533 204.881L496.753 204.035L495.614 203.615L495.077 201.869Z" fill="#1A191C"/>
<path d="M498.617 210.964L496.161 211.505L495.441 212.29L496.039 213.312L497.654 212.71L498.672 212.108L500.171 213.312L500.829 212.771L499.635 211.323L498.617 210.964Z" fill="#1A191C"/>
<path d="M457.887 218.795L456.211 219.939L456.571 220.9L461.903 222.105L464.597 222.585L465.737 223.79L468.79 224.034L470.229 225.238L471.545 224.934L472.746 223.851L470.527 222.829L468.614 221.204L463.64 220L457.887 218.795Z" fill="#1A191C"/>
<path d="M475.316 224.034L474 224.758L474.78 225.604L476.694 224.88L475.316 224.034Z" fill="#1A191C"/>
<path d="M477.59 223.493L477.828 224.637L479.205 224.996L479.741 224.332L479.144 223.426L477.59 223.493Z" fill="#1A191C"/>
<path d="M480.895 226.505L479.219 226.748L480.718 228.014H481.913L480.895 226.505Z" fill="#1A191C"/>
<path d="M481.364 224.515L481.004 225.239L483.698 225.659L485.794 224.454L484.6 224.095L482.686 224.637L481.967 224.034L481.364 224.515Z" fill="#1A191C"/>
<path d="M490.169 224.939L487.055 227.531L487.353 228.195L488.67 227.951L490.224 226.503L493.277 226.083L492.68 225.061L490.169 224.939Z" fill="#1A191C"/>
<path d="M535.482 213.124L534.945 213.885L537.877 216.476L538.279 217.998L539.078 217.906L539.169 216.343L538.279 215.539L535.482 213.124Z" fill="#1A191C"/>
<path d="M536.946 216.795L536.367 216.929L536.013 218.492L534.904 219.21L531.57 219.794L531.704 221.048L535.215 220.871L537.44 219.484L537.305 217.069L536.946 216.795Z" fill="#1A191C"/>
<path d="M540.902 219.52L541.658 221.62L542.993 222.915L543.395 222.556L543.261 221.169L541.75 219.338L540.902 219.52Z" fill="#1A191C"/>
<path d="M544.594 222.647L544.685 224.035L545.532 224.838L546.331 224.345L545.618 222.867L544.594 222.647Z" fill="#1A191C"/>
<path d="M545.662 226.091L544.949 226.851L545.705 228.239L546.595 228.506L546.552 227.569L545.662 226.091Z" fill="#1A191C"/>
<path d="M547.391 225.288L548.012 226.809L549.213 228.239L549.877 227.168L548.987 225.647L547.391 225.288Z" fill="#1A191C"/>
<path d="M550.508 227.568L550.861 229.448L551.708 230.611L552.422 229.138L550.508 227.568Z" fill="#1A191C"/>
<path d="M551.483 231.772L551.172 232.308L552.196 233.653L552.909 233.695L552.464 231.949L551.483 231.772Z" fill="#1A191C"/>
<path d="M549.215 234.45L548.148 234.943L549.081 236.239L549.879 235.789L549.215 234.45Z" fill="#1A191C"/>
<path d="M560.096 242.463L559.34 243.473L559.657 244.611L560.035 244.866L560.723 243.978L560.096 242.463Z" fill="#1A191C"/>
<path d="M560.477 245.56L560.538 246.382L561.354 246.637L561.921 246.321L561.354 245.433L560.477 245.56Z" fill="#1A191C"/>
<path d="M561.667 252.897L561.289 253.469L561.856 254.102L562.801 253.786L561.667 252.897Z" fill="#1A191C"/>
<path d="M577.008 251.632L576.252 252.642L576.191 253.78L577.069 254.668L577.008 251.632Z" fill="#1A191C"/>
<path d="M479.953 181.809L479.428 182.806L479.136 184.035L476.223 187.729L476.399 188.489L477.624 188.313L481.409 184.09L479.953 181.809Z" fill="#1A191C"/>
<path d="M484.67 180.403L484.609 183.452L485.719 184.565L486.127 186.731L487.236 186.968L487.76 185.618L486.889 184.973L486.657 181.164L484.67 180.403Z" fill="#1A191C"/>
<path d="M487.819 181.577L487.758 184.272L488.398 185.325L489.507 184.035L489.214 181.693L487.819 181.577Z" fill="#1A191C"/>
<path d="M488.512 179.23L489.621 180.696L490.145 182.101H491.139L490.962 179.698L489.853 178.938L488.512 179.23Z" fill="#1A191C"/>
<path d="M490.67 184.741L490.901 186.5L488.859 188.142L487.171 188.319L485.367 190.254L485.428 191.136L487.116 190.606L488.28 189.846L489.274 192.365L491.023 193.594L491.724 193.357L492.364 192.596L490.968 191.191L491.785 190.546L492.717 191.306L493.357 190.254L492.717 188.964L492.602 186.092L490.67 184.741Z" fill="#1A191C"/>
<path d="M481.179 166.866L479.606 167.98L479.43 171.496L481.88 176.242L482.696 176.887L483.745 176.181L485.549 176.473L485.896 178.055L487.237 178.171L487.877 177.295L487.06 176.181L486.067 175.244L483.97 175.013L482.861 173.194L484.141 171.259L484.257 169.562L483.385 167.396L481.179 166.866Z" fill="#1A191C"/>
<path d="M481.992 177.355L482.455 178.998L483.272 179.528L483.857 178.767L482.925 177.477L481.992 177.355Z" fill="#1A191C"/>
<path d="M461.946 165.161L460.49 165.569L459.441 166.859L460.313 168.556L461.593 168.672L463.05 167.382L463.397 165.684L461.946 165.161Z" fill="#1A191C"/>
<path d="M478.785 151.862L476.628 153.505L476.512 156.669L478.377 158.835L478.84 158.427L478.785 151.862Z" fill="#1A191C"/>
<path d="M488.396 132.46L487.402 133.458L487.811 134.863L488.682 134.924L489.267 137.972L489.968 138.733L491.193 137.619L491.717 135.624L490.2 133.458L488.396 132.46Z" fill="#1A191C"/>
<path d="M493.761 130.47L492.073 132.052L492.012 133.871L492.42 134.4L494.693 132.465L494.517 130.531L493.761 130.47Z" fill="#1A191C"/>
<path d="M491.427 126.716L488.453 130.117L488.977 130.938L490.434 131.115L493.17 129.003L495.096 128.65L496.846 130.701L498.186 130.232L498.711 128.237L501.216 128.176L503.666 125.243L502.386 120.376L501.801 117.796L503.08 116.743L500.167 112.351L499.411 112.411L497.839 114.17V115.636L498.54 116.457L498.772 120.327L496.967 122.554L495.919 121.909L495.102 123.728L494.926 125.426L495.566 126.424L495.157 127.184L493.816 126.071H492.884L492.067 126.539L491.427 126.716Z" fill="#1A191C"/>
<path d="M496.44 100.225L495.507 101.046L495.976 102.804L496.793 103.626L496.732 106.321L495.684 106.729L494.867 108.548L497.256 111.827L498.829 111.298L499.121 110.477L497.433 108.956L498.481 107.605L499.591 107.781L500.462 108.718L500.523 106.783L502.912 104.849L504.253 104.496L503.144 102.622L502.62 101.8L501.748 102.385L500.992 103.322L499.359 102.969L497.671 101.855L496.44 100.225Z" fill="#1A191C"/>
<path d="M505.239 98.4043L503.605 100.692L503.721 101.805L504.538 101.453L506.458 99.0492L505.239 98.4043Z" fill="#1A191C"/>
<path d="M507.398 95.0655L506.812 96.6475L506.873 97.7L507.867 97.0551L508.799 95.1811V94.4814L507.398 95.0655Z" fill="#1A191C"/>
<path d="M510.83 81.1133L510.074 82.0503L510.135 83.5166L510.836 83.4557L512 81.4053L510.83 81.1133Z" fill="#1A191C"/>
<path d="M509.438 84.6905V87.2702L510.254 87.5623L510.839 86.6253V84.6357L509.438 84.6905Z" fill="#1A191C"/>
<path d="M485.598 75.3701L485.543 79.1241L490.26 86.3949L491.949 92.7226L494.923 98.3506L496.087 98.7582L497.08 97.9368L497.544 96.5861L493.289 91.956L493.405 89.5526L494.338 89.145L494.569 87.7395L486.238 75.9603L485.598 75.3701Z" fill="#1A191C"/>
<path d="M518.469 63.7061L517.305 63.8217L518.006 64.8195L519.462 65.8173L519.871 65.3488L518.469 63.7061Z" fill="#1A191C"/>
<path d="M520.734 64.4121L520.911 65.4099L522.715 65.9393L522.892 65.2335L520.734 64.4121Z" fill="#1A191C"/>
<path d="M530.645 68.2402L531.406 69.6031L532.674 69.5179L532.93 68.581L530.645 68.2402Z" fill="#1A191C"/>
<path d="M543.422 70.3678L544.44 72.2418L545.202 71.39V70.1123L543.422 70.3678Z" fill="#1A191C"/>
<path d="M552.138 64.4053L550.699 66.2792L551.034 67.131L552.814 66.0237L552.985 64.9164L552.138 64.4053Z" fill="#1A191C"/>
<path d="M559.326 58.5352L558.059 60.0684L559.412 60.5795L559.326 58.5352Z" fill="#1A191C"/>
<path d="M561.109 55.9795L560.262 57.3424L560.347 58.7053L561.529 58.1942L561.109 55.9795Z" fill="#1A191C"/>
<path d="M535.971 24.1406L534.533 25.0776L534.191 26.2701L534.868 27.0368L536.392 26.5257L537.915 27.0368L538.762 27.2923L538.677 24.4813L535.971 24.1406Z" fill="#1A191C"/>
<path d="M41.0078 33.2412L43.1166 37.1778L44.4696 36.8735V35.5107L41.0078 33.2412Z" fill="#1A191C"/>
<path d="M537.254 11.4548L534.682 16.0606L539.606 19.1697L545.122 14.5517L548.474 20.131L544.976 20.849L543.592 24.4266L551.339 34.9037L556.001 35.6764L562.724 36.9967L563.553 34.563L565.899 35.4635L566.344 45.6547L561.998 52.8768L564.095 53.3331L569.568 41.8216L571.232 33.2062L567.855 31.6304L567.313 20.0702L569.915 20.5752L569.891 27.5295L572.731 30.0059L574.389 23.9641L573.06 20.3744L577.071 22.291L577.491 1.00195L531.317 1.08713L528.66 3.12538L529.02 7.24446L537.205 8.36397L543.489 6.93416L541.234 11.1445L537.254 11.4548Z" fill="#1A191C"/>
<path d="M-0.4375 34.2152L8.10123 35.1704L9.52739 38.1152L16.3291 34.1361L27.7141 32.5481L28.5064 26.6645L34.1989 24.5959L37.9167 21.0974V25.8675L41.7137 31.0391L49.6186 26.0318L45.8216 21.7362L41.0798 8.93484L35.3813 2.40638L31.3466 2.08999L31.1881 5.58847L27.8665 7.26166L26.8364 5.19299L28.8111 0.976562L-0.358268 1.05566L-0.4375 34.2152Z" fill="#1A191C"/>
<path d="M46.6912 2.80176L44.3203 4.94952L45.0334 6.53753L46.3011 5.66138L47.0142 6.45843L49.3789 5.58837L49.2997 4.23766L46.6912 2.80176Z" fill="#1A191C"/>
<path d="M29.1192 67.8672L29.0156 69.6986L30.3321 69.3943V68.5791L29.1192 67.8672Z" fill="#1A191C"/>
<path d="M27.09 68.6826L24.457 70.009L24.8654 71.4327L25.8771 70.6174L27.9006 69.6987L27.09 68.6826Z" fill="#1A191C"/>
<path d="M16.1544 70.4116L14.3321 70.0039L14.0273 70.8192L14.2285 72.3464L16.1544 70.4116Z" fill="#1A191C"/>
<path d="M12.303 70.3144L10.5782 69.6025L9.96875 70.7221L11.0841 71.8416L12.303 70.3144Z" fill="#1A191C"/>
<path d="M6.32823 68.683L5.51763 67.5635L4.70703 67.8677V69.3949L5.62124 70.0033L6.32823 68.683Z" fill="#1A191C"/>
<path d="M-0.253906 61.4492L0.75782 62.1611L0.453083 62.9764H-0.253906V61.4492Z" fill="#1A191C"/>
<path d="M372.465 243.54L371.539 244.751L371.722 246.059L373.672 244.471L372.465 243.54Z" fill="#1A191C"/>
<path d="M369.036 245.597L367.646 245.688L367.555 246.899L368.481 247.087L369.871 246.436L369.036 245.597Z" fill="#1A191C"/>
<path d="M359.841 227.679L358.543 230.758L356.319 234.676L352.424 234.956L350.754 236.915L351.035 242.89L348.621 245.688L348.901 250.446L350.943 252.777L353.357 252.497L355.77 250.72L355.216 247.921L360.78 238.308L359.665 237.097L360.78 234.767L361.987 235.138L362.359 234.207L361.243 229.449L360.591 227.49L359.841 227.679Z" fill="#1A191C"/>
<path d="M350.941 226.65L351.222 227.581L352.429 227.769L352.892 226.559L350.941 226.65Z" fill="#1A191C"/>
<path d="M352.703 228.519L353.166 229.547H353.91L354.282 228.239L352.703 228.519Z" fill="#1A191C"/>
<path d="M365.969 218.808L365.598 219.556L366.615 220.396L367.359 219.556L365.969 218.808Z" fill="#1A191C"/>
<path d="M371.166 213.21L370.051 213.958L370.886 215.266H372.001L371.166 213.21Z" fill="#1A191C"/>
<path d="M371.63 216.478L370.887 217.317L371.441 218.157L372.459 218.345L372.551 216.569L371.63 216.478Z" fill="#1A191C"/>
<path d="M398.91 195.942L399.093 197.53L400.111 197.902L400.294 196.502L398.91 195.942Z" fill="#1A191C"/>
<path d="M400.209 199.302L400.117 201.261L400.861 201.632L401.513 200.324L400.209 199.302Z" fill="#1A191C"/>
<path d="M400.394 203.128L399.742 203.779L400.486 204.43L401.412 203.779L400.394 203.128Z" fill="#1A191C"/>
<path d="M225.966 132.824L225.137 133.658L226.624 134.491L226.788 133.329L225.966 132.824Z" fill="#1A191C"/>
<path d="M230.431 132.324L229.438 132.987L230.266 133.651L231.589 133.316L230.431 132.324Z" fill="#1A191C"/>
<path d="M231.087 134.656L230.594 135.989L231.252 136.822L232.081 136.159L231.087 134.656Z" fill="#1A191C"/>
<path d="M235.056 137.314L234.727 138.148L235.22 138.647L236.543 137.813L235.056 137.314Z" fill="#1A191C"/>
<path d="M247.623 144.627L246.965 145.461L247.623 146.294L248.617 145.795L247.623 144.627Z" fill="#1A191C"/>
<path d="M252.16 155.16L251.094 155.775L251.587 156.274L252.16 155.16Z" fill="#1A191C"/>
<path d="M248.459 155.275L247.137 155.61L247.795 156.608H248.788L248.459 155.275Z" fill="#1A191C"/>
<path d="M245.309 154.277L244.48 155.111L245.638 156.109L246.297 154.612L245.309 154.277Z" fill="#1A191C"/>
<path d="M235.06 177.556L233.902 178.219L234.731 178.882L235.725 178.383L235.06 177.556Z" fill="#1A191C"/>
<path d="M237.9 178.894L237.145 179.563L237.681 180.555L238.973 179.977L237.9 178.894Z" fill="#1A191C"/>
<path d="M236.25 180.773L235.281 181.351L236.323 182.745L237.146 182.313L236.25 180.773Z" fill="#1A191C"/>
<path d="M4.9447 152.099L4.85938 153.516L6.1027 154.35L6.84626 153.687L4.9447 152.099Z" fill="#1A191C"/>
<path d="M8.16581 154.187L7.00781 155.02L8.00125 156.267L9.15925 155.27L8.16581 154.187Z" fill="#1A191C"/>
<path d="M10.4895 156.182L9.49609 157.514L9.82521 158.348L11.2331 157.684L10.4895 156.182Z" fill="#1A191C"/>
<path d="M12.1415 158.761L11.5625 162.089L12.1415 163.336L14.0431 162.752L15.0365 161.085L12.9643 159.168L12.1415 158.761Z" fill="#1A191C"/>
<path d="M15.4582 245.785L14.3002 245.7L14.2148 246.783L15.123 247.367L16.2017 246.704L15.4582 245.785Z" fill="#1A191C"/>
<path d="M19.4312 246.953L17.7734 248.036L19.0168 249.533L20.0955 249.283L20.6745 248.535L19.4312 246.953Z" fill="#1A191C"/>
<path d="M167.43 173.194L166.516 173.572L166.839 174.381L167.911 173.681L167.698 173.462L167.43 173.194Z" fill="#1A191C"/>
<path d="M168.931 174.112L168.395 175.25L169.041 176.114L169.845 175.414L168.931 174.112Z" fill="#1A191C"/>
<path d="M170.767 177.245L170.121 177.841L170.603 178.815L171.517 178.547L170.767 177.245Z" fill="#1A191C"/>
<path d="M170.71 179.68L170.277 180.598L170.978 181.353L171.892 180.866L170.71 179.68Z" fill="#1A191C"/>
<path d="M170.761 182.004L170.012 182.545L170.603 183.628L171.572 183.087L170.761 182.004Z" fill="#1A191C"/>
<path d="M169.849 184.109L169.148 184.809L169.417 185.241H170.276L170.544 184.535L169.849 184.109Z" fill="#1A191C"/>
<path d="M170.87 186.221L170.224 186.817L169.523 186.926V187.79L170.816 188.977L171.352 188.113L171.675 187.139L171.565 186.33L170.87 186.221Z" fill="#1A191C"/>
<path d="M164.046 171.789L162.437 171.247L161.145 172.056L161.791 172.811L163.991 173.133L164.046 171.789Z" fill="#1A191C"/>
<path d="M151.749 168.331L150.732 169.371L151.896 169.846L152.066 171.3L149.488 171.525L149.75 172.925L150.5 172.979L150.933 172.335L153.944 172.432L154.486 173.472L155.181 172.657L157.21 172.109L158.996 172.487L159.203 171.41L155.985 169.311L153.901 168.532L151.749 168.331Z" fill="#1A191C"/>
<path d="M159.205 171.41L155.981 169.305L154.457 168.788L153.945 172.439L154.482 173.467L155.183 172.658L157.224 172.116L158.998 172.493L159.205 171.41Z" fill="#1A191C"/>
<path d="M151.743 168.331L153.84 168.55L153.59 171.118L153.383 172.468L150.939 172.335L150.506 172.986L149.756 172.931L149.488 171.525L152.066 171.312L151.908 169.852L150.726 169.365L151.743 168.331Z" fill="#1A191C"/>
<path d="M246.515 72.1568L245.321 71.4814L243.712 72.4975L242.328 73.7752L242.365 74.4871L244.157 74.7122L244.047 75.9899L243.413 76.6288L243.565 77.0425L245.357 77.1581V79.2268L247.935 79.677L249.465 80.541L251.184 80.614L254.134 79.1477L256.413 76.142L256.45 74.1099L255.066 72.9417L253.908 71.9621L253.384 72.3393L252.598 73.3554L251.702 73.2398L250.806 72.2602L249.648 72.3698L247.966 73.7631L246.954 74.8522L246.393 74.3654L246.357 73.1607L246.917 72.7835L246.515 72.1568Z" fill="#1A191C"/>
<path d="M296.431 33.6125L295.425 32.6025L293.195 33.6855H289.099L288.453 36.0706L290.751 38.0967L291.756 37.9506L293.195 35.4926L294.414 36.3626L293.548 38.0967L293.116 40.6277L294.121 42.2158L296.279 38.6017L299.082 35.2005L298.004 34.2636L296.431 33.6125Z" fill="#1A191C"/>
<path d="M297.653 29.2759L295.855 30.9369L296.934 32.5979H298.872L299.665 33.681L302.036 34.91L304.766 33.322L306.637 31.734L305.991 30.4319L304.12 29.3489L302.755 30.578L301.822 29.4219L301.103 29.4949L300.171 31.521L298.805 30.146L298.659 29.209L297.653 29.2759Z" fill="#1A191C"/>
<path d="M301.743 36.7227L300.305 38.0247L299.086 38.9617L299.659 39.9717L300.811 40.3307L302.682 39.4606L303.547 38.3776L302.755 37.0755L301.743 36.7227Z" fill="#1A191C"/>
<path d="M332.73 24.3838L333.778 24.8036L333.041 26.0691V27.864L331.468 28.8132H329.792L328.848 27.6511L328.951 26.3855L329.689 25.4364H331.158L332.73 24.3838Z" fill="#1A191C"/>
<path d="M336.719 23.2207V24.4863L337.767 25.332L339.236 25.2286L340.497 24.0665V23.2207H339.346L338.401 23.5371L337.663 22.6914L336.719 23.2207Z" fill="#1A191C"/>
<path d="M342.703 23.3311L343.441 24.913L344.909 25.0164L345.958 24.5966L345.434 23.1181L344.068 22.8018L342.703 23.3311Z" fill="#1A191C"/>
<path d="M348.681 21.2188L347.529 21.0059L346.48 22.0645L347.005 23.0137L347.322 24.4922L348.687 23.4396L349.004 22.2775L348.681 21.2188Z" fill="#1A191C"/>
<path d="M355.085 32.4082L354.768 33.8867L352.354 35.9979L347.21 37.1601L343.011 44.1266L342.273 46.1344L346.473 47.1931L347.1 44.662L348.362 40.7559L351.617 39.0644L354.347 36.9532L356.34 36.1075H357.388V33.26L355.085 32.4082Z" fill="#1A191C"/>
<path d="M341.548 47.8203L344.382 48.1367L345.326 51.4101L347.74 53.9411L346.899 55.6326H345.43L344.065 54.0507L341.023 53.9472L339.762 52.2558V51.0937L341.651 50.5643L341.548 47.8203Z" fill="#1A191C"/>
<path d="M385.841 11.8252L384.476 10.9795H382.903L382.586 11.9286L380.91 12.8778L379.649 13.2976L379.441 14.5632L382.379 14.7761L385.841 11.8252Z" fill="#1A191C"/>
<path d="M389.085 12.1416L388.348 13.7235L386.879 13.6201L384.569 15.3115L383.941 17.4228H385.41L386.251 16.0477L388.244 17.5262L390.134 16.6805L391.499 15.5184L390.975 13.7235L390.237 12.458L389.085 12.1416Z" fill="#1A191C"/>
<path d="M392.137 13.3027L392.874 16.2597L394.026 19.0037L395.288 16.789L397.701 16.2597V14.6778L396.129 13.5157L392.137 13.3027Z" fill="#1A191C"/>
<path d="M449.718 8.57088L451.357 9.94593L452.522 9.46527L452.863 7.53654L450.474 5.8877L448.901 6.92203L445.074 7.26883V8.99069L441.039 9.05762V11.8747L445.756 15.3792L446.988 14.4848L446.713 12.0085L449.724 11.2541L449.108 10.0859L448.018 8.98461L449.718 8.57088Z" fill="#1A191C"/>
<path d="M454.094 6.92206L455.185 8.98464L459.427 8.50398L460.591 6.98898L460.316 5.68086L459.152 5.2002L458.061 6.02766L454.917 6.71519L454.094 6.92206Z" fill="#1A191C"/>
<path d="M453.816 14.9656L451.695 14.418L450.47 15.7261L449.922 17.5149L452.793 17.2411L454.981 16.1398L453.816 14.9656Z" fill="#1A191C"/>
<path d="M508.785 3.06907L507.005 2.52148L504.958 3.27594L503.934 4.79093L505.232 6.51279L508.651 4.9978L509.334 4.24334L508.785 3.06907Z" fill="#1A191C"/>
<path d="M413.626 188.21L413.779 189.864L413.931 191.069L413.035 191.221L413.486 193.929L414.833 194.683L416.924 193.479L416.326 190.625L416.479 189.572L414.534 187.771L413.626 188.21Z" fill="#1A191C"/>
<path d="M133.453 163.185V163.958L136.696 164.019L138.225 163.13L138.463 163.781L141.644 164.554L144.472 167.104L143.826 167.992L143.942 169.002L146.301 169.592L148.659 168.527L149.72 167.463L148.19 166.69L140.298 162.066L137.53 161.768L133.453 163.185Z" fill="#1A191C"/>
<path d="M144.887 158.446L144.12 158.209L144.059 159.687L145.003 160.637L145.649 159.687L144.887 158.446Z" fill="#1A191C"/>
<path d="M146.42 160.757L145.359 161.347L146.359 162.771L146.889 162.059L146.42 160.757Z" fill="#1A191C"/>
<path d="M149.836 161.823L148.715 161.762L148.831 162.474L149.653 163.66L150.36 162.887L149.836 161.823Z" fill="#1A191C"/>
<path d="M149.307 160.404L147.478 159.632L147.125 157.794L147.832 157.496L148.539 158.92L149.246 159.455L149.307 160.404Z" fill="#1A191C"/>
<path d="M147.539 156.668L146.594 156.431L146.418 155.244L145.418 154.891L146.064 154.24L147.24 154.654L148.124 155.189L147.539 156.668Z" fill="#1A191C"/>
<path d="M144.473 170.895L142.352 171.43V172.02L143.589 172.732H144.887L145.71 171.783L144.473 170.895Z" fill="#1A191C"/>
<path d="M505.89 207.247L503.348 207.533L501.715 208.726L502.391 210.088L505.158 210.6V211.111L503.409 212.528L504.256 215.479L505.104 215.534L505.835 212.638H507.188L507.755 215.473L514.355 220.925L514.526 225.184L516.781 227.623L517.799 227.569L518.024 212.528L514.191 209.863L510.577 212.303L509.278 213.1L507.133 211.737L507.078 207.424L505.89 207.247Z" fill="#1A191C"/>
<path d="M55.6019 28.0948L50.4884 29.3055L51.5428 35.0552L57.1073 36.5702L57.4059 37.781L49.1353 40.3546L44.4729 48.0696L46.1245 56.2408L48.8306 58.0539L50.9394 56.0887L51.5428 57.2995L48.983 60.3234L39.0546 64.8623L32.7344 66.3772L32.582 68.6467L47.1728 64.412L53.1883 62.7449L58.7528 55.9366L64.9207 51.854L61.7636 57.1473L65.2254 57.6037L71.0947 55.03L72.1491 59.2647L76.2082 60.1712L80.4196 64.2538L80.7183 67.2777L80.1149 68.0322L80.8645 70.904H81.9189L82.0713 66.0609H83.272L83.5706 78.0104L86.5814 75.4368L84.4726 63.0309H81.3155L77.8537 58.6441L94.852 29.8957L78.0061 16.7354L59.2038 20.3677L58.4542 26.1174L62.5133 28.5389L61.0079 32.4755L55.6019 28.0948Z" fill="#1A191C"/>
<path d="M117.68 206.541L117.302 208.214L116.602 208.92L117.083 209.784L118.32 209.297L118.911 208.269L118.534 207.186L117.68 206.541Z" fill="#1A191C"/>
<path d="M123.019 22.6197L123.153 25.0656L118.289 30.0973L119.508 34.1738L123.019 33.2247L125.048 30.2312L130.18 28.3268L134.367 28.053L131.125 24.518L129.503 25.741L128.284 25.3333L127.608 23.8366L126.121 22.3398L123.019 22.6197Z" fill="#1A191C"/>
<path d="M129.368 15.4156L128.289 17.32L133.561 19.2244L135.45 16.3708L136.261 18.2752H137.614L140.18 15.4217L137.072 14.6064L135.853 13.6572L134.231 15.2878L129.368 15.4156Z" fill="#1A191C"/>
<path d="M138.562 19.2236L134.375 20.9881V22.3449L139.781 24.3831L138.562 25.7399L139.373 27.5044L142.749 26.0076H145.589L146.942 28.1797L149.24 25.8677L148.698 23.6895L146.808 24.371L146.54 21.6513L147.485 20.0207H146.54L145.053 20.9698L144.376 21.5113L144.785 23.4157L143.706 24.231L142.085 24.0972L141.676 21.6513L138.562 19.2236Z" fill="#1A191C"/>
<path d="M144.1 15.0078L143.691 16.3646L146.257 17.5876L148.147 16.4985L148.013 15.6832L144.1 15.0078Z" fill="#1A191C"/>
<path d="M146.128 12.6963L144.238 13.3777L144.372 14.3269L148.559 14.0531L148.425 13.1039L146.128 12.6963Z" fill="#1A191C"/>
<path d="M155.179 15.0064L154.911 15.9555L154.234 16.9047V18.2615L156.8 17.8538L159.5 20.1659H160.445V17.8538L157.745 14.8604L155.179 15.0064Z" fill="#1A191C"/>
<path d="M162.074 17.7269L163.153 18.9499L162.208 20.5805L162.885 22.3449L165.859 20.7143V19.4914L164.104 17.4531L162.074 17.7269Z" fill="#1A191C"/>
<path d="M165.992 14.6005L166.126 16.7726H169.777L170.722 17.5879L170.588 18.5371L167.345 18.9447L169.643 22.072L172.751 22.6135L177.072 20.7092L170.856 11.3271L168.966 12.5501L169.101 14.1807L166.937 13.3654L165.992 14.6005Z" fill="#1A191C"/>
<path d="M134.508 29.9629L129.376 31.3197L126.402 33.9055L126.67 36.7591L132.076 38.3897L130.857 41.1093L126.938 38.6635L125.859 40.7017L128.425 42.4662L128.291 45.3197L132.21 46.4088L136.94 46.135L137.75 44.6383L141.261 48.5809L143.693 47.7656L144.101 45.0459L145.856 46.2688L146.124 43.5492L143.961 42.1924L144.095 33.6317L142.205 32.135L140.182 34.8547L134.508 29.9629Z" fill="#1A191C"/>
<path d="M150.989 35.9439L149.234 35.1286L148.289 36.3515L150.178 39.345L150.313 42.1985L154.366 39.7527V36.2177L155.853 34.7209L154.366 33.6318H151.934L150.989 35.9439Z" fill="#1A191C"/>
<path d="M159.641 34.7207L156.801 37.0327L157.477 39.8863H159.233L160.043 38.3895L161.262 39.6125L162.481 39.4786L165.723 36.7589L159.641 34.7207Z" fill="#1A191C"/>
<path d="M159.372 30.2305L158.695 31.5873L161.67 32.6764L162.48 31.4534L159.372 30.2305Z" fill="#1A191C"/>
<path d="M157.612 25.0645L154.638 25.4721L152.883 27.1027L156.125 27.2366L155.181 29.6824L155.857 30.7715L156.802 30.6377L159.099 26.9688L157.612 25.0645Z" fill="#1A191C"/>
<path d="M162.746 24.1162L161.125 24.6577L161.393 26.8298L164.093 28.5943L164.227 29.9511L163.417 30.7664L163.825 33.4861L174.229 36.8811L177.069 37.8302L179.909 35.3844L176.532 32.6647L173.424 33.48L169.103 33.0723L167.482 31.4417L167.073 26.9576L164.373 25.6008L162.746 24.1162Z" fill="#1A191C"/>
<path d="M171.261 38.2562L168.287 37.9824L164.776 39.3392L162.887 41.919L163.429 48.9889L169.237 49.2627L174.778 51.9824L178.696 56.4666L181.671 56.3327L180.86 60.543L178.16 65.0272L175.186 66.384L173.022 65.9763L171.943 65.0272L170.322 67.1993L170.999 69.3714L173.297 69.5052L176.137 68.1484L178.568 74.4031L184.651 78.3457L188.838 73.0463L185.328 67.3392L187.357 65.0272L190.197 69.7851L195.329 65.301L194.384 63.2627L190.874 64.3518L188.442 57.6895L190.74 53.8868L186.144 48.995L183.578 50.7595L181.147 45.46L176.015 46.1415L174.662 39.753L170.475 42.6065L170.066 46.1415H167.769L168.037 43.0141L171.261 38.2562Z" fill="#1A191C"/>
<path d="M177.337 40.7012L176.258 41.7903L177.203 43.287L181.664 43.8285L178.824 40.835L177.337 40.7012Z" fill="#1A191C"/>
<path d="M173.017 25.3394V26.5624L170.043 27.2438L170.854 28.6006L174.23 29.9574L178.015 30.3651L180.715 32.2695L183.415 30.7727L181.525 28.8683H183.957L185.444 27.2378L189.095 26.6963V25.881L187.066 24.5242L187.334 23.0274L193.008 23.9766L201.388 20.7154L198.28 19.7662L199.09 18.6771H205.575L206.654 17.588L193.544 12.964L190.436 11.8749L187.059 14.3208L183.275 11.1934L181.245 11.0596L180.837 13.6454L178.271 11.3334L175.297 12.2825L175.839 13.7793L180.3 14.7284L180.032 16.9005L182.464 18.3973L188.412 16.9005L188.547 18.9388L183.683 21.2508L180.709 18.9388L178.009 19.2125L180.709 23.0213L179.356 23.7028L177.326 21.9383L175.839 22.8875L177.192 25.4672H179.49L178.947 27.9131L177.058 27.6393L174.626 25.0535L173.017 25.3394Z" fill="#1A191C"/>
<path d="M160.979 62.752L158.401 65.9888L158.242 69.5542L160.497 68.2583H163.234L165.166 70.041L166.939 68.5807L160.979 62.752Z" fill="#1A191C"/>
<path d="M192.368 104.854L185.926 111.012L186.572 112.472L194.458 115.386L195.586 113.446L194.94 110.209L192.362 110.531L190.911 108.913L193.325 106.485L192.368 104.854Z" fill="#1A191C"/>
<path d="M95.2846 30.3887L96.4974 32.22L97.1069 34.6659L100.142 35.4265L102.269 33.1388L104.091 34.0575L109.254 34.5138L112.898 32.9867L113.508 38.0245H115.635V35.8889L117.762 36.041L123.077 42.3018L126.569 44.4373L124.747 47.3396L125.508 48.1001L132.328 49.4752L132.481 52.5295L134.303 52.8337L134.76 48.2522L137.643 47.4917L139.77 50.6981L144.323 52.8337L146.602 53.29L148.12 51.4586L148.272 48.5564L151.003 46.8772L151.911 49.323L149.479 53.6003L149.784 55.7359L151.149 53.6003L153.879 51.1544L154.032 47.948L152.514 45.5021L152.971 43.5186L156.616 41.6872L158.286 42.9102L158.591 53.6003L161.169 51.3126L162.686 52.2313L160.559 55.8941L163.29 56.5025L167.239 50.3939L170.579 53.9045L169.214 60.1653L165.874 61.9967L162.686 60.4695L156.921 61.6925L157.53 63.6759L156.013 66.1218L151.307 67.1927L145.993 71.3178L141.288 77.5786L140.678 79.5621L143.866 80.785L145.079 83.8393L149.479 88.2687L156.464 91.323L154.946 98.3443L154.794 100.328L156.616 101.551L159.048 98.3443L159.352 92.2357L163.149 92.0836L164.972 88.5729L165.277 83.2309L170.134 73.7637L176.204 75.8993L179.392 80.3287L178.027 84.7581L180.459 86.1331L186.377 82.1601L188.046 93.0023L193.513 99.5673L193.666 102.926L187.595 104.453L184.713 107.507L178.642 106.132L175.607 105.98L170.293 110.105L173.48 109.345L177.429 108.584L178.191 109.503L177.131 112.862L177.283 115.916L179.105 117.139L180.928 116.682L181.842 115.307H183.055L181.08 118.97L177.283 119.122L175.613 121.568H173.486L172.877 119.737L175.912 116.682L172.267 117.905L172.103 112.715L171.054 112.107L167.867 113.482L167.562 116.08H160.273L154.05 120.357L145.7 123.107L144.792 121.885L148.997 115.618L146.608 113.324L145.091 110.416L142.001 108.061L138.685 107.787L132.743 103.632L89.6469 96.5616L88.9339 93.6473L84.9845 89.9845V86.9302L85.5939 84.1801L85.2892 82.6529L83.7716 81.1257L83.4669 78.6798L87.4163 75.9297L84.9845 62.7998L81.6446 62.6477L78.6094 58.6746L95.2846 30.3887Z" fill="#1A191C"/>
<path d="M89.5161 97.1221L88.9067 99.568L86.7796 98.1929H85.7191L85.1096 100.791L77.668 117.438L79.6427 131.943L82.0745 133.166L82.5316 137.139H87.5414L92.3989 140.801L101.962 141.72L103.022 146.606L104.54 147.677L106.667 145.541L108.337 146.302L109.854 153.323L112.432 155.002L114.559 151.029L121.087 146.295L125.335 148.279L128.98 148.583L129.132 146.295L136.72 146.448L138.237 148.127L138.542 151.942L137.634 154.077L138.695 157.74H140.974L143.253 154.229L142.345 152.55L141.437 148.887L142.802 144.762L149.025 139.42L153.73 138.045L153.121 133.616L159.648 126.588L166.176 125.518L165.115 121.861L171.49 118.198V113.312L170.881 113.008L168.601 113.769L168.297 116.762L160.721 116.853L154.785 120.79L145.466 123.832L143.979 122.013L148.208 115.624L146.118 113.635L144.698 110.933L141.754 108.573L138.554 108.305L132.508 104.186L89.5161 97.1221Z" fill="#1A191C"/>
<path d="M80.415 78.9111L79.3789 80.8946L79.7385 82.3001L80.415 82.7199L80.2565 83.2918L79.5313 83.4987L79.7385 85.5856L80.5186 86.3705L81.1403 85.6951L80.3602 83.663L80.8234 82.0445L81.9631 80.5296L81.1342 79.1241L80.415 78.9111Z" fill="#1A191C"/>
<path d="M83.8427 90.7998L82.9102 91.1649L84.6228 93.1483L85.0372 95.4969L86.7498 97.3222L88.2004 97.0606V94.6633L86.439 93.5682L83.8427 90.7998Z" fill="#1A191C"/>
<path d="M117.621 178.152L121.235 180.793L124.88 176.272L124.258 175.335L123.015 175.293V172.646L122.082 172.08L119.261 172.92L120.339 175.402L117.621 178.152Z" fill="#1A191C"/>
<path d="M125.345 176.484L130.977 176.271L132.646 178.255L131.604 178.018L129.599 178.103L126.978 180.561L125.857 183.049L125.119 182.66L125.113 179.934L123.492 178.851L125.345 176.484Z" fill="#1A191C"/>
<path d="M121.75 181.042L124.615 182.466L124.572 180.209L123.103 179.314L121.75 181.042Z" fill="#1A191C"/>
<path d="M131.558 178.511L132.893 178.778L132.935 181.51L131.381 185.94L127.194 185.526L126.262 183.39L127.505 180.798L129.864 178.608L131.558 178.511Z" fill="#1A191C"/>
<path d="M131.336 186.342L132.183 187.997L132.872 188.909L131.945 191.653L130.178 190.412L127.289 187.772V186.025L131.336 186.342Z" fill="#1A191C"/>
<path d="M133.296 189.159L132.406 191.933L135.344 192.694L137.166 193.053L137.477 190.905L139.433 189.919L141.17 190.814L141.853 191.903L142.682 191.805L143.334 189.828L141.164 188.933L139.519 188.039L137.873 189.159L135.917 190.144L133.918 189.341L133.296 189.159Z" fill="#1A191C"/>
<path d="M153.492 183.179L152.237 183.051L143.936 189.883L143.058 192.287L141.924 192.415L142.43 197.726L139.535 204.814L142.68 207.473L146.709 207.729L149.476 211.781L153.498 211.909L153.37 214.945H154.876L156.509 209.378L154.998 207.479L155.375 203.938L158.52 203.683L158.142 195.457L151.097 193.181L149.463 188.752L153.492 183.179Z" fill="#1A191C"/>
<path d="M151.497 186.913L151.765 188.489L153.746 189.116L154.197 186.214L156.287 184.054L158.378 186.5L163.186 187.808L167.258 186.956L170.031 190.369L172.121 191.677L169.83 195.164L170.598 197.804L169.287 199.423L167.928 200.56L164.984 199.082L164.308 199.763V201.869L166.459 202.891L164.875 204.6L163.29 206.31L161.199 206.14L159.097 203.834L158.652 195.158L151.472 192.712L150.168 188.897L151.497 186.913Z" fill="#1A191C"/>
<path d="M172.581 191.908L176.982 195.887L175.232 197.907L175.092 199.106L177.39 201.473L177.335 203.748L173.337 205.269L170.942 202.039L171.454 198.157L170.43 195.267L172.581 191.908Z" fill="#1A191C"/>
<path d="M177.503 196.174L178.746 197.312L180.672 196.119L182.428 196.174L182.202 196.855L181.465 198.389L181.349 202.203L177.844 203.627L178.015 201.181L175.754 199.076L175.87 197.993L177.503 196.174Z" fill="#1A191C"/>
<path d="M182.992 196.576L186.557 198.797L184.692 202.496L184.016 203.348L182.035 202.21L182.09 198.225L182.992 196.576Z" fill="#1A191C"/>
<path d="M139.153 205.124L136.271 206.913L136.063 209.566L135.484 210.436L137.301 212.176L136.514 213.034L136.697 215.224L139.946 215.997L144.864 210.186L144.852 208.16L142.493 208.008L139.153 205.124Z" fill="#1A191C"/>
<path d="M136.003 213.441L134.82 214.634L134.9 216.538L145.224 235.327L155.945 242.226L157.602 239.452L157.999 233.349L157.133 229.546L154.214 224.63L152.477 225.184L151.691 226.054L148.223 222.087L149.088 217.408L153.111 214.792L152.794 212.334L148.698 212.176L146.571 208.61L145.389 208.215L145.468 210.357L140.19 216.617L136.246 215.668L136.003 213.441Z" fill="#1A191C"/>
<path d="M156.527 227.6L161.543 225.416L163.201 225.574L164.304 230.174L171.947 232.711L173.209 236.599L176.36 236.994L177.7 240.323L176.756 243.334L171.63 243.73L169.741 248.567L165.718 248.488L164.457 248.25L162.135 250.502L160.989 250.392L157.045 241.272L158.136 239.641L158.52 233.192L157.545 229.353L156.527 227.6Z" fill="#1A191C"/>
<path d="M176.67 243.856L178.011 245.317L177.853 248.407L181.717 248.17L184.636 251.9L184.398 255.228L182.509 258.082L178.645 258.24L178.486 256.652L179.59 254.035L175.805 251.657H172.654L170.289 249.119L172.008 244.215L176.67 243.856Z" fill="#1A191C"/>
<path d="M181.913 263.582L180.664 264.914L181.182 272.082L185.107 273.22L190.099 268.224L181.913 263.582Z" fill="#1A191C"/>
<path d="M185.023 255.229L186.206 256.336L181.714 262.998L180.135 264.745L180.684 272.356L184.152 276.56L181.239 281.635L179.032 282.584H176.509L177.216 286.545L173.273 287.895L174.217 291.223L171.853 298.756L174.772 301.135L173.194 305.017L170.512 309.221L171.932 312.153L168.464 312.707L165.624 309.221L165.148 298.36L160.736 279.913L162.071 273.463L159.23 265.219L161.12 254.517L162.857 252.454L162.43 250.891L164.661 248.858L169.634 249.199L172.413 252.162L175.625 252.217L178.916 254.225L177.947 256.488L178.179 258.776L182.841 258.557L185.023 255.229Z" fill="#1A191C"/>
<path d="M171.691 312.682L169.735 314.842L169.497 317.379L165.712 315.238L161.69 309.452L160.507 307.389L162.165 305.247L162.007 302.552L160.117 301.761L158.618 300.654L158.935 299.145L160.903 298.591L161.3 289.872L158.228 288.126L156.223 242.743L156.741 241.843L160.666 250.878L161.921 250.902L162.33 252.344L160.66 254.364L158.74 265.237L161.47 273.609L160.209 279.949L164.658 298.591L165.127 309.494L168.315 313.175L171.691 312.682Z" fill="#1A191C"/>
<path d="M190.373 267.792L194.182 260.479L194.323 254.334L201.429 249.758H205.409L208.535 244.471L209.102 234.322L207.822 231.609L215.355 224.746L215.642 217.171L205.409 212.169L193.049 208.312L187.222 207.74L188.789 204.454L188.362 199.453L187.088 199.033L185.205 202.769L184.217 204.004L181.682 202.885L173.156 205.884L170.315 202.313L170.772 198.583L168.091 201.309L165.129 199.715L164.83 200.134L164.836 201.43L167.39 202.799L163.556 206.833L161.137 206.809L158.687 204.321L155.914 204.406L155.572 207.363L157.163 209.291L155.286 215.297L153.092 215.467L149.599 217.669L148.746 221.995L151.775 225.232L152.33 224.606L154.457 224.034L156.273 227.088L161.472 224.861L163.489 224.977L164.879 229.887L172.296 232.235L173.576 236.154L176.733 236.531L178.239 240.273L177.221 243.601L178.549 245.341L178.354 247.933L181.914 247.598L185.174 251.711L184.918 254.601L186.85 256.232L182.218 263.235L190.373 267.792Z" fill="#1A191C"/>
<path d="M123.523 172.603L123.492 174.824H124.004L125.747 171.575H124.565L123.523 172.603Z" fill="#1A191C"/>
<path d="M497.383 45.156L498.456 48.8553L500.601 49.4698L502.747 46.0808L501.521 43.7688L501.979 41.767H505.197L504.429 43.3064L504.733 48.8553L500.138 60.2573L500.595 62.7214L500.443 66.8831L509.018 79.362L510.7 79.8244L510.852 69.6575L512.535 68.1182L510.694 64.1147L512.224 62.4172L508.853 57.9513L507.013 58.1034L506.403 50.711L511.151 49.4759L511.456 47.3159L513.906 46.7014L515.283 47.9365L516.966 41.1586L519.873 36.2303L522.17 34.9952L524.163 35.1473V32.8353L520.945 32.2208L516.502 28.5215L518.648 26.0573L516.807 21.8957L518.337 20.3563L520.177 22.8205L524.773 24.518L529.825 24.9804L530.441 22.8266L527.839 20.2103L530.746 16.2068L524.157 13.8948L522.475 17.2838L520.33 14.5093L508.232 10.3477L496.743 12.3494L495.061 13.2742V14.199L497.511 15.4341L497.206 18.3607L492.763 16.5111L482.963 20.3624L481.281 16.8214H474.54L471.474 20.0582L460.601 17.5941L450.649 19.5958L449.424 22.6745L450.953 23.1369L450.801 25.4489L441.153 26.5258L441.769 29.6045L432.883 28.0652L435.028 24.0617L425.989 23.5993L426.757 27.761L423.85 29.1482L421.4 26.8361L411.447 28.5337L407.62 32.0747L407.467 34.2286L405.017 34.3807L404.713 31.9165L412.526 25.1386V20.5145L407.474 19.1273L400.885 21.2812L398.13 18.5067H396.905L395.375 21.5854L396.601 22.9726L387.867 27.7488L380.364 33.4498L375.769 39.7653V42.3816L380.669 44.3833L378.219 46.2329L373.014 44.3833L370.869 46.2329L367.651 42.5337L367.035 43.9209L370.558 55.0126L371.478 55.3229L373.928 54.0878L375.153 55.0126V57.0143L372.855 56.0895L371.478 57.1664L372.398 59.1682L371.63 64.4068L366.883 64.8692L366.578 63.1716L369.333 61.4741L369.948 56.85L366.883 52.8466L365.81 45.9165L360.91 45.1438L360.453 47.608L361.373 48.8431L359.38 50.5406L360.148 55.1647L363.055 56.3998L363.671 59.7888L360.757 57.9391L353.255 56.5519L352.334 59.0161L346.362 61.1699L345.441 59.6306L337.628 63.9443L337.475 66.8709L334.41 67.3333L335.33 65.1795V63.0256L332.265 61.9487L330.272 62.7214L331.954 65.9583L333.179 68.1121V69.8096L330.881 69.3472L330.424 68.8848L328.126 71.349L329.351 73.5028L324.146 73.3507L325.828 75.5106L325.371 76.4354H322.617L320.624 75.0482L320.166 71.1969L316.948 69.9617V68.4224L323.689 69.8096L327.364 70.1199L328.894 67.8079L327.517 65.3437L317.716 61.4924L314.334 62.332L313.176 63.3238L313.535 65.6054L314.974 65.8548L314.639 69.4446L319.075 79.8487L315.87 84.9231L315.65 86.0669L317.278 87.2108L315.809 88.1782L314.834 88.1964L315.016 92.6684L316.363 94.5728L316.382 96.4224L318.106 96.5806L320.745 97.5845L323.537 101.418L323.567 102.428L322.659 103.979L324.744 103.864L326.773 104.448L329.516 108.323L336.269 108.938L335.976 113.55L333.648 115.539L334.129 116.318L331.832 118.782L331.222 121.094L332.6 123.096L337.043 124.635L338.883 123.558L350.677 128.024L351.134 126.789L348.684 124.477V121.551L347.154 121.088L347.459 118.624L349.909 115.697L345.514 112.412L345.819 107.843L350.518 104.758L356.034 105.068L356.954 106.766L362.622 107.076L366.761 104.764L364.615 102.452L365.072 98.1382L375.793 92.8996L384.039 96.611L386.794 94.1469L394.912 101.85L401.038 101.235L403.183 103.389L409.003 104.003L412.831 98.7649L417.731 100.925L420.333 101.387L422.936 99.0752L420.638 97.5358L422.631 94.4572L428.299 96.3068L429.524 98.7709L431.974 98.9231L433.504 97.8461L437.643 97.694L438.1 98.7709L442.847 99.0812L446.065 95.6923L452.654 96.465L454.647 95.6923L455.256 91.993L453.263 87.5271L455.256 85.8296H461.534L467.507 92.9178L475.162 97.2316H477.459L477.764 95.382L480.519 93.6845L480.824 103.699L478.374 103.851V106.315L479.751 108.013L479.495 110.216L480.513 110.635L481.128 109.096L482.049 109.406L482.658 110.021L485.413 109.406L488.168 101.393L488.473 91.3785L484.95 83.3655L480.507 77.9748L478.361 78.2851V79.9826L473.157 77.9809L475.15 73.6671L476.832 62.2651L483.877 60.1112L487.248 57.9574H490.923L490.002 59.1925L490.923 60.7318L494.141 57.3429L495.981 57.495L495.677 55.4932L492.763 54.8787L494.756 47.6384L497.383 45.156Z" fill="#1A191C"/>
<path d="M407.442 104.258L405.333 109.551L402.426 109.399L399.36 116.098L401.963 119.408L396.599 126.8L393.845 126.338L392.004 128.65L392.461 130.037L394.606 130.189L395.679 132.653L397.824 133.116L404.413 141.591V145.905L407.631 147.907L411.154 147.292L415.597 149.909L420.96 151.448L423.562 151.138L426.476 150.827L432.601 146.824L434.594 147.134L435.356 148.941L437.044 149.446L439.342 152.835L437.812 156.224L438.732 158.536L441.335 159.461L441.792 162.235L444.857 162.546L445.315 161.158L449.758 158.846L452.512 158.999L455.73 162.54L457.876 161.615L459.253 161.767L459.869 163.464L460.941 163.617L462.471 161.463L468.596 159.151L474.112 152.525L475.953 146.209L475.8 142.048L473.503 141.585L474.88 140.046L474.575 137.582L468.755 131.729V128.802L470.437 126.648L472.119 125.876L472.272 124.178H467.981L467.213 126.49L465.22 126.028L462.77 123.411L464.3 119.408L466.445 117.096L468.438 117.248L468.133 120.789L469.206 121.714L471.808 119.098L472.729 118.946L472.424 116.944L474.874 114.017L476.715 114.169L477.787 110.78L479.043 110.117L479.171 108.006L477.952 106.728L477.848 103.394L480.195 103.242L480.042 94.6448L478.397 95.6304L477.781 97.833L475.032 97.8269L467.067 93.3549L461.313 86.431L455.475 86.3701L453.987 87.66L455.877 91.9799L455.219 96.032L452.866 97.0055L451.543 96.9021L451.446 100.912L452.823 101.222L455.273 100.145L458.491 101.684V103.224L456.194 103.376L454.353 107.379L452.671 107.531L446.698 115.386L440.42 118.161L436.13 118.471L433.223 116.469L429.084 118.629L424.641 117.242L423.569 114.315L416.066 113.853L412.086 107.385H410.404L409.051 104.386L407.442 104.258Z" fill="#1A191C"/>
<path d="M409.516 104.319L413.063 99.622L417.323 101.587L420.218 102.36L423.765 99.1109L421.358 97.3404L422.942 95.1074L427.672 96.7745L429.311 99.4577L432.273 99.5368L433.821 98.3869L437.009 98.2591L437.704 99.4394L443 99.7072L446.352 96.2939L450.99 96.7806L450.722 101.429L452.752 101.891L455.244 100.76L457.883 102.062L457.823 102.719L455.909 102.774L453.916 106.947L452.368 107.1L446.346 114.954L440.197 117.662L436.351 117.96L433.157 115.904L429.074 118.082L425.051 116.834L423.911 113.92L416.293 113.385L412.392 106.783L410.497 106.662L409.516 104.319Z" fill="#1A191C"/>
<path d="M473.192 118.982L474.313 119.45L474.655 123.369L476.879 123.496L478.976 121.044L478.25 120.4L478.336 117.771L480.262 115.447L479.28 113.682L479.92 112.952L480.274 111.127L479.159 110.622L478.208 111.103L477.031 114.668L475.13 114.504L472.93 117.096L473.192 118.982Z" fill="#1A191C"/>
<path d="M479.328 121.374L483.095 124.441L483.734 127.41L483.606 129.004L481.766 131.072L480.181 131.158L478.383 127.282L477.701 125.432L478.426 124.873L478.255 124.1L477.359 123.698L479.328 121.374Z" fill="#1A191C"/>
<path d="M350.329 115.544L352.827 114.48L355.619 114.382L355.814 118.641H354.181L352.931 120.674L354.564 123.381L356.972 124.738L357.191 126.289L358.075 125.997L358.892 125.03L360.239 125.322L360.915 126.679H362.646V124.939L361.586 121.842L361.104 119.329L364.182 117.972L368.32 118.647L370.917 121.258L376.786 120.68L380.059 125.322L383.905 125.517L384.965 123.777L386.312 123.484L386.507 121.55L388.524 121.452L389.585 122.712L390.645 120.199L399.781 121.458L401.317 119.426L398.721 116.232L402.183 108.687L404.974 108.882L406.9 104.24L403.054 103.85L400.842 101.721L394.747 102.427L386.897 94.8517L384.13 97.3037L375.738 93.501L365.444 98.5327L365.157 102.11L367.565 104.915L362.872 107.562L356.783 107.428L355.509 105.56L350.737 105.298L346.215 108.201L346.117 112.168L350.329 115.544Z" fill="#1A191C"/>
<path d="M360.786 127.087L360.408 128.687H357.879V130.853L360.597 132.642L359.756 135.094V136.226L360.884 136.414L362.383 134.437L365.759 133.682L372.976 136.414L373.067 138.392L377.096 138.769L381.594 134.054L381.033 132.545L378.034 131.888L369.599 126.418L369.221 124.44H366.034L364.626 127.081H363.218L360.786 127.087Z" fill="#1A191C"/>
<path d="M382.158 134.065L384.035 134.162V130.956L382.255 129.922L385.254 126.149H386.473L387.692 127.567L390.879 126.344L386.473 124.835L386.302 123.922L385.254 124.178L384.224 125.967L379.781 125.821L376.52 121.215L370.791 121.781L368.06 119.079L364.282 118.44L361.539 119.554L363.13 124.835L363.148 126.612L364.306 126.636L365.726 123.935L369.505 123.983L370.066 126.058L378.165 131.424L381.298 132.142L382.158 134.065Z" fill="#1A191C"/>
<path d="M382.934 129.672L385.439 126.569H386.383L386.712 127.263L385.554 128.103V128.796L386.316 129.344L389.979 129.563L391.174 129.052L391.716 129.161L392.082 130.329L394.258 130.548L395.349 132.848L395.019 133.542L394.587 133.578L394.154 132.702L393.209 132.629L391.576 132.848L391.466 134.382L389.833 134.272L389.906 132.337L388.711 131.169L386.895 132.666L386.932 133.651L385.335 134.199H384.39L384.463 130.804L382.934 129.672Z" fill="#1A191C"/>
<path d="M386.969 121.988L386.78 123.528L386.933 124.477L392.235 126.253L387.579 128.127L387.049 127.689L386.043 128.334L386.092 128.687L386.628 128.931L389.895 129.016L391.553 128.517L393.68 125.84L396.343 126.302L399.555 121.861L390.961 120.692L389.773 123.57L388.274 121.964L386.969 121.988Z" fill="#1A191C"/>
<path d="M373.145 138.926L374.114 146.507L376.527 147.037L376.753 148.4L375.022 149.842L378.246 152.44L384.511 150.188L385.011 147.523L388.954 145.065L390.466 139.37L391.593 138.16L390.423 136.127L394.238 133.773L393.751 133.091L391.989 133.201L391.831 134.819L389.466 134.795L389.424 132.635L388.662 131.729L387.382 132.891L387.418 133.955L385.486 134.685L381.921 134.46L377.289 139.303L373.145 138.926Z" fill="#1A191C"/>
<path d="M378.63 152.794L380.214 155.142L380.062 156.353L377.953 157.186L377.801 159.158H380.214L381.043 158.476H385.639L389.783 162.115L390.313 160.369H393.403L393.476 158.172L390.313 155.142L390.99 153.475L394.232 153.25L398.602 144.154L396.189 142.262L395.287 139.08L401.162 138.55L397.694 133.622L395.847 133.123L395.092 134.036L394.525 134.078L391.057 136.275L392.19 138.173L390.911 139.536L389.326 145.371L385.407 147.871L384.877 150.603L378.63 152.794Z" fill="#1A191C"/>
<path d="M407.796 191.228L410.587 189.865L412.245 183.878L412.172 176.528L421.667 166.294V163.867L423.624 163.106L423.551 160.301L421.442 156.206L422.648 154.01L425.288 156.438L428.676 156.59V157.953L427.622 159.09L427.847 159.699L429.657 159.772L430.035 161.816H430.566L431.925 159.388L432.601 153.024L434.862 151.43L434.936 149.234L434.033 147.488L432.601 147.415L426.994 151.114L427.348 153.493L423.41 153.481L422.021 151.783L421.265 151.88L421.521 154.241L413.007 153.633L407.729 151.284L407.448 148.394L403.932 146.216L403.889 141.732L401.475 138.976L395.929 139.505L396.533 141.914L399.251 144.111L394.552 153.712L391.407 153.949L390.889 155.105L393.985 157.965L393.833 160.855L390.669 160.806L390.328 162.242L392.955 162.126L393.028 163.264L391.145 164.25L392.352 166.525L394.686 167.286L396.118 166.227L396.795 164.335L397.624 163.958L398.605 164.943L398.306 167.371L397.63 168.509L397.782 170.48L407.796 191.228Z" fill="#1A191C"/>
<path d="M407.922 148.364L408.202 150.962L413.127 153.189L421.019 153.773L420.721 151.869L415.449 150.421L410.975 147.762L407.922 148.364Z" fill="#1A191C"/>
<path d="M422.676 151.723L423.62 153.013L426.814 153.037L426.491 151.272L422.676 151.723Z" fill="#1A191C"/>
<path d="M422.779 154.781L421.98 156.223L424.053 160.154L424.114 163.22L424.491 164.042L426.923 164.084L428.301 162.764L429.3 163.366L429.501 165.234L430.3 164.735L430.349 162.35L429.678 162.271L429.258 160.245L427.563 160.184L427.143 159.059L428.179 157.677L428.197 156.996H425.186L422.779 154.781Z" fill="#1A191C"/>
<path d="M443.424 185.532L441.735 182.831L442.96 181.115L441.802 178.992L440.711 178.785L440.504 175.219L438.871 172.062L438.395 172.816L437.305 174.666L435.939 174.872L435.257 173.978L434.915 171.575L433.891 169.652L429.723 165.728L430.747 165.052L430.936 162.211L432.459 159.656L433.117 153.298L435.324 151.795L435.397 149.477L436.719 149.915L438.804 152.926L437.256 156.236L438.298 158.834L440.876 159.844L441.345 162.673L444.807 163.209L443.85 164.858L439.486 166.573L439.011 169.384L442.217 173.497L442.351 175.694L441.601 176.448L441.668 177.136L444.057 180.634L444.125 184.267L443.424 185.532Z" fill="#1A191C"/>
<path d="M443.787 165.344L445.762 167.881V170.966L446.444 171.306L449.583 169.797L450.199 170.004L453.947 174.324L453.813 177.275L452.588 177.068L451.497 176.381L450.68 176.448L449.248 178.845L449.522 180.147L450.68 180.761L450.613 182.203L449.797 182.617L446.999 180.694V178.979L445.841 178.912L445.366 179.666L445.122 187.345L446.932 190.642L450.138 193.727L450.004 194.621L448.297 194.555L446.731 192.224H445.091L443.044 190.575L442.428 188.86L443.312 187.418L443.616 186.116L444.579 184.412L444.537 180.494L442.184 177.099L442.087 176.685L442.848 175.918L442.672 173.223L439.539 169.262L439.905 166.98L443.787 165.344Z" fill="#1A191C"/>
<path d="M445.422 192.713L446.647 195.457L446.921 199.022L448.561 201.56L452.516 203.957L454.015 204.097L453.741 201.627L452.443 198.475L450.541 194.441L450.383 195.147L448.091 195.043L446.446 192.683L445.422 192.713Z" fill="#1A191C"/>
<path d="M450.153 182.989L452.646 185.647L457.284 182.216L457.692 176.801L455.297 178.45L454.054 177.756L452.366 177.531L451.421 176.868L450.964 176.892L449.727 178.918L449.928 179.855L451.183 180.555L451.031 182.459L450.153 182.989Z" fill="#1A191C"/>
<path d="M447.098 160.757L445.623 161.505L444.398 165.071L446.446 167.675L446.105 170.553L446.446 170.693L449.853 169.044L454.424 174.142L454.315 177.355L455.308 177.89L457.764 175.901L457.563 174.325L450.475 167.602L450.542 166.573L451.426 165.959L450.81 164.243L447.879 163.762L447.098 160.757Z" fill="#1A191C"/>
<path d="M452.947 186.02L453.672 187.158L453.806 188.46L455.714 188.667L458.03 185.582L460.212 184.968L461.37 181.816L460.827 176.742L458.578 173.657L456.207 171.765L453.191 166.593L455.354 162.979L452.258 159.432L449.778 159.322L447.547 160.521L448.211 163.387L451.185 163.91L451.984 166.118L450.936 166.8L451.003 167.347L457.981 174.162L458.255 176.164L457.835 182.491L452.947 186.02Z" fill="#1A191C"/>
<path d="M337.391 125L339.384 127.598L341.87 128.742L343.4 128.736L346.027 128.024L346.685 126.996L338.914 124.094L337.391 125Z" fill="#1A191C"/>
<path d="M346.082 128.487L349.007 132.296L348.148 133.3L346.076 132.941L343.504 130.641L343.644 129.132L346.082 128.487Z" fill="#1A191C"/>
<path d="M347.108 127.165L346.492 128.212L349.363 131.972L350.362 131.649L352.008 133.371L352.721 130.353L354.507 130.639L354.434 129.775L351.496 127.208L350.935 128.717L347.108 127.165Z" fill="#1A191C"/>
<path d="M346.037 133.39L345.293 134.163L345.366 135.386L346.293 136.682L349.578 140.271L349.078 141.707H348.505L348.218 143.143L350.077 145.516L351.79 145.662L355.221 150.402L357.147 150.548L358.647 151.625L358.72 153.779L364.65 157.228H366.862L368.221 156.078L369.934 156.005L370.934 158.305L377.339 159.194L377.528 156.845L379.649 156.078L379.747 155.239L378.058 152.939L374.298 149.921L376.273 148.126L376.132 147.335L373.658 146.952L372.61 138.616L372.488 136.7L365.777 134.138L362.803 134.808L361.139 136.846L359.664 136.749L359.238 137.108L355.953 136.895L351.808 133.877L350.266 132.191L349.559 132.362L348.286 133.816L346.037 133.39Z" fill="#1A191C"/>
<path d="M339.365 128.059L338.006 129.495L333.008 129.349L330.01 127.554L327.084 127.481L323.726 129.854L320.581 130L320.295 131.795H316.723L315.297 133.091V133.809L316.156 134.527V135.318L315.797 136.255L316.156 137.046L317.302 136.474L318.448 137.697L318.161 138.561L317.735 139.139L318.375 139.857L321.52 140.502L323.732 139.565V138.202L324.805 138.415L327.377 139.924L330.162 139.492L331.375 138.342L332.161 138.628V139.924H333.234L334.16 138.129L342.303 137.265L345.856 136.833L344.917 135.604L344.899 133.943L345.612 133.091L343.016 131.01L343.156 129.215H341.73L339.365 128.059Z" fill="#1A191C"/>
<path d="M347.465 176.759L348.342 179.363V181.906L350.451 183.817L365.31 177.775L365.45 176.114L363.067 171.843L357.088 173.747L353.657 177.118L349.677 174.769L347.465 176.759Z" fill="#1A191C"/>
<path d="M363.547 171.654L368.051 169.062L368.849 165.259L367.862 164.694L368.27 160.617L369.13 160.118L370.05 161.56L375.529 164.42V166.008L368.892 175.761L365.839 175.864L363.547 171.654Z" fill="#1A191C"/>
<path d="M360.883 161.98L361.413 164.097L367.422 164.627L367.843 160.282L369.001 159.65L369.318 158.062L367.422 158.591L365.314 161.773L360.883 161.98Z" fill="#1A191C"/>
<path d="M360.044 158.379L359.727 160.819L360.665 161.531L361.518 161.452L361.835 158.379L361.098 157.85L360.044 158.379Z" fill="#1A191C"/>
<path d="M354.349 151.168L352.978 150.426L352.027 151.381L352.131 153.291L354.343 154.137L354.349 151.168Z" fill="#1A191C"/>
<path d="M354.784 154.862L359.056 160.806L360.434 161.902L361.049 164.567L367.625 165.084L368.369 165.473L367.631 168.759L363.31 171.302L356.99 173.212L353.62 176.498L349.615 174.168L347.19 176.285L343.813 170.779L341.497 169.72L340.656 168.448V165.692L332.227 155.519L331.91 153.718H334.336L337.286 151.175L337.389 149.903L336.548 149.058L338.236 147.683L341.82 147.896L347.933 152.982L351.541 152.818L351.773 153.706L354.784 154.862Z" fill="#1A191C"/>
<path d="M332.03 140.192L331.816 141.737L333.535 142.455L333.462 146.738L335.181 146.702L336.899 145.406L337.545 145.296L341.446 142.199L342.232 137.703L334.437 138.494L333.614 140.295L332.03 140.192Z" fill="#1A191C"/>
<path d="M342.783 137.697L341.832 142.388L337.895 145.662L338.144 147.207L341.99 147.469L348.115 152.446L351.541 152.348L351.632 151.199L352.888 149.854L354.643 150.846L354.874 150.627L351.48 146.118L349.871 146.021L347.731 143.277L348.158 141.257L348.81 141.172L349.036 140.277L346.122 137.217L342.783 137.697Z" fill="#1A191C"/>
<path d="M333.387 147.279L331.887 152.5L331.82 153.297H334.179L336.818 150.973L336.885 150.09L335.806 148.989L337.738 147.389L337.458 145.904L336.928 146.026L335.319 147.176L333.387 147.279Z" fill="#1A191C"/>
<path d="M331.744 142.206L331.781 143.392L331.281 145.193L333 145.339L333.11 142.784L331.744 142.206Z" fill="#1A191C"/>
<path d="M331.209 145.625L330.246 148.685L331.496 152.354L332.928 146.994V145.844L331.209 145.625Z" fill="#1A191C"/>
<path d="M329.922 140.625L330.672 141.167L328.35 143.363L327.241 143.326L326.418 142.748L326.528 141.672L328.21 141.562L329.922 140.625Z" fill="#1A191C"/>
<path d="M313.007 62.9272L314.239 62.0267L314.129 61.0167L313.349 60.5664L313.459 59.3313H314.129V58.656L311.222 57.8711L306.864 58.3213L306.419 60.2318L305.413 59.8972L304.743 58.7716L302.616 58.8811L302.39 61.0167L301.385 61.4669L300.824 60.3413L296.351 63.9372L297.246 64.9471L295.57 65.732L291.767 73.2644L290.426 74.1649L290.536 74.8402L291.877 75.5156L291.542 76.9758L289.305 76.8602L288.635 76.0754L287.184 77.7607L286.288 78.4361L286.063 80.0119L285.283 80.4621L283.271 80.9124L282.266 84.0641L282.936 89.2357L283.716 91.5964L284.612 92.4969L286.623 92.3874L289.531 89.5764L290.646 87.666L290.981 90.4769L292.883 87.1062L292.992 77.6573L294.54 76.6838L295.004 71.4695L299.697 64.722L301.933 63.9372L302.939 62.702L306.291 63.4869L307.967 64.4969L308.528 61.686L311.325 60.0006L313.007 62.9272Z" fill="#1A191C"/>
<path d="M270.75 91.4868L269.635 93.1722L270.08 93.8475H272.652V94.9731L271.981 95.8736L272.426 98.2343L273.877 101.045L274.992 103.631L276.778 104.306L277.558 105.657L277.448 106.892L276.333 107.568L276.223 108.127L277.003 108.578L276.333 109.478L274.767 110.153L271.75 109.819L267.051 111.954L265.484 111.17L269.958 108.584L269.397 108.249L267.051 108.024L268.501 105.888L268.727 104.087L270.628 103.862L270.293 100.376L268.056 100.266L267.386 99.4816L267.496 96.8958L266.155 97.0053L267.496 92.509L269.958 90.708L270.75 91.4868Z" fill="#1A191C"/>
<path d="M266.055 99.0254L264.043 99.2505L263.934 101.051L265.274 101.952L266.725 101.617L267.286 100.607L266.055 99.0254Z" fill="#1A191C"/>
<path d="M266.721 102.116L266.167 105.766L261.248 107.567H259.682L258.566 106.782V106.107L261.029 104.531L260.358 103.18L260.468 101.27L262.595 101.379L263.57 99.0918L263.442 101.124L265.094 102.432L266.721 102.116Z" fill="#1A191C"/>
<path d="M302.197 64.4121L303.391 65.5134H305.628L306.859 67.8741L307.194 71.9201L304.177 74.0557V76.1913L302.05 79.1179L300.819 79.2274L299.143 82.0384L299.253 84.7398L302.16 86.8754L301.935 88.1105L300.819 89.7959L299.143 91.2561L299.253 96.0931L296.681 96.9936L295.785 98.9041H294.554L293.883 95.5334L291.086 91.25L293.384 87.4108L293.542 77.9254L295.127 77.0553L295.511 71.6281L300.027 65.1726L302.197 64.4121Z" fill="#1A191C"/>
<path d="M307.725 71.9321L308.986 72.4858L309.766 73.946L308.986 74.956L305.074 79.2272L304.403 81.4784L305.299 84.7396L308.316 86.9908L312.338 85.0803L315.581 84.6301L318.598 79.7931L316.361 74.5058L314.234 69.4436L314.569 66.1825L313.228 65.9573L312.881 63.5784L311.077 60.6396L309.078 62.0208L308.292 65.2272L306.171 63.9556L303.221 63.2377L302.562 64.0043L303.696 65.0264L305.762 64.9899L307.426 67.6731L307.725 71.9321Z" fill="#1A191C"/>
<path d="M314.597 92.8804L310.422 92.2051L310.513 94.5354L314.383 96.8961L315.968 96.4337L315.877 94.6571L314.597 92.8804Z" fill="#1A191C"/>
<path d="M307.708 90.6115L306.763 90.5811L306.215 91.1347L306.611 91.7188L307.556 91.7797L308.043 91.0739L307.708 90.6115Z" fill="#1A191C"/>
<path d="M307.618 93.0932L306.704 93.002L305.059 94.9672V95.8859L305.607 96.0989L306.674 96.1293L308.441 94.6873L308.685 94.1945L307.618 93.0932Z" fill="#1A191C"/>
<path d="M310.177 94.9064L308.867 94.876L307.069 96.5918H305.545L305.637 98.7395L304.723 100.425L308.014 100.455L308.959 100.334L309.903 101.471L312.067 101.38L314.139 98.7456L314.017 97.1819L310.177 94.9064Z" fill="#1A191C"/>
<path d="M310.086 101.957L311 103.46L310.634 104.659L310.695 105.608L311.031 106.746L312.92 105.675L315.266 105.736L316.912 106.411H321.087L322.306 103.497L323.037 102.396V101.659L320.417 97.9784L318.101 97.0596L316.211 96.8467L314.566 97.3699L314.627 99.0249L312.341 101.909L310.086 101.957Z" fill="#1A191C"/>
<path d="M310.575 107.112L311.093 108.062L311.215 109.072L310.788 110.051L309.813 111.925L308.99 112.296L307.924 111.834L307.284 111.864L305.73 112.448L303.962 111.925L301.098 109.899L298.294 108.396L297.166 106.68L296.953 102.634L299.147 100.73L302.012 99.7809L303.078 99.6592L302.652 100.517L302.926 100.852L307.747 100.943L308.783 100.913L310.49 103.523L310.063 104.594L310.246 105.853L310.575 107.112Z" fill="#1A191C"/>
<path d="M272.114 125.51H264.35L262.783 124.805L262.027 124.859L261.113 126.758L261.436 128.711L264.404 128.985L264.782 130.232L263.49 137.503L263.545 138.805L265.648 139.942L268.073 140.107L272.925 138.914L275.296 135.933L275.351 132.897L279.556 129.1L279.769 127.421L275.942 127.366L272.114 125.51Z" fill="#1A191C"/>
<path d="M261.492 129.308L261.114 134.571L260.035 135.544L260.145 136.14L260.901 137.388L260.413 138.909L261.224 139.182L263.113 138.963L263.003 137.442L264.241 130.391L263.972 129.417L261.492 129.308Z" fill="#1A191C"/>
<path d="M279.879 132.939L278.91 133.268L279.123 134.138H280.525L281.116 133.487L279.879 132.939Z" fill="#1A191C"/>
<path d="M289.912 130.609L288.297 131.425L288.51 134.57L289.802 134.789L290.771 133.864V130.883L289.912 130.609Z" fill="#1A191C"/>
<path d="M290.072 126.703L288.883 127.896L288.773 128.979L289.742 129.575L290.12 129.52L290.334 127.944L290.072 126.703Z" fill="#1A191C"/>
<path d="M279.452 109.509L278.105 109.837L275.411 112.764L274.601 112.819L273.522 112.058L272.821 112.222L272.285 113.902L268.348 114.011L268.457 114.881L271.151 116.67L274.278 119.165L274.223 122.146L272.553 125.072L276.167 126.806L279.836 126.916L280.97 125.614L283.286 125.669L283.932 126.265L286.248 126.101L287.436 124.58L285.925 122.791L285.815 121.653L286.138 120.406L285.382 119.323L284.09 119.7L283.926 118.727L286.784 115.581V113.683L284.895 112.6L283.926 112.435L279.452 109.509Z" fill="#1A191C"/>
<path d="M285.361 103.164L282.6 104.521L283.185 105.05L283.246 106.407L282.661 106.291L282.015 105.287L280.473 107.727L282.843 108.22L283.727 109.151L284.197 109.163L284.507 107.058L286.001 106.431L285.361 103.164Z" fill="#1A191C"/>
<path d="M280.187 108.183L279.797 109.156L283.99 111.918L285.197 112.204L285.239 110.896L284.185 109.716H283.539L282.655 108.712L280.187 108.183Z" fill="#1A191C"/>
<path d="M286.003 102.925L288.179 102.573V101.039L290.001 100.741L291.001 101.745L292.055 101.861L293.701 101.149L295.17 101.563L296.462 102.682L296.638 106.874L297.93 108.59L296.23 108.827L293.408 110.598L293.646 111.188L296.169 113.549L295.992 114.729L293.646 115.909L291.47 115.97L290.94 117.09H289.824L289.294 115.909L287.356 115.435L287.295 113.488L285.65 112.368L285.826 110.951L284.711 109.417L285.003 107.41L286.527 106.698L286.003 102.925Z" fill="#1A191C"/>
<path d="M289.429 92.96L286.9 95.7527L286.809 97.5719L287.96 100.571L289.765 100.231L289.539 97.7787L290.782 96.3915L290.758 95.3024L289.88 93.033L289.429 92.96Z" fill="#1A191C"/>
<path d="M292.275 97.913L291.708 97.8887L290.965 98.5701L291.056 99.6349L292.818 99.6835L292.909 98.4789L292.275 97.913Z" fill="#1A191C"/>
<path d="M302.669 92.1514L301.383 93.1674L302.029 94.6581L303.169 93.5508L302.669 92.1514Z" fill="#1A191C"/>
<path d="M287.075 116.008L284.418 118.831L284.473 119.117L285.564 118.776L286.545 120.139L288.203 119.555L289.349 120.443L289.818 120.176L291.232 117.961L290.872 117.62L289.477 117.584L288.8 116.203L287.075 116.008Z" fill="#1A191C"/>
<path d="M296.534 113.263H298.344H299.234L300.678 114.291L303.354 112.07L300.758 110.221L298.186 108.979L296.424 109.296L294.035 110.829L296.534 113.263Z" fill="#1A191C"/>
<path d="M301.051 114.638L301.471 115.01L301.526 115.642L306.176 115.539L309.614 114.06L309.559 112.558L308.901 112.85L307.956 112.345L307.377 112.32L305.853 112.929L303.781 112.43L301.051 114.638Z" fill="#1A191C"/>
<path d="M291.779 116.457L291.383 117.279L291.724 117.863L293.144 117.571H294.351L295.661 118.678L298.447 118.173L300.494 116.956L301.019 116.135L300.939 115.076L299.099 113.701L296.63 113.726L296.423 115.125L293.827 116.39L291.779 116.457Z" fill="#1A191C"/>
<path d="M301.598 116.14L300.891 117.247L300.945 118.939L302.073 119.517L305.541 119.62L310.374 115.556L310.398 114.655L309.874 114.394L306.382 115.975L301.598 116.14Z" fill="#1A191C"/>
<path d="M300.421 117.596L298.873 118.521L295.984 119.153L296.563 120.82L298.587 120.845L300.452 119.287L300.421 117.596Z" fill="#1A191C"/>
<path d="M300.916 119.523L298.764 121.294H296.582L296.32 122.827L297.32 123.089L297.82 122.347L298.606 123.034L299.234 125.224L303.543 127.232L303.969 126.746L299.599 122.243L300.044 121.422L304.195 121.264L304.615 119.943L301.909 120.022L300.916 119.523Z" fill="#1A191C"/>
<path d="M300.417 121.823L300.191 122.194L304.281 126.405L305.78 124.202L305.725 123.332L304.415 121.744L300.417 121.823Z" fill="#1A191C"/>
<path d="M286.686 120.631L286.309 121.586L286.412 122.626L287.869 124.324L290.16 124.245L295.219 130.11L298.376 131.023L300.241 132.781L300.686 136.791L301.686 136.207L302.551 134.022L302.338 132.453L303.819 132.319L304.032 131.43L299.857 129.435L295.896 125.547L294.317 123.223L293.933 121.014L295.95 120.533L295.432 119.079L294.195 118.039L293.129 117.99L291.641 118.398L290.24 120.357L289.393 120.917L288.082 120.114L286.686 120.631Z" fill="#1A191C"/>
<path d="M298.983 136.475L298.099 136L295.082 136.475L295.186 137.29L297.898 138.653L298.306 139.097L299.019 139.2L298.983 136.475Z" fill="#1A191C"/>
<path d="M299.084 141.008L298.066 141.215L298.103 142.34L299.017 142.644L299.426 142.304L299.084 141.008Z" fill="#1A191C"/>
<path d="M313.075 106.132L311.308 107.123L311.747 108.997L310.113 112.435L310.125 113.95L310.893 114.437L315.818 114.68L317.195 113.542L318.67 114.035L320.785 116.852L319.237 119.627L321.078 120.162L323.485 117.394L324.863 117.643L326.142 118.531L325.015 120.016L326.539 122.389H328.16L328.995 120.807L330.714 120.46L330.762 119.176L327.569 118.683L327.666 117.302H330.762L334.102 114.631L335.577 113.348L335.821 109.295L329.239 108.705L326.539 104.903L324.674 104.264L322.412 104.361L321.395 106.874L316.763 106.935L315.257 106.241L313.075 106.132Z" fill="#1A191C"/>
<path d="M316.234 114.991L318.124 117.893L317.965 119.536L318.642 119.566L320.245 116.859L318.319 114.474L317.228 114.023L316.234 114.991Z" fill="#1A191C"/>
<path d="M311.015 114.924L310.857 115.824L307.328 118.757L310.278 123.077L312.167 124.397H315.568L316.69 123.46L318.195 123.265L319.316 123.941L321.303 121.683L320.919 120.552L318.902 120.035L317.525 119.968L317.592 118.033L315.763 115.161L311.015 114.924Z" fill="#1A191C"/>
<path d="M306.576 126.878L306.548 126.308L305.744 125.181L304.441 127.019L304.697 127.791L305.758 127.986L306.576 126.878Z" fill="#1A191C"/>
<path d="M306.973 119.146L305.723 120.083H305.113L304.699 121.372L306.174 123.082L306.272 124.44L306.063 124.733L307.061 126.132L307.095 126.873L307.813 127.567L310.154 126.855L309.958 123.533L306.973 119.146Z" fill="#1A191C"/>
<path d="M310.559 123.922L310.656 126.952L311.68 129.082L315.526 129.149L317.257 127.926L318.957 127.25L318.543 125.316L318.927 124.281L318.061 123.831L316.873 123.928L315.94 124.865L312.027 124.896L310.559 123.922Z" fill="#1A191C"/>
<path d="M306.035 128.407V131.212L306.84 132.727L307.419 132.66L308.412 130.853L307.833 130.044L307.608 128.042L306.84 127.33L306.035 128.407Z" fill="#1A191C"/>
<path d="M310.245 127.342L308.191 128.017L308.289 129.757L308.77 130.372L311.208 129.24L310.245 127.342Z" fill="#1A191C"/>
<path d="M307.673 133.177L307.605 133.986L310.427 135.404L311.774 135.921L311.067 136.663L309.495 136.821L309.269 137.533L309.812 138.756L311.573 139.693L312.341 139.76L312.439 137.661L313.59 136.274L310.446 132.562L310.86 131.303L311.598 131.273L312.719 132.173L313.426 131.82L313.651 130.561L316.955 130.591L317.083 128.656L315.705 129.624L311.665 129.526L309.038 130.883L307.673 133.177Z" fill="#1A191C"/>
<path d="M317.613 128.371L317.516 130.53L319.405 129.952L320.27 129.374L320.014 128.437L319.119 127.726L317.613 128.371Z" fill="#1A191C"/>
<path d="M313.804 141.081L314.797 141.111L315.212 141.726H316.656L317.619 141.373L317.942 141.763L317.302 142.602L314.48 142.699L313.968 142.024L313.426 141.702L313.804 141.081Z" fill="#1A191C"/>
<path fill-rule="evenodd" clip-rule="evenodd" d="M355.457 190.11L356.366 190.21Z" fill="white"/>
<path d="M354.542 191.156C354.534 191.111 354.527 191.055 354.529 190.991C354.531 190.94 354.539 190.884 354.556 190.822C354.57 190.766 354.593 190.706 354.625 190.642C354.655 190.58 354.694 190.515 354.741 190.447C354.788 190.379 354.842 190.309 354.904 190.236C354.974 190.153 355.049 190.071 355.133 189.981L355.158 189.953C355.18 189.93 355.186 189.907 355.185 189.889C355.185 189.882 355.185 189.875 355.184 189.87C355.182 189.86 355.179 189.851 355.177 189.847C355.174 189.838 355.176 189.841 355.176 189.847C355.176 189.852 355.174 189.862 355.164 189.874C355.164 189.874 355.168 189.872 355.172 189.865C355.181 189.857 355.189 189.849 355.199 189.84C355.217 189.823 355.237 189.805 355.257 189.787C355.285 189.762 355.313 189.737 355.343 189.712C355.364 189.694 355.384 189.677 355.406 189.659C355.419 189.649 355.43 189.64 355.443 189.631C355.451 189.624 355.456 189.621 355.46 189.618C355.636 189.524 355.747 189.464 355.925 189.368C355.933 189.364 355.941 189.359 355.947 189.354C355.971 189.336 355.982 189.319 355.984 189.314C355.994 189.297 355.997 189.282 355.999 189.275C356.004 189.258 356.006 189.245 356.007 189.235C356.009 189.229 356.009 189.23 356.008 189.232C356.007 189.233 356.006 189.237 356.003 189.241C356.001 189.244 355.998 189.247 355.995 189.25C355.982 189.264 355.972 189.269 355.972 189.269C355.967 189.271 355.97 189.269 355.98 189.265C355.991 189.261 356.019 189.249 356.041 189.238C356.054 189.232 356.075 189.222 356.096 189.207C356.106 189.2 356.127 189.185 356.139 189.164C356.144 189.154 356.146 189.152 356.146 189.152C356.154 189.137 356.162 189.122 356.173 189.108C356.183 189.094 356.196 189.08 356.21 189.065C356.229 189.045 356.251 189.025 356.276 189.003C356.298 188.984 356.32 188.965 356.343 188.945C356.346 188.941 356.353 188.936 356.358 188.932C356.354 188.935 356.356 188.933 356.364 188.928C356.372 188.924 356.382 188.919 356.394 188.913C356.412 188.904 356.43 188.895 356.451 188.886C356.491 188.868 356.53 188.851 356.575 188.832C356.592 188.824 356.611 188.816 356.631 188.807C356.644 188.801 356.664 188.792 356.684 188.781C356.689 188.779 356.706 188.769 356.721 188.756C356.736 188.743 356.74 188.737 356.74 188.737C356.755 188.719 356.761 188.704 356.766 188.693C356.772 188.678 356.776 188.663 356.779 188.651C356.782 188.633 356.786 188.615 356.786 188.599C356.787 188.575 356.787 188.552 356.786 188.53C356.785 188.499 356.783 188.468 356.78 188.437C356.775 188.398 356.77 188.359 356.765 188.321C356.762 188.302 356.76 188.285 356.757 188.267C356.756 188.257 356.755 188.249 356.754 188.241C356.753 188.236 356.753 188.232 356.753 188.232C356.757 188.202 356.762 188.173 356.77 188.143C356.78 188.107 356.791 188.071 356.804 188.035C356.825 187.978 356.85 187.92 356.875 187.861C356.888 187.829 356.903 187.797 356.917 187.764C356.952 187.68 356.993 187.596 357.039 187.512C357.094 187.412 357.156 187.312 357.219 187.213C357.302 187.082 357.388 186.952 357.468 186.819C357.524 186.726 357.576 186.633 357.623 186.538C357.664 186.453 357.701 186.367 357.729 186.28C357.741 186.248 357.75 186.215 357.758 186.184C357.765 186.159 357.775 186.133 357.786 186.107C357.805 186.065 357.826 186.025 357.848 185.98C357.863 185.95 357.877 185.919 357.889 185.887C357.896 185.867 357.899 185.849 357.902 185.835C357.907 185.807 357.909 185.781 357.909 185.756C357.91 185.724 357.91 185.692 357.909 185.661C357.907 185.613 357.904 185.566 357.9 185.52C357.896 185.455 357.887 185.392 357.88 185.33C357.87 185.256 357.858 185.183 357.845 185.112C357.834 185.049 357.821 184.988 357.807 184.928C357.797 184.884 357.786 184.841 357.773 184.798C357.763 184.765 357.753 184.733 357.74 184.701C357.731 184.674 357.719 184.647 357.704 184.62C357.696 184.603 357.685 184.584 357.669 184.565C357.661 184.555 357.648 184.541 357.628 184.526C357.62 184.52 357.611 184.514 357.6 184.508C357.563 184.488 357.512 184.477 357.458 184.477C357.405 184.477 357.354 184.488 357.316 184.508C357.278 184.528 357.257 184.556 357.257 184.585C357.257 184.613 357.278 184.641 357.316 184.661C357.309 184.658 357.306 184.655 357.303 184.653C357.298 184.649 357.296 184.647 357.299 184.652C357.304 184.658 357.309 184.666 357.316 184.679C357.326 184.698 357.336 184.719 357.345 184.744C357.355 184.772 357.365 184.801 357.374 184.832C357.386 184.872 357.397 184.912 357.407 184.955C357.42 185.013 357.433 185.071 357.444 185.132C357.457 185.202 357.467 185.272 357.477 185.345C357.485 185.405 357.492 185.467 357.497 185.529C357.501 185.574 357.504 185.619 357.505 185.664C357.506 185.693 357.507 185.722 357.506 185.752C357.505 185.774 357.504 185.796 357.501 185.817C357.499 185.828 357.497 185.837 357.494 185.844C357.484 185.87 357.472 185.896 357.459 185.925C357.44 185.964 357.415 186.012 357.395 186.056C357.382 186.086 357.369 186.119 357.359 186.152C357.351 186.182 357.343 186.212 357.333 186.241C357.306 186.322 357.273 186.402 357.233 186.483C357.189 186.572 357.139 186.661 357.085 186.752C357.006 186.882 356.923 187.009 356.838 187.143C356.774 187.243 356.71 187.346 356.653 187.45C356.605 187.537 356.561 187.626 356.523 187.717C356.51 187.748 356.497 187.779 356.483 187.812C356.458 187.87 356.431 187.931 356.409 187.993C356.394 188.032 356.381 188.072 356.371 188.113C356.362 188.147 356.356 188.182 356.351 188.218C356.35 188.229 356.351 188.241 356.351 188.249C356.352 188.26 356.353 188.271 356.354 188.281C356.356 188.3 356.359 188.319 356.363 188.337C356.368 188.375 356.374 188.413 356.377 188.45C356.381 188.478 356.382 188.506 356.384 188.534C356.385 188.553 356.385 188.572 356.383 188.591C356.382 188.603 356.382 188.615 356.378 188.626C356.377 188.634 356.375 188.64 356.373 188.646C356.372 188.65 356.37 188.652 356.372 188.65C356.371 188.652 356.372 188.649 356.38 188.642C356.393 188.631 356.398 188.629 356.395 188.63C356.391 188.632 356.385 188.636 356.371 188.642C356.356 188.649 356.34 188.655 356.323 188.663C356.282 188.681 356.237 188.7 356.193 188.72C356.17 188.73 356.146 188.741 356.121 188.753C356.105 188.761 356.087 188.771 356.07 188.781C356.055 188.789 356.035 188.802 356.016 188.817C356.008 188.824 356.004 188.827 355.999 188.832C355.978 188.85 355.956 188.869 355.934 188.889C355.907 188.913 355.879 188.938 355.853 188.965C355.833 188.985 355.815 189.006 355.799 189.028C355.782 189.05 355.769 189.073 355.757 189.096C355.756 189.1 355.754 189.102 355.756 189.1C355.767 189.082 355.779 189.075 355.779 189.075C355.784 189.072 355.784 189.071 355.775 189.075C355.762 189.082 355.752 189.086 355.727 189.096C355.717 189.101 355.699 189.109 355.68 189.119C355.673 189.123 355.652 189.135 355.636 189.152C355.632 189.156 355.629 189.16 355.626 189.164C355.621 189.172 355.618 189.177 355.618 189.18C355.611 189.193 355.609 189.205 355.608 189.209C355.604 189.224 355.603 189.236 355.601 189.244C355.599 189.251 355.6 189.251 355.6 189.25C355.6 189.25 355.603 189.24 355.622 189.226C355.627 189.222 355.633 189.218 355.64 189.215C355.502 189.289 355.312 189.391 355.174 189.466C355.167 189.469 355.159 189.474 355.151 189.479C355.137 189.488 355.124 189.498 355.115 189.504C355.099 189.517 355.084 189.529 355.071 189.539C355.047 189.559 355.024 189.578 355.003 189.596C354.972 189.623 354.941 189.649 354.912 189.675C354.891 189.694 354.87 189.713 354.85 189.732C354.839 189.742 354.829 189.752 354.818 189.763C354.813 189.768 354.803 189.777 354.795 189.787C354.778 189.808 354.774 189.829 354.773 189.843C354.773 189.863 354.78 189.883 354.781 189.887C354.783 189.892 354.783 189.894 354.783 189.893C354.783 189.893 354.783 189.891 354.783 189.888C354.783 189.881 354.784 189.869 354.797 189.855C354.799 189.854 354.77 189.885 354.771 189.883C354.688 189.974 354.61 190.059 354.536 190.146C354.472 190.223 354.414 190.297 354.363 190.371C354.311 190.445 354.269 190.516 354.235 190.586C354.2 190.658 354.174 190.725 354.157 190.79C354.137 190.861 354.128 190.926 354.126 190.986C354.122 191.06 354.131 191.125 354.14 191.178C354.146 191.206 354.173 191.232 354.214 191.25C354.256 191.268 354.308 191.276 354.361 191.274C354.414 191.271 354.462 191.257 354.496 191.234C354.53 191.212 354.546 191.184 354.54 191.156L354.542 191.156Z" fill="white"/>
<g clip-path="url(#clip1_1575_802)">
<path d="M424.75 120.951L420.766 139.899L424.75 158.775L435.116 143.681C436.738 141.307 437.7 138.358 437.7 135.162C437.7 127.314 431.902 120.951 424.75 120.951Z" fill="#BC0B12"/>
<path d="M411.801 135.162C411.801 138.358 412.762 141.307 414.385 143.681L424.75 158.775V120.951C417.599 120.951 411.801 127.314 411.801 135.162Z" fill="#EA1B26"/>
<path d="M424.761 126.521L420.742 135.164L424.761 143.807C429.09 143.807 432.598 139.938 432.598 135.164C432.598 130.391 429.09 126.521 424.761 126.521Z" fill="#1A191C"/>
<path d="M416.906 135.162C416.906 139.936 420.42 143.805 424.753 143.805V126.52C420.419 126.52 416.906 130.389 416.906 135.162Z" fill="#1A191C"/>
</g>
<g clip-path="url(#clip2_1575_802)">
<path d="M273.039 69.4541L269.055 88.4022L273.039 107.277L283.405 92.1841C285.027 89.8102 285.989 86.861 285.989 83.6652C285.989 75.8166 280.191 69.4541 273.039 69.4541Z" fill="#BC0B12"/>
<path d="M260.09 83.6651C260.09 86.861 261.051 89.8102 262.674 92.184L273.039 107.277V69.4541C265.888 69.4541 260.09 75.8166 260.09 83.6651Z" fill="#EA1B26"/>
<path d="M273.05 75.0244L269.031 83.6672L273.05 92.31C277.379 92.31 280.888 88.4405 280.888 83.6673C280.888 78.894 277.379 75.0244 273.05 75.0244Z" fill="#55474A"/>
<path d="M265.195 83.6653C265.195 88.4387 268.709 92.3081 273.042 92.3081V75.0225C268.708 75.0225 265.195 78.8919 265.195 83.6653Z" fill="#55474A"/>
</g>
</g>
<defs>
<clipPath id="clip0_1575_802">
<rect width="579" height="282.346" fill="white" transform="translate(0.5 0.327148)"/>
</clipPath>
<clipPath id="clip1_1575_802">
<rect width="27.8365" height="38.9712" fill="white" transform="translate(410.832 120.501)"/>
</clipPath>
<clipPath id="clip2_1575_802">
<rect width="27.8365" height="38.9712" fill="white" transform="translate(259.121 69.0039)"/>
</clipPath>
</defs>
</svg>
