<svg width="417" height="271" viewBox="0 0 417 271" fill="none" xmlns="http://www.w3.org/2000/svg">
<g clip-path="url(#clip0_1575_802)">
<rect x="0.5" width="416" height="271" rx="10" fill="white" fill-opacity="0.2"/>
<path d="M342.293 141.794L341.281 145.589L335.795 147.438L334.152 145.515L333.355 145.733L334.844 151.469L337.073 151.718L340.046 152.841V153.965L341.408 153.715L343.392 150.975V148.732L344.509 146.489L345.748 146.739L344.259 143.622L344.031 141.615L342.293 141.794Z" fill="#1A191C"/>
<path d="M373.42 152.238L373.258 162.922L374.799 162.839L376.827 160.474L378.53 160.557L379.625 161.536L379.988 164.553L383.474 166.389L384.367 166.061V164.959L381.569 162.634L380.19 159.451L381.284 158.922L380.474 157.169L378.854 157.13L378.447 155.255L374.151 152.361L373.42 152.238Z" fill="#1A191C"/>
<path d="M60.207 98.5299L62.3221 105.179L61.3368 105.73L61.4463 107.05L63.3073 108.479V111.124L65.6063 113.327L64.621 106.831L63.3073 102.534L63.6357 99.5615L64.7305 99.6708L65.1684 100.663L64.7305 103.194L70.4231 114.315V118.28L75.021 123.674L80.0568 125.987L82.1368 124.776L85.0926 127.198L86.8442 125.436L86.0779 123.452L88.5957 122.682L89.3621 123.124L90.1284 122.354H91.3326L93.5221 118.499L92.4273 117.506L88.1579 118.499L87.1726 121.362L84.6547 121.804L81.6989 120.593L80.3852 116.409L81.3792 111.133L79.3474 109.869L78.3797 104.803L77.5696 104.458L76.0895 105.957L74.3904 105.052L73.7248 101.673L66.9944 100.969L63.5175 98.3594L60.207 98.5299Z" fill="#1A191C"/>
<path d="M226.728 62.7847L224.276 62.6973L222.721 63.6459L222.699 64.3497L223.706 65.2983L226.837 65.8272L226.728 62.7847Z" fill="#1A191C"/>
<path d="M207.508 99.4309L205.722 98.832L198.286 100.227L196.666 101.455L197.656 106.556L194.7 106.674L192.922 109.529L188.688 110.543L188.701 112.62L202.648 123.264L205.025 123.465L212.956 117.28L212.163 116.283L210.674 116.082L209.781 114.587V108.401L209.185 107.802L209.286 106.207L207.701 104.611L207.504 102.915L208.196 102.417L207.898 100.62L207.508 99.4309Z" fill="#1A191C"/>
<path d="M196.305 101.524H191.247L190.257 103.719L187.976 104.816L186.093 109.904L182.424 112.099L177.27 120.575L182.327 120.475L182.524 117.983H183.812V114.591H188.274L188.375 110.202L192.64 109.205L194.426 106.311L197.202 106.211L196.305 101.524Z" fill="#1A191C"/>
<path d="M177.305 120.925L178.259 122.171L178.062 127.556L179.45 126.56L180.44 126.358L181.828 126.857L183.413 129.051L184.902 128.055L192.141 127.954L190.354 115.884L192.272 115.876L188.699 113.144L188.703 114.918L184.18 114.923L184.158 118.311L182.857 118.306L182.691 120.807L177.305 120.925Z" fill="#1A191C"/>
<path d="M179.59 126.897L177.864 128.147L177.47 128.846L177.348 129.546L177.983 130.001L180.102 129.97L181.464 129.603L181.617 130.272L181.495 131.155L182.795 131.793L183.067 132.099L184.792 132.16L184.853 131.399L183.277 129.511L181.521 127.137L180.43 126.683L179.59 126.897Z" fill="#1A191C"/>
<path d="M178.174 130.403L178.117 130.888L181.147 130.844L181.301 130.394L181.235 129.939L180.364 130.294L178.174 130.403Z" fill="#1A191C"/>
<path d="M178.133 131.225L178.676 132.54L178.978 131.727L182.661 132.112L181.067 131.295L178.133 131.225Z" fill="#1A191C"/>
<path d="M178.922 133.108L179.535 134.319L181.256 132.841L181.273 132.387L179.246 132.094L178.922 133.108Z" fill="#1A191C"/>
<path d="M179.723 134.599L181.054 136.645L182.788 135.141L184.566 135.062L186.046 137.025L187.303 137.851L187.776 136.933L188.196 136.697L188.165 134.678L187.329 132.282L184.763 132.566L181.588 132.313L181.571 133.126L179.723 134.599Z" fill="#1A191C"/>
<path d="M181.258 136.868L183.732 139.255L185.497 137.117L184.393 135.391L182.874 135.544L181.258 136.868Z" fill="#1A191C"/>
<path d="M183.992 139.517L188.8 142.725L188.686 140.295L187.233 138.586L185.814 137.331L183.992 139.517Z" fill="#1A191C"/>
<path d="M189.201 142.821L191.076 141.497L193.405 141.09L195.783 141.602L194.57 139.77L194.215 138.651L194.57 135.342L192.446 135.442L191.483 134.524L189.46 134.577L188.496 134.73L188.597 136.968L188.089 137.174L187.48 138.293L189.048 140.124L189.201 142.821Z" fill="#1A191C"/>
<path d="M183.68 129.31L185.028 128.388L192.525 128.344L190.791 116.305L192.77 116.248L202.347 123.544L203.635 123.728L203.148 127.784L197.127 128.331L192.481 131.793L191.636 134.162L188.409 134.298L187.586 131.933L185.112 132.108L185.208 131.334L183.68 129.31Z" fill="#1A191C"/>
<path d="M197.311 128.628L198.905 128.501L201.52 132.19L199.094 134.018L197.338 133.567L194.977 133.598L194.596 134.979L192.617 135.076L192.074 134.337L192.775 132.09L197.311 128.628Z" fill="#1A191C"/>
<path d="M201.82 132.002L202.937 131.976L203.944 130.468L205.634 130.166L207.434 131.264L211.274 131.373L214.243 130.166L215.36 129.209L215.443 127.95L217.514 125.865L218.062 121.262L216.7 118.412L213.214 117.563L205.148 123.841L204.005 123.732L203.515 128.09L199.398 128.501L201.82 132.002Z" fill="#1A191C"/>
<path d="M194.574 138.581L195.065 139.731L196.343 141.733L197.053 141.707L198.988 140.61L198.852 134.363L197.355 133.926L195.257 133.983L194.574 138.581Z" fill="#1A191C"/>
<path d="M199.339 140.417L200.513 139.731L200.487 135.206L199.725 133.974L199.234 134.385L199.339 140.417Z" fill="#1A191C"/>
<path d="M200.866 139.648H201.795L201.847 137.016L203.021 135.316L202.968 132.356L201.904 132.33L200.078 133.755L200.84 135.206L200.866 139.648Z" fill="#1A191C"/>
<path d="M202.117 139.595L203.834 139.678L205.905 141.982L206.912 142.257L207.7 141.873L208.9 141.707L209.307 140.037L210.941 138.966L212.71 138.883L215.95 132.933L215.898 131.591L214.4 130.441L211.405 131.757L207.398 131.7L205.489 130.494L204.127 130.795L203.418 132.028L203.365 135.508L202.222 137.125L202.117 139.595Z" fill="#1A191C"/>
<path d="M207.959 99.3606L210.38 98.3857L211.177 98.9016L211.208 99.5311L210.836 100.016L210.893 100.877L211.265 101.079V102.626L210.836 103.343L210.893 103.802L212.517 104.375L211.208 106.407L210.696 106.377L210.608 108.012L210.039 108.099L209.553 107.671L209.666 106.01L208.073 104.462L207.871 103.116L208.642 102.512L207.959 99.3606Z" fill="#1A191C"/>
<path d="M210.213 108.41L210.896 108.296L211.098 106.722H211.439L212.836 104.432L216.283 105.433L217.224 106.893L220.613 108.44L222.378 107.697L222.207 106.954L221.437 106.211L221.524 105.695L222.776 104.637H225.255L226.196 105.896L228.189 106.185L228.447 122.311L226.967 122.254L218.025 117.612L217.058 118.158L213.384 117.24L212.385 115.924L210.931 115.723L210.191 114.407L210.213 108.41Z" fill="#1A191C"/>
<path d="M228.551 106.237L229.72 106.268L231.997 106.897L233.079 106.928L234.419 105.809H235.045L236.183 106.438H237.624L237.882 106.421L238.793 109.035L239.051 109.878L239.292 111.142L238.863 111.457L238.123 111.085L237.269 108.305L236.499 108.248L236.442 109.192L236.954 110.827L241.057 115.898L241.145 118.075L239.949 119.452L228.722 119.325L228.551 106.237Z" fill="#1A191C"/>
<path d="M215.791 129.38L215.847 128.09L217.923 126.075L218.479 121.127L217.095 118.486L218.063 117.992L227.434 122.866L227.377 127.649L225.726 129.052V131.517L226.808 133.607H224.899L221.737 136.728L221.654 137.672L219.32 137.642L219.289 138.07L217.958 137.895L217.047 136.177L216.364 135.841L216.452 135.316L217.31 134.661V131.592L216.123 131.408L214.691 130.346L215.791 129.38Z" fill="#1A191C"/>
<path d="M240.442 135.648L239.153 133.487L239.018 131.915L238.708 131.974L238.625 132.458L236.935 134.921L235.588 134.279L234.243 135.404L231.462 135.244L230.231 134.262L228.465 135.165L228.398 135.766L227.859 136.089L233.254 141.632L236.193 141.799L236.622 142.45L240.826 142.524L240.86 141.584L241.219 140.933L242.621 140.754L240.874 138.223H239.587L239.258 136.426L240.291 135.971L240.442 135.648Z" fill="#1A191C"/>
<path d="M241.716 118.28L240.101 119.907L228.803 119.806L228.925 122.678L227.848 122.647L227.77 127.819L226.136 129.223L226.07 131.382L227.249 133.703L228.54 134.464L228.521 134.645L230.281 133.745L231.624 134.816L234.093 134.958L235.519 133.765L236.783 134.366L238.206 132.29L238.326 131.601L239.411 131.395L239.579 133.35L240.664 135.168L243.293 129.524V126.093L245.203 123.845L241.716 118.28Z" fill="#1A191C"/>
<path d="M209.234 141.742L210.644 143.036L210.544 145.038L218.277 144.859L218.907 144.151L216.692 141.768L216.363 140.907L217.773 138.271L216.814 136.523L216.009 136.09V135.202L216.941 134.595L216.994 131.832L216.254 131.749L216.241 133.2L212.992 139.255L211.003 139.355L209.642 140.291L209.234 141.742Z" fill="#1A191C"/>
<path d="M243.781 128.811L243.672 126.236L245.406 124.217L245.874 124.575L246.728 127.425L250.827 130.472L250.083 131.386L247.083 128.811H243.781Z" fill="#1A191C"/>
<path d="M250.25 131.801L250 133.27L251.734 133.244L251.76 131.084L251.125 130.695L250.25 131.801Z" fill="#1A191C"/>
<path d="M240.617 136.269L243.805 129.188L246.971 129.205L249.778 131.64L249.581 133.646H251.757L251.98 134.853L255.501 136.956L257.673 137.065L253.544 141.493L247.873 143.237H246.467L243.963 141.104L242.973 140.689L241.055 137.869L239.789 137.887L239.641 136.593L240.617 136.269Z" fill="#1A191C"/>
<path d="M252.113 133.331L253.9 134.547L254.43 134.52L258.866 132.999L259.369 134.621L259.015 135.989L258.056 136.75L255.66 136.597L252.232 134.494L252.113 133.331Z" fill="#1A191C"/>
<path d="M262.57 130.975L263.503 132.015L264.764 131.255L265.22 131.102L264.642 130.542L263.534 130.87L262.57 130.975Z" fill="#1A191C"/>
<path d="M259.222 132.898L261.135 132.164L261.814 132.571L261.74 134.267L259.975 139.285L250.425 149.497L249.317 148.736L249.242 144.426L250.678 142.778L253.726 141.838L258.197 137.126L259.366 136.085L259.695 134.564L259.222 132.898Z" fill="#1A191C"/>
<path d="M217.046 141.641L219.086 143.844L219.892 142.804L221.175 142.857L221.451 141.842L222.712 141.055L225.331 142.857L226.842 141.361L232.705 141.619L227.266 136.015L227.998 135.561L228.098 134.573L226.863 133.991H225.051L222.13 136.881L222.029 138.07L219.713 137.995L219.638 138.503L218.127 138.35L216.766 140.933L217.046 141.641Z" fill="#1A191C"/>
<path d="M206.133 147.368L206.636 147.114L207.013 147.42L206.636 148.002L206.181 147.822L206.133 147.368Z" fill="#1A191C"/>
<path d="M207.145 145.772L207.902 145.646L208.156 146.126L207.779 146.533L207.403 146.48L207.145 145.772Z" fill="#1A191C"/>
<path d="M208.807 143.111L208.605 143.972L209.21 144.3L209.788 143.867L209.586 142.979L208.807 143.111Z" fill="#1A191C"/>
<path d="M212.986 145.392L212.934 146.48L210.464 146.428L208.953 149.344L212.504 153.221L213.385 152.487L213.358 151.726L212.754 151.446V150.913L214.116 150.052L215.325 150.965L216.66 150.992L216.634 146.406L214.519 146.305L214.492 145.344L212.986 145.392Z" fill="#1A191C"/>
<path d="M210.624 145.418L210.598 146.026L212.586 146.126L212.559 145.44L210.624 145.418Z" fill="#1A191C"/>
<path d="M215.008 145.344L214.982 145.978L217.075 146.03L217.149 151.455L215.236 151.403L214.128 150.542L213.27 151.023L213.23 151.263L213.673 151.477L213.799 152.592L212.617 153.606L212.871 154.139L214.18 153.125H214.811L215.012 153.733L215.844 154.087L218.516 151.831L218.463 150.183L219.019 148.841L220.731 147.574L221.191 143.285L219.974 143.29L218.564 145.217L215.008 145.344Z" fill="#1A191C"/>
<path d="M213.059 154.397L213.821 155.385L214.806 154.454L214.517 153.488L214.272 153.471L213.059 154.397Z" fill="#1A191C"/>
<path d="M214.297 155.482L218.812 155.403L219.727 156.701L219.692 157.659L220.029 157.965H222.271L222.915 156.701H223.83L224.202 157.077L225.459 157.042L225.831 161.449L228.003 161.519V161.86L233.84 164.487L234.112 164.998H235.333L235.198 163.153L232.991 162.096L233.126 160.697L234.077 158.476L236.249 158.406L234.383 152.225L234.418 149.598L237.37 144.99L237.405 144.343L236.962 144.103L236.98 142.852L236.441 142.804L235.898 142.114L226.987 141.711L225.354 143.298L222.678 141.541L221.737 142.118L221.054 147.858L219.363 149.16L218.855 150.315L218.947 152.024L215.9 154.511L215.089 154.144L215.199 154.62L214.297 155.482Z" fill="#1A191C"/>
<path d="M235.509 148.57L236.739 149.703L236.687 150.913L234.777 150.953V149.615L235.509 148.57Z" fill="#1A191C"/>
<path d="M234.805 151.328L236.675 151.289L236.189 152.924L235.716 153.335H235.138L234.727 152.229L234.805 151.328Z" fill="#1A191C"/>
<path d="M235.719 148.216L237.046 149.458L237.878 148.929L240.128 148.562L240.514 148.601L240.658 147.749L241.928 145.082L240.86 142.861L237.396 142.883L237.374 143.797L237.838 144.243L237.768 145.156L235.719 148.216Z" fill="#1A191C"/>
<path d="M241.205 142.721L242.37 144.99L240.973 147.914L240.789 148.802L247.765 153.107L249.928 149.715L248.833 148.828L248.811 144.36L250.182 142.865L247.997 143.591L246.346 143.613L243.762 141.436L242.948 141.086L241.437 141.226L241.17 141.672L241.205 142.721Z" fill="#1A191C"/>
<path d="M241.092 162.35L248.742 161.414L247.021 158.092L246.929 154.909L247.485 153.388L240.207 148.824L237.926 149.2L237.133 149.786L237.063 151.119L236.551 152.968L236.016 153.602L235.25 153.672L236.717 158.747L239.112 159.871L240.763 159.919L241.092 162.35Z" fill="#1A191C"/>
<path d="M225.32 168.154L226.708 170.078L228.859 170.209L229.62 170.629L231.871 170.655L233.811 167.94L239.232 165.518L239.705 163.385L239.075 160.329L236.246 158.721L234.358 158.852L233.417 160.933L233.443 161.881L235.668 162.961L235.799 165.308L233.886 165.413L233.413 164.622L228.097 162.358L227.939 164.098L225.425 164.176L225.32 168.154Z" fill="#1A191C"/>
<path d="M213.965 155.919L215.459 161.484L215.424 163.241L213.239 165.584L212.91 169.392L221.318 169.466L224.05 170.454L226.305 170.161L224.992 168.518L224.996 163.823L227.58 163.713V161.882L225.482 161.794L225.062 157.458L224.177 157.471L223.7 157.043L223.179 157.069L222.487 158.406H219.825L219.207 157.786L219.391 156.907L218.664 155.845L213.965 155.919Z" fill="#1A191C"/>
<path d="M239.6 165.837L240.962 167.258L240.935 169.077L241.198 169.842L243.006 167.892L242.796 165.413L241.829 164.675L240.966 160.325L239.473 160.272L240.151 163.407L239.6 165.837Z" fill="#1A191C"/>
<path d="M236.974 180.648L238.152 181.623L240.928 179.935L241.375 177.431V173.295L245.828 169.658L246.59 169.684L249.287 167.101L248.867 161.776L241.716 162.677L241.926 164.286L243.157 165.234L243.446 168.132L241.037 170.48L240.459 169.164L240.564 167.424L239.176 165.921L235.77 167.503L238.94 169.112L239.045 173.802L236.947 176.91L236.974 180.648Z" fill="#1A191C"/>
<path d="M229.747 171.476L233.675 175.905L236.687 176.67L238.706 173.509L238.548 169.321L235.273 167.634L234.043 168.189L232.208 170.982L229.668 170.956L229.747 171.476Z" fill="#1A191C"/>
<path d="M217.436 184.443L218.903 184.547L219.765 185.417L221.81 185.444L222.31 179.647V175.853L223.619 175.59L224.118 171.612L227.446 171.507L228.624 170.533L226.632 170.454L223.934 170.821L221.027 169.768H212.855L213.066 172.084L215.789 176.089L215.316 178.143L215.343 179.223L217.436 184.443Z" fill="#1A191C"/>
<path d="M222.676 179.752L223.617 180.041L223.486 182.729L224.454 182.86L226.678 180.858L229.349 181.147L230.059 179.354L233.439 176.272L229.38 171.608L229.327 170.843L228.881 170.712L227.65 171.844L224.454 171.923L224.007 175.901L222.75 176.189L222.676 179.752Z" fill="#1A191C"/>
<path d="M236.845 180.963L235.746 181.146L235.273 182.436L236.114 183.201H237.134L237.997 181.964L236.845 180.963Z" fill="#1A191C"/>
<path d="M230.948 185.941L232.284 184.914L232.914 184.94L233.676 185.889L233.598 186.838L232.315 187.31V187.677L230.9 187.598L230.559 186.571L230.948 185.941Z" fill="#1A191C"/>
<path d="M233.904 176.43L230.445 179.621L229.621 181.592L226.88 181.251L224.599 183.275L223.084 183.127L223.206 180.329L222.668 180.141L222.291 185.863L219.602 185.837L218.792 184.884L217.605 184.871L218.687 187.97L220.618 189.793L219.239 191.398L220.132 193.408L222.199 194.195L223.845 192.796L228.562 192.823L228.899 192.403L230.992 192.036L238.073 184.998L238.046 182.781L237.289 183.761H236.155L234.775 182.607L235.476 180.867L236.68 180.622L236.571 177.046L233.904 176.43ZM232.244 184.517L232.906 184.491L233.978 185.653L233.948 187L232.691 187.634L232.612 188.08L230.694 188.101L230.094 186.659L230.642 185.601L232.244 184.517Z" fill="#1A191C"/>
<path d="M140.623 21.8726L140.027 22.8212L141.1 23.8922L140.623 24.9632L142.173 26.9828L144.078 26.3883L146.578 26.1522L149.438 29.2428L151.343 34.3531L149.797 37.5617L151.938 37.2033L153.129 37.9158L153.247 39.4633L150.629 39.5813L152.056 41.0064L153.843 41.3649L149.915 46.5931L149.438 49.8018L150.27 52.4159L149.674 53.9634L150.747 57.2901L152.77 59.5501L153.366 59.4321L154.675 59.0737L154.793 60.9752L155.625 62.1643L157.171 62.0462L158.362 57.6486L161.935 53.2509L167.295 51.1132L170.627 46.9516L172.173 47.6642H175.387L178.006 45.05L181.22 43.743L181.579 41.7233L179.556 39.9398L177.769 39.3453L176.815 36.8492L179.079 35.5421L182.652 37.4437L183.843 36.1366L181.938 35.0656L185.989 29.5969L185.275 27.2188L183.37 27.1008L184.084 24.9632L186.466 23.8922L191.349 19.6125L189.921 18.0694L184.443 18.5459L181.584 21.4004L183.252 17.7153L181.347 17.2388L180.274 19.1404L178.728 17.8333L174.441 18.3098L175.633 16.4082L182.656 16.1722L180.87 13.7941L173.25 12.369L170.155 12.8455L170.273 14.393L167.059 13.322L167.177 12.251L164.913 12.7275L164.436 13.9165L166.818 14.7471L164.317 16.5306L162.531 14.511L160.03 13.7985L159.671 15.7001H157.171L156.216 13.6804L152.288 13.0859L150.147 14.1569L150.029 15.582L147.292 15.2236L145.624 15.9361L145.742 17.6016V18.4322L142.646 19.0267L141.218 18.0781L140.264 19.6213L141.691 21.1687L144.669 20.8103L144.905 21.7633L142.642 22.8343L140.623 21.8726Z" fill="#1A191C"/>
<path d="M150.15 40.416L150.863 41.487L150.504 42.7941H149.791L148.836 41.7231L149.072 40.8925L150.15 40.416Z" fill="#1A191C"/>
<path d="M179.917 37.4434L181.94 38.0379L181.822 39.7034L179.68 38.6324L179.203 38.0379L179.917 37.4434Z" fill="#1A191C"/>
<path d="M170.133 272.322L171.81 270.088L178.33 266.739L179.447 264.322L182.241 263.762L184.85 260.414L187.46 260.226L188.021 257.62L190.258 255.946L192.124 256.506L197.528 254.831L198.832 256.134L201.254 256.322L203.492 255.207L216.909 255.019L221.752 256.322L227.9 255.019L229.949 255.207L230.51 253.345H232.559L235.353 256.322L240.573 252.974L246.348 251.299L248.398 252.602L248.586 249.997L251.568 249.625L254.734 251.111V252.598L262.748 255.946L264.985 255.758L265.918 256.873L263.308 259.85V261.896L265.73 263.198L266.29 261.896L277.286 257.616L285.299 256.873L286.976 257.804L293.313 258.735L294.801 259.295L296.851 258.18L299.833 257.992L302.627 260.038L302.815 262.272L309.151 260.969L310.084 261.34L310.456 263.386L316.232 265.249L318.097 263.946L318.286 265.62L320.335 265.808L323.129 268.042L325.739 266.927L327.976 267.115H329.653L330.77 266.927L330.958 269.904L334.685 272.138L170.133 272.322Z" fill="#1A191C"/>
<path d="M113.855 272.322L119.82 270.648L120.192 268.973L126.528 267.487L130.255 268.418L138.452 265.07L138.264 261.538L135.842 257.817L136.403 256.886L135.47 254.469V251.864H136.959L136.026 250.001L142.735 244.235L142.546 246.841L141.241 247.212L139.936 249.446L141.241 250.006L139.936 251.868L138.448 251.496L137.703 253.171L137.892 255.404L140.129 255.216L141.618 257.262L142.178 259.868L145.161 263.588L145.349 268.239L144.232 268.799L145.165 271.216L144.604 272.147L113.855 272.322Z" fill="#1A191C"/>
<path d="M109.569 268.973L111.807 268.602L112.739 269.345L112.367 270.276L112.179 271.391L110.874 271.95L109.941 270.835H106.215V270.092L107.892 269.721L109.569 268.973Z" fill="#1A191C"/>
<path d="M133.422 256.882L131.557 257.253L132.673 259.299L133.978 259.859L133.418 260.974V261.717L129.875 262.648L130.247 263.763L131.736 264.322L133.413 263.019L134.902 263.391L133.969 264.877L134.53 265.249L136.207 264.506L137.512 262.088L133.422 256.882Z" fill="#1A191C"/>
<path d="M129.508 265.253L128.02 266.556L129.324 266.927L131.002 267.299L132.679 266.184L131.002 265.812L129.508 265.253Z" fill="#1A191C"/>
<path d="M139.937 243.243L138.846 243.462L138.605 244.576L140.69 244.27L139.937 243.243Z" fill="#1A191C"/>
<path d="M141.7 241.524L140.391 241.774L140.64 242.783L142.234 242.727L141.7 241.524Z" fill="#1A191C"/>
<path d="M143.777 243.549L143.786 245.105L144.684 245.144L145.411 243.99L143.777 243.549Z" fill="#1A191C"/>
<path d="M144.21 239.208L143.264 239.58L143.023 240.471L143.842 240.769L145.217 239.824L144.21 239.208Z" fill="#1A191C"/>
<path d="M333.311 187.074L333.158 198.168L331.45 199.419L331.297 200.511L333.626 202.072L339.376 200.979H342.327L343.413 199.414L349.938 198.164L354.597 199.572L354.286 201.447L354.908 203.322L358.481 202.697L358.635 203.633L356.305 205.351L357.08 205.976L358.788 205.351L358.324 210.509L361.586 213.009L363.451 212.384L364.384 213.32L369.823 212.537L374.951 204.253L376.816 203.786L380.543 196.909L381.475 190.973L379.146 188.005L380.078 187.38L378.213 181.596L376.194 180.188L376.505 172.377L374.64 170.969L374.176 166.593H373.243L370.134 176.906L368.426 177.063L364.542 173.155L366.718 167.371L362.681 166.589L358.175 167.839L356.931 171.432L354.913 171.9L354.759 169.4L346.527 174.401L346.68 176.276L345.436 177.994H342.327L335.645 180.805L333.311 187.074Z" fill="#1A191C"/>
<path d="M361.588 216.922L360.812 220.047L360.966 222.233L363.295 222.076L365.936 218.015L361.588 216.922Z" fill="#1A191C"/>
<path d="M399.808 210.671L400.272 215.829L399.65 218.172L397.32 219.89L397.474 221.923V224.109L398.095 224.891L404.467 219.423V218.172H402.912L400.736 210.828L399.808 210.671Z" fill="#1A191C"/>
<path d="M395.148 221.923L396.391 224.266L392.971 227.549L392.66 229.267L390.331 229.577L386.447 233.171L382.873 231.453L382.562 230.202L389.087 227.392L395.148 221.923Z" fill="#1A191C"/>
<path d="M397.013 183.791L396.859 184.574L398.878 187.384L399.964 187.852L400.117 186.759L397.013 183.791Z" fill="#1A191C"/>
<path d="M316.369 138.809L316.246 139.805L319.219 144.793H320.086L326.283 155.14L328.761 155.39L330 151.774L328.017 150.528L327.644 148.535L316.369 138.809Z" fill="#1A191C"/>
<path d="M334.613 145.519L335.936 147.045L341.007 145.292L342.009 141.427L344.269 141.266L346.336 139.771L343.656 137.821L343.043 136.75L341.72 139.185L342.206 140.584L341.401 141.751L339.881 141.362L336.198 144.059L336.295 145.62L334.613 145.519Z" fill="#1A191C"/>
<path d="M341.456 139.543L340.195 141.069L341.229 141.392L341.811 140.579L341.456 139.543Z" fill="#1A191C"/>
<path d="M345.73 152.596L346.72 153.807L346.076 155.626V155.971H347.539L348.056 151.425L348.529 151.556L349.387 155.709L350.206 155.927L350.981 154.152L350.206 151.468L349.562 150.301L351.585 148.828L351.112 148.177L349.177 149.431H348.66L347.714 148.046L348.016 147.438L349.61 146.66L352.019 147.394L352.75 147.35L354.558 145.663L353.827 144.929L352.15 146.227H351.073L349.439 145.449L348.279 145.493L346.987 147.569L346.168 151.162L345.73 152.596Z" fill="#1A191C"/>
<path d="M356.53 144.461L355.711 146.45L357.003 148.137H357.432L357.992 147.014L358.295 146.625L357.734 146.017L356.915 145.716L356.53 144.461Z" fill="#1A191C"/>
<path d="M359.07 150.996L357.306 151.385L356.789 151.949L357.218 152.683L358.379 152.251L359.11 151.818L360.187 152.683L360.66 152.294L359.802 151.254L359.07 150.996Z" fill="#1A191C"/>
<path d="M329.81 156.622L328.605 157.444L328.864 158.135L332.695 159L334.631 159.345L335.45 160.211L337.644 160.386L338.677 161.251L339.623 161.033L340.486 160.255L338.892 159.52L337.517 158.353L333.943 157.488L329.81 156.622Z" fill="#1A191C"/>
<path d="M342.333 160.387L341.387 160.907L341.947 161.515L343.322 160.994L342.333 160.387Z" fill="#1A191C"/>
<path d="M343.965 159.997L344.136 160.819L345.125 161.077L345.511 160.601L345.081 159.949L343.965 159.997Z" fill="#1A191C"/>
<path d="M346.337 162.161L345.133 162.336L346.21 163.245H347.068L346.337 162.161Z" fill="#1A191C"/>
<path d="M346.676 160.732L346.418 161.252L348.353 161.554L349.86 160.688L349.002 160.43L347.627 160.82L347.11 160.387L346.676 160.732Z" fill="#1A191C"/>
<path d="M353.003 161.037L350.766 162.899L350.98 163.376L351.926 163.201L353.043 162.161L355.237 161.859L354.807 161.125L353.003 161.037Z" fill="#1A191C"/>
<path d="M385.557 152.548L385.172 153.094L387.278 154.957L387.567 156.049L388.141 155.984L388.207 154.86L387.567 154.283L385.557 152.548Z" fill="#1A191C"/>
<path d="M386.612 155.185L386.196 155.281L385.942 156.404L385.145 156.92L382.75 157.34L382.846 158.24L385.369 158.113L386.967 157.117L386.871 155.381L386.612 155.185Z" fill="#1A191C"/>
<path d="M389.453 157.143L389.996 158.651L390.955 159.582L391.244 159.324L391.148 158.328L390.062 157.012L389.453 157.143Z" fill="#1A191C"/>
<path d="M392.105 159.39L392.171 160.386L392.78 160.963L393.353 160.609L392.841 159.547L392.105 159.39Z" fill="#1A191C"/>
<path d="M392.872 161.864L392.359 162.411L392.902 163.407L393.542 163.6L393.511 162.927L392.872 161.864Z" fill="#1A191C"/>
<path d="M394.117 161.287L394.564 162.38L395.426 163.407L395.904 162.638L395.264 161.545L394.117 161.287Z" fill="#1A191C"/>
<path d="M396.355 162.926L396.609 164.277L397.218 165.112L397.73 164.054L396.355 162.926Z" fill="#1A191C"/>
<path d="M397.055 165.946L396.832 166.331L397.568 167.297L398.08 167.328L397.76 166.073L397.055 165.946Z" fill="#1A191C"/>
<path d="M395.426 167.87L394.66 168.224L395.33 169.155L395.904 168.832L395.426 167.87Z" fill="#1A191C"/>
<path d="M403.242 173.627L402.699 174.353L402.927 175.17L403.198 175.354L403.693 174.715L403.242 173.627Z" fill="#1A191C"/>
<path d="M403.516 175.853L403.559 176.443L404.146 176.626L404.553 176.399L404.146 175.761L403.516 175.853Z" fill="#1A191C"/>
<path d="M404.373 181.124L404.102 181.535L404.509 181.99L405.188 181.762L404.373 181.124Z" fill="#1A191C"/>
<path d="M415.395 180.215L414.852 180.941L414.809 181.758L415.439 182.396L415.395 180.215Z" fill="#1A191C"/>
<path d="M345.66 130.048L345.284 130.765L345.074 131.648L342.98 134.301L343.107 134.848L343.988 134.721L346.707 131.687L345.66 130.048Z" fill="#1A191C"/>
<path d="M349.052 129.038L349.008 131.228L349.805 132.028L350.098 133.584L350.895 133.755L351.272 132.784L350.646 132.321L350.479 129.585L349.052 129.038Z" fill="#1A191C"/>
<path d="M351.313 129.882L351.27 131.818L351.729 132.575L352.526 131.648L352.316 129.965L351.313 129.882Z" fill="#1A191C"/>
<path d="M351.812 128.195L352.609 129.249L352.986 130.259H353.7L353.573 128.532L352.776 127.985L351.812 128.195Z" fill="#1A191C"/>
<path d="M353.364 132.155L353.531 133.419L352.064 134.599L350.851 134.726L349.555 136.116L349.598 136.75L350.811 136.369L351.648 135.823L352.362 137.633L353.618 138.516L354.122 138.345L354.582 137.799L353.579 136.789L354.166 136.326L354.836 136.872L355.295 136.116L354.836 135.189L354.752 133.126L353.364 132.155Z" fill="#1A191C"/>
<path d="M346.542 119.312L345.412 120.112L345.285 122.639L347.046 126.049L347.632 126.512L348.385 126.005L349.682 126.215L349.931 127.352L350.895 127.435L351.354 126.805L350.768 126.005L350.054 125.332L348.547 125.166L347.751 123.859L348.67 122.469L348.753 121.249L348.127 119.693L346.542 119.312Z" fill="#1A191C"/>
<path d="M347.129 126.849L347.462 128.029L348.049 128.409L348.469 127.863L347.799 126.936L347.129 126.849Z" fill="#1A191C"/>
<path d="M332.726 118.088L331.679 118.381L330.926 119.308L331.552 120.527L332.472 120.61L333.518 119.683L333.768 118.464L332.726 118.088Z" fill="#1A191C"/>
<path d="M344.825 108.532L343.275 109.713L343.191 111.986L344.531 113.542L344.864 113.249L344.825 108.532Z" fill="#1A191C"/>
<path d="M351.729 94.5918L351.016 95.3087L351.309 96.3185L351.935 96.3622L352.356 98.5523L352.859 99.0988L353.739 98.2988L354.116 96.865L353.026 95.3087L351.729 94.5918Z" fill="#1A191C"/>
<path d="M355.585 93.1621L354.372 94.2987L354.328 95.6058L354.622 95.9861L356.255 94.5959L356.128 93.2058L355.585 93.1621Z" fill="#1A191C"/>
<path d="M353.906 90.4646L351.77 92.9082L352.146 93.4984L353.193 93.6251L355.159 92.1082L356.543 91.8547L357.799 93.3279L358.763 92.9913L359.139 91.5574L360.939 91.5137L362.699 89.4067L361.78 85.9095L361.359 84.056L362.279 83.2997L360.186 80.1436L359.643 80.1873L358.513 81.4506V82.5041L359.017 83.0943L359.183 85.8745L357.887 87.4745L357.134 87.0111L356.547 88.3182L356.42 89.5378L356.88 90.2547L356.586 90.8012L355.623 90.0012H354.953L354.366 90.3378L353.906 90.4646Z" fill="#1A191C"/>
<path d="M357.509 71.4316L356.839 72.0218L357.176 73.2851L357.763 73.8753L357.719 75.8118L356.966 76.1047L356.379 77.4118L358.095 79.768L359.225 79.3877L359.435 78.7975L358.222 77.7047L358.976 76.7342L359.773 76.861L360.399 77.5342L360.443 76.1441L362.159 74.7539L363.122 74.5004L362.326 73.154L361.949 72.5638L361.323 72.9835L360.78 73.6567L359.606 73.4032L358.393 72.6032L357.509 71.4316Z" fill="#1A191C"/>
<path d="M363.83 70.124L362.656 71.7677L362.739 72.5677L363.326 72.3141L364.706 70.5874L363.83 70.124Z" fill="#1A191C"/>
<path d="M365.381 67.7244L364.961 68.8609L365.005 69.6172L365.718 69.1538L366.388 67.8074V67.3047L365.381 67.7244Z" fill="#1A191C"/>
<path d="M367.848 57.7012L367.305 58.3744L367.348 59.4279L367.852 59.3842L368.688 57.911L367.848 57.7012Z" fill="#1A191C"/>
<path d="M366.848 60.2708V62.1243L367.434 62.3341L367.855 61.6609V60.2314L366.848 60.2708Z" fill="#1A191C"/>
<path d="M349.719 53.5742L349.68 56.2714L353.069 61.4953L354.282 66.0416L356.419 70.0852L357.255 70.3781L357.969 69.788L358.302 68.8175L355.245 65.4908L355.329 63.7641L355.999 63.4712L356.165 62.4614L350.179 53.9983L349.719 53.5742Z" fill="#1A191C"/>
<path d="M373.336 45.1943L372.5 45.2774L373.004 45.9943L374.05 46.7112L374.344 46.3746L373.336 45.1943Z" fill="#1A191C"/>
<path d="M374.965 45.7012L375.092 46.4181L376.388 46.7984L376.515 46.2913L374.965 45.7012Z" fill="#1A191C"/>
<path d="M382.082 48.4512L382.629 49.4304L383.54 49.3692L383.724 48.696L382.082 48.4512Z" fill="#1A191C"/>
<path d="M391.262 49.9805L391.993 51.3269L392.54 50.7149V49.7969L391.262 49.9805Z" fill="#1A191C"/>
<path d="M397.526 45.6963L396.492 47.0427L396.733 47.6547L398.012 46.8591L398.134 46.0635L397.526 45.6963Z" fill="#1A191C"/>
<path d="M402.692 41.4785L401.781 42.5801L402.753 42.9473L402.692 41.4785Z" fill="#1A191C"/>
<path d="M403.972 39.6426L403.363 40.6218L403.425 41.601L404.274 41.2338L403.972 39.6426Z" fill="#1A191C"/>
<path d="M385.911 16.7666L384.878 17.4398L384.633 18.2966L385.119 18.8474L386.214 18.4802L387.308 18.8474L387.917 19.031L387.856 17.0114L385.911 16.7666Z" fill="#1A191C"/>
<path d="M30.2891 23.3057L31.8042 26.134L32.7763 25.9154V24.9362L30.2891 23.3057Z" fill="#1A191C"/>
<path d="M386.834 7.65176L384.987 10.961L388.525 13.1948L392.488 9.87683L394.896 13.8855L392.383 14.4013L391.389 16.9717L396.954 24.4994L400.304 25.0545L405.134 26.0031L405.73 24.2546L407.416 24.9015L407.735 32.2237L404.613 37.4126L406.119 37.7405L410.052 29.4697L411.247 23.2797L408.821 22.1475L408.431 13.8417L410.301 14.2046L410.284 19.2012L412.324 20.9803L413.515 16.6395L412.561 14.0603L415.442 15.4373L415.744 0.141602L382.569 0.202802L380.66 1.66724L380.919 4.62672L386.799 5.43106L391.314 4.40377L389.694 7.42882L386.834 7.65176Z" fill="#1A191C"/>
<path d="M0.511719 24.0053L6.64662 24.6916L7.6713 26.8074L12.5582 23.9485L20.7381 22.8075L21.3073 18.5803L25.3973 17.094L28.0684 14.5804V18.0077L30.7965 21.7234L36.476 18.1257L33.7479 15.0394L30.3411 5.84189L26.2468 1.15132L23.3479 0.924L23.2341 3.43759L20.8475 4.63974L20.1075 3.15344L21.5263 0.124023L0.568645 0.180852L0.511719 24.0053Z" fill="#1A191C"/>
<path d="M34.3714 1.43555L32.668 2.97867L33.1803 4.11962L34.0911 3.49013L34.6035 4.06279L36.3025 3.43767L36.2456 2.46721L34.3714 1.43555Z" fill="#1A191C"/>
<path d="M21.7463 48.1836L21.6719 49.4994L22.6177 49.2808V48.6951L21.7463 48.1836Z" fill="#1A191C"/>
<path d="M20.2901 48.7695L18.3984 49.7225L18.6918 50.7454L19.4187 50.1597L20.8725 49.4996L20.2901 48.7695Z" fill="#1A191C"/>
<path d="M12.4306 50.0116L11.1213 49.7188L10.9023 50.3045L11.0468 51.4018L12.4306 50.0116Z" fill="#1A191C"/>
<path d="M9.66542 49.9411L8.42618 49.4297L7.98828 50.234L8.78963 51.0384L9.66542 49.9411Z" fill="#1A191C"/>
<path d="M5.37183 48.7702L4.78943 47.9658L4.20703 48.1844V49.2816L4.86387 49.7188L5.37183 48.7702Z" fill="#1A191C"/>
<path d="M0.644531 43.5723L1.37144 44.0837L1.15249 44.6695H0.644531V43.5723Z" fill="#1A191C"/>
<path d="M272.702 218.391L272.637 220.266L275.238 220.869L275.838 219.326L274.905 219.593L273.705 219.859L273.372 218.452L272.702 218.391Z" fill="#1A191C"/>
<path d="M268.435 174.401L267.77 175.271L267.901 176.211L269.302 175.07L268.435 174.401Z" fill="#1A191C"/>
<path d="M265.97 175.879L264.972 175.944L264.906 176.814L265.572 176.95L266.57 176.482L265.97 175.879Z" fill="#1A191C"/>
<path d="M259.366 163.005L258.434 165.217L256.835 168.032L254.037 168.233L252.837 169.641L253.039 173.933L251.305 175.944L251.506 179.363L252.973 181.037L254.707 180.836L256.441 179.559L256.043 177.548L260.041 170.642L259.239 169.772L260.041 168.097L260.908 168.364L261.175 167.695L260.373 164.277L259.905 162.869L259.366 163.005Z" fill="#1A191C"/>
<path d="M252.969 162.266L253.17 162.935L254.037 163.07L254.37 162.2L252.969 162.266Z" fill="#1A191C"/>
<path d="M254.234 163.608L254.567 164.347H255.101L255.369 163.407L254.234 163.608Z" fill="#1A191C"/>
<path d="M263.767 156.631L263.5 157.169L264.231 157.772L264.766 157.169L263.767 156.631Z" fill="#1A191C"/>
<path d="M267.501 152.609L266.699 153.147L267.299 154.087H268.1L267.501 152.609Z" fill="#1A191C"/>
<path d="M267.835 154.957L267.301 155.56L267.699 156.164L268.431 156.299L268.496 155.023L267.835 154.957Z" fill="#1A191C"/>
<path d="M287.434 140.203L287.565 141.344L288.296 141.611L288.428 140.605L287.434 140.203Z" fill="#1A191C"/>
<path d="M288.366 142.616L288.301 144.024L288.835 144.29L289.304 143.351L288.366 142.616Z" fill="#1A191C"/>
<path d="M288.504 145.366L288.035 145.834L288.569 146.302L289.235 145.834L288.504 145.366Z" fill="#1A191C"/>
<path d="M163.178 94.8535L162.582 95.4524L163.65 96.0513L163.769 95.2163L163.178 94.8535Z" fill="#1A191C"/>
<path d="M166.386 94.4951L165.672 94.9716L166.267 95.4481L167.218 95.2077L166.386 94.4951Z" fill="#1A191C"/>
<path d="M166.859 96.1699L166.504 97.1273L166.977 97.7262L167.572 97.2497L166.859 96.1699Z" fill="#1A191C"/>
<path d="M169.709 98.0801L169.473 98.679L169.827 99.0374L170.778 98.4385L169.709 98.0801Z" fill="#1A191C"/>
<path d="M178.739 103.334L178.266 103.933L178.739 104.532L179.452 104.173L178.739 103.334Z" fill="#1A191C"/>
<path d="M181.997 110.901L181.23 111.343L181.585 111.701L181.997 110.901Z" fill="#1A191C"/>
<path d="M179.337 110.984L178.387 111.225L178.86 111.942H179.573L179.337 110.984Z" fill="#1A191C"/>
<path d="M177.076 110.268L176.48 110.866L177.312 111.583L177.785 110.508L177.076 110.268Z" fill="#1A191C"/>
<path d="M169.711 126.992L168.879 127.469L169.474 127.945L170.188 127.587L169.711 126.992Z" fill="#1A191C"/>
<path d="M171.754 127.954L171.211 128.435L171.596 129.148L172.525 128.732L171.754 127.954Z" fill="#1A191C"/>
<path d="M170.567 129.305L169.871 129.72L170.62 130.721L171.211 130.411L170.567 129.305Z" fill="#1A191C"/>
<path d="M4.37771 108.702L4.31641 109.721L5.20971 110.32L5.74394 109.843L4.37771 108.702Z" fill="#1A191C"/>
<path d="M6.69528 110.202L5.86328 110.801L6.57705 111.697L7.40905 110.98L6.69528 110.202Z" fill="#1A191C"/>
<path d="M8.36221 111.636L7.64844 112.593L7.8849 113.192L8.89644 112.715L8.36221 111.636Z" fill="#1A191C"/>
<path d="M9.54881 113.489L9.13281 115.88L9.54881 116.777L10.915 116.357L11.6288 115.159L10.14 113.782L9.54881 113.489Z" fill="#1A191C"/>
<path d="M11.9324 176.014L11.1004 175.953L11.0391 176.731L11.6915 177.151L12.4666 176.674L11.9324 176.014Z" fill="#1A191C"/>
<path d="M14.7887 176.854L13.5977 177.632L14.491 178.707L15.266 178.528L15.682 177.99L14.7887 176.854Z" fill="#1A191C"/>
<path d="M121.122 123.858L120.465 124.129L120.697 124.711L121.468 124.208L121.314 124.051L121.122 123.858Z" fill="#1A191C"/>
<path d="M122.202 124.519L121.816 125.336L122.281 125.957L122.859 125.454L122.202 124.519Z" fill="#1A191C"/>
<path d="M123.519 126.77L123.055 127.198L123.401 127.897L124.057 127.705L123.519 126.77Z" fill="#1A191C"/>
<path d="M123.479 128.519L123.168 129.179L123.672 129.721L124.328 129.371L123.479 128.519Z" fill="#1A191C"/>
<path d="M123.515 130.188L122.977 130.578L123.401 131.356L124.098 130.967L123.515 130.188Z" fill="#1A191C"/>
<path d="M122.859 131.701L122.355 132.204L122.548 132.514H123.166L123.358 132.007L122.859 131.701Z" fill="#1A191C"/>
<path d="M123.593 133.218L123.129 133.646L122.625 133.725V134.346L123.553 135.198L123.939 134.577L124.171 133.878L124.092 133.296L123.593 133.218Z" fill="#1A191C"/>
<path d="M118.69 122.849L117.534 122.46L116.605 123.041L117.07 123.583L118.65 123.815L118.69 122.849Z" fill="#1A191C"/>
<path d="M109.855 120.365L109.124 121.113L109.96 121.454L110.083 122.499L108.23 122.66L108.419 123.666L108.957 123.705L109.268 123.242L111.431 123.312L111.821 124.059L112.32 123.473L113.779 123.08L115.062 123.351L115.211 122.577L112.898 121.069L111.401 120.509L109.855 120.365Z" fill="#1A191C"/>
<path d="M115.213 122.577L112.896 121.065L111.801 120.693L111.434 123.316L111.819 124.055L112.323 123.474L113.789 123.085L115.064 123.356L115.213 122.577Z" fill="#1A191C"/>
<path d="M109.851 120.365L111.357 120.523L111.177 122.367L111.029 123.338L109.273 123.242L108.962 123.709L108.423 123.67L108.23 122.66L110.083 122.507L109.969 121.458L109.119 121.108L109.851 120.365Z" fill="#1A191C"/>
<path d="M134.85 222.133L133.698 222.006L132.551 222.775L133.383 223.676L134.85 222.133Z" fill="#1A191C"/>
<path d="M135.998 221.556L135.617 222.775L134.531 223.737L134.597 224.056L136.449 223.348L137.216 222.386L135.998 221.556Z" fill="#1A191C"/>
<path d="M177.942 51.2655L177.084 50.7803L175.928 51.5103L174.934 52.4283L174.96 52.9398L176.247 53.1015L176.168 54.0195L175.713 54.4785L175.823 54.7758L177.11 54.8588V56.3451L178.962 56.6686L180.061 57.2894L181.296 57.3418L183.416 56.2883L185.053 54.1288L185.08 52.6687L184.086 51.8294L183.254 51.1256L182.877 51.3967L182.312 52.1267L181.668 52.0436L181.025 51.3398L180.193 51.4185L178.984 52.4196L178.257 53.2021L177.854 52.8523L177.828 51.9868L178.231 51.7158L177.942 51.2655Z" fill="#1A191C"/>
<path d="M213.806 23.5723L213.084 22.8467L211.481 23.6248H208.538L208.074 25.3384L209.725 26.7941L210.448 26.6892L211.481 24.9231L212.357 25.5482L211.735 26.7941L211.424 28.6126L212.147 29.7536L213.697 27.1569L215.711 24.7133L214.936 24.0401L213.806 23.5723Z" fill="#1A191C"/>
<path d="M214.682 20.4563L213.391 21.6497L214.166 22.8431H215.558L216.127 23.6212L217.831 24.5043L219.793 23.3633L221.137 22.2224L220.673 21.2869L219.328 20.5087L218.348 21.3918L217.678 20.5612L217.161 20.6137L216.491 22.0694L215.51 21.0814L215.405 20.4082L214.682 20.4563Z" fill="#1A191C"/>
<path d="M217.624 25.8066L216.591 26.7421L215.715 27.4153L216.126 28.141L216.954 28.3989L218.298 27.7738L218.92 26.9957L218.351 26.0602L217.624 25.8066Z" fill="#1A191C"/>
<path d="M239.887 16.9414L240.64 17.243L240.11 18.1523V19.4419L238.981 20.1238H237.776L237.098 19.2889L237.172 18.3796L237.702 17.6977H238.757L239.887 16.9414Z" fill="#1A191C"/>
<path d="M242.75 16.1059V17.0152L243.503 17.6228L244.559 17.5485L245.465 16.7135V16.1059H244.637L243.959 16.3332L243.429 15.7256L242.75 16.1059Z" fill="#1A191C"/>
<path d="M247.051 16.185L247.581 17.3216L248.636 17.3959L249.389 17.0943L249.013 16.032L248.032 15.8047L247.051 16.185Z" fill="#1A191C"/>
<path d="M251.346 14.6676L250.519 14.5146L249.766 15.2753L250.142 15.9572L250.37 17.0195L251.351 16.2632L251.579 15.4283L251.346 14.6676Z" fill="#1A191C"/>
<path d="M255.947 22.707L255.719 23.7693L253.985 25.2862L250.289 26.1211L247.272 31.1265L246.742 32.569L249.759 33.3297L250.21 31.5111L251.117 28.7047L253.455 27.4894L255.417 25.9725L256.849 25.3649H257.602V23.319L255.947 22.707Z" fill="#1A191C"/>
<path d="M246.221 33.7803L248.257 34.0076L248.935 36.3594L250.67 38.178L250.065 39.3932H249.01L248.029 38.2566L245.844 38.1823L244.938 36.9671V36.1321L246.295 35.7518L246.221 33.7803Z" fill="#1A191C"/>
<path d="M278.043 7.91818L277.062 7.31055H275.933L275.705 7.99249L274.501 8.67444L273.594 8.97607L273.445 9.88533L275.556 10.0383L278.043 7.91818Z" fill="#1A191C"/>
<path d="M280.376 8.14551L279.846 9.28209L278.79 9.20777L277.131 10.423L276.68 11.9399H277.735L278.339 10.952L279.771 12.0142L281.129 11.4066L282.11 10.5717L281.733 9.28209L281.203 8.37282L280.376 8.14551Z" fill="#1A191C"/>
<path d="M282.566 8.98047L283.096 11.105L283.924 13.0765L284.83 11.4853L286.564 11.105V9.96842L285.435 9.13347L282.566 8.98047Z" fill="#1A191C"/>
<path d="M323.939 5.58016L325.117 6.56811L325.953 6.22276L326.198 4.83701L324.482 3.65234L323.352 4.39549L320.602 4.64466V5.88179L317.703 5.92987V7.95386L321.092 10.4718L321.977 9.82921L321.78 8.05003L323.943 7.50797L323.501 6.66865L322.717 5.87741L323.939 5.58016Z" fill="#1A191C"/>
<path d="M327.082 4.39533L327.866 5.87725L330.914 5.5319L331.75 4.44341L331.553 3.50355L330.717 3.1582L329.933 3.75272L327.673 4.2467L327.082 4.39533Z" fill="#1A191C"/>
<path d="M326.884 10.1747L325.36 9.78125L324.48 10.7211L324.086 12.0063L326.148 11.8096L327.72 11.0184L326.884 10.1747Z" fill="#1A191C"/>
<path d="M366.376 1.62781L365.098 1.23438L363.626 1.77644L362.891 2.86493L363.823 4.10205L366.28 3.01356L366.77 2.4715L366.376 1.62781Z" fill="#1A191C"/>
<path d="M298.007 134.647L298.116 135.836L298.226 136.701L297.582 136.811L297.906 138.756L298.874 139.298L300.376 138.432L299.947 136.382L300.056 135.626L298.659 134.332L298.007 134.647Z" fill="#1A191C"/>
<path d="M96.7109 116.667V117.222L99.0405 117.266L100.14 116.628L100.31 117.095L102.596 117.651L104.628 119.482L104.164 120.12L104.247 120.846L105.942 121.27L107.636 120.505L108.398 119.74L107.299 119.185L101.628 115.863L99.6404 115.648L96.7109 116.667Z" fill="#1A191C"/>
<path d="M104.924 113.262L104.372 113.092L104.328 114.154L105.007 114.836L105.471 114.154L104.924 113.262Z" fill="#1A191C"/>
<path d="M106.024 114.923L105.262 115.347L105.98 116.37L106.361 115.858L106.024 114.923Z" fill="#1A191C"/>
<path d="M108.482 115.688L107.676 115.645L107.759 116.156L108.35 117.008L108.858 116.453L108.482 115.688Z" fill="#1A191C"/>
<path d="M108.099 114.67L106.785 114.114L106.531 112.794L107.039 112.58L107.547 113.603L108.055 113.988L108.099 114.67Z" fill="#1A191C"/>
<path d="M106.829 111.985L106.15 111.815L106.023 110.962L105.305 110.709L105.769 110.241L106.614 110.538L107.249 110.923L106.829 111.985Z" fill="#1A191C"/>
<path d="M104.625 122.206L103.102 122.591V123.015L103.99 123.526H104.923L105.514 122.844L104.625 122.206Z" fill="#1A191C"/>
<path d="M364.296 148.325L362.47 148.531L361.297 149.387L361.783 150.367L363.771 150.734V151.101L362.514 152.12L363.123 154.24L363.732 154.279L364.257 152.198H365.229L365.636 154.235L370.379 158.152L370.501 161.212L372.122 162.965L372.853 162.926L373.015 152.12L370.261 150.205L367.664 151.958L366.731 152.531L365.19 151.551L365.15 148.452L364.296 148.325Z" fill="#1A191C"/>
<path d="M40.7737 19.6078L37.0997 20.4777L37.8573 24.6087L41.8553 25.6972L42.0698 26.5672L36.1276 28.4163L32.7777 33.9593L33.9644 39.8302L35.9086 41.1329L37.4238 39.7209L37.8573 40.5908L36.0181 42.7634L28.8848 46.0245L24.3438 47.113L24.2344 48.7436L34.7176 45.701L39.0396 44.5032L43.0376 39.6116L47.4691 36.6783L45.2008 40.4815L47.688 40.8094L51.9049 38.9602L52.6625 42.0028L55.5789 42.6541L58.6047 45.5874L58.8193 47.76L58.3858 48.302L58.9244 50.3654H59.682L59.7914 46.8857H60.6541L60.8686 55.4712L63.0319 53.6221L61.5167 44.7087H59.2484L56.7612 41.5569L68.9741 20.9017L56.8707 11.4463L43.3616 14.056L42.823 18.1871L45.7394 19.9269L44.6578 22.7552L40.7737 19.6078Z" fill="#1A191C"/>
<path d="M85.3766 147.818L85.1051 149.021L84.6016 149.528L84.9475 150.148L85.8364 149.799L86.2612 149.06L85.9897 148.282L85.3766 147.818Z" fill="#1A191C"/>
<path d="M89.2106 15.6737L89.3069 17.4311L85.8125 21.0463L86.6883 23.9751L89.2106 23.2932L90.6688 21.1424L94.3558 19.7742L97.3642 19.5775L95.0346 17.0376L93.8698 17.9163L92.994 17.6234L92.5079 16.548L91.4394 15.4727L89.2106 15.6737Z" fill="#1A191C"/>
<path d="M93.7751 10.4977L93 11.866L96.7878 13.2343L98.1453 11.184L98.7277 12.5523H99.6998L101.543 10.5021L99.3101 9.91632L98.4343 9.23438L97.2695 10.4059L93.7751 10.4977Z" fill="#1A191C"/>
<path d="M100.379 13.2344L97.3711 14.5021V15.4769L101.255 16.9414L100.379 17.9162L100.962 19.1839L103.388 18.1085H105.428L106.4 19.6692L108.051 18.008L107.662 16.443L106.304 16.9326L106.111 14.9786L106.79 13.807H106.111L105.043 14.489L104.557 14.878L104.85 16.2463L104.075 16.8321L102.91 16.7359L102.617 14.9786L100.379 13.2344Z" fill="#1A191C"/>
<path d="M104.36 10.2051L104.066 11.1799L105.91 12.0586L107.267 11.2761L107.171 10.6903L104.36 10.2051Z" fill="#1A191C"/>
<path d="M105.815 8.54395L104.457 9.03355L104.553 9.7155L107.562 9.51878L107.465 8.83683L105.815 8.54395Z" fill="#1A191C"/>
<path d="M112.319 10.2045L112.127 10.8865L111.641 11.5684V12.5433L113.484 12.2504L115.424 13.9115H116.103V12.2504L114.163 10.0996L112.319 10.2045Z" fill="#1A191C"/>
<path d="M117.273 12.1586L118.049 13.0373L117.37 14.2088L117.856 15.4766L119.993 14.305V13.4264L118.732 11.9619L117.273 12.1586Z" fill="#1A191C"/>
<path d="M120.09 9.91239L120.186 11.473H122.809L123.488 12.0588L123.392 12.7407L121.062 13.0336L122.713 15.2805L124.946 15.6696L128.051 14.3013L123.584 7.56055L122.227 8.43921L122.323 9.61076L120.769 9.02498L120.09 9.91239Z" fill="#1A191C"/>
<path d="M97.4676 20.9502L93.7806 21.925L91.6436 23.7829L91.8363 25.8331L95.7204 27.0047L94.8446 28.9587L92.029 27.2014L91.2539 28.6658L93.0974 29.9335L93.0011 31.9838L95.8168 32.7662L99.2148 32.5695L99.7972 31.4941L102.32 34.3269L104.067 33.7411L104.36 31.787L105.621 32.6657L105.814 30.7117L104.259 29.7368L104.356 23.5862L102.998 22.5108L101.544 24.4648L97.4676 20.9502Z" fill="#1A191C"/>
<path d="M109.311 25.2471L108.05 24.6613L107.371 25.54L108.729 27.6907L108.825 29.7409L111.737 27.9836V25.4438L112.805 24.3684L111.737 23.5859H109.99L109.311 25.2471Z" fill="#1A191C"/>
<path d="M115.525 24.3682L113.484 26.0293L113.97 28.0795H115.232L115.814 27.0042L116.69 27.8828L117.566 27.7866L119.895 25.8326L115.525 24.3682Z" fill="#1A191C"/>
<path d="M115.33 21.1426L114.844 22.1174L116.981 22.8999L117.563 22.0212L115.33 21.1426Z" fill="#1A191C"/>
<path d="M114.066 17.4307L111.929 17.7236L110.668 18.8951L112.998 18.9913L112.319 20.7486L112.805 21.5311L113.484 21.4349L115.134 18.7989L114.066 17.4307Z" fill="#1A191C"/>
<path d="M117.759 16.749L116.594 17.1381L116.786 18.6987L118.726 19.9664L118.823 20.9413L118.24 21.527L118.534 23.4811L126.008 25.9203L128.049 26.6023L130.09 24.845L127.664 22.8909L125.43 23.4767L122.326 23.1838L121.161 22.0123L120.868 18.7905L118.928 17.8157L117.759 16.749Z" fill="#1A191C"/>
<path d="M123.872 26.9086L121.735 26.7119L119.213 27.6867L117.855 29.5402L118.245 34.6199L122.418 34.8166L126.399 36.7706L129.214 39.9924L131.351 39.8962L130.769 42.9213L128.829 46.143L126.692 47.1179L125.138 46.825L124.363 46.143L123.198 47.7036L123.684 49.2643L125.335 49.3604L127.375 48.3856L129.122 52.8795L133.493 55.7122L136.501 51.9046L133.979 47.8042L135.437 46.143L137.478 49.5615L141.165 46.3398L140.486 44.8753L137.964 45.6578L136.216 40.8711L137.867 38.1389L134.566 34.6242L132.722 35.892L130.975 32.0844L127.288 32.574L126.316 27.984L123.307 30.0342L123.014 32.574H121.363L121.556 30.3271L123.872 26.9086Z" fill="#1A191C"/>
<path d="M128.24 28.665L127.465 29.4475L128.144 30.5229L131.349 30.912L129.308 28.7612L128.24 28.665Z" fill="#1A191C"/>
<path d="M125.137 17.628V18.5066L123 18.9962L123.582 19.9711L126.008 20.9459L128.728 21.2388L130.668 22.6071L132.607 21.5317L131.25 20.1634H132.997L134.066 18.9919L136.689 18.6028V18.017L135.23 17.0422L135.423 15.9668L139.5 16.6488L145.521 14.3057L143.288 13.6237L143.87 12.8412H148.529L149.304 12.0587L139.885 8.73643L137.652 7.95394L135.226 9.71127L132.507 7.46434L131.048 7.36816L130.755 9.22603L128.912 7.56488L126.775 8.24683L127.164 9.32221L130.37 10.0042L130.177 11.5648L131.924 12.6401L136.198 11.5648L136.294 13.0292L132.8 14.6904L130.663 13.0292L128.723 13.2259L130.663 15.9624L129.691 16.4521L128.233 15.1843L127.164 15.8663L128.136 17.7198H129.787L129.398 19.4771L128.04 19.2804L126.293 17.4225L125.137 17.628Z" fill="#1A191C"/>
<path d="M116.486 44.5078L114.633 46.8334L114.52 49.3951L116.14 48.464H118.106L119.494 49.7448L120.768 48.6957L116.486 44.5078Z" fill="#1A191C"/>
<path d="M139.039 74.7578L134.41 79.1817L134.874 80.2309L140.541 82.3248L141.351 80.9303L140.887 78.6047L139.034 78.8364L137.992 77.6736L139.726 75.9294L139.039 74.7578Z" fill="#1A191C"/>
<path d="M69.2855 21.2559L70.1569 22.5717L70.5948 24.329L72.7755 24.8754L74.3038 23.2318L75.6131 23.8918L79.322 24.2197L81.9406 23.1225L82.3785 26.742H83.9068V25.2077L85.435 25.3169L89.2535 29.8152L91.7626 31.3496L90.4533 33.4347L91.0007 33.9812L95.9007 34.9691L96.0102 37.1636L97.3195 37.3822L97.6479 34.0905L99.7192 33.544L101.247 35.8478L104.518 37.3822L106.156 37.71L107.247 36.3942L107.356 34.309L109.318 33.1025L109.97 34.8598L108.223 37.933L108.442 39.4673L109.423 37.933L111.385 36.1756L111.494 33.8719L110.404 32.1146L110.732 30.6895L113.351 29.3737L114.551 30.2523L114.77 37.933L116.622 36.2893L117.712 36.9494L116.184 39.581L118.146 40.0182L120.983 35.6292L123.383 38.1515L122.402 42.6498L120.002 43.9656L117.712 42.8683L113.57 43.747L114.008 45.1721L112.917 46.9294L109.537 47.6988L105.718 50.6626L102.338 55.1609L101.9 56.586L104.19 57.4646L105.061 59.6591L108.223 62.8415L113.241 65.036L112.151 70.0807L112.042 71.5057L113.351 72.3844L115.098 70.0807L115.317 65.6917L118.045 65.5824L119.354 63.0601L119.573 59.222L123.063 52.42L127.425 53.9544L129.715 57.1368L128.734 60.3192L130.481 61.3071L134.733 58.4526L135.933 66.2425L139.861 70.9593L139.97 73.3724L135.609 74.4696L133.538 76.6641L129.176 75.6761L126.996 75.5668L123.177 78.5307L125.467 77.9842L128.305 77.4378L128.852 78.0979L128.09 80.5109L128.2 82.7054L129.509 83.5841L130.818 83.2562L131.475 82.2683H132.347L130.928 84.8999L128.2 85.0092L127 86.7665H125.472L125.034 85.4507L127.215 83.2562L124.596 84.1349L124.478 80.406L123.725 79.9689L121.434 80.9568L121.215 82.8234H115.978L111.507 85.8966L105.508 87.8725L104.856 86.9938L107.877 82.4912L106.161 80.8432L105.07 78.7536L102.85 77.0619L100.468 76.8652L96.1985 73.8794L65.235 68.7998L64.7226 66.7059L61.8851 64.0743V61.8798L62.323 59.9039L62.104 58.8067L61.0137 57.7094L60.7947 55.9521L63.6323 53.9762L61.8851 44.5426L59.4854 44.4333L57.3047 41.5788L69.2855 21.2559Z" fill="#1A191C"/>
<path d="M65.1416 69.2021L64.7037 70.9595L63.1754 69.9715H62.4135L61.9756 71.8381L56.6289 83.7984L58.0477 94.22L59.7949 95.0987L60.1233 97.9532H63.7228L67.2128 100.585L74.0834 101.245L74.8453 104.755L75.9357 105.525L77.4639 103.99L78.6638 104.537L79.7541 109.581L81.6064 110.788L83.1347 107.933L87.8245 104.532L90.8766 105.957L93.4953 106.176L93.6047 104.532L99.0565 104.642L100.147 105.848L100.366 108.589L99.7134 110.123L100.475 112.755H102.113L103.751 110.233L103.098 109.026L102.446 106.395L103.427 103.431L107.898 99.5925L111.278 98.6046L110.84 95.4221L115.53 90.3731L120.22 89.6037L119.458 86.9765L124.038 84.3449V80.8346L123.601 80.616L121.963 81.1625L121.744 83.3132L116.301 83.3788L112.036 86.2071L105.34 88.3928L104.272 87.0858L107.311 82.4957L105.809 81.0663L104.789 79.1254L102.674 77.4292L100.375 77.2369L96.0307 74.2774L65.1416 69.2021Z" fill="#1A191C"/>
<path d="M58.6038 56.1182L57.8594 57.5433L58.1177 58.5531L58.6038 58.8547L58.4899 59.2656L57.9688 59.4142L58.1177 60.9137L58.6782 61.4776L59.1249 60.9923L58.5644 59.5323L58.8972 58.3695L59.716 57.281L59.1205 56.2712L58.6038 56.1182Z" fill="#1A191C"/>
<path d="M61.0645 64.6602L60.3945 64.9224L61.625 66.3475L61.9228 68.0349L63.1533 69.3464L64.1955 69.1584V67.436L62.9299 66.6492L61.0645 64.6602Z" fill="#1A191C"/>
<path d="M85.3359 127.421L87.9327 129.319L90.5513 126.071L90.1046 125.397L89.2113 125.367V123.465L88.5413 123.059L86.5139 123.662L87.2889 125.445L85.3359 127.421Z" fill="#1A191C"/>
<path d="M90.8859 126.223L94.932 126.07L96.1319 127.495L95.3831 127.325L93.9424 127.386L92.0594 129.152L91.2537 130.94L90.7239 130.66L90.7195 128.702L89.5547 127.924L90.8859 126.223Z" fill="#1A191C"/>
<path d="M88.3008 129.497L90.3589 130.52L90.3282 128.898L89.2729 128.256L88.3008 129.497Z" fill="#1A191C"/>
<path d="M95.3483 127.679L96.3073 127.871L96.3379 129.834L95.2213 133.016L92.2129 132.719L91.543 131.185L92.4363 129.322L94.1309 127.749L95.3483 127.679Z" fill="#1A191C"/>
<path d="M95.1889 133.305L95.7975 134.494L96.2924 135.15L95.6268 137.122L94.3569 136.23L92.2812 134.333V133.078L95.1889 133.305Z" fill="#1A191C"/>
<path d="M96.5964 135.329L95.957 137.322L98.0677 137.869L99.377 138.127L99.6003 136.583L101.006 135.875L102.254 136.518L102.744 137.3L103.34 137.23L103.808 135.81L102.25 135.167L101.067 134.524L99.8849 135.329L98.4793 136.037L97.043 135.46L96.5964 135.329Z" fill="#1A191C"/>
<path d="M111.106 131.032L110.204 130.94L104.24 135.85L103.609 137.576L102.795 137.668L103.158 141.484L101.078 146.577L103.338 148.487L106.232 148.671L108.22 151.582L111.11 151.674L111.018 153.856H112.1L113.273 149.856L112.188 148.492L112.459 145.948L114.719 145.764L114.447 139.854L109.385 138.219L108.211 135.036L111.106 131.032Z" fill="#1A191C"/>
<path d="M109.673 133.716L109.866 134.848L111.289 135.298L111.613 133.213L113.115 131.661L114.617 133.418L118.072 134.358L120.997 133.746L122.99 136.199L124.492 137.139L122.845 139.643L123.397 141.541L122.456 142.703L121.479 143.521L119.364 142.459L118.878 142.948V144.461L120.424 145.195L119.285 146.424L118.147 147.652L116.645 147.53L115.134 145.873L114.814 139.639L109.656 137.882L108.719 135.141L109.673 133.716Z" fill="#1A191C"/>
<path d="M124.823 137.305L127.985 140.164L126.728 141.615L126.627 142.476L128.278 144.177L128.239 145.812L125.366 146.904L123.645 144.583L124.013 141.794L123.277 139.718L124.823 137.305Z" fill="#1A191C"/>
<path d="M128.358 140.369L129.252 141.187L130.635 140.33L131.897 140.369L131.734 140.859L131.205 141.961L131.121 144.702L128.604 145.724L128.726 143.967L127.102 142.455L127.185 141.676L128.358 140.369Z" fill="#1A191C"/>
<path d="M132.301 140.658L134.862 142.254L133.523 144.912L133.036 145.524L131.613 144.706L131.653 141.843L132.301 140.658Z" fill="#1A191C"/>
<path d="M100.804 146.8L98.7329 148.085L98.584 149.991L98.168 150.616L99.4729 151.866L98.908 152.483L99.0394 154.056L101.373 154.612L104.907 150.437L104.898 148.981L103.204 148.872L100.804 146.8Z" fill="#1A191C"/>
<path d="M98.5409 152.776L97.6914 153.632L97.7483 155.001L105.166 168.5L112.869 173.457L114.06 171.464L114.345 167.079L113.723 164.347L111.625 160.815L110.377 161.213L109.812 161.838L107.321 158.987L107.943 155.626L110.833 153.746L110.605 151.98L107.662 151.866L106.134 149.305L105.284 149.021L105.341 150.559L101.549 155.057L98.7161 154.376L98.5409 152.776Z" fill="#1A191C"/>
<path d="M113.289 162.948L116.893 161.379L118.084 161.493L118.877 164.797L124.368 166.62L125.274 169.414L127.538 169.698L128.502 172.089L127.823 174.253L124.14 174.537L122.783 178.012L119.893 177.955L118.986 177.785L117.318 179.402L116.494 179.324L113.661 172.771L114.445 171.599L114.721 166.966L114.02 164.207L113.289 162.948Z" fill="#1A191C"/>
<path d="M127.761 174.629L128.724 175.678L128.61 177.899L131.386 177.728L133.484 180.408L133.313 182.799L131.956 184.849L129.179 184.963L129.065 183.822L129.858 181.942L127.139 180.233H124.875L123.176 178.41L124.411 174.887L127.761 174.629Z" fill="#1A191C"/>
<path d="M131.527 188.801L130.629 189.758L131.001 194.908L133.821 195.725L137.408 192.136L131.527 188.801Z" fill="#1A191C"/>
<path d="M133.762 182.799L134.612 183.594L131.384 188.381L130.25 189.636L130.644 195.104L133.136 198.125L131.043 201.771L129.458 202.453H127.645L128.153 205.298L125.32 206.269L125.998 208.66L124.299 214.072L126.397 215.781L125.263 218.57L123.336 221.591L124.356 223.698L121.865 224.096L119.824 221.591L119.482 213.788L116.312 200.534L117.271 195.9L115.23 189.977L116.588 182.287L117.836 180.805L117.529 179.682L119.132 178.222L122.705 178.466L124.702 180.595L127.01 180.635L129.374 182.077L128.678 183.703L128.845 185.347L132.195 185.19L133.762 182.799Z" fill="#1A191C"/>
<path d="M124.819 224.721L122.949 228.821L126.177 229.162L126.233 226.43L124.819 224.721Z" fill="#1A191C"/>
<path d="M126.516 226.771L126.629 229.276L128.556 229.106L130.198 228.022L127.422 227.453L126.516 226.771Z" fill="#1A191C"/>
<path d="M124.184 224.079L122.778 225.63L122.608 227.453L119.888 225.915L116.998 221.757L116.149 220.275L117.34 218.737L117.226 216.8L115.868 216.232L114.791 215.436L115.019 214.352L116.433 213.954L116.718 207.69L114.511 206.435L113.07 173.829L113.443 173.182L116.263 179.673L117.165 179.691L117.458 180.727L116.258 182.178L114.879 189.99L116.841 196.005L115.934 200.56L119.131 213.954L119.468 221.788L121.758 224.433L124.184 224.079Z" fill="#1A191C"/>
<path d="M114.85 207.689L114.285 208.542L114.57 210.024L115.135 210.081L115.419 208.201L114.85 207.689Z" fill="#1A191C"/>
<path d="M137.604 191.826L140.34 186.571L140.441 182.156L145.547 178.869H148.406L150.653 175.07L151.06 167.779L150.14 165.829L155.553 160.898L155.759 155.455L148.406 151.862L139.526 149.091L135.34 148.68L136.465 146.319L136.158 142.726L135.243 142.424L133.89 145.108L133.181 145.996L131.359 145.191L125.233 147.346L123.192 144.78L123.521 142.101L121.594 144.059L119.466 142.914L119.251 143.215L119.256 144.146L121.091 145.13L118.336 148.028L116.598 148.011L114.837 146.223L112.845 146.284L112.6 148.409L113.743 149.794L112.394 154.109L110.818 154.231L108.308 155.814L107.695 158.922L109.872 161.248L110.27 160.797L111.798 160.386L113.103 162.581L116.839 160.981L118.288 161.064L119.286 164.592L124.616 166.279L125.535 169.094L127.803 169.365L128.885 172.054L128.154 174.445L129.108 175.695L128.968 177.557L131.526 177.317L133.868 180.272L133.684 182.349L135.072 183.52L131.744 188.552L137.604 191.826Z" fill="#1A191C"/>
<path d="M89.5766 123.434L89.5547 125.03H89.9225L91.1749 122.695H90.3254L89.5766 123.434Z" fill="#1A191C"/>
<path d="M358.185 31.8655L358.956 34.5234L360.497 34.9649L362.039 32.53L361.159 30.8689L361.487 29.4306H363.799L363.247 30.5366L363.466 34.5234L360.165 42.7155L360.493 44.4859L360.383 47.476L366.545 56.4419L367.753 56.7741L367.863 49.4694L369.071 48.3634L367.749 45.487L368.848 44.2674L366.426 41.0587L365.104 41.168L364.666 35.8567L368.077 34.9693L368.296 33.4174L370.057 32.9759L371.046 33.8633L372.255 28.9935L374.344 25.4526L375.994 24.5652L377.426 24.6745V23.0133L375.114 22.5718L371.922 19.914L373.463 18.1435L372.141 15.1535L373.24 14.0475L374.563 15.8179L377.864 17.0376L381.494 17.3698L381.937 15.8223L380.067 13.9426L382.156 11.0662L377.422 9.405L376.213 11.8399L374.672 9.84652L365.98 6.85645L357.725 8.29465L356.517 8.95912V9.62358L358.277 10.511L358.058 12.6137L354.866 11.2847L347.825 14.0519L346.616 11.5077H341.773L339.57 13.8333L331.758 12.0628L324.607 13.5011L323.727 15.713L324.826 16.0452L324.717 17.7064L317.785 18.4801L318.227 20.6921L311.843 19.5861L313.384 16.7097L306.89 16.3775L307.442 19.3676L305.353 20.3642L303.593 18.7031L296.442 19.9227L293.692 22.4669L293.583 24.0144L291.822 24.1237L291.603 22.3533L297.217 17.4835V14.1611L293.587 13.1645L288.853 14.712L286.874 12.7186H285.994L284.895 14.9305L285.775 15.9272L279.5 19.3588L274.109 23.4549L270.808 27.9924V29.8722L274.328 31.3104L272.568 32.6393L268.828 31.3104L267.287 32.6393L264.975 29.9815L264.533 30.9781L267.064 38.9473L267.725 39.1702L269.485 38.2828L270.365 38.9473V40.3855L268.715 39.7211L267.725 40.4948L268.386 41.933L267.834 45.6968L264.423 46.0291L264.204 44.8094L266.184 43.5898L266.626 40.2675L264.423 37.3911L263.653 32.412L260.132 31.8568L259.803 33.6272L260.465 34.5146L259.033 35.7343L259.584 39.0566L261.673 39.944L262.116 42.3789L260.022 41.05L254.632 40.0533L253.971 41.8237L249.679 43.3712L249.018 42.2652L243.404 45.3646L243.295 47.4673L241.092 47.7995L241.753 46.252V44.7045L239.551 43.9308L238.119 44.4859L239.327 46.8116L240.208 48.3591V49.5787L238.557 49.2465L238.228 48.9142L236.578 50.6847L237.458 52.2322L233.718 52.1229L234.927 53.6747L234.598 54.3392H232.619L231.187 53.3425L230.859 50.5754L228.547 49.688V48.582L233.39 49.5787L236.03 49.8016L237.129 48.1405L236.14 46.37L229.098 43.6029L226.668 44.2062L225.836 44.9187L226.094 46.558L227.128 46.7372L226.887 49.3164L230.075 56.7916L227.771 60.4374L227.614 61.2592L228.783 62.0811L227.728 62.7761L227.027 62.7892L227.158 66.0023L228.126 67.3705L228.139 68.6994L229.379 68.8131L231.275 69.5344L233.28 72.2884L233.302 73.0141L232.65 74.1288L234.147 74.0457L235.605 74.4654L237.576 77.25L242.428 77.6915L242.218 81.0051L240.545 82.4346L240.891 82.9941L239.24 84.7645L238.802 86.4257L239.792 87.8639L242.984 88.9699L244.306 88.1961L252.78 91.4048L253.108 90.5174L251.348 88.8562V86.7536L250.249 86.4213L250.468 84.6509L252.228 82.5482L249.071 80.1876L249.29 76.9047L252.666 74.6883L256.629 74.9113L257.29 76.1309L261.362 76.3539L264.336 74.6927L262.794 73.0316L263.123 69.9322L270.825 66.1684L276.75 68.835L278.729 67.0645L284.562 72.5988L288.963 72.1573L290.504 73.7048L294.686 74.1463L297.436 70.3824L300.957 71.9343L302.827 72.2665L304.696 70.6054L303.046 69.4994L304.477 67.2875L308.55 68.6164L309.43 70.3868L311.19 70.4961L312.289 69.7224L315.263 69.6131L315.591 70.3868L319.002 70.6098L321.315 68.1749L326.048 68.73L327.48 68.1749L327.918 65.517L326.486 62.3084L327.918 61.0887H332.428L336.72 66.1815L342.22 69.2808H343.87L344.089 67.9519L346.069 66.7323L346.288 73.9277L344.527 74.037V75.8074L345.517 77.0271L345.333 78.6095L346.064 78.9112L346.507 77.8052L347.168 78.0281L347.606 78.4696L349.585 78.0281L351.564 72.2709L351.783 65.0755L349.252 59.3183L346.06 55.4452L344.519 55.6681V56.8878L340.779 55.4496L342.211 52.3502L343.419 44.1581L348.482 42.6106L350.903 41.0631H353.544L352.882 41.9505L353.544 43.0565L355.856 40.6216L357.178 40.7309L356.959 39.2927L354.866 38.8511L356.298 33.6491L358.185 31.8655Z" fill="#1A191C"/>
<path d="M293.565 74.3296L292.049 78.1328L289.961 78.0235L287.758 82.8365L289.628 85.2146L285.774 90.5259L283.795 90.1936L282.473 91.8548L282.801 92.8515L284.342 92.9608L285.113 94.7312L286.655 95.0634L291.388 101.153V104.252L293.7 105.69L296.231 105.249L299.424 107.129L303.277 108.235L305.147 108.012L307.24 107.789L311.641 104.912L313.073 105.135L313.62 106.434L314.833 106.796L316.484 109.231L315.385 111.666L316.046 113.327L317.916 113.992L318.244 115.985L320.447 116.208L320.775 115.211L323.968 113.55L325.947 113.66L328.259 116.204L329.8 115.539L330.79 115.649L331.232 116.868L332.003 116.978L333.102 115.43L337.503 113.769L341.466 109.008L342.788 104.471L342.679 101.481L341.028 101.149L342.018 100.043L341.799 98.2721L337.617 94.0667V91.9641L338.825 90.4166L340.034 89.8614L340.143 88.6418H337.061L336.509 90.3029L335.077 89.9707L333.317 88.091L334.416 85.2146L335.957 83.5534L337.389 83.6627L337.17 86.2069L337.941 86.8713L339.811 84.9916L340.472 84.8823L340.253 83.4441L342.013 81.3414L343.336 81.4507L344.106 79.0158L345.008 78.5393L345.1 77.0224L344.225 76.1044L344.15 73.7089L345.836 73.5996L345.727 67.4227L344.544 68.1309L344.102 69.7134L342.127 69.709L336.404 66.496L332.27 61.5213L328.075 61.4775L327.007 62.4043L328.364 65.508L327.891 68.4194L326.201 69.1188L325.251 69.0445L325.181 71.9253L326.17 72.1483L327.931 71.3745L330.243 72.4805V73.5865L328.592 73.6958L327.269 76.5722L326.061 76.6815L321.769 82.325L317.259 84.3184L314.176 84.5413L312.087 83.1031L309.114 84.655L305.922 83.6583L305.151 81.5556L299.761 81.2234L296.901 76.5766H295.693L294.721 74.4214L293.565 74.3296Z" fill="#1A191C"/>
<path d="M295.055 74.3733L297.603 70.9985L300.664 72.4105L302.744 72.9657L305.293 70.6313L303.563 69.3592L304.702 67.7549L308.1 68.9527L309.278 70.8805L311.406 70.9373L312.518 70.1111L314.808 70.0193L315.307 70.8674L319.113 71.0597L321.521 68.6073L324.853 68.957L324.661 72.2968L326.119 72.6291L327.91 71.816L329.806 72.7515L329.762 73.2236L328.387 73.2629L326.955 76.2617L325.843 76.371L321.517 82.0146L317.098 83.9599L314.335 84.1741L312.041 82.6965L309.107 84.2615L306.217 83.3654L305.398 81.2714L299.924 80.8867L297.122 76.1437L295.76 76.0563L295.055 74.3733Z" fill="#1A191C"/>
<path d="M340.806 84.9087L341.611 85.2453L341.856 88.0605L343.455 88.1523L344.961 86.3907L344.44 85.9273L344.501 84.0388L345.885 82.3689L345.18 81.1012L345.64 80.5766L345.894 79.2652L345.092 78.9023L344.409 79.2477L343.564 81.8094L342.198 81.6913L340.617 83.5536L340.806 84.9087Z" fill="#1A191C"/>
<path d="M345.211 86.627L347.917 88.8302L348.377 90.9634L348.285 92.1088L346.963 93.5951L345.824 93.6563L344.533 90.8716L344.042 89.5427L344.563 89.1405L344.441 88.5854L343.797 88.2969L345.211 86.627Z" fill="#1A191C"/>
<path d="M252.53 82.4384L254.325 81.6734L256.331 81.6034L256.471 84.6634H255.297L254.4 86.1235L255.573 88.0688L257.303 89.0436L257.46 90.1584L258.095 89.9485L258.682 89.2535L259.65 89.4633L260.136 90.4381H261.38V89.1879L260.618 86.9628L260.272 85.1574L262.483 84.1826L265.456 84.6678L267.322 86.5432L271.539 86.1279L273.89 89.4633L276.653 89.6032L277.415 88.353L278.383 88.1431L278.523 86.753L279.973 86.6831L280.735 87.5879L281.496 85.7825L288.061 86.6874L289.164 85.2274L287.299 82.9323L289.786 77.5117L291.791 77.6516L293.175 74.3162L290.412 74.0364L288.822 72.5064L284.444 73.0135L278.803 67.571L276.815 69.3327L270.786 66.6006L263.39 70.2158L263.184 72.7862L264.913 74.8014L261.542 76.703L257.167 76.6068L256.252 75.2648L252.823 75.0768L249.574 77.162L249.504 80.0122L252.53 82.4384Z" fill="#1A191C"/>
<path d="M260.042 90.7317L259.77 91.8814H257.953V93.4376L259.906 94.7228L259.302 96.4845V97.2976L260.112 97.4331L261.189 96.0124L263.615 95.4703L268.8 97.4331L268.865 98.8538L271.76 99.1249L274.992 95.737L274.589 94.6529L272.434 94.1807L266.374 90.2508L266.102 88.8301H263.812L262.801 90.7273H261.789L260.042 90.7317Z" fill="#1A191C"/>
<path d="M275.4 95.7454L276.749 95.8154V93.5116L275.47 92.7685L277.624 90.0582H278.5L279.376 91.0767L281.666 90.198L278.5 89.1139L278.378 88.4582L277.624 88.6418L276.884 89.927L273.692 89.8221L271.349 86.5129L267.233 86.9195L265.271 84.9785L262.556 84.5195L260.586 85.3195L261.729 89.1139L261.742 90.3904L262.574 90.4079L263.594 88.467L266.309 88.5019L266.712 89.9926L272.532 93.8482L274.782 94.364L275.4 95.7454Z" fill="#1A191C"/>
<path d="M275.957 92.5898L277.757 90.3604H278.436L278.672 90.8587L277.84 91.462V91.9603L278.387 92.3537L281.019 92.5111L281.877 92.1439L282.267 92.2226L282.53 93.0619L284.093 93.2193L284.877 94.8717L284.64 95.37L284.33 95.3963L284.019 94.7668L283.34 94.7143L282.166 94.8717L282.088 95.9733L280.914 95.8946L280.967 94.5045L280.108 93.6652L278.803 94.7405L278.83 95.4487L277.682 95.8422H277.004L277.056 93.4029L275.957 92.5898Z" fill="#1A191C"/>
<path d="M278.857 87.0678L278.721 88.1738L278.831 88.8558L282.64 90.1322L279.295 91.4786L278.914 91.1639L278.191 91.6273L278.226 91.8808L278.612 92.0557L280.959 92.1169L282.15 91.7584L283.678 89.835L285.592 90.1672L287.9 86.976L281.725 86.1367L280.871 88.2044L279.794 87.0504L278.857 87.0678Z" fill="#1A191C"/>
<path d="M268.922 99.2378L269.618 104.685L271.352 105.065L271.514 106.044L270.271 107.08L272.587 108.947L277.089 107.329L277.448 105.415L280.281 103.649L281.367 99.557L282.177 98.687L281.336 97.227L284.077 95.5352L283.727 95.0456L282.462 95.1243L282.348 96.2871L280.649 96.2696L280.618 94.7178L280.071 94.0664L279.151 94.9014L279.177 95.6664L277.789 96.1909L275.228 96.0292L271.9 99.5089L268.922 99.2378Z" fill="#1A191C"/>
<path d="M272.865 109.201L274.004 110.889L273.894 111.759L272.379 112.357L272.27 113.774H274.004L274.599 113.284H277.901L280.879 115.898L281.259 114.644H283.48L283.532 113.066L281.259 110.889L281.746 109.691L284.075 109.529L287.215 102.994L285.481 101.634L284.833 99.348L289.054 98.9677L286.562 95.4268L285.236 95.0684L284.693 95.7241L284.285 95.7547L281.794 97.3328L282.608 98.6967L281.689 99.6759L280.55 103.868L277.734 105.665L277.353 107.628L272.865 109.201Z" fill="#1A191C"/>
<path d="M293.82 136.816L295.825 135.836L297.016 131.535L296.964 126.254L303.786 118.901V117.157L305.192 116.611L305.139 114.595L303.624 111.653L304.491 110.075L306.387 111.82L308.822 111.929V112.908L308.064 113.725L308.226 114.163L309.527 114.215L309.798 115.684H310.179L311.156 113.94L311.642 109.367L313.267 108.222L313.319 106.644L312.671 105.389L311.642 105.337L307.613 107.994L307.867 109.704L305.038 109.695L304.04 108.475L303.497 108.545L303.681 110.241L297.564 109.804L293.771 108.117L293.57 106.04L291.043 104.475L291.013 101.254L289.279 99.2734L285.294 99.6538L285.727 101.385L287.68 102.963L284.304 109.861L282.045 110.032L281.672 110.862L283.897 112.917L283.787 114.993L281.515 114.958L281.27 115.99L283.157 115.907L283.209 116.724L281.856 117.432L282.723 119.067L284.4 119.614L285.43 118.853L285.916 117.494L286.511 117.223L287.216 117.931L287.002 119.675L286.516 120.492L286.625 121.909L293.82 136.816Z" fill="#1A191C"/>
<path d="M293.91 106.019L294.112 107.885L297.65 109.485L303.321 109.905L303.106 108.537L299.318 107.496L296.104 105.586L293.91 106.019Z" fill="#1A191C"/>
<path d="M304.512 108.432L305.19 109.359L307.485 109.376L307.253 108.108L304.512 108.432Z" fill="#1A191C"/>
<path d="M304.585 110.63L304.012 111.666L305.501 114.49L305.544 116.693L305.816 117.283L307.563 117.314L308.553 116.365L309.271 116.798L309.415 118.14L309.989 117.782L310.024 116.068L309.542 116.011L309.24 114.555L308.023 114.512L307.721 113.703L308.465 112.711L308.478 112.221H306.315L304.585 110.63Z" fill="#1A191C"/>
<path d="M319.418 132.724L318.205 130.783L319.085 129.55L318.253 128.024L317.469 127.876L317.321 125.314L316.147 123.045L315.805 123.587L315.022 124.916L314.041 125.065L313.55 124.422L313.305 122.695L312.569 121.314L309.574 118.495L310.31 118.009L310.446 115.968L311.54 114.132L312.013 109.564L313.598 108.484L313.651 106.818L314.601 107.133L316.099 109.297L314.987 111.675L315.735 113.542L317.588 114.267L317.925 116.3L320.412 116.685L319.725 117.869L316.589 119.102L316.248 121.122L318.551 124.077L318.647 125.655L318.109 126.197L318.157 126.691L319.873 129.205L319.922 131.814L319.418 132.724Z" fill="#1A191C"/>
<path d="M319.677 118.219L321.096 120.042V122.258L321.586 122.503L323.841 121.419L324.284 121.567L326.977 124.671L326.88 126.791L326 126.643L325.216 126.149L324.63 126.197L323.601 127.919L323.798 128.854L324.63 129.296L324.582 130.332L323.995 130.629L321.985 129.248V128.015L321.153 127.967L320.811 128.509L320.636 134.026L321.937 136.395L324.24 138.612L324.144 139.254L322.918 139.206L321.792 137.532H320.614L319.143 136.347L318.701 135.114L319.336 134.078L319.555 133.143L320.246 131.919L320.216 129.104L318.525 126.664L318.455 126.367L319.003 125.816L318.876 123.88L316.625 121.034L316.888 119.395L319.677 118.219Z" fill="#1A191C"/>
<path d="M320.852 137.882L321.732 139.854L321.929 142.415L323.107 144.238L325.949 145.961L327.026 146.061L326.829 144.286L325.896 142.022L324.53 139.124L324.416 139.631L322.77 139.556L321.587 137.86L320.852 137.882Z" fill="#1A191C"/>
<path d="M324.252 130.896L326.043 132.806L329.375 130.341L329.669 126.45L327.948 127.635L327.054 127.137L325.841 126.975L325.163 126.498L324.834 126.516L323.945 127.971L324.09 128.645L324.992 129.147L324.882 130.516L324.252 130.896Z" fill="#1A191C"/>
<path d="M322.057 114.923L320.997 115.461L320.117 118.022L321.589 119.893L321.343 121.961L321.589 122.061L324.036 120.877L327.321 124.54L327.242 126.848L327.956 127.233L329.72 125.803L329.576 124.671L324.483 119.841L324.531 119.102L325.166 118.66L324.724 117.428L322.618 117.082L322.057 114.923Z" fill="#1A191C"/>
<path d="M326.259 133.074L326.78 133.891L326.876 134.826L328.247 134.975L329.911 132.759L331.478 132.317L332.31 130.053L331.921 126.407L330.305 124.191L328.601 122.831L326.434 119.115L327.988 116.519L325.764 113.97L323.982 113.892L322.379 114.753L322.856 116.812L324.993 117.188L325.567 118.775L324.814 119.264L324.862 119.658L329.876 124.554L330.073 125.992L329.771 130.538L326.259 133.074Z" fill="#1A191C"/>
<path d="M243.234 89.2324L244.666 91.099L246.453 91.9208L247.552 91.9165L249.439 91.405L249.912 90.6662L244.329 88.5811L243.234 89.2324Z" fill="#1A191C"/>
<path d="M249.477 91.7373L251.579 94.4738L250.962 95.1951L249.473 94.9372L247.625 93.2848L247.726 92.2007L249.477 91.7373Z" fill="#1A191C"/>
<path d="M250.216 90.7881L249.773 91.54L251.836 94.2415L252.554 94.0098L253.736 95.247L254.249 93.0787L255.532 93.2842L255.479 92.6634L253.369 90.8187L252.966 91.9028L250.216 90.7881Z" fill="#1A191C"/>
<path d="M249.448 95.2606L248.914 95.8158L248.967 96.6944L249.632 97.6256L251.992 100.205L251.633 101.236H251.222L251.016 102.268L252.352 103.973L253.582 104.078L256.047 107.483L257.431 107.588L258.508 108.362L258.561 109.909L262.822 112.388H264.411L265.388 111.562L266.618 111.509L267.336 113.162L271.939 113.8L272.074 112.113L273.598 111.562L273.668 110.958L272.455 109.306L269.753 107.138L271.172 105.848L271.072 105.28L269.294 105.005L268.541 99.0157L268.453 97.6387L263.632 95.7983L261.495 96.2791L260.299 97.7436L259.24 97.6736L258.933 97.9316L256.573 97.7786L253.595 95.6103L252.487 94.3994L251.979 94.5218L251.064 95.5666L249.448 95.2606Z" fill="#1A191C"/>
<path d="M244.652 91.4309L243.675 92.4626L240.085 92.3577L237.93 91.0681L235.828 91.0156L233.415 92.7205L231.156 92.8254L230.95 94.115H228.384L227.359 95.0461V95.5619L227.977 96.0778V96.6461L227.718 97.3193L227.977 97.8876L228.8 97.4766L229.623 98.3553L229.417 98.976L229.111 99.3913L229.571 99.9072L231.83 100.371L233.42 99.6973V98.7181L234.191 98.8711L236.038 99.9553L238.04 99.6449L238.911 98.8187L239.476 99.0241V99.9553H240.247L240.912 98.6657L246.762 98.0449L249.315 97.7346L248.641 96.8515L248.628 95.6581L249.14 95.0461L247.275 93.5511L247.376 92.2615H246.351L244.652 91.4309Z" fill="#1A191C"/>
<path d="M250.473 126.42L251.103 128.291V130.118L252.618 131.491L263.294 127.15L263.395 125.956L261.683 122.888L257.387 124.256L254.922 126.678L252.062 124.99L250.473 126.42Z" fill="#1A191C"/>
<path d="M262.027 122.752L265.263 120.89L265.837 118.158L265.128 117.751L265.421 114.822L266.038 114.464L266.7 115.5L270.636 117.554V118.695L265.868 125.703L263.674 125.777L262.027 122.752Z" fill="#1A191C"/>
<path d="M260.113 115.802L260.494 117.323L264.812 117.703L265.114 114.582L265.946 114.127L266.174 112.986L264.812 113.367L263.297 115.653L260.113 115.802Z" fill="#1A191C"/>
<path d="M259.509 113.214L259.281 114.967L259.956 115.479L260.569 115.422L260.796 113.214L260.267 112.834L259.509 113.214Z" fill="#1A191C"/>
<path d="M255.418 108.033L254.433 107.5L253.75 108.186L253.824 109.559L255.414 110.167L255.418 108.033Z" fill="#1A191C"/>
<path d="M255.731 110.688L258.801 114.959L259.79 115.745L260.233 117.66L264.958 118.032L265.492 118.311L264.962 120.672L261.857 122.499L257.316 123.872L254.895 126.233L252.018 124.558L250.275 126.08L247.849 122.123L246.185 121.363L245.581 120.449V118.469L239.525 111.16L239.297 109.866H241.04L243.159 108.039L243.234 107.125L242.629 106.517L243.842 105.529L246.417 105.682L250.809 109.337L253.401 109.219L253.568 109.857L255.731 110.688Z" fill="#1A191C"/>
<path d="M239.384 100.147L239.23 101.258L240.465 101.773L240.413 104.851L241.648 104.825L242.882 103.894L243.347 103.815L246.149 101.59L246.714 98.3594L241.113 98.9277L240.522 100.222L239.384 100.147Z" fill="#1A191C"/>
<path d="M247.11 98.3551L246.426 101.726L243.598 104.077L243.777 105.188L246.54 105.376L250.941 108.952L253.402 108.882L253.468 108.055L254.37 107.089L255.631 107.802L255.797 107.644L253.358 104.405L252.202 104.335L250.665 102.364L250.972 100.912L251.44 100.851L251.602 100.209L249.509 98.0098L247.11 98.3551Z" fill="#1A191C"/>
<path d="M240.36 105.24L239.283 108.991L239.234 109.563H240.929L242.825 107.893L242.873 107.26L242.098 106.468L243.486 105.319L243.285 104.252L242.904 104.339L241.748 105.166L240.36 105.24Z" fill="#1A191C"/>
<path d="M239.177 101.595L239.203 102.447L238.844 103.741L240.079 103.846L240.157 102.01L239.177 101.595Z" fill="#1A191C"/>
<path d="M238.793 104.051L238.102 106.25L238.999 108.886L240.028 105.034V104.208L238.793 104.051Z" fill="#1A191C"/>
<path d="M237.869 100.458L238.408 100.847L236.74 102.425L235.943 102.399L235.352 101.984L235.43 101.21L236.639 101.131L237.869 100.458Z" fill="#1A191C"/>
<path d="M225.716 44.6346L226.601 43.9877L226.522 43.262L225.962 42.9385L226.04 42.0511H226.522V41.5659L224.433 41.002L221.302 41.3254L220.983 42.6981L220.26 42.4576L219.778 41.6489L218.25 41.7276L218.088 43.262L217.366 43.5855L216.963 42.7768L213.749 45.3603L214.392 46.086L213.188 46.6499L210.456 52.0617L209.492 52.7087L209.571 53.1939L210.535 53.6792L210.294 54.7283L208.687 54.6453L208.205 54.0814L207.163 55.2922L206.519 55.7775L206.357 56.9097L205.796 57.2332L204.351 57.5567L203.629 59.8211L204.111 63.5368L204.671 65.2329L205.315 65.8799L206.76 65.8012L208.849 63.7816L209.65 62.409L209.891 64.4286L211.257 62.0068L211.336 55.2179L212.448 54.5185L212.781 50.7722L216.153 45.9242L217.76 45.3603L218.482 44.4729L220.891 45.0368L222.095 45.7625L222.498 43.7429L224.508 42.532L225.716 44.6346Z" fill="#1A191C"/>
<path d="M195.354 65.1543L194.552 66.3652L194.872 66.8504H196.72V67.6591L196.238 68.3061L196.558 70.0022L197.6 72.0218L198.401 73.8797L199.685 74.3649L200.245 75.3354L200.166 76.2228L199.365 76.708L199.286 77.1102L199.847 77.4337L199.365 78.0807L198.239 78.5659L196.072 78.3255L192.696 79.8599L191.57 79.2959L194.784 77.4381L194.382 77.1976L192.696 77.0359L193.738 75.5015L193.9 74.2076L195.266 74.0458L195.025 71.541L193.418 71.4623L192.937 70.8984L193.015 69.0405L192.052 69.1192L193.015 65.8887L194.784 64.5947L195.354 65.1543Z" fill="#1A191C"/>
<path d="M191.981 70.5703L190.536 70.7321L190.457 72.026L191.42 72.673L192.463 72.4326L192.865 71.7069L191.981 70.5703Z" fill="#1A191C"/>
<path d="M192.461 72.7908L192.062 75.4137L188.528 76.7076H187.403L186.602 76.1437V75.6585L188.371 74.5262L187.889 73.5558L187.968 72.1831L189.496 72.2618L190.197 70.6182L190.105 72.0782L191.291 73.0181L192.461 72.7908Z" fill="#1A191C"/>
<path d="M217.948 45.7012L218.806 46.4924H220.413L221.298 48.1885L221.538 51.0955L219.371 52.6299V54.1643L217.843 56.267L216.958 56.3457L215.754 58.3653L215.833 60.3062L217.921 61.8406L217.759 62.728L216.958 63.9389L215.754 64.988L215.833 68.4633L213.985 69.1103L213.341 70.483H212.456L211.975 68.0612L209.965 64.9837L211.616 62.2253L211.73 55.4102L212.868 54.7851L213.144 50.8857L216.389 46.2476L217.948 45.7012Z" fill="#1A191C"/>
<path d="M221.92 51.1046L222.826 51.5024L223.387 52.5516L222.826 53.2773L220.015 56.346L219.533 57.9635L220.177 60.3066L222.345 61.924L225.235 60.5514L227.564 60.2279L229.732 56.7526L228.125 52.9538L226.597 49.3167L226.837 46.9736L225.874 46.8119L225.624 45.1026L224.328 42.9912L222.892 43.9835L222.327 46.2873L220.803 45.3737L218.684 44.8578L218.211 45.4086L219.025 46.143L220.51 46.1168L221.705 48.0446L221.92 51.1046Z" fill="#1A191C"/>
<path d="M226.859 66.1552L223.859 65.6699L223.925 67.3442L226.706 69.0403L227.844 68.7081L227.779 67.4316L226.859 66.1552Z" fill="#1A191C"/>
<path d="M221.909 64.5248L221.23 64.5029L220.836 64.9007L221.121 65.3204L221.799 65.3641L222.15 64.857L221.909 64.5248Z" fill="#1A191C"/>
<path d="M221.843 66.3078L221.186 66.2422L220.004 67.6542V68.3143L220.398 68.4673L221.164 68.4891L222.434 67.4531L222.609 67.099L221.843 66.3078Z" fill="#1A191C"/>
<path d="M223.681 67.6107L222.739 67.5889L221.448 68.8216H220.353L220.419 70.3647L219.762 71.5756L222.126 71.5975L222.805 71.5101L223.484 72.3275L225.038 72.262L226.527 70.3691L226.44 69.2457L223.681 67.6107Z" fill="#1A191C"/>
<path d="M223.617 72.6769L224.274 73.7567L224.011 74.6178L224.055 75.2998L224.296 76.1172L225.653 75.3479L227.339 75.3916L228.522 75.8768H231.521L232.397 73.7829L232.922 72.9916V72.4627L231.039 69.818L229.376 69.1579L228.018 69.0049L226.836 69.3808L226.879 70.5699L225.237 72.6419L223.617 72.6769Z" fill="#1A191C"/>
<path d="M223.967 76.3804L224.339 77.0624L224.426 77.788L224.12 78.4918L223.419 79.8382L222.828 80.1049L222.062 79.7727L221.602 79.7945L220.485 80.2142L219.215 79.8382L217.157 78.3826L215.143 77.3028L214.333 76.0701L214.18 73.163L215.756 71.7948L217.814 71.1128L218.581 71.0254L218.274 71.6418L218.471 71.8822L221.935 71.9478L222.679 71.9259L223.905 73.8013L223.599 74.5706L223.73 75.4755L223.967 76.3804Z" fill="#1A191C"/>
<path d="M196.334 89.5989H190.755L189.63 89.0918L189.087 89.1311L188.43 90.495L188.662 91.8983L190.794 92.095L191.066 92.9911L190.137 98.215L190.177 99.1505L191.688 99.968L193.43 100.086L196.916 99.2292L198.619 97.0872L198.659 94.9058L201.68 92.178L201.834 90.9715L199.084 90.9322L196.334 89.5989Z" fill="#1A191C"/>
<path d="M188.703 92.3271L188.431 96.1085L187.656 96.8079L187.735 97.2363L188.278 98.1324L187.928 99.2253L188.51 99.422L189.868 99.2646L189.789 98.1718L190.678 93.1053L190.485 92.4058L188.703 92.3271Z" fill="#1A191C"/>
<path d="M201.915 94.9365L201.219 95.1726L201.372 95.7977H202.379L202.804 95.33L201.915 94.9365Z" fill="#1A191C"/>
<path d="M209.121 93.2627L207.961 93.8485L208.114 96.1085L209.043 96.2659L209.739 95.6014V93.4594L209.121 93.2627Z" fill="#1A191C"/>
<path d="M209.237 90.4561L208.384 91.3129L208.305 92.091L209.001 92.5194L209.272 92.48L209.426 91.3478L209.237 90.4561Z" fill="#1A191C"/>
<path d="M201.607 78.1025L200.64 78.3386L198.704 80.4413L198.122 80.4806L197.347 79.9342L196.843 80.0522L196.458 81.2587L193.629 81.3374L193.708 81.9625L195.643 83.2477L197.89 85.04L197.85 87.1821L196.65 89.2847L199.247 90.5306L201.883 90.6093L202.698 89.6738L204.362 89.7131L204.826 90.1415L206.49 90.0235L207.344 88.9306L206.258 87.6454L206.179 86.828L206.411 85.9318L205.868 85.1537L204.94 85.4247L204.821 84.7253L206.875 82.4653V81.1014L205.518 80.3232L204.821 80.2052L201.607 78.1025Z" fill="#1A191C"/>
<path d="M205.852 73.543L203.868 74.5178L204.288 74.8981L204.332 75.873L203.912 75.7899L203.448 75.0686L202.34 76.8216L204.043 77.1756L204.678 77.8445L205.015 77.8532L205.239 76.3407L206.312 75.8904L205.852 73.543Z" fill="#1A191C"/>
<path d="M202.136 77.1494L201.855 77.8488L204.868 79.8335L205.735 80.0389L205.766 79.0991L205.008 78.251H204.544L203.909 77.5297L202.136 77.1494Z" fill="#1A191C"/>
<path d="M206.311 73.3721L207.874 73.1185V72.0169L209.184 71.8027L209.902 72.524L210.659 72.6071L211.842 72.0956L212.897 72.3929L213.825 73.1972L213.952 76.2092L214.881 77.4419L213.659 77.6124L211.632 78.8845L211.802 79.3085L213.615 81.0047L213.488 81.8527L211.802 82.7008L210.239 82.7445L209.858 83.5488H209.057L208.676 82.7008L207.283 82.3598L207.239 80.9609L206.057 80.1566L206.184 79.138L205.383 78.0364L205.593 76.5939L206.688 76.0824L206.311 73.3721Z" fill="#1A191C"/>
<path d="M208.774 66.2119L206.956 68.2184L206.891 69.5255L207.718 71.6806L209.014 71.4358L208.852 69.6741L209.746 68.6774L209.728 67.8949L209.098 66.2644L208.774 66.2119Z" fill="#1A191C"/>
<path d="M210.82 69.7704L210.413 69.7529L209.879 70.2425L209.945 71.0075L211.21 71.0425L211.276 70.177L210.82 69.7704Z" fill="#1A191C"/>
<path d="M218.287 65.6309L217.363 66.3609L217.827 67.4319L218.646 66.6363L218.287 65.6309Z" fill="#1A191C"/>
<path d="M207.085 82.7715L205.176 84.7998L205.215 85.0053L205.999 84.7605L206.704 85.7397L207.895 85.32L208.718 85.9583L209.056 85.7659L210.071 84.1747L209.813 83.9299L208.81 83.9037L208.324 82.9114L207.085 82.7715Z" fill="#1A191C"/>
<path d="M213.881 80.7992H215.182H215.821L216.859 81.538L218.781 79.9424L216.916 78.6135L215.068 77.7217L213.802 77.949L212.086 79.0506L213.881 80.7992Z" fill="#1A191C"/>
<path d="M217.125 81.7876L217.427 82.0543L217.467 82.5089L220.808 82.4346L223.277 81.3723L223.238 80.2926L222.765 80.5024L222.086 80.1396L221.67 80.1221L220.576 80.5592L219.087 80.2008L217.125 81.7876Z" fill="#1A191C"/>
<path d="M210.464 83.0945L210.18 83.6847L210.425 84.1043L211.445 83.8945H212.312L213.254 84.6901L215.255 84.3273L216.726 83.453L217.103 82.8628L217.046 82.1022L215.723 81.1143L213.95 81.1317L213.801 82.1372L211.936 83.0464L210.464 83.0945Z" fill="#1A191C"/>
<path d="M217.52 82.8669L217.012 83.6625L217.051 84.8778L217.861 85.2931L220.353 85.3674L223.825 82.4473L223.843 81.8003L223.466 81.6123L220.957 82.7489L217.52 82.8669Z" fill="#1A191C"/>
<path d="M216.672 83.9121L215.56 84.5766L213.484 85.0312L213.9 86.229L215.354 86.2465L216.694 85.1274L216.672 83.9121Z" fill="#1A191C"/>
<path d="M217.028 85.2979L215.483 86.5699H213.915L213.727 87.6715L214.445 87.8595L214.804 87.3262L215.369 87.8202L215.82 89.3939L218.916 90.8365L219.222 90.4868L216.082 87.2519L216.402 86.6617L219.384 86.5481L219.686 85.5995L217.742 85.6563L217.028 85.2979Z" fill="#1A191C"/>
<path d="M216.67 86.9504L216.508 87.217L219.446 90.2421L220.523 88.6596L220.484 88.0345L219.542 86.8936L216.67 86.9504Z" fill="#1A191C"/>
<path d="M206.803 86.0935L206.531 86.7798L206.606 87.5273L207.652 88.747L209.299 88.6901L212.933 92.9042L215.202 93.5599L216.542 94.8233L216.861 97.7041L217.579 97.2844L218.201 95.7151L218.048 94.5872L219.112 94.4911L219.265 93.8528L216.266 92.419L213.419 89.6256L212.285 87.9557L212.009 86.3689L213.459 86.0236L213.087 84.9788L212.198 84.2313L211.431 84.1963L210.363 84.4892L209.356 85.8968L208.747 86.299L207.806 85.7219L206.803 86.0935Z" fill="#1A191C"/>
<path d="M215.638 97.4767L215.004 97.1357L212.836 97.4767L212.91 98.0625L214.859 99.0417L215.152 99.3608L215.665 99.4351L215.638 97.4767Z" fill="#1A191C"/>
<path d="M215.712 100.733L214.98 100.882L215.007 101.691L215.664 101.909L215.957 101.665L215.712 100.733Z" fill="#1A191C"/>
<path d="M225.765 75.676L224.495 76.3886L224.81 77.735L223.637 80.2048L223.645 81.2933L224.197 81.6431L227.735 81.8179L228.725 81.0005L229.785 81.3545L231.304 83.3785L230.192 85.3719L231.514 85.7566L233.244 83.7676L234.234 83.9468L235.153 84.585L234.343 85.6517L235.438 87.3566H236.603L237.203 86.22L238.438 85.9708L238.473 85.0484L236.178 84.6943L236.248 83.702H238.473L240.872 81.7829L241.932 80.8606L242.107 77.9492L237.378 77.5251L235.438 74.793L234.098 74.334L232.473 74.4039L231.742 76.2093L228.414 76.2531L227.333 75.7547L225.765 75.676Z" fill="#1A191C"/>
<path d="M228.035 82.0408L229.393 84.1259L229.279 85.3062L229.765 85.3281L230.917 83.3828L229.533 81.6692L228.749 81.3457L228.035 82.0408Z" fill="#1A191C"/>
<path d="M224.282 81.9932L224.168 82.6401L221.633 84.7472L223.752 87.8509L225.11 88.7995H227.553L228.359 88.1263L229.44 87.9864L230.246 88.4717L231.674 86.8499L231.398 86.0368L229.948 85.6652L228.959 85.6171L229.007 84.227L227.693 82.1637L224.282 81.9932Z" fill="#1A191C"/>
<path d="M221.096 90.5815L221.076 90.1726L220.498 89.3623L219.562 90.6831L219.746 91.2381L220.508 91.3781L221.096 90.5815Z" fill="#1A191C"/>
<path d="M221.38 85.0264L220.482 85.7H220.044L219.746 86.6264L220.806 87.855L220.876 88.83L220.726 89.0409L221.443 90.0459L221.468 90.5786L221.983 91.0772L223.665 90.5658L223.525 88.1786L221.38 85.0264Z" fill="#1A191C"/>
<path d="M223.957 88.4581L224.027 90.6351L224.763 92.1651L227.526 92.2132L228.769 91.3346L229.991 90.8493L229.693 89.4592L229.969 88.7161L229.348 88.3926L228.494 88.4625L227.824 89.1357L225.012 89.1576L223.957 88.4581Z" fill="#1A191C"/>
<path d="M220.707 91.68V93.6952L221.285 94.7837L221.701 94.7356L222.415 93.4373L221.999 92.8559L221.837 91.4177L221.285 90.9062L220.707 91.68Z" fill="#1A191C"/>
<path d="M223.73 90.915L222.254 91.4003L222.324 92.6505L222.67 93.092L224.421 92.2789L223.73 90.915Z" fill="#1A191C"/>
<path d="M221.884 95.1074L221.836 95.6888L223.863 96.7073L224.831 97.0789L224.323 97.6122L223.193 97.7259L223.031 98.2373L223.421 99.116L224.687 99.7892L225.238 99.8373L225.308 98.3291L226.136 97.3324L223.877 94.6658L224.174 93.761L224.704 93.7391L225.51 94.3861L226.018 94.1325L226.18 93.2276L228.553 93.2495L228.645 91.8594L227.656 92.5544L224.752 92.4845L222.865 93.4593L221.884 95.1074Z" fill="#1A191C"/>
<path d="M229.027 91.6538L228.957 93.2057L230.315 92.7904L230.936 92.3751L230.752 91.7019L230.109 91.1904L229.027 91.6538Z" fill="#1A191C"/>
<path d="M226.287 100.786L227.001 100.808L227.299 101.25H228.336L229.028 100.996L229.26 101.276L228.801 101.879L226.773 101.949L226.405 101.464L226.016 101.232L226.287 100.786Z" fill="#1A191C"/>
<path fill-rule="evenodd" clip-rule="evenodd" d="M256.215 136.013L256.868 136.084L256.215 136.013Z" fill="white"/>
<path d="M255.557 136.764C255.552 136.732 255.547 136.691 255.548 136.646C255.549 136.609 255.555 136.568 255.567 136.524C255.578 136.483 255.594 136.44 255.617 136.395C255.639 136.35 255.666 136.303 255.7 136.254C255.734 136.206 255.773 136.156 255.817 136.103C255.868 136.043 255.922 135.984 255.982 135.919L256 135.9C256.016 135.883 256.02 135.867 256.02 135.853C256.02 135.848 256.019 135.844 256.019 135.84C256.017 135.833 256.015 135.826 256.014 135.823C256.012 135.817 256.013 135.819 256.013 135.823C256.013 135.827 256.012 135.834 256.005 135.843C256.005 135.843 256.007 135.841 256.01 135.836C256.016 135.831 256.022 135.825 256.029 135.818C256.043 135.806 256.056 135.793 256.071 135.78C256.091 135.762 256.112 135.744 256.133 135.726C256.148 135.714 256.163 135.701 256.178 135.689C256.187 135.681 256.196 135.675 256.204 135.668C256.21 135.664 256.214 135.661 256.217 135.659C256.343 135.591 256.423 135.548 256.551 135.479C256.557 135.476 256.563 135.473 256.567 135.469C256.584 135.456 256.592 135.444 256.594 135.44C256.601 135.428 256.603 135.418 256.604 135.412C256.608 135.4 256.609 135.391 256.61 135.384C256.611 135.379 256.611 135.38 256.611 135.381C256.61 135.383 256.61 135.385 256.607 135.388C256.606 135.39 256.604 135.392 256.601 135.395C256.592 135.404 256.584 135.408 256.584 135.408C256.581 135.41 256.584 135.408 256.59 135.405C256.599 135.402 256.619 135.393 256.634 135.386C256.644 135.382 256.659 135.374 256.674 135.364C256.681 135.359 256.696 135.348 256.705 135.332C256.709 135.326 256.71 135.324 256.71 135.324C256.716 135.313 256.722 135.303 256.729 135.293C256.736 135.282 256.745 135.272 256.756 135.262C256.769 135.247 256.786 135.233 256.804 135.217C256.819 135.203 256.835 135.19 256.851 135.175C256.854 135.172 256.858 135.169 256.862 135.166C256.86 135.168 256.861 135.167 256.867 135.163C256.872 135.16 256.879 135.156 256.888 135.152C256.901 135.146 256.914 135.14 256.929 135.133C256.957 135.12 256.986 135.108 257.018 135.094C257.031 135.088 257.044 135.083 257.058 135.076C257.068 135.072 257.082 135.065 257.096 135.058C257.1 135.056 257.112 135.049 257.123 135.04C257.133 135.03 257.137 135.026 257.137 135.026C257.147 135.013 257.152 135.002 257.155 134.994C257.16 134.983 257.162 134.973 257.165 134.964C257.167 134.951 257.169 134.938 257.169 134.927C257.171 134.91 257.171 134.893 257.17 134.877C257.169 134.855 257.168 134.832 257.165 134.811C257.162 134.782 257.158 134.754 257.155 134.727C257.152 134.713 257.151 134.701 257.149 134.688C257.148 134.681 257.148 134.675 257.146 134.669C257.146 134.666 257.146 134.663 257.146 134.663C257.149 134.641 257.152 134.62 257.158 134.599C257.165 134.573 257.173 134.548 257.183 134.522C257.198 134.48 257.215 134.439 257.234 134.397C257.243 134.374 257.254 134.351 257.264 134.327C257.289 134.266 257.319 134.206 257.352 134.146C257.391 134.074 257.436 134.002 257.481 133.931C257.54 133.837 257.602 133.743 257.66 133.648C257.7 133.581 257.738 133.514 257.771 133.446C257.801 133.385 257.827 133.323 257.847 133.261C257.856 133.237 257.862 133.214 257.868 133.191C257.873 133.174 257.88 133.155 257.888 133.136C257.902 133.106 257.917 133.077 257.933 133.045C257.944 133.023 257.954 133.001 257.962 132.978C257.967 132.964 257.969 132.951 257.972 132.941C257.975 132.921 257.976 132.902 257.976 132.884C257.977 132.861 257.977 132.838 257.976 132.816C257.975 132.781 257.973 132.747 257.97 132.714C257.967 132.668 257.961 132.622 257.955 132.578C257.948 132.525 257.94 132.472 257.931 132.421C257.923 132.376 257.914 132.332 257.903 132.289C257.896 132.258 257.888 132.227 257.879 132.196C257.872 132.172 257.864 132.149 257.855 132.126C257.848 132.107 257.84 132.087 257.83 132.068C257.824 132.056 257.815 132.042 257.804 132.029C257.798 132.021 257.789 132.011 257.775 132C257.769 131.996 257.763 131.992 257.755 131.988C257.728 131.973 257.691 131.965 257.653 131.965C257.614 131.965 257.578 131.973 257.551 131.988C257.523 132.002 257.508 132.022 257.508 132.043C257.508 132.063 257.523 132.083 257.55 132.098C257.546 132.095 257.543 132.093 257.541 132.092C257.537 132.089 257.536 132.087 257.539 132.091C257.542 132.095 257.546 132.101 257.551 132.11C257.558 132.124 257.565 132.139 257.571 132.157C257.578 132.177 257.586 132.198 257.592 132.22C257.601 132.249 257.609 132.278 257.616 132.309C257.625 132.35 257.634 132.392 257.642 132.436C257.652 132.486 257.659 132.537 257.666 132.589C257.672 132.632 257.677 132.676 257.681 132.721C257.683 132.753 257.685 132.785 257.687 132.818C257.687 132.839 257.687 132.86 257.687 132.881C257.686 132.897 257.686 132.913 257.683 132.928C257.682 132.936 257.681 132.942 257.678 132.947C257.671 132.966 257.663 132.985 257.653 133.005C257.639 133.033 257.621 133.068 257.607 133.1C257.598 133.121 257.588 133.145 257.582 133.169C257.576 133.19 257.57 133.212 257.563 133.233C257.543 133.29 257.519 133.348 257.491 133.406C257.46 133.47 257.423 133.535 257.384 133.6C257.328 133.693 257.268 133.784 257.207 133.88C257.161 133.952 257.115 134.026 257.074 134.101C257.04 134.164 257.008 134.228 256.981 134.293C256.971 134.316 256.962 134.338 256.952 134.361C256.934 134.403 256.915 134.447 256.899 134.491C256.888 134.519 256.879 134.548 256.871 134.578C256.865 134.602 256.861 134.627 256.858 134.653C256.856 134.661 256.857 134.67 256.857 134.675C256.858 134.683 256.858 134.691 256.86 134.698C256.861 134.712 256.863 134.726 256.865 134.739C256.869 134.766 256.874 134.793 256.876 134.819C256.878 134.84 256.88 134.86 256.881 134.88C256.881 134.894 256.881 134.907 256.88 134.921C256.88 134.93 256.879 134.938 256.877 134.946C256.876 134.952 256.874 134.956 256.873 134.96C256.872 134.963 256.871 134.965 256.872 134.963C256.871 134.965 256.872 134.963 256.878 134.958C256.887 134.95 256.891 134.948 256.889 134.949C256.886 134.95 256.882 134.953 256.871 134.957C256.861 134.962 256.849 134.967 256.837 134.973C256.808 134.985 256.775 134.999 256.744 135.013C256.727 135.021 256.71 135.029 256.692 135.038C256.68 135.043 256.668 135.05 256.655 135.057C256.644 135.063 256.63 135.072 256.616 135.084C256.61 135.088 256.608 135.091 256.605 135.094C256.589 135.107 256.573 135.121 256.557 135.135C256.538 135.152 256.518 135.17 256.499 135.19C256.485 135.204 256.472 135.219 256.46 135.235C256.449 135.251 256.439 135.267 256.431 135.284C256.43 135.287 256.428 135.288 256.43 135.287C256.438 135.274 256.446 135.269 256.446 135.269C256.449 135.267 256.449 135.266 256.444 135.269C256.434 135.274 256.427 135.276 256.409 135.284C256.402 135.287 256.388 135.293 256.375 135.3C256.37 135.303 256.355 135.312 256.343 135.324C256.341 135.327 256.338 135.33 256.336 135.333C256.333 135.338 256.33 135.342 256.33 135.344C256.325 135.354 256.324 135.362 256.323 135.365C256.321 135.376 256.32 135.384 256.318 135.39C256.317 135.395 256.317 135.395 256.317 135.394C256.317 135.394 256.32 135.387 256.333 135.378C256.337 135.374 256.342 135.372 256.347 135.369C256.247 135.423 256.111 135.496 256.011 135.55C256.007 135.552 256.001 135.555 255.995 135.559C255.985 135.566 255.976 135.573 255.969 135.577C255.958 135.586 255.947 135.595 255.937 135.602C255.92 135.616 255.904 135.63 255.889 135.643C255.866 135.662 255.844 135.681 255.824 135.7C255.808 135.713 255.793 135.727 255.779 135.741C255.771 135.748 255.763 135.755 255.756 135.763C255.752 135.767 255.745 135.773 255.74 135.78C255.727 135.796 255.724 135.81 255.724 135.82C255.723 135.835 255.728 135.849 255.729 135.852C255.731 135.856 255.731 135.857 255.731 135.856C255.731 135.856 255.73 135.855 255.73 135.853C255.73 135.848 255.731 135.84 255.741 135.829C255.742 135.828 255.721 135.851 255.722 135.85C255.662 135.914 255.606 135.976 255.553 136.038C255.507 136.093 255.465 136.147 255.429 136.2C255.392 136.253 255.361 136.304 255.337 136.354C255.311 136.406 255.293 136.454 255.281 136.501C255.267 136.552 255.26 136.599 255.258 136.642C255.256 136.695 255.262 136.742 255.269 136.78C255.273 136.8 255.292 136.819 255.322 136.832C255.352 136.844 255.39 136.85 255.427 136.848C255.465 136.846 255.5 136.836 255.524 136.82C255.548 136.804 255.56 136.784 255.556 136.764L255.557 136.764Z" fill="white"/>
<g clip-path="url(#clip1_1575_802)">
<path d="M306 86.3232L303.137 99.937L306 113.499L313.447 102.654C314.613 100.949 315.303 98.8297 315.303 96.5336C315.304 90.8946 311.138 86.3232 306 86.3232Z" fill="#BC0B12"/>
<path d="M296.695 96.5336C296.695 98.8297 297.386 100.949 298.552 102.654L305.999 113.499V86.3232C300.861 86.3232 296.695 90.8946 296.695 96.5336Z" fill="#EA1B26"/>
<path d="M306.009 90.3252L303.121 96.5348L306.009 102.745C309.119 102.745 311.64 99.9644 311.64 96.5349C311.64 93.1054 309.119 90.3252 306.009 90.3252Z" fill="#1A191C"/>
<path d="M300.363 96.5339C300.363 99.9635 302.887 102.744 306.001 102.744V90.3242C302.887 90.3242 300.363 93.1044 300.363 96.5339Z" fill="#1A191C"/>
</g>
<g clip-path="url(#clip2_1575_802)">
<path d="M197 49.3232L194.137 62.937L197 76.4986L204.447 65.6543C205.613 63.9487 206.303 61.8297 206.303 59.5336C206.304 53.8946 202.138 49.3232 197 49.3232Z" fill="#BC0B12"/>
<path d="M187.695 59.5336C187.695 61.8297 188.386 63.9487 189.552 65.6542L196.999 76.4986V49.3232C191.861 49.3232 187.695 53.8946 187.695 59.5336Z" fill="#EA1B26"/>
<path d="M197.009 53.3252L194.121 59.5348L197.009 65.7445C200.119 65.7445 202.64 62.9644 202.64 59.5349C202.64 56.1054 200.119 53.3252 197.009 53.3252Z" fill="#55474A"/>
<path d="M191.363 59.5339C191.363 62.9635 193.887 65.7436 197.001 65.7436V53.3242C193.887 53.3242 191.363 56.1044 191.363 59.5339Z" fill="#55474A"/>
</g>
</g>
<defs>
<clipPath id="clip0_1575_802">
<rect x="0.5" width="416" height="271" rx="10" fill="white"/>
</clipPath>
<clipPath id="clip1_1575_802">
<rect width="20" height="28" fill="white" transform="translate(296 86)"/>
</clipPath>
<clipPath id="clip2_1575_802">
<rect width="20" height="28" fill="white" transform="translate(187 49)"/>
</clipPath>
</defs>
</svg>
