<svg width="32" height="32" viewBox="0 0 32 32" fill="none" xmlns="http://www.w3.org/2000/svg">
<path d="M31.7576 25.4617C31.7576 26.3277 31.0554 27.0299 30.1894 27.0299H17.5682C16.7022 27.0299 16 26.3277 16 25.4617C16 24.5956 16.7022 23.8935 17.5682 23.8935H30.1894C31.0554 23.8935 31.7576 24.5956 31.7576 25.4617Z" fill="white"/>
<path d="M31.7573 16.0007C31.7573 16.8668 31.0552 17.5688 30.1891 17.5688H1.81037C0.944282 17.5688 0.242188 16.8668 0.242188 16.0007C0.242188 15.1346 0.944282 14.4326 1.81037 14.4326H30.1891C31.0552 14.4326 31.7573 15.1346 31.7573 16.0007Z" fill="white"/>
<path d="M30.1877 8.1061C31.0538 8.1061 31.7559 7.40399 31.7559 6.53791C31.7559 5.67182 31.0538 4.96973 30.1877 4.96973H11.2635C10.3974 4.96973 9.69531 5.67182 9.69531 6.53791C9.69531 7.40399 10.3974 8.1061 11.2635 8.1061H30.1877Z" fill="white"/>
</svg>
