<svg width="40" height="40" viewBox="0 0 40 40" fill="none" xmlns="http://www.w3.org/2000/svg">
<path d="M20 40C31.0457 40 40 31.0457 40 20C40 8.9543 31.0457 0 20 0C8.9543 0 0 8.9543 0 20C0 31.0457 8.9543 40 20 40Z" fill="white"/>
<path d="M26.2 21.1464C25.4 21.1464 24.6 21.1407 23.6 21.1407C23.4 21.1407 20.9942 21.1464 20.9942 21.1464C20.9942 21.1464 21 23.4634 21 24.5745C21 25.1805 21 31.1396 21 33.16H16.135C16.135 31.342 16.135 27.0116 16.135 27.0116C16.135 27.0116 16.135 21.3714 16.135 21.1465C16.135 21.1465 14 21.1465 13 21.1465C13 21.1465 13 19.1207 13 18.4137C13 17.8077 13 17.2036 13 16.5976C13 16.5976 15.4842 16.5976 16.201 16.5976C16.201 16.5976 16.201 14.1066 16.201 13.0402C16.201 11.9738 16.3952 11.0593 16.8188 10.0872C17.1818 9.25407 18.3528 7.89558 20.1528 7.49157C20.8527 7.39057 21.9183 7.00003 26.0845 7L26.002 11.3489C24.802 11.3489 23.4 11.2425 22.1 12.1515C21.4 12.6565 21.151 13.0642 21.151 13.9732C21.151 14.4782 21.151 16.5975 21.151 16.5975C21.8357 16.5994 22.5782 16.5975 23.3702 16.5975C24.4675 16.5994 26.2 16.5975 26.2 16.5975C26.2 18.0324 26.2 19.955 26.2 21.1464Z" fill="#222326"/>
</svg>
