<svg width="40" height="40" viewBox="0 0 40 40" fill="none" xmlns="http://www.w3.org/2000/svg">
<path d="M20 0C9 0 0 9 0 20C0 31 9 40 20 40C31 40 40 31 40 20C40 9 31 0 20 0ZM13.7 31.2H8.7V13.7H13.7V31.2ZM11.2 12.5C9.8 12.5 8.7 11.4 8.7 10C8.7 8.6 9.8 7.5 11.2 7.5C12.6 7.5 13.7 8.6 13.7 10C13.7 11.4 12.6 12.5 11.2 12.5ZM31.2 31.2H26.2V21.2C26.2 19.6 25.3 18.7 23.7 18.7C22.1 18.7 21.2 19.6 21.2 21.2V31.2H16.2V13.7H21.2V16.2C21.5 15 22.1 13.7 25.6 13.7C30.6 13.7 31.2 17.5 31.2 22.5V31.2Z" fill="white"/>
</svg>
