<svg width="40" height="40" viewBox="0 0 40 40" fill="none" xmlns="http://www.w3.org/2000/svg">
<path d="M20 40C31.0457 40 40 31.0457 40 20C40 8.9543 31.0457 0 20 0C8.9543 0 0 8.9543 0 20C0 31.0457 8.9543 40 20 40Z" fill="white"/>
<path d="M28.9877 14.9158C28.8763 15.045 28.7028 15.2429 28.449 15.4768C28.2836 15.6289 28.0675 15.8121 27.799 16.0019C27.8808 16.9882 27.8874 18.5715 27.3176 20.3822C27.0606 21.2017 26.0635 24.2277 23.0001 26.2952C20.6997 27.8475 18.4271 28.0569 17.4677 28.1338C15.8124 28.2663 14.5386 28.0176 13.9 27.8884C13.9 27.8884 11.9647 27.4926 10.4994 26.5897C10.4077 26.5324 10.3078 26.4637 10.2047 26.3787C10.1277 26.3149 10.0589 26.2511 10 26.1906C10.7892 26.2822 12.1891 26.3312 13.769 25.7555C14.6925 25.4185 15.4031 24.9687 15.9008 24.5925C15.6323 24.5958 13.882 24.5958 12.7899 23.2447C12.3659 22.7196 12.1841 22.17 12.1023 21.7955C12.3495 21.874 12.7326 21.959 13.1993 21.9181C13.435 21.8969 13.6381 21.8478 13.8018 21.7955C13.5398 21.7088 13.178 21.5697 12.7719 21.3457C12.4232 21.1526 11.819 20.819 11.4015 20.2972C10.6746 19.3926 10.7515 18.2248 10.8023 17.7995C11.3688 17.9663 11.9353 18.1332 12.5018 18.2984C12.2038 18.0497 11.3246 17.2548 10.9938 15.8775C10.6435 14.4136 11.1412 13.2441 11.3016 12.9055C11.7224 13.5892 13.0224 15.4948 15.557 16.4811C17.3187 17.1665 18.8839 17.0978 19.7026 17.0013C19.6469 16.7968 19.5863 16.5106 19.57 16.1638C19.5585 15.9283 19.511 14.3482 20.68 13.1525C21.8884 11.9175 23.7451 11.7572 25.0991 12.2839C25.8097 12.5604 26.2976 12.9938 26.5841 13.2981C26.5988 13.303 26.6136 13.3079 26.6316 13.3112C26.7004 13.3259 26.7593 13.3161 26.7986 13.3046C27.4977 13.2048 28.598 12.8057 28.9991 12.2054C28.9991 13.3046 28.2984 13.9033 27.4994 14.6033C27.7515 14.5739 28.0217 14.533 28.3065 14.4741C28.7928 14.3727 29.2267 14.2419 29.6 14.1045C29.546 14.1879 29.4756 14.2942 29.3872 14.4169C29.3413 14.479 29.1989 14.672 28.9877 14.9158Z" fill="#222326"/>
</svg>
